<svg viewBox="0 0 12.48 14.99" xmlns="http://www.w3.org/2000/svg" id="uuid-85fd3685-8bfe-4932-83d7-26eaa7c760ec"><defs><style>.uuid-d4dc6520-a3e0-41af-b0a9-59b872daf827{fill:#82cd50;stroke-width:0px;}</style></defs><path d="M7.68,3.37s-.02.24-.03.29c0-.07.02-.22.03-.29Z" class="uuid-d4dc6520-a3e0-41af-b0a9-59b872daf827"></path><path d="M8.07,2.49l-.06.16c.06-.13.12-.26.19-.38-.04.07-.09.14-.13.22Z" class="uuid-d4dc6520-a3e0-41af-b0a9-59b872daf827"></path><path d="M8.32,2.63c.34-.63-.16.03-.08-.2l.06-.15-.26.51c.07-.07.34-.36.28-.16Z" class="uuid-d4dc6520-a3e0-41af-b0a9-59b872daf827"></path><path d="M7.5,3.93c.17-.22.15-.18.05-.07-.02.02-.03.04-.04.06,0,0,0,0,0,.02Z" class="uuid-d4dc6520-a3e0-41af-b0a9-59b872daf827"></path><path d="M7.51,3.92s-.14.19,0,0h0Z" class="uuid-d4dc6520-a3e0-41af-b0a9-59b872daf827"></path><path d="M7.63,3.81c-.06.06-.12.11-.17.18-.09.1-.18.2-.15.17-.05.06.04-.04.1-.1.06-.07.13-.15.23-.25Z" class="uuid-d4dc6520-a3e0-41af-b0a9-59b872daf827"></path><path d="M8,3.45l-.08.07c-.05.05-.06.07.08-.07Z" class="uuid-d4dc6520-a3e0-41af-b0a9-59b872daf827"></path><path d="M7.76,3.66l.17-.14c.08-.09.23-.26-.06.05.14-.15,0,0-.1.09Z" class="uuid-d4dc6520-a3e0-41af-b0a9-59b872daf827"></path><path d="M7.82,3.57c.09-.12.14-.21.32-.38-.11.04-.4.45-.32.38Z" class="uuid-d4dc6520-a3e0-41af-b0a9-59b872daf827"></path><path d="M8.74,2.01l.07-.2-.16.18c.08-.09-.03.21.09.02Z" class="uuid-d4dc6520-a3e0-41af-b0a9-59b872daf827"></path><path d="M7.41,4.12c.12-.1.31-.26.46-.38l-.15.1c-.07.07-.14.14-.32.29Z" class="uuid-d4dc6520-a3e0-41af-b0a9-59b872daf827"></path><path d="M7.88,3.74l.22-.14s-.1.03-.22.14Z" class="uuid-d4dc6520-a3e0-41af-b0a9-59b872daf827"></path><path d="M8.56,2.88c-.15.11-.29.23-.42.35.14-.12.29-.23.44-.34h-.02Z" class="uuid-d4dc6520-a3e0-41af-b0a9-59b872daf827"></path><polygon points="7.43 4.18 7.14 4.37 7.59 4.09 7.43 4.18" class="uuid-d4dc6520-a3e0-41af-b0a9-59b872daf827"></polygon><path d="M7.51,4.19c-.25.15-.42.25-.58.34.07-.03.28-.13.47-.23-.12.05-.09.03.11-.11Z" class="uuid-d4dc6520-a3e0-41af-b0a9-59b872daf827"></path><path d="M7.71,4.17c-.07.03-.18.08-.3.13.06-.03.15-.07.3-.13Z" class="uuid-d4dc6520-a3e0-41af-b0a9-59b872daf827"></path><path d="M8.08,3.69c-.07.06-.27.2-.34.27l.34-.25s0-.01,0-.02Z" class="uuid-d4dc6520-a3e0-41af-b0a9-59b872daf827"></path><path d="M8.09,3.7h-.01s0,.04,0,.05c0,0,0-.02.01-.05Z" class="uuid-d4dc6520-a3e0-41af-b0a9-59b872daf827"></path><path d="M8.07,3.69h0s.04-.03,0,0Z" class="uuid-d4dc6520-a3e0-41af-b0a9-59b872daf827"></path><path d="M8.37,3.24c.19-.14.44-.24.67-.54-.24.17-.37.33-.67.54Z" class="uuid-d4dc6520-a3e0-41af-b0a9-59b872daf827"></path><path d="M8.5,3.36l.05-.1c-.09.07-.21.18-.31.24l.27-.14Z" class="uuid-d4dc6520-a3e0-41af-b0a9-59b872daf827"></path><polygon points="8.62 3.3 8.5 3.36 8.48 3.4 8.62 3.3" class="uuid-d4dc6520-a3e0-41af-b0a9-59b872daf827"></polygon><path d="M8.04,3.94c.17-.07.2-.06.23-.06.06-.06.09-.11.07-.13-.12.06-.33.17-.31.19Z" class="uuid-d4dc6520-a3e0-41af-b0a9-59b872daf827"></path><path d="M8.1,3.8h.02s.04-.04-.02,0Z" class="uuid-d4dc6520-a3e0-41af-b0a9-59b872daf827"></path><path d="M8.36,4.11s.05-.02.07-.03l-.07.02h0Z" class="uuid-d4dc6520-a3e0-41af-b0a9-59b872daf827"></path><path d="M8.41,3.71c.06-.06-.04-.02-.15.04.04,0,.07,0,.08,0,.05-.03.09-.05.07-.04Z" class="uuid-d4dc6520-a3e0-41af-b0a9-59b872daf827"></path><path d="M7.91,4.13c.08-.04.14-.09.2-.13-.12.07-.3.17-.2.13Z" class="uuid-d4dc6520-a3e0-41af-b0a9-59b872daf827"></path><path d="M8.02,3.86h-.02c-.07.06-.04.04.02,0Z" class="uuid-d4dc6520-a3e0-41af-b0a9-59b872daf827"></path><path d="M8.02,3.86c.06-.03.15-.07.24-.11-.04,0-.08.02-.14.05-.02.02-.06.04-.1.07Z" class="uuid-d4dc6520-a3e0-41af-b0a9-59b872daf827"></path><path d="M11,3.33c-.38.11-.76.13-.39-.11-.31.01-1.49.56-2.17.85.16-.06.31-.12.55-.13.2-.08.43-.32.78-.38.23.03-.1.13-.29.24.45-.2.73-.09,1.42-.32l-.28-.04c.11-.04.29-.05.38-.12Z" class="uuid-d4dc6520-a3e0-41af-b0a9-59b872daf827"></path><path d="M8.44,3.98h-.05c-.05.05-.19.12-.47.26.19-.05.33-.09.45-.13,0-.04.01-.07.02-.11l.06-.02Z" class="uuid-d4dc6520-a3e0-41af-b0a9-59b872daf827"></path><path d="M8.35,3.9c.39-.17.59-.19,1-.42-.06-.07-.35.1-.54.14.14.05-.22.08-.42.25-.07.01-.1.01-.12,0-.04.04-.09.08-.16.13h.02s0-.01,0-.01h0s.08-.04.05-.03h0c.05-.03.1-.05.15-.07-.07.06-.1.05-.15.07l-.06.03h0s.25-.01.25-.01c.05-.04.03-.06-.04-.08Z" class="uuid-d4dc6520-a3e0-41af-b0a9-59b872daf827"></path><path d="M9.8,2.17s-.05.05-.07.07c.05-.02.08-.04.07-.07Z" class="uuid-d4dc6520-a3e0-41af-b0a9-59b872daf827"></path><path d="M9.65,2.39c-.06.03-.2.13-.19.07.08-.11.16-.13.27-.22-.11.05-.29.13-.41.32l.05-.03c-.07.15-.46.52-.51.55.3-.24.51-.42.79-.69Z" class="uuid-d4dc6520-a3e0-41af-b0a9-59b872daf827"></path><path d="M9.16,3.16h.24s.29-.25.29-.25l-.19.12c.04-.11-.19.05-.34.13Z" class="uuid-d4dc6520-a3e0-41af-b0a9-59b872daf827"></path><polygon points="8.17 4.19 7.74 4.34 8.35 4.16 8.17 4.19" class="uuid-d4dc6520-a3e0-41af-b0a9-59b872daf827"></polygon><polygon points="8.25 4.26 7.87 4.37 8.1 4.32 8.25 4.26" class="uuid-d4dc6520-a3e0-41af-b0a9-59b872daf827"></polygon><path d="M3.33,13l-.1.06s.07-.04.1-.06Z" class="uuid-d4dc6520-a3e0-41af-b0a9-59b872daf827"></path><path d="M3.71,13.29l.08-.18c-.06.09-.1.16-.08.18Z" class="uuid-d4dc6520-a3e0-41af-b0a9-59b872daf827"></path><path d="M7.72,6.6c-.29-.24-.7-.65-.38-.33l.31.31c-.05-.07,0-.04.07.01Z" class="uuid-d4dc6520-a3e0-41af-b0a9-59b872daf827"></path><path d="M7.16,11.07s.02.09.03.13c0-.19,0-.37,0-.53,0,.13,0,.29-.02.4Z" class="uuid-d4dc6520-a3e0-41af-b0a9-59b872daf827"></path><path d="M7.27,13.03l-.12-.25c.03.09.07.18.12.25Z" class="uuid-d4dc6520-a3e0-41af-b0a9-59b872daf827"></path><path d="M1.27,11.36l-.37.26c.08.12.2-.1.37-.26Z" class="uuid-d4dc6520-a3e0-41af-b0a9-59b872daf827"></path><path d="M8.46,5.19c-.17,0-.25,0-.27.03.25.02.62.05.27-.03Z" class="uuid-d4dc6520-a3e0-41af-b0a9-59b872daf827"></path><path d="M5.76,7.85c-.06.1-.11.21-.17.34.05-.09.11-.2.17-.34Z" class="uuid-d4dc6520-a3e0-41af-b0a9-59b872daf827"></path><path d="M8.17,5.31s.07,0,.1,0c-.06-.04-.11-.08-.08-.1-.18-.01-.3-.01-.02.09Z" class="uuid-d4dc6520-a3e0-41af-b0a9-59b872daf827"></path><path d="M1.81,1.33s.03,0,.06.01c-.05-.03-.06-.03-.06-.01Z" class="uuid-d4dc6520-a3e0-41af-b0a9-59b872daf827"></path><path d="M6.36,2.8s-.01.04-.02.06c.03.02.04,0,.02-.06Z" class="uuid-d4dc6520-a3e0-41af-b0a9-59b872daf827"></path><path d="M8.14,4.65s-.05,0,0,0h0Z" class="uuid-d4dc6520-a3e0-41af-b0a9-59b872daf827"></path><path d="M9.82,4.29s.11,0,.21-.02c-.1.01-.17.02-.21.02Z" class="uuid-d4dc6520-a3e0-41af-b0a9-59b872daf827"></path><path d="M10.66,6.4h0c.08.02.07.01,0,0Z" class="uuid-d4dc6520-a3e0-41af-b0a9-59b872daf827"></path><path d="M8.33,4.6c-.05.01-.09.03-.12.04.03,0,.07-.02.12-.04Z" class="uuid-d4dc6520-a3e0-41af-b0a9-59b872daf827"></path><path d="M8.13,4.63s.03-.01.04-.02c-.07,0-.12.02-.04.02Z" class="uuid-d4dc6520-a3e0-41af-b0a9-59b872daf827"></path><path d="M8.16,4.67s.01-.02.04-.03c-.03,0-.05.01-.07.01,0,0,.02.01.02.02Z" class="uuid-d4dc6520-a3e0-41af-b0a9-59b872daf827"></path><path d="M1.42,6.31s.02-.01.04-.02c-.18-.04-.15-.01-.04.02Z" class="uuid-d4dc6520-a3e0-41af-b0a9-59b872daf827"></path><path d="M9.88,11.09s0-.02,0-.02h-.02s.02.02.02.02Z" class="uuid-d4dc6520-a3e0-41af-b0a9-59b872daf827"></path><path d="M9.88,11.56c-.2-.58-.13-.55-.02-.5l-.7-1.08c.25.52.49,1.05.71,1.59Z" class="uuid-d4dc6520-a3e0-41af-b0a9-59b872daf827"></path><path d="M2.42,12.33l-.1.46c-.5.43-.5.12-.69.72.78-1.18.6.35,1.29-.86l-.06.33s-.06.04-.07,0c-.16.75.58-.79.67-.46.02.15-.02.37-.13.49l.3-.2c.03.06-.07.27-.11.21l.29.06-.02.04c.12-.18.31-.45.4-.56,0,.22-.08.12-.12.29l.24-.24c-.06.37-.29.63-.37.53-.33,1.37.22-.25.28.65l-.2.1c-.14.79.07.57.13,1.1,0-.26-.02-1.31.25-1.57.02.12.07.19.23-.04-.13.47,0,.39.12.39l-.16.62c.18-.14.24-.46.38-.73.13.09.06.58.02,1,.23.14-.02-.81.29-.88.15.27.34.03.6-.37.1.22-.06.4-.04.58l.17-.52s0,.17,0,.25c.11-.21.07-.65.22-.85.07-.73.23,1.01.43.13.04.18-.02.42-.01.67.24-.62.21-.46.35-1.28l.16.38c-.13-.46-.03-1.13.02-1.71-.05-.29-.1-.54-.12-.66l.08-.57c.03.13.05.44.06.82,0-.08,0-.16,0-.23.08.32.1.74.1,1.15-.03-.12-.06-.26-.09-.39,0,.45,0,.93.03,1.33,0-.09.02-.17.04-.22,0,.12,0,.23,0,.29.01.07.02-.09.03-.29l.11.75-.02-.31c.1.11.2.23.31.34.09-.89.01-2.15.13-2.66.08.61.2.93.36,1.61-.23-.66-.14.46-.32.41.09.02.13.36.13.48.05-.27.1-.56.13-.83.12.55.15.37.27.55-.31-1.04.01-.87.01-1.28.11.35.2.74.04.75.38.68-.19-1.4.13-.82-.03.03-.06,0-.01.18-.04-.37.2-.27.28.06l-.03.03c.24-.05.61-.58.21-1.4.06.1.47.99.54,1.17-.33-1.03-.72-1.99-1.2-2.96.39.73,1.43,2.13,1.5,2.68.1.04.23.08.19-.25-.09-.05-.66-.85-.66-.94.56.59.31.3.86.73-.14-.08-.77-1.1-.69-1.13.09.15.7.92.74,1.05-.17-.38-.34-.75-.54-1.1.09.21.6.77.85.97-.16-.15.17-.18.15-.32l-.25-.11c.32-.12-.92-1.39-.75-1.52.16.18,1,1.05,1.2,1.02-.37-.46-1.95-2.05-2.27-2.39l.28.17c-.08-.1-.17-.2-.26-.3.72.5,2.04,1.81,2.44,2.47.27.07.32.22.4.05.28.13.31.38.28.44l.43-.28c-.55-.38-.36-.69-.85-.97.12.25.23.52.32.79-.53-.41-1.4-1.34-1.2-1.45.26.08.99.67,1.18.79-.17-.16-.24-.47-.09-.4.09.09.17.18.25.28.31-.03-.66-.65-.02-.49.06-.03.85.23.5.04-.73-.25-2.85-1.32-3.35-1.62.05.02.75.14,1.12.24.58.17,1.25.7,1.75.85-.17-.08-.35-.22-.41-.27.17.01.51.26.49.1-.62-.29.15-.22-.51-.28-.13-.19.18-.06.2-.21-.42-.12-1.36-.64-1.52-.79.16.06.38.11.48.14.13-.18.45-.21.51-.41.17.02.38-.04.66.07-.11-.06-.33-.14-.33-.21.6-.02.06.17.77.22-.38-.09-.5-.3-.72-.44-.61-.07-.16.19.06.34-.82-.19-1.65-.52-2.02-.72-.2-.14.55.02.43-.01.18-.25-1.45-.29-.84-.41.54-.07,1.07,0,1.46-.02.2.13-.35.18-.32.26l.26-.09c.18.04.31.14.15.18.49-.05.11-.5.53-.77-.18-.03-.37-.08-.59-.02l.08.06c-.43.1-.6-.06-.8.04-.31-.05-.8-.05-.57-.18l.6-.13c-.18.04-.35.14-.16.13-.27.01.79-.33-.01-.22l-.4.16c-.32-.01-.97.09-.79-.02-.58.19.07,0-.61.22.85-.25,0,.14.89-.11-.79.21-.33.16-1.01.31.2-.03.38-.07.29-.02.06,0,.13-.01.18-.01h-.01s.02,0,.02,0c.03,0,.04,0,0,0,.09-.02.19-.05.3-.07.47-.04.46.07.7.08-.09.05-.23,0-.45.04l.36.03c-.45.04-.74.12-1.01.07v.05c-.27.04-.37.06-.18.09-.1.01.5.08.15.04.09.03.18.06.27.1h-.11c-.05.02.7.35-.12.29.1.06.22.14.08.17l-.38-.1c.11.09-.41,0-.04.16-1-.31-.29.12-.5.13l.46.22c-.06.05.06.16.19.34l.4.2c.28.26-.38.04-.37.11-.14-.1-.1-.09,0-.05-.45-.23-.31-.11-.16.06.15.16.31.38,0,.17.11.13.06.1-.03.04,0,0,0-.01-.02-.02,0,0,0,0,0,0-.06-.05-.13-.1-.19-.15.08.07.15.13.19.15,0,.02.03.08.09.18l-.35-.34h0c-.14-.1.15.2.42.45.05.07.11.15.18.25-.55-.57.13.27-.45-.36.26.34.12.34.63,1.09-.07-.09-.11-.13-.1-.15-.09-.05-.17-.11-.05.14l-.37-.54c.15.26.28.54.42.81-.25-.3-.37-.5-.61-.97.33.76.1.31.39,1.1l-.19-.4s.19.63.02.31c-.21-.35-.28-.32-.36-.26-.08.06-.18.14-.34-.23.35,1.4-.2-.59.04.53-.08-.33-.13-.52-.17-.83,0,.4-.16-.5-.05.53-.05-.37-.07-.54-.1-.75,0,.08.03.33,0,.12-.03-.21-.03-.31-.05-.48-.02.09.09,1.25.19,2.34-.1-.47-.1-.39-.09.37-.05-.35-.09-.71-.05-.88-.04-.02-.19-.42-.18.51-.01-.23-.05-.04-.06.07-.08-.01-.08-.09-.17.03l.02.15c-.09,1.17-.09.29-.18.45v-.12c-.08-.8-.12.43-.17-.52l-.09.73c-.25,1.58-.04-.92-.22-.34l-.04.42c-.19.52.28-2.16.33-2.36.03-.14.06-.21.09-.31.16-.94-.23.94-.36,1.13.12-.51.35-1.28.35-1.39.13-.4-.59,1.56-.34.57-.12.38-.24.76-.37,1.02-.12.08.43-1.46-.08-.37.04-.1.08-.19.11-.28-.16.26-.32.37-.64.91.52-1.09.36-.87.16-.66-.2.21-.42.42.15-.48-.05,0-.1,0-.14-.02l.12-.17c.04-.18-.27.2-.59.55.07-.13.2-.27.26-.35.18-.45.14-.35-.58.26l.43-.48c-.28.21.62-.86.05-.48.05-.04.14-.11.21-.17-.29.17,0-.18.17-.37.17-.19.2-.23-.7.3-.15.06-.31.11-.46.16-.11.25-.79.44-1.07.69-.12-.03.5-.52.62-.48l-.09.06c.95-.5.29-.4.94-.71-.09-.27.44-.68.49-.85l-.75.15.04-.1c.18-.05.59-.1.56-.04.43-.08-.35-.04-.51-.04.32-.14.87-.04.89-.08l-.05-.03-.09.02c-.3,0-.63,0-.58-.07.15-.05.46-.03.49-.05.05,0,.08,0,.02-.02l.07-.08-.59.02c-.29-.06.05-.11-.63-.08,1.04-.02.45-.4.78-.4-.38-.17-.35-.26-.27-.36-.12-.01-.75-.19-.64-.27,1.26.47.6,0,1.54.29-.62-.17-.05-.29-.92-.55.13-.03.46.19.77.27-.41-.4.48-.19.41-.44-.15-.1-.4-.2-.6-.38.27.11.54.24.81.37-.05-.07-.82-.59-.27-.31-.13-.08-.32-.19-.35-.24.47.05.46-.2.55-.42.07-.23.31-.36.92.14-.24-.23-.25-.29-.22-.32-.07-.05-.26-.34-.41-.53.19.14.37.29.54.44-.35-.56.12-.14-.2-.68v.13c-.31-.69-.99-1.32-1.53-2.11.18.39-.07.18-.32.03-.25-.16-.5-.25-.21.31-.17-.12-.16-.27-.32-.42.21.36.21.47-.01.42l-.06-.09c-.24.33-.63.16-1.15.34l.38.28c-.11.03-.24-.05-.36-.09.48.54.21-.18.75.41-.83-.54-.42.48-1.34-.09-.1.12.47.28.38.4l-.27-.14.29.25c-.11.04-.45-.12-.66-.25.04,0-.02-.1-.02-.13-.38-.08-.11.39-.23.36l.23-.04c.04.5-.58.78-.16,1.39l.22.06c.27.42-.32.12-.26.48l-.05-.03c.19.14.27.25.22.32-.22-.16-.53-.01-.77-.21.33.44.28.27,1.02.69l-.37-.05c.31.15.47.2.54.37-.29-.2-.57,0-.95-.25-.87.26.7.66-.51.7.99.25.63-.26.83-.15.35-.03.74.21.62.29-.05.09-1.34.1-1.35.43,0-.03-.07-.03-.06-.06-.27.13.34.22-.1.39.62.03-.05.2.74.14l-.16-.25c.2.16,1.1.17.66.44-.16,0-.37-.03-.49-.06-.23.1.16.11-.08.22-.79.1-.19-.3-.76-.42-.34.13.55.28-.3.29,1.09-.02-.12.36.71.42l-.47.08c.07.02.3.04.29.11l-.61.02c.53.06-.44.48-.14.6-.04-.38.55-.24.89-.49.64.23-1.19.6-.88,1.07-.08-.05.23-.36.46-.33-.08.13-.23.32-.46.48.15.31.45-.24.75-.22-.53.34.25.06.44.1l-.45.21c-.18.49.95-.38.68.08l-.64.2.2.08-.5.24c.42-.02.34.08.26.34.28-.23.77-.46.82-.34-.21.26-.41.21-.27.37-.27.14-.62.3-.28-.04-.14.08-.27.12-.41.2-.25.31.06.33.09.41,0-.04,0-.09.06-.15.23-.03.46-.07.68-.12-.13.16-.26.22-.4.27.07.03.27-.07.34-.01-.32.23-.64.51-.86.49.17.01.33.02.48.02-.13.13-.3.48-.43.54-.08.34.81-.15.7.27.06-.05.13-.08.19-.08.04.25-.16.8.35.57l-.35.7c.23.03.44-.89.8-.85.27-.01-.31.57-.38.81.29-.2.82-.7.65-.05-.12.07-.1-.06-.18-.06ZM4.4,13.41c-.07.08-.25.34-.19.06.22-.51.17-.24.19-.06ZM7.48,11.91c0,.19-.05.13-.11-.05.02-.06.06-.07.11.05ZM8.54,4.83s.01,0,.02,0c-.19.03-.11.02-.02,0ZM8.75,4.75c-.07,0-.13,0-.2,0,.12,0,.14.02.1.04.13,0,.22-.02.1-.04ZM4.76,5.65l-.13.02c-.14-.03-.01-.02.13-.02Z" class="uuid-d4dc6520-a3e0-41af-b0a9-59b872daf827"></path><path d="M7.26,12.8c-.02-.08-.03-.18-.04-.27,0,.09,0,.19.04.27Z" class="uuid-d4dc6520-a3e0-41af-b0a9-59b872daf827"></path><path d="M1.33,11.31s0-.01,0-.01l-.07.06.07-.05Z" class="uuid-d4dc6520-a3e0-41af-b0a9-59b872daf827"></path><path d="M12.17,7.75c-.08,0-.17,0-.26-.03.11.05.2.08.26.03Z" class="uuid-d4dc6520-a3e0-41af-b0a9-59b872daf827"></path><path d="M7.89,4.51h.13s.07-.03.15-.06c-.11.03-.27.07-.28.06Z" class="uuid-d4dc6520-a3e0-41af-b0a9-59b872daf827"></path><path d="M10.55,3.07c-.06.01-.02-.02-.08-.01l-.2.09s.22.02.28-.08Z" class="uuid-d4dc6520-a3e0-41af-b0a9-59b872daf827"></path><path d="M9.44,4.11c.39-.1.25-.12.16-.14,0,0,0,0,0,0-.55.13-.36.13-.17.14Z" class="uuid-d4dc6520-a3e0-41af-b0a9-59b872daf827"></path><path d="M9.59,3.96s-.04-.02-.02-.04c-.22.06-.04.03.02.04Z" class="uuid-d4dc6520-a3e0-41af-b0a9-59b872daf827"></path><path d="M8.47,4.68c.1-.02-.52.03-.35.01-.52.02.63.04.35-.01Z" class="uuid-d4dc6520-a3e0-41af-b0a9-59b872daf827"></path><polygon points="10.73 3.74 10.25 3.89 10.65 3.83 10.73 3.74" class="uuid-d4dc6520-a3e0-41af-b0a9-59b872daf827"></polygon><path d="M10.47,4.32l.12-.12c-.08.01-.13,0-.17,0,0,.06-.1.14.05.12Z" class="uuid-d4dc6520-a3e0-41af-b0a9-59b872daf827"></path><path d="M10.42,4.2s-.01-.06-.09-.06c0,.02.03.05.09.06Z" class="uuid-d4dc6520-a3e0-41af-b0a9-59b872daf827"></path><polygon points="10.91 3.86 10.82 3.91 10.8 3.99 10.91 3.86" class="uuid-d4dc6520-a3e0-41af-b0a9-59b872daf827"></polygon><path d="M10.37,5.36s.09.08.12.13c.17.04.28.03.22-.03-.12-.05-.18-.1-.34-.1Z" class="uuid-d4dc6520-a3e0-41af-b0a9-59b872daf827"></path><path d="M11.77,5.13c-.1.03-.22.03-.38.04l.62.05-.23-.08Z" class="uuid-d4dc6520-a3e0-41af-b0a9-59b872daf827"></path><path d="M11.87,5.57c.17.04.46.3.45.1-.17-.04-.29-.21-.45-.1Z" class="uuid-d4dc6520-a3e0-41af-b0a9-59b872daf827"></path><polygon points="10.54 7.22 10.54 7.19 9.62 6.76 10.54 7.22" class="uuid-d4dc6520-a3e0-41af-b0a9-59b872daf827"></polygon><path d="M11.4,10.39c.32-.02-.42-.49-.07-.44-.15-.21-.28-.04-.4-.23.11.28-.04.24.47.67Z" class="uuid-d4dc6520-a3e0-41af-b0a9-59b872daf827"></path><path d="M10.92,9.72s-.04-.09-.07-.16c.02.07.05.12.07.16Z" class="uuid-d4dc6520-a3e0-41af-b0a9-59b872daf827"></path><polygon points="6.84 3.14 6.99 3.29 6.78 3.02 6.84 3.14" class="uuid-d4dc6520-a3e0-41af-b0a9-59b872daf827"></polygon><path d="M6.52,2.44l.35.55-.27-.52s.01.1-.07-.02Z" class="uuid-d4dc6520-a3e0-41af-b0a9-59b872daf827"></path><path d="M4.39,14.81l.05-.15c.02-.17,0-.19-.06-.24v.39Z" class="uuid-d4dc6520-a3e0-41af-b0a9-59b872daf827"></path><polygon points="2.92 13.5 2.94 13.53 3.16 12.95 2.92 13.5" class="uuid-d4dc6520-a3e0-41af-b0a9-59b872daf827"></polygon><path d="M1.36,13.06c.03.07.16.02.19.1-.16-.03.24-.73-.19-.1Z" class="uuid-d4dc6520-a3e0-41af-b0a9-59b872daf827"></path></svg>