<svg viewBox="0 0 27.25 25.66" xmlns="http://www.w3.org/2000/svg" id="uuid-9529b94e-8678-46ed-9dd0-a50e4630dde3"><defs><style>.uuid-6cc345fd-39a9-4190-9197-c9dc1f2853c3{fill:#82cd50;stroke-width:0px;}</style></defs><path d="M17.05,15.58s.35-.15.42-.17c-.1,0-.52.22-.42.17Z" class="uuid-6cc345fd-39a9-4190-9197-c9dc1f2853c3"></path><polygon points="15.99 15.57 16.15 15.5 15.74 15.62 15.99 15.57" class="uuid-6cc345fd-39a9-4190-9197-c9dc1f2853c3"></polygon><path d="M15.81,15.18c-.62.35.17.09-.02.27l-.14.08.53-.22c-.12-.05-.52.01-.37-.13Z" class="uuid-6cc345fd-39a9-4190-9197-c9dc1f2853c3"></path><path d="M17.09,14.28c-.24.14-.24.06-.05.09.03-.02.04-.03.06-.04,0,0-.01-.02,0-.05Z" class="uuid-6cc345fd-39a9-4190-9197-c9dc1f2853c3"></path><path d="M17.1,14.33s.19-.13,0,0h0Z" class="uuid-6cc345fd-39a9-4190-9197-c9dc1f2853c3"></path><path d="M16.86,14.21l.25-.06c.14-.08.15-.15.26-.19-.15,0-.29.09-.51.24Z" class="uuid-6cc345fd-39a9-4190-9197-c9dc1f2853c3"></path><path d="M16.36,14.39l.11-.02c.06-.04.08-.05-.11.02Z" class="uuid-6cc345fd-39a9-4190-9197-c9dc1f2853c3"></path><path d="M16.7,14.33l-.23.04c-.1.06-.31.16.08,0-.19.09,0,.01.14-.03Z" class="uuid-6cc345fd-39a9-4190-9197-c9dc1f2853c3"></path><path d="M16.62,14.42c-.12.1-.19.18-.44.24.14.06.58-.18.44-.24Z" class="uuid-6cc345fd-39a9-4190-9197-c9dc1f2853c3"></path><path d="M15.14,15.49l-.17.13.23-.07c-.11.04.14-.16-.06-.06Z" class="uuid-6cc345fd-39a9-4190-9197-c9dc1f2853c3"></path><path d="M17.01,13.7c-.14.07-.35.2-.52.3l.18-.04c.08-.07.15-.15.35-.26Z" class="uuid-6cc345fd-39a9-4190-9197-c9dc1f2853c3"></path><path d="M16.49,13.99l-.26.06c0,.07.12.02.26-.06Z" class="uuid-6cc345fd-39a9-4190-9197-c9dc1f2853c3"></path><polygon points="15.65 14.74 16.19 14.59 15.64 14.72 15.65 14.74" class="uuid-6cc345fd-39a9-4190-9197-c9dc1f2853c3"></polygon><polygon points="16.9 13.46 17.23 13.33 16.73 13.51 16.9 13.46" class="uuid-6cc345fd-39a9-4190-9197-c9dc1f2853c3"></polygon><path d="M16.77,13.33c.27-.11.42-.26.59-.32-.07-.02-.31.06-.52.13.13-.02.12.03-.07.19Z" class="uuid-6cc345fd-39a9-4190-9197-c9dc1f2853c3"></path><path d="M16.52,13.24c.07-.02.19-.06.32-.1-.07.01-.16.04-.32.1Z" class="uuid-6cc345fd-39a9-4190-9197-c9dc1f2853c3"></path><path d="M16.24,13.92c.08-.05.29-.17.36-.25l-.37.22v.03Z" class="uuid-6cc345fd-39a9-4190-9197-c9dc1f2853c3"></path><path d="M16.22,13.9h.01s0-.06,0-.07c0,0,0,.03,0,.07Z" class="uuid-6cc345fd-39a9-4190-9197-c9dc1f2853c3"></path><path d="M16.24,13.92h0s-.05.02,0,0Z" class="uuid-6cc345fd-39a9-4190-9197-c9dc1f2853c3"></path><path d="M15.92,14.41c-.23.07-.5.12-.78.35.27-.11.44-.24.78-.35Z" class="uuid-6cc345fd-39a9-4190-9197-c9dc1f2853c3"></path><path d="M15.78,14.2l-.05.11c.1-.05.24-.14.35-.18l-.3.07Z" class="uuid-6cc345fd-39a9-4190-9197-c9dc1f2853c3"></path><polygon points="15.64 14.23 15.78 14.2 15.8 14.16 15.64 14.23" class="uuid-6cc345fd-39a9-4190-9197-c9dc1f2853c3"></polygon><path d="M16.22,13.54c-.18.06-.21.04-.25.02-.06.08-.08.13-.06.17.12-.06.34-.15.31-.19Z" class="uuid-6cc345fd-39a9-4190-9197-c9dc1f2853c3"></path><path d="M16.19,13.73s-.01,0-.02,0c-.03.02-.04.03.02,0Z" class="uuid-6cc345fd-39a9-4190-9197-c9dc1f2853c3"></path><path d="M15.79,13.22s-.04.03-.06.04l.07-.03h0Z" class="uuid-6cc345fd-39a9-4190-9197-c9dc1f2853c3"></path><path d="M15.85,13.77c-.06.07.04.03.17-.01-.05,0-.08,0-.1-.03-.06.03-.09.04-.07.04Z" class="uuid-6cc345fd-39a9-4190-9197-c9dc1f2853c3"></path><path d="M16.29,13.24c-.07.06-.13.11-.18.16.11-.08.28-.21.18-.16Z" class="uuid-6cc345fd-39a9-4190-9197-c9dc1f2853c3"></path><path d="M16.26,13.67h.02c.08-.06.04-.03-.02,0Z" class="uuid-6cc345fd-39a9-4190-9197-c9dc1f2853c3"></path><path d="M16.26,13.67c-.06.01-.16.05-.25.09.04,0,.09,0,.15-.02.03-.02.06-.04.1-.06Z" class="uuid-6cc345fd-39a9-4190-9197-c9dc1f2853c3"></path><path d="M13.33,14.44c.35-.19.71-.29.37-.03.29-.08,1.42-.74,2.03-1.14-.15.08-.29.16-.53.21-.18.12-.37.38-.71.49-.22.02.09-.13.25-.27-.42.27-.69.24-1.31.61l.26-.05c-.1.06-.27.12-.35.19Z" class="uuid-6cc345fd-39a9-4190-9197-c9dc1f2853c3"></path><path d="M15.76,13.4h.06c.04-.06.17-.16.42-.34-.19.05-.33.11-.45.17l.02.15-.06.02Z" class="uuid-6cc345fd-39a9-4190-9197-c9dc1f2853c3"></path><path d="M15.88,13.52c-.39.18-.59.21-.98.47.07.06.35-.12.53-.16-.16-.07.23-.08.4-.28.08-.01.11,0,.13.01.03-.05.08-.1.14-.16l-.02.02h0,0s-.07.05-.05.03h0c-.05.03-.1.05-.15.07.06-.08.1-.06.15-.07l.06-.03h0s-.27-.01-.27-.01c-.04.05-.01.08.06.11Z" class="uuid-6cc345fd-39a9-4190-9197-c9dc1f2853c3"></path><path d="M14.27,15.12s.06-.03.09-.05c-.05.02-.08.03-.09.05Z" class="uuid-6cc345fd-39a9-4190-9197-c9dc1f2853c3"></path><path d="M14.48,14.96c.06-.02.21-.09.19-.04-.1.08-.18.09-.31.16.11-.04.31-.08.46-.23l-.06.02c.11-.11.55-.42.61-.44-.34.19-.58.33-.9.54Z" class="uuid-6cc345fd-39a9-4190-9197-c9dc1f2853c3"></path><path d="M15.08,14.29h-.24s-.3.22-.3.22l.2-.11c-.05.1.19-.04.35-.12Z" class="uuid-6cc345fd-39a9-4190-9197-c9dc1f2853c3"></path><polygon points="15.98 13.11 16.38 12.91 15.79 13.15 15.98 13.11" class="uuid-6cc345fd-39a9-4190-9197-c9dc1f2853c3"></polygon><polygon points="15.86 13 16.21 12.82 15.98 12.9 15.86 13" class="uuid-6cc345fd-39a9-4190-9197-c9dc1f2853c3"></polygon><path d="M7.33,9.07l-.11.05s.07-.03.11-.05Z" class="uuid-6cc345fd-39a9-4190-9197-c9dc1f2853c3"></path><path d="M7.45,9.25l.16-.12c-.09.06-.15.11-.16.12Z" class="uuid-6cc345fd-39a9-4190-9197-c9dc1f2853c3"></path><path d="M13.93,9.87c.28-.24.73-.6.36-.35l-.35.25c.08-.01.06.03,0,.1Z" class="uuid-6cc345fd-39a9-4190-9197-c9dc1f2853c3"></path><path d="M10.4,9.32l-.1.09c.13-.08.24-.15.35-.22-.08.04-.17.08-.26.13Z" class="uuid-6cc345fd-39a9-4190-9197-c9dc1f2853c3"></path><path d="M8.94,10.36l.19-.21c-.07.07-.13.14-.19.21Z" class="uuid-6cc345fd-39a9-4190-9197-c9dc1f2853c3"></path><path d="M6.22,8.44l-.36.26s.19-.12.36-.26Z" class="uuid-6cc345fd-39a9-4190-9197-c9dc1f2853c3"></path><path d="M14.96,11.75c.12-.12.17-.19.17-.23-.19.17-.49.4-.17.23Z" class="uuid-6cc345fd-39a9-4190-9197-c9dc1f2853c3"></path><path d="M10.97,6.25c-.07.03-.15.08-.22.14.07-.03.14-.07.22-.14Z" class="uuid-6cc345fd-39a9-4190-9197-c9dc1f2853c3"></path><path d="M15.07,11.42s-.05.05-.08.07c.08-.01.14-.01.14.03.14-.13.22-.22-.06-.11Z" class="uuid-6cc345fd-39a9-4190-9197-c9dc1f2853c3"></path><path d="M3.5,5.07s.02-.02.03-.04c-.04.04-.04.05-.03.04Z" class="uuid-6cc345fd-39a9-4190-9197-c9dc1f2853c3"></path><path d="M5.47.94s.05,0,.06.01c.01-.03,0-.04-.06-.01Z" class="uuid-6cc345fd-39a9-4190-9197-c9dc1f2853c3"></path><path d="M15.73,12.38s.04-.02,0,0h0Z" class="uuid-6cc345fd-39a9-4190-9197-c9dc1f2853c3"></path><path d="M14.31,13.35s-.1.04-.19.09c.09-.05.15-.08.19-.09Z" class="uuid-6cc345fd-39a9-4190-9197-c9dc1f2853c3"></path><path d="M12.6,12.54h0c-.07.05-.05.04,0,0Z" class="uuid-6cc345fd-39a9-4190-9197-c9dc1f2853c3"></path><path d="M15.58,12.52s.07-.07.09-.1c-.03.02-.06.05-.09.1Z" class="uuid-6cc345fd-39a9-4190-9197-c9dc1f2853c3"></path><path d="M15.76,12.42s-.02.03-.02.05c.06-.03.1-.06.02-.05Z" class="uuid-6cc345fd-39a9-4190-9197-c9dc1f2853c3"></path><path d="M15.69,12.35s0,.04-.01.07c.02-.02.04-.03.06-.04-.01,0-.02-.01-.04-.03Z" class="uuid-6cc345fd-39a9-4190-9197-c9dc1f2853c3"></path><path d="M5.98,5.91s.01-.02.02-.03c-.15.1-.12.09-.02.03Z" class="uuid-6cc345fd-39a9-4190-9197-c9dc1f2853c3"></path><polygon points="9.74 11.71 9.76 11.7 9.77 11.68 9.74 11.71" class="uuid-6cc345fd-39a9-4190-9197-c9dc1f2853c3"></polygon><path d="M9.42,11.8c.47-.27.43-.21.36-.12l1.01-.73-1.37.85Z" class="uuid-6cc345fd-39a9-4190-9197-c9dc1f2853c3"></path><path d="M6.91,8.74l-.26.3c-.55.34-.42.15-.8.56,1.05-.86.28.12,1.33-.73l-.19.22s-.06.03-.06.01c-.45.48.8-.57.73-.35-.05.1-.19.24-.33.32l.32-.14s-.19.18-.19.14l.17.04-.03.02c.18-.12.46-.29.59-.36-.13.15-.12.08-.25.19l.31-.14c-.26.24-.56.41-.56.33-1.02.9.31-.16-.22.45l-.18.05c-.58.52-.32.39-.65.75.19-.17.85-.88,1.17-1.02-.07.08-.08.14.16,0-.38.3-.26.26-.2.29l-.51.39c.18-.07.44-.27.69-.42,0,.09-.39.41-.71.67-.02.15.58-.54.76-.52-.14.22.11.11.48-.04-.14.18-.32.23-.45.36l.44-.26s-.13.11-.19.16c.19-.08.51-.38.7-.43.58-.41-.73.74-.04.34-.13.13-.32.23-.52.38.5-.21.37-.14,1-.48l-.29.32c.35-.34.85-.61,1.28-.82.17-.16.32-.3.39-.36l.35-.1c-.08.07-.26.19-.49.33.05-.02.09-.05.14-.07-.17.17-.48.37-.78.56.09-.09.19-.18.29-.27-.33.21-.69.44-.99.67.06-.04.12-.06.16-.07-.09.06-.17.11-.22.15-.05.04.07-.03.21-.11l-.56.44.23-.16-.27.38c.64-.33,1.56-.87,1.9-.9-.45.27-.7.49-1.21.84.51-.42-.31.05-.25-.1-.03.08-.27.24-.36.29l.58-.22c-.42.29-.29.25-.44.4.8-.61.61-.29.9-.41-.27.2-.56.38-.54.27-.57.51,1.03-.58.55-.14-.02-.01.02-.05-.13.04.27-.13.14.09-.11.24h-.02c-.02.16.22.31.93-.15-.09.06-.86.56-1,.66l2.5-1.42c-.62.39-2.01,1.43-2.42,1.58-.07.08-.15.18.1.09.08-.08.85-.63.92-.65-.63.52-.33.29-.85.76.11-.11,1.08-.72,1.08-.66-.15.09-.94.63-1.05.68l1-.52c-.19.09-.8.52-1.05.72.18-.13.04.1.15.06l.19-.19c-.07.21,1.4-.75,1.43-.6-.2.11-1.22.75-1.3.88.5-.29,2.4-1.39,2.85-1.51l-.26.2.37-.12c-.77.41-2.39,1.26-3.04,1.57-.19.19-.32.22-.25.27-.25.19-.42.22-.44.21l-.07.25c.56-.37.64-.25,1.11-.56l-.69.21c.56-.37,1.67-.94,1.64-.76-.21.17-1.02.62-1.21.74.2-.11.44-.13.3-.04l-.33.15c-.18.19.82-.38.32.04-.02.05-.69.53-.35.33.63-.45,2.63-1.71,3.14-1.99-.04.04-.54.53-.84.76-.49.36-1.26.69-1.68,1,.16-.1.36-.19.43-.22-.12.11-.49.29-.38.3.59-.35.02.15.51-.27.2-.04-.08.13-.02.19.36-.25,1.32-.72,1.52-.76-.15.09-.34.22-.42.28.02.15-.21.38-.15.49-.14.09-.28.25-.54.38.11-.05.32-.15.35-.12-.47.37-.12-.03-.7.38.34-.2.52-.19.76-.27.52-.32.03-.17-.21-.1.73-.43,1.54-.79,1.95-.87.24,0-.45.32-.33.27-.02.25,1.37-.58.93-.13-.43.33-.93.53-1.26.74-.22.02.23-.29.18-.33l-.18.19c-.17.06-.32.08-.2-.02-.39.29.1.35-.21.7.17-.06.36-.11.53-.24h-.09c.35-.26.57-.22.71-.37.3-.09.75-.25.59-.05l-.53.31c.16-.09.29-.23.11-.17.26-.1-.65.53.07.18l.34-.27c.3-.09.92-.33.79-.16.51-.33-.07.02.52-.38-.75.47-.08-.22-.85.31.69-.45.25-.27.82-.68-.18.1-.32.22-.27.1-.05.02-.12.05-.16.07h.01s-.02,0-.02,0c-.03.01-.03.02,0,0-.07.06-.15.12-.25.18-.42.19-.47.09-.69.17.06-.09.21-.1.39-.23l-.34.13c.39-.23.59-.47.87-.51l-.03-.09c.19-.17.24-.29.05-.24.06-.09-.49.15-.16,0h-.31s.1-.04.1-.04c-.02-.16-.79.12-.18-.44-.12.02-.27.04-.2-.09l.33-.21c-.15.02.23-.36-.13-.18.86-.6.03-.38.13-.57l-.43.26c-.02-.08-.18-.07-.4-.04l-.38.24c-.35.13.16-.34.05-.43.15-.08.13-.03.05.04.77-.68-.79.13-.25-.39-.16.06-.12,0-.04-.07,0,0,.01,0,.02,0,0,0,0-.01,0-.02.06-.06.12-.12.17-.17-.08.07-.15.13-.18.17-.02-.02-.09-.02-.21,0l.39-.28s0,0-.02,0c.13-.13-.21.1-.5.31-.08.03-.17.06-.27.12.63-.45-.27.06.39-.43-.35.2-.36,0-1.08.46.09-.06.13-.1.15-.09.06-.09.11-.18-.11-.08l.5-.36-.73.38c.28-.26.44-.4.87-.61-.68.29-.29.06-.95.37l.33-.22s-.51.22-.26.01c.57-.51-.18-.44.26-1.04-.92.71.36-.4-.38.12.22-.17.32-.29.54-.4-.29.06.24-.41-.42-.03.22-.17.34-.22.47-.32-.05.03-.22.11-.09,0,.13-.11.2-.12.31-.17-.11-.08-.81.41-1.46.88.27-.27.21-.27-.24,0,.2-.17.4-.36.52-.36,0-.06.15-.44-.37-.07.12-.11,0-.08-.06-.04-.03-.1.01-.14-.09-.19l-.07.08c-.64.43-.19.04-.31.03l.06-.05c.33-.48-.26.1.14-.42l-.38.3c-.83.62.39-.49.01-.33l-.19.2c-.31.17,1.01-.98,1.08-1.11.06-.06.13-.07.19-.1.39-.49-.51.37-.69.37.25-.23.7-.51.7-.61.19-.2-1,.51-.55.03-.19.18-.38.36-.57.44-.12,0,.64-.78-.05-.32.05-.05.1-.1.15-.14-.2.09-.4.07-.77.33,1.25-1.09-.85.23.32-.74l-.18-.09.12-.1c0-.16-.31.05-.61.25.06-.09.18-.16.25-.21.12-.33.06-.3-.61.08l.37-.33c-.24.16.43-.7-.12-.45.04-.04.12-.1.18-.13-.56.24.73-1.26-.67-.11l-.42.2c0,.21-.6.5-.78.75-.12.03.3-.48.42-.49l-.06.07c.72-.61.12-.37.59-.8-.25-.2-.07-.79-.25-1.03l-.51.53-.04-.1c.1-.14.39-.42.42-.34.27-.31-.34.15-.46.26.11-.31.66-.55.64-.59h-.08s-.05.06-.05.06c-.25.17-.48.39-.52.3.07-.14.31-.33.31-.37.04-.04.05-.06,0-.04l-.05-.14-.38.44c-.25.16-.06-.11-.49.39.67-.77-.08-.6.11-.86-.36.24-.41.18-.44.07-.07.1-.52.57-.52.46.97-.93.3-.52.93-1.26-.41.5-.28-.06-.85.66.03-.13.35-.36.53-.62-.48.25-.04-.5-.31-.53-.12.13-.28.34-.5.5l.52-.71c-.09.03-.73.71-.36.21-.09.11-.24.29-.29.31.28-.92-1.08-.05-.32-1.53-.18.29-.24.29-.28.27-.03.08-.29.32-.44.51l.31-.61c-.46.47-.17-.09-.6.37l.12-.05c-.55.51-1.02,1.31-1.66,2.02.62-.58-.68,1.07.22.25-.11.16-.22.21-.36.39.3-.28.38-.32.31-.14l-.07.07c.22.06.01.42,0,.77l.31-.36c0,.08-.1.2-.17.3.53-.49-.07-.12.5-.67-.61.75.24.25-.48,1.08.05.06.36-.41.41-.36l-.19.23.28-.26c0,.08-.25.37-.42.55.01-.03-.07.03-.1.04-.2.3.21.03.15.13l.07-.18c.34-.06.25.38.8.09l.15-.17c.4-.19-.09.26.16.24l-.04.03c.18-.13.29-.18.31-.13-.21.16-.3.41-.55.58.43-.2.3-.19.97-.7l-.25.28c.27-.21.39-.33.52-.34-.27.17-.36.43-.72.67-.46.69.77-.39-.03.5.79-.66.31-.51.49-.63.21-.26.6-.49.56-.38.02.06-.88.98-.77,1.07,0-.01-.06.04-.07.03-.15.22.33-.17.06.17.47-.4.03.08.61-.45l-.22.03c.2-.09.92-.68.68-.28-.12.1-.3.22-.4.28-.15.19.16-.06,0,.13-.58.54-.23,0-.72.37-.22.26.52-.29-.13.27.83-.71,0,.19.66-.31l-.35.32c.06-.04.25-.17.26-.14l-.48.38c.44-.3-.24.42.02.27-.11-.1.4-.41.61-.7.59-.29-.84.92-.53.92-.07.02.14-.27.33-.39-.05.1-.15.26-.31.44.17.03.35-.35.6-.5-.4.42.22-.11.4-.19l-.36.32c-.12.32.77-.64.59-.29l-.54.4.18-.06-.42.36c.36-.21.3-.12.23.04.24-.24.66-.57.72-.53-.18.23-.36.28-.24.31-.24.18-.54.42-.24.09-.12.1-.24.19-.36.28-.21.26.03.14.06.17,0-.02.01-.05.06-.1l.6-.33c-.12.14-.24.22-.36.3.06-.01.24-.14.3-.14-.3.25-.61.52-.78.6l.42-.18c-.12.12-.31.36-.43.44-.13.21.69-.36.53-.09.06-.05.12-.09.18-.11,0,.13-.32.5.16.24l-.5.5c.18-.04.62-.63.92-.7.24-.07-.43.41-.56.57.3-.19.91-.58.53-.14-.12.06-.06-.03-.12-.01ZM7.82,9.38c-.09.05-.36.21-.15.02.45-.32.25-.15.15-.02ZM9.75,10c-.14.08-.09.01.04-.12.04,0,.04.02-.04.12ZM15.22,12.27s-.01,0-.02,0c.14-.14.08-.09.02,0ZM15.09,12.47c.06-.02.12-.06.18-.1-.11.05-.13.04-.11,0-.11.07-.17.12-.06.1ZM8.11,3.44l-.08.1c-.13.06-.03-.02.08-.1Z" class="uuid-6cc345fd-39a9-4190-9197-c9dc1f2853c3"></path><path d="M9.11,10.24c.06-.05.13-.11.21-.16-.07.04-.15.1-.21.16Z" class="uuid-6cc345fd-39a9-4190-9197-c9dc1f2853c3"></path><polygon points="6.28 8.4 6.29 8.39 6.22 8.44 6.28 8.4" class="uuid-6cc345fd-39a9-4190-9197-c9dc1f2853c3"></polygon><path d="M10.76,13.2c.05-.05.12-.11.19-.16-.1.06-.18.12-.19.16Z" class="uuid-6cc345fd-39a9-4190-9197-c9dc1f2853c3"></path><path d="M16.08,12.57h-.14s-.05.08-.11.13c.1-.06.23-.15.25-.13Z" class="uuid-6cc345fd-39a9-4190-9197-c9dc1f2853c3"></path><path d="M13.74,14.51c.06-.02.02.01.07,0l.2-.11s-.21.03-.27.11Z" class="uuid-6cc345fd-39a9-4190-9197-c9dc1f2853c3"></path><path d="M14.71,13.4c-.35.2-.21.17-.12.18,0,0,0,0,0,0,.5-.26.32-.21.13-.17Z" class="uuid-6cc345fd-39a9-4190-9197-c9dc1f2853c3"></path><path d="M14.6,13.58s.04.01.03.03c.2-.1.03-.04-.03-.03Z" class="uuid-6cc345fd-39a9-4190-9197-c9dc1f2853c3"></path><path d="M15.39,12.45c-.08.07.46-.24.32-.15.46-.23-.62.17-.32.15Z" class="uuid-6cc345fd-39a9-4190-9197-c9dc1f2853c3"></path><polygon points="13.56 14.08 13.99 13.82 13.62 13.99 13.56 14.08" class="uuid-6cc345fd-39a9-4190-9197-c9dc1f2853c3"></polygon><path d="M13.7,13.58l-.09.13c.07-.04.12-.06.16-.07,0-.05.06-.14-.07-.07Z" class="uuid-6cc345fd-39a9-4190-9197-c9dc1f2853c3"></path><path d="M13.77,13.65s.02.04.1.01c-.01,0-.04-.02-.1-.01Z" class="uuid-6cc345fd-39a9-4190-9197-c9dc1f2853c3"></path><polygon points="13.38 14.06 13.46 13.99 13.46 13.93 13.38 14.06" class="uuid-6cc345fd-39a9-4190-9197-c9dc1f2853c3"></polygon><path d="M13.39,12.84h-.16c-.15.08-.23.15-.16.15.11-.04.19-.05.32-.15Z" class="uuid-6cc345fd-39a9-4190-9197-c9dc1f2853c3"></path><path d="M12.33,13.74c.08-.07.18-.13.31-.22l-.54.31.23-.09Z" class="uuid-6cc345fd-39a9-4190-9197-c9dc1f2853c3"></path><path d="M12.08,13.62c-.15.08-.48.15-.4.22.15-.08.31-.08.4-.22Z" class="uuid-6cc345fd-39a9-4190-9197-c9dc1f2853c3"></path><polygon points="12.15 12.2 12.17 12.21 13.03 11.67 12.15 12.2" class="uuid-6cc345fd-39a9-4190-9197-c9dc1f2853c3"></polygon><path d="M9.54,12.65c-.16.21.54-.33.33-.09.21-.11.17-.19.36-.29-.24.09-.14,0-.69.38Z" class="uuid-6cc345fd-39a9-4190-9197-c9dc1f2853c3"></path><path d="M10.23,12.27s.08-.04.14-.06c-.06.02-.11.04-.14.06Z" class="uuid-6cc345fd-39a9-4190-9197-c9dc1f2853c3"></path><polygon points="5.66 .37 5.75 .17 5.56 .46 5.66 .37" class="uuid-6cc345fd-39a9-4190-9197-c9dc1f2853c3"></polygon><path d="M5.07.86l.42-.5-.42.42s.09-.04,0,.08Z" class="uuid-6cc345fd-39a9-4190-9197-c9dc1f2853c3"></path><path d="M6.89,10.31l.13-.09c.13-.11.13-.13.13-.17l-.26.26Z" class="uuid-6cc345fd-39a9-4190-9197-c9dc1f2853c3"></path><polygon points="6.8 9.41 6.79 9.43 7.23 9.04 6.8 9.41" class="uuid-6cc345fd-39a9-4190-9197-c9dc1f2853c3"></polygon><path d="M5.81,9.39s.12-.03.11.01c-.12.02.44-.49-.11-.01Z" class="uuid-6cc345fd-39a9-4190-9197-c9dc1f2853c3"></path><path d="M10.63,16.43s.31.22.37.27c-.05-.09-.46-.33-.37-.27Z" class="uuid-6cc345fd-39a9-4190-9197-c9dc1f2853c3"></path><polygon points="10.06 15.56 10.2 15.65 9.88 15.38 10.06 15.56" class="uuid-6cc345fd-39a9-4190-9197-c9dc1f2853c3"></polygon><path d="M10.27,15.24c-.63-.34.02.18-.23.1l-.14-.08.47.33c-.03-.12-.3-.41-.1-.36Z" class="uuid-6cc345fd-39a9-4190-9197-c9dc1f2853c3"></path><path d="M11.7,15.86c-.24-.13-.18-.16-.1,0,.03.01.04.02.06.03,0,0,0-.02.04-.03Z" class="uuid-6cc345fd-39a9-4190-9197-c9dc1f2853c3"></path><path d="M11.66,15.89s.21.1,0,0h0Z" class="uuid-6cc345fd-39a9-4190-9197-c9dc1f2853c3"></path><path d="M11.63,15.64l.18.18c.15.07.2.05.3.13-.09-.12-.23-.19-.48-.3Z" class="uuid-6cc345fd-39a9-4190-9197-c9dc1f2853c3"></path><path d="M11.2,15.33l.08.08c.06.03.09.04-.08-.08Z" class="uuid-6cc345fd-39a9-4190-9197-c9dc1f2853c3"></path><path d="M11.44,15.57l-.16-.17c-.1-.05-.3-.17.05.07-.18-.11-.01,0,.1.1Z" class="uuid-6cc345fd-39a9-4190-9197-c9dc1f2853c3"></path><path d="M11.33,15.55c-.15-.05-.25-.07-.44-.25.03.14.47.39.44.25Z" class="uuid-6cc345fd-39a9-4190-9197-c9dc1f2853c3"></path><path d="M9.65,14.83l-.2-.08.19.15c-.09-.08.2.04.01-.08Z" class="uuid-6cc345fd-39a9-4190-9197-c9dc1f2853c3"></path><path d="M12.12,15.52c-.13-.08-.36-.19-.53-.28l.13.12c.1.03.2.05.4.16Z" class="uuid-6cc345fd-39a9-4190-9197-c9dc1f2853c3"></path><path d="M11.59,15.24l-.19-.18c-.05.03.05.1.19.18Z" class="uuid-6cc345fd-39a9-4190-9197-c9dc1f2853c3"></path><polygon points="10.53 14.91 10.95 15.28 10.53 14.89 10.53 14.91" class="uuid-6cc345fd-39a9-4190-9197-c9dc1f2853c3"></polygon><polygon points="12.26 15.33 12.54 15.53 12.11 15.21 12.26 15.33" class="uuid-6cc345fd-39a9-4190-9197-c9dc1f2853c3"></polygon><path d="M12.28,15.16c.24.17.45.21.59.32-.02-.06-.22-.22-.4-.36.09.09.04.11-.19.03Z" class="uuid-6cc345fd-39a9-4190-9197-c9dc1f2853c3"></path><path d="M12.21,14.92c.05.05.15.13.26.21-.05-.05-.12-.11-.26-.21Z" class="uuid-6cc345fd-39a9-4190-9197-c9dc1f2853c3"></path><path d="M11.51,15.01c.08.04.29.15.4.17l-.38-.19-.02.02Z" class="uuid-6cc345fd-39a9-4190-9197-c9dc1f2853c3"></path><path d="M11.52,14.98h.01s.04-.02.05-.03c0,0-.02.01-.06.03Z" class="uuid-6cc345fd-39a9-4190-9197-c9dc1f2853c3"></path><path d="M11.51,15.01h0s-.05-.03,0,0Z" class="uuid-6cc345fd-39a9-4190-9197-c9dc1f2853c3"></path><path d="M10.94,14.97c-.19-.15-.37-.34-.72-.47.24.17.44.24.72.47Z" class="uuid-6cc345fd-39a9-4190-9197-c9dc1f2853c3"></path><path d="M11.03,14.77h-.12c.1.06.25.13.34.21l-.22-.21Z" class="uuid-6cc345fd-39a9-4190-9197-c9dc1f2853c3"></path><polygon points="10.93 14.67 11.03 14.77 11.07 14.77 10.93 14.67" class="uuid-6cc345fd-39a9-4190-9197-c9dc1f2853c3"></polygon><path d="M11.8,14.82c-.15-.12-.15-.15-.16-.19-.09,0-.15,0-.17.03.11.07.32.2.32.16Z" class="uuid-6cc345fd-39a9-4190-9197-c9dc1f2853c3"></path><path d="M11.63,14.88l-.02-.02s-.04-.02.02.02Z" class="uuid-6cc345fd-39a9-4190-9197-c9dc1f2853c3"></path><path d="M11.81,14.33s-.05-.02-.07-.03l.06.04h0Z" class="uuid-6cc345fd-39a9-4190-9197-c9dc1f2853c3"></path><path d="M11.41,14.63c-.09-.02,0,.05.1.13-.03-.04-.04-.07-.03-.09-.05-.03-.09-.05-.07-.03Z" class="uuid-6cc345fd-39a9-4190-9197-c9dc1f2853c3"></path><path d="M12.08,14.74c-.09-.03-.16-.05-.23-.07.13.05.32.13.23.07Z" class="uuid-6cc345fd-39a9-4190-9197-c9dc1f2853c3"></path><path d="M11.72,14.91s.01.01.01.01c.08.04.04.02-.01-.01Z" class="uuid-6cc345fd-39a9-4190-9197-c9dc1f2853c3"></path><path d="M11.72,14.91s-.13-.1-.21-.16c.02.03.05.07.1.11.03.01.07.03.11.05Z" class="uuid-6cc345fd-39a9-4190-9197-c9dc1f2853c3"></path><path d="M9.44,12.94c.35.19.64.43.24.27.23.19,1.39.78,2.06,1.08-.15-.08-.29-.16-.47-.33-.2-.08-.51-.12-.8-.34-.14-.17.15,0,.36.07-.45-.21-.58-.43-1.23-.76l.19.18c-.1-.05-.25-.16-.35-.19Z" class="uuid-6cc345fd-39a9-4190-9197-c9dc1f2853c3"></path><path d="M11.65,14.39l.03.05c.07,0,.22.06.51.18-.15-.13-.27-.21-.39-.28l-.11.09-.05-.04Z" class="uuid-6cc345fd-39a9-4190-9197-c9dc1f2853c3"></path><path d="M11.63,14.54c-.37-.23-.5-.37-.92-.56,0,.08.29.22.43.35-.03-.16.19.15.45.19.05.06.06.09.07.11.06,0,.12.02.2.04h-.02s0,0,0,0h0c-.05-.02-.08-.04-.05-.03h0c-.05-.04-.1-.06-.14-.09.1.01.1.05.14.08l.06.03h0s-.15-.22-.15-.22c-.07,0-.07.03-.05.1Z" class="uuid-6cc345fd-39a9-4190-9197-c9dc1f2853c3"></path><path d="M9.45,13.99s.06.03.09.05c-.04-.03-.07-.05-.09-.05Z" class="uuid-6cc345fd-39a9-4190-9197-c9dc1f2853c3"></path><path d="M9.7,14.08s.19.13.14.13c-.12-.04-.18-.1-.3-.17.09.07.24.21.45.27l-.05-.04c.15.03.65.25.69.29-.34-.18-.59-.31-.93-.47Z" class="uuid-6cc345fd-39a9-4190-9197-c9dc1f2853c3"></path><path d="M10.56,14.26l-.13-.19-.35-.14.2.11c-.1,0,.14.13.29.22Z" class="uuid-6cc345fd-39a9-4190-9197-c9dc1f2853c3"></path><polygon points="12.01 14.42 12.4 14.65 11.86 14.29 12.01 14.42" class="uuid-6cc345fd-39a9-4190-9197-c9dc1f2853c3"></polygon><polygon points="12.02 14.28 12.37 14.47 12.18 14.32 12.02 14.28" class="uuid-6cc345fd-39a9-4190-9197-c9dc1f2853c3"></polygon><path d="M9.93,6.04l-.1-.05s.07.04.1.05Z" class="uuid-6cc345fd-39a9-4190-9197-c9dc1f2853c3"></path><path d="M9.86,6.21l.19.05c-.1-.03-.18-.06-.19-.05Z" class="uuid-6cc345fd-39a9-4190-9197-c9dc1f2853c3"></path><path d="M13.38,11.25c.36.1.91.26.5.1l-.41-.15c.06.06,0,.06-.09.05Z" class="uuid-6cc345fd-39a9-4190-9197-c9dc1f2853c3"></path><path d="M11.66,8.35s-.09-.02-.13-.03c.14.05.27.1.39.15-.08-.04-.17-.08-.26-.12Z" class="uuid-6cc345fd-39a9-4190-9197-c9dc1f2853c3"></path><path d="M9.95,7.79l.28.03c-.1-.02-.19-.03-.28-.03Z" class="uuid-6cc345fd-39a9-4190-9197-c9dc1f2853c3"></path><path d="M9.69,4.97l-.43-.11s.22.07.43.11Z" class="uuid-6cc345fd-39a9-4190-9197-c9dc1f2853c3"></path><path d="M12.5,12.97c.17.04.25.04.28.03-.25-.06-.6-.19-.28-.03Z" class="uuid-6cc345fd-39a9-4190-9197-c9dc1f2853c3"></path><path d="M14.39,7.18c-.07-.04-.16-.06-.25-.09.07.04.15.07.25.09Z" class="uuid-6cc345fd-39a9-4190-9197-c9dc1f2853c3"></path><path d="M12.83,12.9s-.06-.02-.1-.02c.05.06.09.11.05.13.18.05.3.06.05-.1Z" class="uuid-6cc345fd-39a9-4190-9197-c9dc1f2853c3"></path><path d="M10.46,1.44s.03,0,.05,0c-.06,0-.06,0-.05,0Z" class="uuid-6cc345fd-39a9-4190-9197-c9dc1f2853c3"></path><path d="M14.86.36s.03.03.03.05c.03,0,.03-.02-.03-.05Z" class="uuid-6cc345fd-39a9-4190-9197-c9dc1f2853c3"></path><path d="M12.45,13.88s.04.03,0,0h0Z" class="uuid-6cc345fd-39a9-4190-9197-c9dc1f2853c3"></path><path d="M10.86,13.22s-.09-.06-.18-.11c.09.05.15.09.18.11Z" class="uuid-6cc345fd-39a9-4190-9197-c9dc1f2853c3"></path><path d="M10.49,11.52h0c-.08-.03-.06-.02,0,0Z" class="uuid-6cc345fd-39a9-4190-9197-c9dc1f2853c3"></path><path d="M12.25,13.83c.05.01.1.02.13.03-.03,0-.08-.02-.13-.03Z" class="uuid-6cc345fd-39a9-4190-9197-c9dc1f2853c3"></path><path d="M12.44,13.92s-.04,0-.05,0c.06.04.1.05.05,0Z" class="uuid-6cc345fd-39a9-4190-9197-c9dc1f2853c3"></path><path d="M12.44,13.83s-.03.02-.06.02c.03,0,.05.02.06.03,0-.01,0-.03,0-.05Z" class="uuid-6cc345fd-39a9-4190-9197-c9dc1f2853c3"></path><path d="M11.46,3.51s.02,0,.04,0c-.18-.05-.15-.03-.04,0Z" class="uuid-6cc345fd-39a9-4190-9197-c9dc1f2853c3"></path><polygon points="9.42 9 9.44 9.01 9.45 9.01 9.42 9" class="uuid-6cc345fd-39a9-4190-9197-c9dc1f2853c3"></polygon><path d="M9.14,8.81c.5.22.43.22.31.2l1.18.4-1.49-.61Z" class="uuid-6cc345fd-39a9-4190-9197-c9dc1f2853c3"></path><path d="M9.91,5.58l-.4-.03c-.61-.21-.38-.21-.93-.27,1.33.3.08.25,1.41.55l-.29-.03s-.06-.03-.05-.04c-.65-.07.94.27.73.33-.11.01-.31-.01-.46-.07l.31.15s-.26-.04-.23-.06l.08.14h-.04c.2.06.51.17.65.23-.2-.02-.14-.05-.3-.08l.3.14c-.35-.06-.67-.2-.61-.23-1.33-.27.32.14-.48.07l-.15-.1c-.76-.15-.5-.04-.98-.09.25.05,1.21.17,1.52.32-.1,0-.16,0,.1.11-.47-.12-.36-.06-.35,0l-.62-.17c.17.09.48.17.75.28-.08.04-.56-.08-.96-.18-.12.06.78.15.87.28-.26,0-.02.13.33.32-.23,0-.37-.11-.56-.15l.48.18s-.16-.04-.24-.06c.18.09.61.18.76.29.67.21-1.02-.16-.28.14-.18-.03-.37-.12-.61-.19.47.25.34.19.99.48l-.42-.05c.48.09,1,.32,1.42.52.23.05.43.09.52.11l.3.2c-.1-.02-.31-.1-.56-.19.05.02.1.04.14.06-.24-.03-.58-.16-.92-.3.12.03.26.05.39.08-.36-.14-.77-.29-1.13-.39.07.03.13.06.16.08-.1-.04-.19-.07-.25-.09-.06-.02.07.04.22.1l-.69-.19.27.09h-.46c.66.29,1.64.7,1.87.94-.48-.2-.81-.28-1.4-.47.64.17-.23-.2-.08-.23-.08.02-.36-.08-.45-.12l.53.31c-.48-.16-.37-.09-.58-.12.96.29.6.31.87.46-.32-.1-.64-.23-.54-.26-.74-.17,1.08.47.45.33,0-.02.05,0-.11-.07.27.13.01.15-.25.03v-.02c-.15.06-.12.31.68.62-.1-.04-.96-.37-1.12-.43l2.62,1.17c-.68-.27-2.33-.81-2.69-1.04-.11-.01-.23-.02,0,.12.1.02,1.01.33,1.06.37-.79-.22-.43-.11-1.1-.28.16.03,1.22.46,1.17.49-.16-.07-1.06-.4-1.16-.46l1.01.5c-.18-.1-.89-.35-1.19-.44.21.07-.05.08.04.14l.26.05c-.2.05,1.43.69,1.33.78-.21-.1-1.31-.56-1.47-.56.53.24,2.52,1.15,2.89,1.43l-.31-.1.31.23c-.77-.39-2.41-1.22-3.04-1.55-.26-.06-.36-.13-.36-.06-.29-.1-.42-.21-.43-.23l-.24.06c.62.25.58.36,1.1.57l-.58-.42c.62.25,1.73.81,1.58.88-.26-.08-1.1-.48-1.3-.56.21.1.37.27.21.21l-.31-.18c-.26-.04.78.44.16.25-.05,0-.82-.27-.46-.11.72.27,2.9,1.2,3.42,1.45-.05-.01-.73-.16-1.09-.28-.57-.2-1.29-.63-1.77-.81.17.07.37.19.43.23-.15-.04-.52-.24-.46-.15.62.28-.1.08.52.26.16.13-.15,0-.15.07.41.16,1.34.67,1.5.81-.16-.08-.37-.16-.46-.19-.1.09-.42.01-.47.11-.15-.06-.36-.1-.61-.24.1.07.31.18.3.22-.56-.19-.05-.11-.71-.37.36.17.46.31.66.46.56.25.16-.05-.05-.2.76.36,1.52.82,1.82,1.1.15.18-.51-.2-.41-.13-.21.1,1.25.79.64.66-.51-.18-.96-.47-1.31-.64-.15-.16.36.04.36-.02l-.26-.05c-.15-.1-.25-.21-.1-.17-.46-.17-.21.23-.67.15.15.1.3.23.5.31l-.05-.07c.41.16.49.35.7.39.24.19.64.47.38.44l-.55-.27c.16.08.35.12.2.01.22.16-.8-.27-.1.14l.4.14c.24.2.78.57.58.55.55.25-.05-.05.6.23-.8-.37.13-.16-.73-.52.76.33.35.07,1.01.33-.18-.09-.36-.15-.24-.17-.05-.03-.11-.07-.15-.09h.02s-.02,0-.02,0c-.03-.02-.03-.02,0,0-.09-.03-.19-.06-.29-.11-.4-.24-.34-.33-.53-.47.1,0,.2.12.4.2l-.3-.21c.4.2.71.24.91.44l.05-.07c.25.07.37.05.22-.07.1,0-.4-.31-.1-.12l-.19-.24.1.05c.11-.09-.56-.56.24-.35-.08-.09-.19-.19-.04-.2l.36.15c-.1-.11.42,0,.06-.19.98.37.32-.16.53-.18l-.46-.21c.05-.05-.05-.17-.21-.33l-.41-.17c-.31-.21.37-.04.37-.17.16.07.1.08,0,.06.99.26-.57-.55.16-.38-.14-.09-.08-.09.03-.07,0,0,0,0,.02.02,0,0,.01,0,.01,0,.08.02.17.03.24.05-.11-.03-.19-.05-.24-.05,0-.03-.04-.08-.13-.15l.45.16s0,0,0-.01c.18.03-.2-.11-.55-.23-.07-.05-.15-.1-.25-.15.73.26-.21-.18.58.08-.37-.17-.22-.27-1.01-.59.1.04.16.05.16.07.1,0,.21,0,0-.12l.58.2-.74-.37c.37.08.58.14,1,.35-.64-.37-.22-.19-.86-.53l.37.14s-.48-.28-.17-.19c.74.17.23-.35.97-.33-1.12-.33.53.07-.33-.22.27.07.42.09.64.2-.22-.19.47-.03-.24-.33.27.07.38.15.54.18-.05-.03-.22-.11-.06-.07.16.04.21.09.32.14,0-.13-.82-.39-1.58-.64.38.06.33.02-.15-.18.25.06.53.11.59.2.05-.03.44-.12-.17-.31.16.04.06-.04,0-.07.06-.07.12-.06.09-.16h-.11c-.73-.25-.15-.12-.22-.21l.07.02c.58,0-.24-.14.41-.11l-.46-.12c-.99-.29.62.03.27-.16l-.27-.04c-.33-.14,1.39.23,1.53.21.09.01.13.05.19.09.62.02-.6-.18-.72-.31.33.07.83.24.91.19.27.03-1.01-.46-.36-.39-.26-.04-.52-.09-.7-.18-.08-.09,1,.05.22-.21.07,0,.14.02.2.04-.19-.1-.3-.25-.73-.38,1.63.32-.71-.49.78-.16l-.04-.18.15.04c.12-.08-.23-.19-.58-.3.11,0,.24.04.32.06.33-.09.27-.12-.45-.39l.49.08c-.28-.09.81-.07.27-.33.06.01.15.03.22.06-.54-.26,1.43-.18-.34-.54l-.42-.18c-.16.12-.77-.15-1.07-.14-.1-.07.56-.05.64.03h-.09c.93.17.36-.12.99-.02,0-.28.56-.49.62-.75l-.73-.06.05-.09c.17,0,.57.04.53.1.42.01-.33-.15-.49-.17.31-.09.84.15.86.11l-.05-.06h-.09c-.29-.08-.61-.12-.56-.19.15-.03.45.02.48,0,.05,0,.08,0,.03-.03l.08-.11-.58-.02c-.28-.08.04-.1-.61-.12,1.02.03.41-.39.72-.41-.41-.11-.4-.18-.34-.26-.12.01-.77-.03-.69-.09,1.33.13.59-.09,1.56-.08-.64,0-.14-.23-1.05-.2.11-.06.5.03.82,0-.5-.18.36-.32.19-.52-.18-.01-.45,0-.71-.04l.88-.06c-.08-.04-1.01-.08-.4-.12-.15,0-.37,0-.43-.02.88-.35-.68-.75.93-1.12-.34.05-.37.02-.39-.02-.08.03-.43,0-.67,0l.66-.16c-.66-.02-.04-.17-.68-.18l.11.05c-.75-.05-1.66.11-2.62.11.85.06-1.26.18-.04.28-.2.02-.31-.02-.53,0,.41.03.5.06.31.12h-.1c.1.16-.3.23-.58.41h.47c-.06.04-.21.04-.33.06.72.06.05-.11.84-.05-.97.03-.03.29-1.12.29,0,.06.55,0,.54.06h-.3s.38.04.38.04c-.06.04-.44.04-.69.04.03,0-.07-.03-.09-.04-.35.04.11.15,0,.16l.18-.05c.27.18-.12.36.46.57h.22c.4.16-.25.09-.07.24h-.05c.22.04.33.08.3.12-.26-.06-.51.02-.8-.04.43.17.34.09,1.16.26h-.37c.33.05.51.07.6.15-.31-.09-.57,0-.98-.11-.82.07.79.3-.39.24,1.01.17.58-.07.8,0,.34,0,.76.13.65.17-.03.05-1.32-.06-1.31.06,0-.01-.07-.02-.06-.03-.27.01.34.12-.09.13.61.1-.04.06.74.17l-.17-.13c.2.08,1.11.25.65.3-.16-.03-.36-.08-.48-.12-.24,0,.15.08-.09.08-.79-.11-.16-.15-.75-.29-.34,0,.56.19-.29.05,1.08.18-.15.09.67.28l-.47-.07c.07.02.29.08.28.1l-.61-.12c.51.13-.47.06-.19.15,0-.12.57.05.92.04.61.24-1.24-.08-1.04.12-.06-.03.29-.05.51.02-.1.02-.29.04-.54.02.08.13.49.05.77.14-.58-.05.22.09.4.17l-.48-.07c-.33.08.99.19.6.25l-.65-.15.16.09-.54-.1c.39.13.28.14.12.17.34.04.86.15.87.21-.29,0-.45-.1-.39,0-.29-.07-.66-.15-.22-.11-.15-.03-.3-.06-.45-.1-.33-.01-.09.09-.09.12.02,0,.05-.02.11-.01l.64.23c-.18-.01-.32-.05-.46-.09.05.03.26.09.3.13-.38-.08-.78-.15-.96-.23l.41.19c-.17-.02-.47-.03-.61-.07-.24.02.72.29.41.31.07.02.14.04.2.07-.1.06-.59.03-.08.23l-.7-.09c.14.1.88.11,1.12.28.2.13-.59-.09-.79-.1.34.11,1.02.34.45.29-.12-.05-.02-.05-.06-.09ZM10,6.53c-.09-.04-.39-.15-.11-.09.53.16.27.11.11.09ZM10.73,8.2c-.15-.06-.07-.06.12-.03.03.03,0,.04-.12.03ZM12.24,13.42s-.01,0-.02-.01c.19.04.11.02.02.01ZM12.01,13.42c.06.04.12.07.18.1-.11-.06-.1-.08-.06-.09-.12-.05-.2-.08-.12,0ZM14.71,3.61h-.13c-.13-.05,0-.03.13,0Z" class="uuid-6cc345fd-39a9-4190-9197-c9dc1f2853c3"></path><path d="M10.15,7.85c.08.02.17.05.25.07-.08-.03-.17-.06-.25-.07Z" class="uuid-6cc345fd-39a9-4190-9197-c9dc1f2853c3"></path><polygon points="9.77 4.99 9.77 4.99 9.69 4.97 9.77 4.99" class="uuid-6cc345fd-39a9-4190-9197-c9dc1f2853c3"></polygon><path d="M8.89,10.43c.07.01.15.04.24.07-.11-.05-.2-.08-.24-.07Z" class="uuid-6cc345fd-39a9-4190-9197-c9dc1f2853c3"></path><path d="M12.5,14.25l-.08-.11s-.09,0-.17-.02c.1.05.25.12.25.14Z" class="uuid-6cc345fd-39a9-4190-9197-c9dc1f2853c3"></path><path d="M9.62,13.29s0,.02.05.05l.2.11s-.14-.15-.24-.16Z" class="uuid-6cc345fd-39a9-4190-9197-c9dc1f2853c3"></path><path d="M11.05,13.55c-.36-.19-.26-.09-.21-.02,0,0,0,0,0,0,.5.28.35.15.21.02Z" class="uuid-6cc345fd-39a9-4190-9197-c9dc1f2853c3"></path><path d="M10.85,13.55s.01.04,0,.04c.2.11.05,0,0-.04Z" class="uuid-6cc345fd-39a9-4190-9197-c9dc1f2853c3"></path><path d="M12.19,13.65c-.1-.03.46.25.3.18.45.25-.49-.4-.3-.18Z" class="uuid-6cc345fd-39a9-4190-9197-c9dc1f2853c3"></path><polygon points="9.86 12.96 10.31 13.18 9.96 12.97 9.86 12.96" class="uuid-6cc345fd-39a9-4190-9197-c9dc1f2853c3"></polygon><path d="M10.33,12.85h-.15c.07.03.11.06.14.09.03-.03.14-.02.01-.09Z" class="uuid-6cc345fd-39a9-4190-9197-c9dc1f2853c3"></path><path d="M10.32,12.93s-.02.04.05.08c0-.01,0-.04-.05-.08Z" class="uuid-6cc345fd-39a9-4190-9197-c9dc1f2853c3"></path><polygon points="9.76 12.81 9.86 12.84 9.92 12.82 9.76 12.81" class="uuid-6cc345fd-39a9-4190-9197-c9dc1f2853c3"></polygon><path d="M10.72,12.27l-.1-.12c-.15-.08-.25-.11-.2-.06.1.07.15.12.3.18Z" class="uuid-6cc345fd-39a9-4190-9197-c9dc1f2853c3"></path><path d="M9.4,11.85c.1.03.2.08.35.14l-.56-.27.2.13Z" class="uuid-6cc345fd-39a9-4190-9197-c9dc1f2853c3"></path><path d="M9.35,11.62c-.15-.08-.4-.3-.41-.21.15.08.25.2.41.21Z" class="uuid-6cc345fd-39a9-4190-9197-c9dc1f2853c3"></path><polygon points="10.49 11.02 10.49 11.04 11.43 11.44 10.49 11.02" class="uuid-6cc345fd-39a9-4190-9197-c9dc1f2853c3"></polygon><path d="M8.57,9.28c-.25-.02.58.25.27.2.22.11.25.04.44.13-.22-.14-.08-.11-.71-.33Z" class="uuid-6cc345fd-39a9-4190-9197-c9dc1f2853c3"></path><path d="M9.28,9.61s.08.05.13.08c-.05-.04-.1-.06-.13-.08Z" class="uuid-6cc345fd-39a9-4190-9197-c9dc1f2853c3"></path><polygon points="15.4 .15 15.62 .09 15.27 .13 15.4 .15" class="uuid-6cc345fd-39a9-4190-9197-c9dc1f2853c3"></polygon><path d="M14.65.05l.65-.02-.59-.02s.08.04-.06.05Z" class="uuid-6cc345fd-39a9-4190-9197-c9dc1f2853c3"></path><path d="M8.7,6.33l.15.04c.17.04.18.03.21.01l-.36-.06Z" class="uuid-6cc345fd-39a9-4190-9197-c9dc1f2853c3"></path><polygon points="9.33 5.84 9.31 5.84 9.89 5.96 9.33 5.84" class="uuid-6cc345fd-39a9-4190-9197-c9dc1f2853c3"></polygon><path d="M8.71,5.16s.09.07.06.08c-.09-.07.65.06-.06-.08Z" class="uuid-6cc345fd-39a9-4190-9197-c9dc1f2853c3"></path><path d="M27.24,5.44c.05.02-.1-.37-.12-.44-.03.11.16.54.12.44Z" class="uuid-6cc345fd-39a9-4190-9197-c9dc1f2853c3"></path><polygon points="26.92 6.55 26.87 6.39 26.91 6.82 26.92 6.55" class="uuid-6cc345fd-39a9-4190-9197-c9dc1f2853c3"></polygon><path d="M26.31,6.75c.28.66.18-.18.37.02l.07.15-.14-.56c-.1.13-.15.55-.3.39Z" class="uuid-6cc345fd-39a9-4190-9197-c9dc1f2853c3"></path><path d="M25.5,5.4c.11.26,0,.25.1.06-.02-.03-.02-.04-.04-.06-.01,0-.03.01-.06,0Z" class="uuid-6cc345fd-39a9-4190-9197-c9dc1f2853c3"></path><path d="M25.57,5.39c.06-.04-.11-.21,0,0h0Z" class="uuid-6cc345fd-39a9-4190-9197-c9dc1f2853c3"></path><path d="M25.33,5.64v-.26c-.06-.15-.15-.16-.16-.29-.04.16.02.31.16.55Z" class="uuid-6cc345fd-39a9-4190-9197-c9dc1f2853c3"></path><path d="M25.41,6.16v-.11c-.02-.06-.04-.08,0,.11Z" class="uuid-6cc345fd-39a9-4190-9197-c9dc1f2853c3"></path><path d="M25.45,5.8l-.02.24c.05.11.12.33.02-.09.06.2.01,0,0-.15Z" class="uuid-6cc345fd-39a9-4190-9197-c9dc1f2853c3"></path><path d="M25.53,5.89c.09.13.19.21.18.47.13-.15-.05-.61-.18-.47Z" class="uuid-6cc345fd-39a9-4190-9197-c9dc1f2853c3"></path><path d="M26.51,7.46l.13.18-.02-.25c.01.12-.18-.14-.11.07Z" class="uuid-6cc345fd-39a9-4190-9197-c9dc1f2853c3"></path><path d="M24.7,5.44c.04.15.15.38.21.56v-.19c-.05-.09-.14-.16-.21-.38Z" class="uuid-6cc345fd-39a9-4190-9197-c9dc1f2853c3"></path><path d="M24.92,6.01v.28c.08,0,.06-.12,0-.28Z" class="uuid-6cc345fd-39a9-4190-9197-c9dc1f2853c3"></path><polygon points="25.64 6.92 25.62 6.35 25.61 6.93 25.64 6.92" class="uuid-6cc345fd-39a9-4190-9197-c9dc1f2853c3"></polygon><polygon points="24.35 5.53 24.3 5.18 24.36 5.72 24.35 5.53" class="uuid-6cc345fd-39a9-4190-9197-c9dc1f2853c3"></polygon><path d="M24.14,5.67c-.05-.29-.19-.46-.21-.64-.05.07-.03.33-.01.56.02-.14.08-.12.22.08Z" class="uuid-6cc345fd-39a9-4190-9197-c9dc1f2853c3"></path><path d="M23.94,5.92c0-.07,0-.2-.01-.34,0,.07,0,.17.01.34Z" class="uuid-6cc345fd-39a9-4190-9197-c9dc1f2853c3"></path><path d="M24.73,6.26c-.03-.09-.12-.31-.2-.39l.16.4h.04Z" class="uuid-6cc345fd-39a9-4190-9197-c9dc1f2853c3"></path><path d="M24.69,6.28h0s-.07-.01-.09-.01c.01,0,.04,0,.09.01Z" class="uuid-6cc345fd-39a9-4190-9197-c9dc1f2853c3"></path><path d="M24.73,6.26h0s.02.05,0,0Z" class="uuid-6cc345fd-39a9-4190-9197-c9dc1f2853c3"></path><path d="M25.28,6.62c.02.25-.02.52.2.84-.05-.29-.17-.47-.2-.84Z" class="uuid-6cc345fd-39a9-4190-9197-c9dc1f2853c3"></path><path d="M24.94,6.76l.13.06c-.04-.11-.1-.26-.11-.38l-.02.32Z" class="uuid-6cc345fd-39a9-4190-9197-c9dc1f2853c3"></path><polygon points="24.93 6.9 24.94 6.76 24.89 6.73 24.93 6.9" class="uuid-6cc345fd-39a9-4190-9197-c9dc1f2853c3"></polygon><path d="M24.22,6.25c.01.19-.03.22-.07.27.08.06.15.09.21.07-.03-.13-.08-.37-.13-.34Z" class="uuid-6cc345fd-39a9-4190-9197-c9dc1f2853c3"></path><path d="M24.46,6.3v.03s.02.04,0-.03Z" class="uuid-6cc345fd-39a9-4190-9197-c9dc1f2853c3"></path><path d="M23.62,6.66s.02.05.03.07l-.02-.07h-.01Z" class="uuid-6cc345fd-39a9-4190-9197-c9dc1f2853c3"></path><path d="M24.38,6.66c.07.07.06-.04.05-.17-.02.05-.04.09-.08.1.01.06.02.1.03.07Z" class="uuid-6cc345fd-39a9-4190-9197-c9dc1f2853c3"></path><path d="M23.85,6.15c.05.08.09.15.14.2-.06-.12-.16-.31-.14-.2Z" class="uuid-6cc345fd-39a9-4190-9197-c9dc1f2853c3"></path><path d="M24.41,6.22v-.02c-.04-.08-.02-.04,0,.02Z" class="uuid-6cc345fd-39a9-4190-9197-c9dc1f2853c3"></path><path d="M24.41,6.22c0,.07,0,.17.02.27.02-.04.03-.09.03-.16-.01-.03-.03-.07-.05-.11Z" class="uuid-6cc345fd-39a9-4190-9197-c9dc1f2853c3"></path><path d="M24.22,9.35c-.1-.38-.09-.77.13-.39.02-.31-.41-1.55-.7-2.22.04.17.09.32.06.57.09.2.36.42.38.79-.08.23-.15-.1-.27-.29.19.46.03.74.25,1.43l.05-.28c.03.11.04.29.1.38Z" class="uuid-6cc345fd-39a9-4190-9197-c9dc1f2853c3"></path><path d="M23.85,6.72l.03-.06c-.07-.05-.14-.2-.29-.48-.01.2.01.35.05.48h.21s0,.06,0,.06Z" class="uuid-6cc345fd-39a9-4190-9197-c9dc1f2853c3"></path><path d="M24.06,6.61c.09.42.04.63.24,1.06.11-.06-.02-.37,0-.57-.16.16-.01-.25-.22-.44.02-.08.04-.11.07-.14-.05-.04-.1-.09-.15-.16v.02s.01,0,.01,0h0c.02.06.04.09.02.06h0c.01.07.03.12.04.17-.08-.07-.04-.1-.04-.16l-.02-.06h0s-.12.28-.12.28c.06.05.1.02.18-.05Z" class="uuid-6cc345fd-39a9-4190-9197-c9dc1f2853c3"></path><path d="M25.65,8.38s-.03-.06-.04-.09c0,.05,0,.09.04.09Z" class="uuid-6cc345fd-39a9-4190-9197-c9dc1f2853c3"></path><path d="M25.5,8.15c0-.06-.04-.23.02-.2.08.11.06.2.11.33,0-.12,0-.33-.15-.5v.06c-.12-.12-.38-.6-.38-.66.14.36.24.62.41.97Z" class="uuid-6cc345fd-39a9-4190-9197-c9dc1f2853c3"></path><path d="M24.8,7.49l-.1.25.19.33-.07-.21c.12.06.02-.2-.02-.37Z" class="uuid-6cc345fd-39a9-4190-9197-c9dc1f2853c3"></path><polygon points="23.55 6.46 23.44 6.02 23.53 6.66 23.55 6.46" class="uuid-6cc345fd-39a9-4190-9197-c9dc1f2853c3"></polygon><polygon points="23.36 6.57 23.25 6.19 23.27 6.43 23.36 6.57" class="uuid-6cc345fd-39a9-4190-9197-c9dc1f2853c3"></polygon><path d="M11.87,13.57l-.04.12s.04-.08.04-.12Z" class="uuid-6cc345fd-39a9-4190-9197-c9dc1f2853c3"></path><path d="M12.25,13.57v-.2c-.02.11-.02.19,0,.2Z" class="uuid-6cc345fd-39a9-4190-9197-c9dc1f2853c3"></path><path d="M18.26,7.82c-.14-.35-.32-.9-.23-.46l.1.42c.03-.09.08-.04.13.04Z" class="uuid-6cc345fd-39a9-4190-9197-c9dc1f2853c3"></path><path d="M15.04,10.96s.03.08.04.13c0-.15,0-.29,0-.42-.01.09-.02.19-.03.29Z" class="uuid-6cc345fd-39a9-4190-9197-c9dc1f2853c3"></path><path d="M15.22,12.75l-.13-.26c.03.09.08.18.13.26Z" class="uuid-6cc345fd-39a9-4190-9197-c9dc1f2853c3"></path><path d="M9.83,14.15l-.04.44c.1,0,.04-.23.04-.44Z" class="uuid-6cc345fd-39a9-4190-9197-c9dc1f2853c3"></path><path d="M21.28,7.29c-.1-.15-.16-.21-.21-.22.13.22.28.57.21.22Z" class="uuid-6cc345fd-39a9-4190-9197-c9dc1f2853c3"></path><path d="M11.67,8.97c-.02.08-.03.17-.02.27.02-.08.04-.16.02-.27Z" class="uuid-6cc345fd-39a9-4190-9197-c9dc1f2853c3"></path><path d="M20.9,7.11s.04.06.05.09c.03-.08.06-.15.11-.14-.1-.17-.18-.26-.17.04Z" class="uuid-6cc345fd-39a9-4190-9197-c9dc1f2853c3"></path><path d="M2.31,13.67s0-.03-.01-.05c0,.06,0,.06.01.05Z" class="uuid-6cc345fd-39a9-4190-9197-c9dc1f2853c3"></path><path d="M.61,9.12s.06-.02.09-.02c-.01-.03-.04-.03-.09.02Z" class="uuid-6cc345fd-39a9-4190-9197-c9dc1f2853c3"></path><path d="M22.48,6.62s0-.05,0,0h0Z" class="uuid-6cc345fd-39a9-4190-9197-c9dc1f2853c3"></path><path d="M23.14,8.22s.01.11.04.21c-.02-.1-.03-.17-.04-.21Z" class="uuid-6cc345fd-39a9-4190-9197-c9dc1f2853c3"></path><path d="M21.07,9.85h0c.03.08.03.06,0,0Z" class="uuid-6cc345fd-39a9-4190-9197-c9dc1f2853c3"></path><path d="M22.6,6.79s-.06-.08-.09-.11c.02.03.05.07.09.11Z" class="uuid-6cc345fd-39a9-4190-9197-c9dc1f2853c3"></path><path d="M22.53,6.6s.03.02.05.03c-.01-.07-.03-.11-.05-.03Z" class="uuid-6cc345fd-39a9-4190-9197-c9dc1f2853c3"></path><path d="M22.42,6.66s.05,0,.08.02c-.02-.03-.03-.05-.03-.06-.01,0-.03.02-.05.04Z" class="uuid-6cc345fd-39a9-4190-9197-c9dc1f2853c3"></path><path d="M6.34,12.68s0-.02,0-.04c-.05.18-.03.15,0,.04Z" class="uuid-6cc345fd-39a9-4190-9197-c9dc1f2853c3"></path><polygon points="17.86 12.48 17.86 12.46 17.85 12.44 17.86 12.48" class="uuid-6cc345fd-39a9-4190-9197-c9dc1f2853c3"></polygon><path d="M17.74,12.82c-.02-.54.04-.49.11-.38l-.27-1.22.15,1.61Z" class="uuid-6cc345fd-39a9-4190-9197-c9dc1f2853c3"></path><path d="M10.98,13.76l.15.38c-.11.65-.23.44-.08.98-.06-1.36.48-.17.41-1.53l.1.28s-.02.07-.05.06c.2.64.05-.99.27-.81.08.1.14.29.11.46l.13-.35s.06.26,0,.24l.23-.13v.04c.02-.21.07-.55.1-.69.08.19-.02.15.01.31l.1-.34c.08.35,0,.7-.09.65.24,1.34.08-.35.42.42l-.11.18c.15.76.22.47.41.94-.06-.25-.4-1.18-.28-1.53.05.1.11.14.16-.14.04.48.11.36.2.32l.05.64c.09-.19.05-.52.08-.81.12.05.19.54.26.95.2.08-.21-.78,0-.92.18.23.26-.04.4-.44.13.21.02.39.08.57l.04-.52s.03.17.04.25c.06-.2-.06-.64.04-.82-.05-.7.37.99.43.18.06.18.03.39.07.64.15-.55.14-.4.22-1.13l.2.4c-.17-.46-.1-1.04-.04-1.52-.07-.22-.13-.42-.16-.52l.14-.36c.04.1.05.32.05.59,0-.05,0-.11.01-.16.1.23.11.6.11.96-.04-.12-.08-.25-.12-.38,0,.39.01.82.07,1.19,0-.08.02-.14.04-.18,0,.11,0,.2.02.26.02.07.02-.08.03-.24l.14.7-.03-.28.31.41c.09-.74.1-1.8.33-2.13,0,.53.11.85.19,1.46-.17-.64-.18.31-.35.19.09.06.11.35.1.46l.18-.62c.07.5.11.37.21.56-.2-.98.1-.69.16-1.01.06.33.08.68-.06.62.26.72.01-1.19.25-.58-.03.01-.06-.04-.04.14.03-.31.25-.1.25.19h-.03c.23.1.65-.08.54-.93.01.11.13,1.02.16,1.19l-.1-2.88c.09.73.51,2.42.41,2.85.07.09.15.21.21-.07-.05-.1-.27-1.02-.23-1.1.27.78.16.41.44,1.06-.08-.14-.22-1.28-.14-1.26.02.17.21,1.11.2,1.23v-1.15c-.01.21.16.94.27,1.24-.06-.21.18-.01.21-.13l-.13-.24c.26.12-.07-1.6.17-1.58.02.23.2,1.42.34,1.53-.05-.58-.3-2.76-.19-3.23l.1.32.07-.4c.08.87.18,2.7.16,3.43.14.24.1.38.22.32.11.29.02.47-.02.5l.34.14c-.15-.66.1-.71-.03-1.25l-.19.75c-.14-.66-.19-1.9.04-1.83.11.25.2,1.18.25,1.4-.02-.23.11-.48.16-.32l-.02.37c.17.22,0-.91.28-.32.06.03.33.81.25.42-.24-.73-.75-3.05-.82-3.62.03.05.4.66.53,1.02.21.57.19,1.43.37,1.92-.04-.18-.04-.41-.04-.49.08.14.1.56.19.46-.13-.67.24,0-.07-.57.06-.21.15.11.26.06-.14-.42-.22-1.49-.16-1.7.03.17.11.39.14.48.23.01.42.28.62.24.06.16.2.33.23.62,0-.12-.03-.36.03-.39.26.54-.12.12.14.79-.08-.39.03-.57.06-.83-.17-.59-.23-.06-.26.2-.2-.82-.25-1.72-.14-2.15.11-.24.2.51.2.39.35.07-.1-1.49.3-.97.24.49.27,1.03.39,1.4-.08.23-.29-.28-.38-.24l.18.22c0,.18-.06.34-.14.2.2.44.55-.04.91.32,0-.19.02-.39-.07-.59l-.06.09c-.18-.4-.01-.62-.16-.79.02-.32,0-.82.21-.62l.19.58c-.05-.17-.19-.33-.18-.14-.01-.28.44.74.29-.05l-.21-.38c.02-.32-.04-.99.14-.83-.22-.57,0,.07-.29-.58.31.83-.32.05.05.91-.31-.77-.25-.29-.55-.94.06.19.14.36.01.29,0,.06.02.13.02.18h-.01s.01,0,.01,0c0,.03,0,.04,0,0,.05.08.1.18.13.28.07.46-.1.49-.09.74-.09-.08-.03-.23-.12-.43v.37c-.11-.43-.34-.68-.27-.97h-.13c-.14-.21-.27-.28-.29-.08-.08-.08-.03.52-.06.17l-.14.32-.03-.11c-.21,0-.24.83-.66.09-.04.13-.08.28-.22.18l-.11-.37c-.06.15-.35-.32-.29.08-.33-1-.47-.13-.66-.28l.1.5c-.11,0-.18.16-.27.39l.1.44c-.04.38-.36-.25-.53-.16-.02-.17.03-.14.09-.04-.41-.94-.31.81-.65.12-.02.17-.06.12-.12.02,0,0,0-.01,0-.03,0,0-.01,0-.02,0-.04-.07-.08-.15-.11-.22.04.1.08.19.1.23-.04.02-.08.08-.12.2l-.11-.47s0,0-.01.02c-.09-.16,0,.23.09.58-.01.08-.02.18-.02.3-.19-.76-.1.29-.31-.52.04.4-.23.35-.11,1.2-.02-.11-.05-.16-.02-.17-.08-.08-.16-.17-.18.08l-.13-.6v.83c-.15-.35-.22-.56-.21-1.04-.08.75-.12.29-.17,1.03l-.06-.39c-.06.02-.07.56-.16.25-.26-.72-.7,0-1.15-.63.23,1.14-.24-.49-.12.4-.06-.27-.13-.42-.11-.66-.14.29-.33-.4-.35.37-.06-.27-.02-.4-.06-.56,0,.06-.02.24-.06.08-.04-.16,0-.23,0-.35-.17.07-.08.91,0,1.71-.14-.36-.18-.3-.18.22-.07-.25-.15-.52-.05-.63-.07-.03-.44-.33-.37.31-.04-.16-.1-.04-.1.04-.15-.02-.17-.08-.3,0l.05.1c.03.77-.1.19-.2.29v-.08c-.33-.53-.09.28-.42-.33l.06.48c.08,1.03-.3-.58-.41-.17l.08.27c-.05.36-.37-1.37-.46-1.49-.03-.09.01-.15.03-.21-.27-.59.03.63-.11.79-.06-.33-.04-.86-.15-.91-.08-.27-.21,1.13-.42.49.05.26.11.52.05.72-.11.1-.39-.96-.43-.13-.02-.07-.03-.14-.04-.2-.07.22-.26.37-.28.82-.19-1.65-.5.84-.59-.68l-.26.1v-.16c-.18-.09-.22.28-.26.65-.05-.1-.02-.25-.02-.33-.27-.3-.29-.23-.47.54l-.04-.49c-.05.29-.4-.76-.62-.17,0-.06,0-.15.02-.22-.26.6-.7-1.35-.76.45l-.18.45c.24.14-.02.78.08,1.08-.09.11-.26-.54-.14-.64l.02.09c.03-.94-.3-.33-.31-.97-.47.05-.93-.46-1.36-.51l.04.73-.15-.04c-.04-.17-.05-.57.06-.54-.05-.42-.19.34-.19.5-.21-.3.1-.85.03-.87l-.09.05.02.09c-.08.3-.09.61-.22.58-.08-.15-.03-.45-.07-.48,0-.05,0-.08-.05-.02l-.19-.06.06.58c-.09.28-.18-.03-.11.62-.11-1.01-.71-.38-.78-.7-.14.42-.25.4-.4.34.03.12.03.77-.1.69.11-1.34-.21-.59-.26-1.56.06.64-.37.14-.27,1.05-.1-.11.02-.5-.04-.82-.28.51-.53-.37-.85-.22-.02.18.02.45-.07.7l-.1-.89c-.07.08-.13,1.01-.2.39,0,.15.01.37-.03.43-.53-.89-1.31.6-1.76-1.07.05.35-.01.38-.08.38.03.08-.05.43-.06.67l-.19-.69c-.12.65-.28.02-.38.64l.09-.1c-.2.73-.04,1.66-.16,2.62.22-.83.2,1.28.54.1.03.2-.07.3-.07.53.1-.4.17-.48.27-.29l-.02.1c.34-.07.45.36.8.66v-.47c.09.07.09.22.12.34.15-.71-.22-.06-.07-.84.02.97.57.06.55,1.15.12.02,0-.55.13-.53v.3s.07-.38.07-.38c.08.07.09.44.08.69-.02-.03-.06.07-.08.09.08.36.31-.1.34.02l-.11-.19c.36-.25.76.17,1.12-.42v-.22c.26-.4.18.25.46.08v.05c.05-.22.13-.33.21-.3-.08.26.11.51,0,.8.29-.43.15-.34.36-1.16l.03.37c.07-.33.08-.51.22-.6-.12.31.07.57-.07.98.27.83.45-.81.55.38.16-1.02-.23-.57-.15-.79-.05-.34.13-.77.22-.66.09.02.12,1.32.36,1.3-.02,0-.03.07-.05.07.08.26.18-.35.28.08.07-.62.14.04.17-.75l-.21.18c.12-.21.25-1.13.44-.68-.02.16-.08.37-.12.48.06.23.11-.15.17.09-.02.79-.26.17-.4.77.06.34.25-.57.18.29.11-1.09.23.14.4-.69v.47c.01-.07.07-.3.11-.28l-.09.61c.13-.52.25.46.37.18-.26.02-.06-.57-.17-.92.32-.64.18,1.24.54,1.01-.05.07-.18-.28-.11-.5.07.1.16.28.2.53.24-.1-.04-.49.06-.78.09.58.11-.24.21-.42v.48c.28.31.06-1.01.31-.64l-.09.67.12-.17-.02.55c.13-.41.17-.3.31-.15-.04-.34,0-.88.12-.89.09.29-.03.46.13.39-.03.3-.06.68-.15.24-.01.16-.02.3-.04.46.1.33.22.07.28.07-.02-.02-.05-.04-.07-.11l.23-.68c.04.18.02.33,0,.47.05-.06.08-.28.15-.32,0,.39.01.8-.09.99l.22-.44c.02.17.14.46.11.61.14.23.29-.77.48-.48,0-.08.02-.15.05-.21.17.08.33.56.5.01l.15.7c.14-.17-.19-.88.04-1.15.16-.23.1.6.17.79.07-.36.18-1.09.37-.53-.05.14-.09.04-.14.09ZM12.8,13.31c-.03.1-.07.42-.12.14,0-.55.05-.29.12-.14ZM15.43,11.84c0,.16-.06.09-.12-.09.03-.04.07-.03.12.09ZM22.1,7.13s0,.01,0,.02c-.12-.16-.07-.1,0-.02ZM22.3,7.29c0-.07-.02-.13-.04-.2.02.12-.01.14-.06.11.04.12.08.2.1.08ZM5.89,9.43l.03.13c-.07.14-.05.01-.03-.13Z" class="uuid-6cc345fd-39a9-4190-9197-c9dc1f2853c3"></path><path d="M15.2,12.54c-.02-.08-.03-.17-.05-.26,0,.08,0,.18.05.26Z" class="uuid-6cc345fd-39a9-4190-9197-c9dc1f2853c3"></path><polygon points="9.84 14.07 9.83 14.06 9.83 14.15 9.84 14.07" class="uuid-6cc345fd-39a9-4190-9197-c9dc1f2853c3"></polygon><path d="M20.85,11.84c-.05-.06-.09-.14-.12-.23.02.12.06.21.12.23Z" class="uuid-6cc345fd-39a9-4190-9197-c9dc1f2853c3"></path><path d="M22.87,6.28l-.06.15s.08.06.13.13c-.03-.11-.09-.26-.07-.28Z" class="uuid-6cc345fd-39a9-4190-9197-c9dc1f2853c3"></path><path d="M24.52,8.92c0-.06.03-.02.03-.08l-.07-.21c-.06.03-.05.22.04.29Z" class="uuid-6cc345fd-39a9-4190-9197-c9dc1f2853c3"></path><path d="M23.39,7.8c.12.39.14.24.19.15,0,0,0,0-.01,0-.13-.55-.15-.35-.18-.15Z" class="uuid-6cc345fd-39a9-4190-9197-c9dc1f2853c3"></path><path d="M23.59,7.93s.03-.04.06-.03c-.05-.22-.04-.04-.06.03Z" class="uuid-6cc345fd-39a9-4190-9197-c9dc1f2853c3"></path><path d="M22.42,6.98c.06.09-.11-.51-.05-.35-.1-.51-.05.66.05.35Z" class="uuid-6cc345fd-39a9-4190-9197-c9dc1f2853c3"></path><polygon points="23.8 9.08 23.64 8.6 23.71 9 23.8 9.08" class="uuid-6cc345fd-39a9-4190-9197-c9dc1f2853c3"></polygon><path d="M23.16,8.87l.15.1c-.02-.08-.02-.13-.02-.17-.07,0-.17-.07-.13.07Z" class="uuid-6cc345fd-39a9-4190-9197-c9dc1f2853c3"></path><path d="M23.29,8.81s.07-.02.07-.11c-.02.01-.05.04-.07.11Z" class="uuid-6cc345fd-39a9-4190-9197-c9dc1f2853c3"></path><polygon points="23.69 9.26 23.63 9.17 23.54 9.16 23.69 9.26" class="uuid-6cc345fd-39a9-4190-9197-c9dc1f2853c3"></polygon><path d="M21.95,9.08l-.09.17c.03.17.09.26.12.19,0-.12.03-.2-.03-.36Z" class="uuid-6cc345fd-39a9-4190-9197-c9dc1f2853c3"></path><path d="M22.66,10.32c-.06-.09-.09-.2-.15-.36l.15.6v-.25Z" class="uuid-6cc345fd-39a9-4190-9197-c9dc1f2853c3"></path><path d="M22.33,10.55c.03.17-.06.52.09.45-.03-.17.06-.34-.09-.45Z" class="uuid-6cc345fd-39a9-4190-9197-c9dc1f2853c3"></path><polygon points="20.3 10.22 20.33 10.2 20.11 9.21 20.3 10.22" class="uuid-6cc345fd-39a9-4190-9197-c9dc1f2853c3"></polygon><path d="M19.12,12.95c.2.21-.08-.62.11-.35-.01-.24-.16-.22-.16-.43-.04.27-.12.14.05.79Z" class="uuid-6cc345fd-39a9-4190-9197-c9dc1f2853c3"></path><path d="M19.07,12.16s.01-.09.02-.16c-.01.07-.02.12-.02.16Z" class="uuid-6cc345fd-39a9-4190-9197-c9dc1f2853c3"></path><polygon points=".33 8.54 .27 8.32 .29 8.67 .33 8.54" class="uuid-6cc345fd-39a9-4190-9197-c9dc1f2853c3"></polygon><path d="M.07,9.27l.05-.65-.12.58s.07-.08.07.07Z" class="uuid-6cc345fd-39a9-4190-9197-c9dc1f2853c3"></path><path d="M13.19,14.58v-.16c-.04-.17-.06-.18-.11-.2l.11.36Z" class="uuid-6cc345fd-39a9-4190-9197-c9dc1f2853c3"></path><polygon points="11.8 14.21 11.82 14.22 11.73 13.64 11.8 14.21" class="uuid-6cc345fd-39a9-4190-9197-c9dc1f2853c3"></polygon><path d="M10.7,15.04s.1-.11.14-.09c-.1.11-.2-.64-.14.09Z" class="uuid-6cc345fd-39a9-4190-9197-c9dc1f2853c3"></path><path d="M10.42,25.52s.36.12.44.14c-.08-.06-.54-.17-.44-.14Z" class="uuid-6cc345fd-39a9-4190-9197-c9dc1f2853c3"></path><polygon points="9.6 24.9 9.77 24.95 9.38 24.79 9.6 24.9" class="uuid-6cc345fd-39a9-4190-9197-c9dc1f2853c3"></polygon><path d="M9.7,24.57c-.7-.15.08.15-.18.14l-.16-.03.55.18c-.07-.1-.41-.29-.21-.29Z" class="uuid-6cc345fd-39a9-4190-9197-c9dc1f2853c3"></path><path d="M11.24,24.78c-.27-.06-.22-.1-.1.02.03,0,.05,0,.07,0,0,0,0-.02.02-.03Z" class="uuid-6cc345fd-39a9-4190-9197-c9dc1f2853c3"></path><path d="M11.22,24.81s.23.03,0,0h0Z" class="uuid-6cc345fd-39a9-4190-9197-c9dc1f2853c3"></path><path d="M11.11,24.6l.23.11c.16.03.21,0,.32.04-.12-.08-.28-.11-.55-.15Z" class="uuid-6cc345fd-39a9-4190-9197-c9dc1f2853c3"></path><path d="M10.61,24.43l.1.05c.07.01.09.01-.1-.05Z" class="uuid-6cc345fd-39a9-4190-9197-c9dc1f2853c3"></path><path d="M10.91,24.59l-.2-.11c-.11-.02-.34-.08.07.04-.2-.06,0,0,.13.06Z" class="uuid-6cc345fd-39a9-4190-9197-c9dc1f2853c3"></path><path d="M10.8,24.59c-.16-.01-.26,0-.49-.11.07.11.56.23.49.11Z" class="uuid-6cc345fd-39a9-4190-9197-c9dc1f2853c3"></path><path d="M8.99,24.37l-.21-.02.22.09c-.11-.05.2-.02-.01-.07Z" class="uuid-6cc345fd-39a9-4190-9197-c9dc1f2853c3"></path><path d="M11.54,24.39c-.15-.03-.4-.08-.59-.12l.16.08c.11,0,.21,0,.43.05Z" class="uuid-6cc345fd-39a9-4190-9197-c9dc1f2853c3"></path><path d="M10.95,24.27l-.24-.12s.08.08.24.12Z" class="uuid-6cc345fd-39a9-4190-9197-c9dc1f2853c3"></path><polygon points="9.85 24.22 10.36 24.45 9.84 24.21 9.85 24.22" class="uuid-6cc345fd-39a9-4190-9197-c9dc1f2853c3"></polygon><polygon points="11.61 24.19 11.94 24.3 11.44 24.12 11.61 24.19" class="uuid-6cc345fd-39a9-4190-9197-c9dc1f2853c3"></polygon><path d="M11.58,24.04c.28.09.49.08.65.15-.04-.05-.28-.14-.49-.22.11.06.08.08-.17.07Z" class="uuid-6cc345fd-39a9-4190-9197-c9dc1f2853c3"></path><path d="M11.44,23.85c.06.03.18.08.31.12-.06-.03-.15-.07-.31-.12Z" class="uuid-6cc345fd-39a9-4190-9197-c9dc1f2853c3"></path><path d="M10.81,24.08c.09.02.33.07.43.06l-.42-.08v.02Z" class="uuid-6cc345fd-39a9-4190-9197-c9dc1f2853c3"></path><path d="M10.81,24.06h.01s.03-.03.03-.04c0,0-.02.02-.05.04Z" class="uuid-6cc345fd-39a9-4190-9197-c9dc1f2853c3"></path><path d="M10.81,24.08h0s-.06-.01,0,0Z" class="uuid-6cc345fd-39a9-4190-9197-c9dc1f2853c3"></path><path d="M10.26,24.18c-.22-.09-.46-.21-.83-.24.28.09.49.11.83.24Z" class="uuid-6cc345fd-39a9-4190-9197-c9dc1f2853c3"></path><path d="M10.28,23.98l-.11.03c.11.03.27.06.38.1l-.27-.13Z" class="uuid-6cc345fd-39a9-4190-9197-c9dc1f2853c3"></path><polygon points="10.16 23.92 10.28 23.98 10.32 23.97 10.16 23.92" class="uuid-6cc345fd-39a9-4190-9197-c9dc1f2853c3"></polygon><path d="M11.03,23.85c-.18-.07-.18-.1-.21-.13-.09.01-.14.04-.15.07.13.04.36.11.35.07Z" class="uuid-6cc345fd-39a9-4190-9197-c9dc1f2853c3"></path><path d="M10.88,23.94h-.02s-.05-.02.02,0Z" class="uuid-6cc345fd-39a9-4190-9197-c9dc1f2853c3"></path><path d="M10.89,23.42s-.05,0-.08-.01l.07.02h0Z" class="uuid-6cc345fd-39a9-4190-9197-c9dc1f2853c3"></path><path d="M10.6,23.77c-.09,0,.01.04.14.09-.04-.03-.06-.05-.06-.07-.06-.02-.1-.03-.08-.01Z" class="uuid-6cc345fd-39a9-4190-9197-c9dc1f2853c3"></path><path d="M11.27,23.72c-.09,0-.17,0-.24-.01.13.02.35.04.24.01Z" class="uuid-6cc345fd-39a9-4190-9197-c9dc1f2853c3"></path><path d="M10.98,23.95s.02,0,.02,0c.09.01.05,0-.02,0Z" class="uuid-6cc345fd-39a9-4190-9197-c9dc1f2853c3"></path><path d="M10.98,23.95c-.06-.03-.16-.06-.25-.09.03.02.07.05.13.07.03,0,.08.01.12.02Z" class="uuid-6cc345fd-39a9-4190-9197-c9dc1f2853c3"></path><path d="M8.24,22.73c.39.09.73.23.3.19.28.12,1.55.38,2.28.49-.17-.04-.32-.08-.54-.18-.21-.03-.52,0-.86-.12-.18-.12.15-.03.36-.02-.49-.08-.68-.25-1.39-.39l.24.12c-.11-.02-.28-.09-.39-.09Z" class="uuid-6cc345fd-39a9-4190-9197-c9dc1f2853c3"></path><path d="M10.75,23.51l.04.03c.07-.01.23,0,.54.04-.18-.08-.32-.12-.45-.15l-.08.1-.06-.02Z" class="uuid-6cc345fd-39a9-4190-9197-c9dc1f2853c3"></path><path d="M10.78,23.64c-.42-.12-.58-.21-1.04-.28.01.07.34.13.51.21-.08-.13.23.09.48.06.07.04.08.06.1.08.06,0,.12-.01.21-.01h-.03s0,0,0,0h0c-.05,0-.09-.02-.06-.01h0c-.06-.02-.11-.03-.16-.05.09-.01.11.02.16.04l.06.02h0s-.21-.16-.21-.16c-.06,0-.06.04-.02.1Z" class="uuid-6cc345fd-39a9-4190-9197-c9dc1f2853c3"></path><path d="M8.54,23.66s.07.01.1.02c-.05-.02-.08-.03-.1-.02Z" class="uuid-6cc345fd-39a9-4190-9197-c9dc1f2853c3"></path><path d="M8.81,23.68c.06.02.22.07.17.08-.13-.01-.2-.05-.34-.08.11.04.29.13.5.13l-.06-.02c.15,0,.69.07.75.09-.38-.08-.65-.14-1.03-.2Z" class="uuid-6cc345fd-39a9-4190-9197-c9dc1f2853c3"></path><path d="M9.68,23.64l-.18-.14-.37-.04.22.05c-.1.03.17.08.34.13Z" class="uuid-6cc345fd-39a9-4190-9197-c9dc1f2853c3"></path><polygon points="11.11 23.46 11.55 23.57 10.93 23.38 11.11 23.46" class="uuid-6cc345fd-39a9-4190-9197-c9dc1f2853c3"></polygon><polygon points="11.08 23.33 11.46 23.42 11.24 23.34 11.08 23.33" class="uuid-6cc345fd-39a9-4190-9197-c9dc1f2853c3"></polygon><path d="M7.14,16.3l-.11-.03s.07.02.11.03Z" class="uuid-6cc345fd-39a9-4190-9197-c9dc1f2853c3"></path><path d="M7.1,16.47l.19.02c-.11-.02-.19-.02-.19-.02Z" class="uuid-6cc345fd-39a9-4190-9197-c9dc1f2853c3"></path><path d="M11.58,20.42c.37.02.94.06.5,0l-.43-.05c.07.04.02.05-.07.06Z" class="uuid-6cc345fd-39a9-4190-9197-c9dc1f2853c3"></path><path d="M9.27,18.14s-.09,0-.13,0c.15.02.28.05.41.07-.09-.02-.18-.04-.28-.07Z" class="uuid-6cc345fd-39a9-4190-9197-c9dc1f2853c3"></path><path d="M7.48,17.93l.28-.02c-.1,0-.19,0-.28.02Z" class="uuid-6cc345fd-39a9-4190-9197-c9dc1f2853c3"></path><path d="M6.72,15.33l-.44-.04s.22.03.44.04Z" class="uuid-6cc345fd-39a9-4190-9197-c9dc1f2853c3"></path><path d="M11.18,22.09c.17,0,.25-.01.27-.03-.25,0-.63-.05-.27.03Z" class="uuid-6cc345fd-39a9-4190-9197-c9dc1f2853c3"></path><path d="M11.73,16.66c-.08-.02-.17-.03-.26-.04.07.02.15.04.26.04Z" class="uuid-6cc345fd-39a9-4190-9197-c9dc1f2853c3"></path><path d="M11.47,21.96s-.07,0-.1,0c.07.04.12.07.09.1.19,0,.31,0,.02-.1Z" class="uuid-6cc345fd-39a9-4190-9197-c9dc1f2853c3"></path><path d="M7.05,11.9s.03,0,.05-.01c-.06,0-.06,0-.05.01Z" class="uuid-6cc345fd-39a9-4190-9197-c9dc1f2853c3"></path><path d="M11.34,10.54s.03.03.04.04c.03-.01.03-.02-.04-.04Z" class="uuid-6cc345fd-39a9-4190-9197-c9dc1f2853c3"></path><path d="M11.37,22.9s.05.01,0,0h0Z" class="uuid-6cc345fd-39a9-4190-9197-c9dc1f2853c3"></path><path d="M9.66,22.66s-.11-.03-.2-.05c.1.03.16.04.2.05Z" class="uuid-6cc345fd-39a9-4190-9197-c9dc1f2853c3"></path><path d="M8.86,21.22h0c-.08,0-.07,0,0,0Z" class="uuid-6cc345fd-39a9-4190-9197-c9dc1f2853c3"></path><path d="M11.17,22.89c.05,0,.1,0,.13,0-.03,0-.08,0-.13,0Z" class="uuid-6cc345fd-39a9-4190-9197-c9dc1f2853c3"></path><path d="M11.37,22.93s-.03,0-.05.01c.07.02.11.03.05-.01Z" class="uuid-6cc345fd-39a9-4190-9197-c9dc1f2853c3"></path><path d="M11.35,22.86s-.02.02-.05.03c.03,0,.05,0,.07,0,0,0-.01-.02-.02-.04Z" class="uuid-6cc345fd-39a9-4190-9197-c9dc1f2853c3"></path><path d="M8.27,13.74s.02,0,.04,0c-.18-.02-.15-.01-.04,0Z" class="uuid-6cc345fd-39a9-4190-9197-c9dc1f2853c3"></path><polygon points="7.22 19.15 7.24 19.15 7.25 19.15 7.22 19.15" class="uuid-6cc345fd-39a9-4190-9197-c9dc1f2853c3"></polygon><path d="M6.91,19.02c.53.11.46.12.35.13l1.24.14-1.59-.27Z" class="uuid-6cc345fd-39a9-4190-9197-c9dc1f2853c3"></path><path d="M7.04,15.88l-.39.04c-.64-.1-.41-.14-.96-.11,1.36.08.13.22,1.48.3l-.29.02s-.07-.02-.05-.03c-.65.03.98.11.78.2-.11.03-.3.04-.46,0l.33.09s-.26,0-.24-.02l.1.12h-.04c.21.03.54.09.68.11-.2.02-.14-.02-.31-.03l.32.09c-.35,0-.69-.07-.64-.11-1.36-.04.34.08-.46.14l-.17-.07c-.77-.02-.5.05-.98.07.25,0,1.22-.04,1.55.05-.1.01-.15.03.12.09-.48-.04-.37,0-.34.05l-.64-.05c.18.06.51.08.79.13-.07.05-.56.02-.98,0-.11.08.8,0,.91.12-.25.05,0,.12.38.24-.22.03-.39-.04-.57-.04l.5.09s-.17,0-.25-.02c.19.06.64.06.8.14.7.08-1.04.03-.25.17-.18,0-.39-.05-.64-.06.51.15.37.12,1.07.28l-.42.03c.48,0,1.04.12,1.5.23.23,0,.44,0,.53,0l.33.13c-.11,0-.32-.03-.59-.08.05.01.1.02.15.03-.24,0-.6-.05-.96-.11.13,0,.26,0,.4,0-.38-.06-.81-.13-1.18-.16.07.01.13.03.17.05-.1-.02-.2-.03-.26-.03-.07,0,.07.02.23.05l-.71-.05.28.04-.46.07c.7.16,1.75.36,2.02.53-.52-.1-.85-.11-1.46-.18.66.04-.27-.14-.13-.19-.07.03-.37-.01-.47-.03l.58.19c-.5-.06-.38-.02-.59,0,1,.09.65.17.95.26-.33-.04-.67-.09-.58-.14-.76-.02,1.16.23.51.22,0-.02.05-.02-.12-.05.29.07.05.13-.24.07v-.02c-.14.09-.05.31.79.44-.11-.02-1.01-.15-1.18-.18l2.81.57c-.72-.12-2.45-.29-2.85-.43-.11,0-.23.02.02.11.11,0,1.05.1,1.12.14-.81-.05-.44-.02-1.14-.04.16,0,1.29.19,1.25.22-.17-.03-1.12-.16-1.23-.19l1.1.26c-.2-.05-.94-.14-1.26-.17.22.02-.03.08.07.12h.26c-.19.08,1.55.34,1.47.45-.23-.05-1.41-.25-1.56-.22.57.11,2.72.54,3.14.72l-.33-.03.36.14c-.85-.2-2.62-.62-3.32-.79-.26,0-.39-.05-.36.02-.31-.03-.46-.11-.47-.13l-.22.11c.67.1.65.21,1.2.3l-.66-.26c.66.1,1.87.39,1.74.48-.27-.02-1.18-.21-1.4-.25.23.05.42.17.26.15l-.35-.1c-.26.01.86.24.22.2-.05.02-.86-.08-.47,0,.76.09,3.1.48,3.67.61-.05,0-.75,0-1.12-.03-.6-.06-1.4-.31-1.92-.36.18.03.4.09.47.12-.16,0-.56-.11-.49-.04.67.13-.08.1.56.13.18.09-.15.03-.13.1.44.06,1.46.32,1.65.41-.17-.03-.39-.06-.5-.08-.08.1-.4.1-.42.2-.16-.02-.37-.01-.65-.09.12.04.34.09.35.13-.59-.05-.08-.09-.78-.18.39.08.52.18.75.28.6.1.14-.08-.1-.17.83.16,1.68.41,2.04.59.19.13-.54-.07-.43-.03-.18.13,1.42.43.79.45-.54-.05-1.05-.21-1.43-.28-.19-.11.36-.04.34-.09h-.26c-.17-.05-.29-.12-.14-.12-.48-.05-.14.25-.61.29.17.06.35.14.56.16l-.06-.06c.43.05.57.2.78.19.29.12.74.28.48.3l-.6-.12c.18.04.37.03.19-.03.26.09-.84-.06-.06.15l.43.04c.29.12.91.33.71.36.6.1-.06-.03.64.07-.87-.15.08-.17-.84-.3.81.12.36-.01,1.06.07-.2-.04-.38-.06-.27-.1-.06-.02-.13-.04-.17-.05h.02s-.02,0-.02,0c-.03,0-.04-.01,0,0-.09,0-.2-.02-.31-.03-.45-.13-.41-.21-.64-.29.1-.01.22.06.44.09l-.34-.12c.44.09.75.06.99.2l.03-.07c.25,0,.37-.03.19-.11.1-.02-.47-.19-.13-.09l-.25-.17.11.02c.08-.1-.68-.38.14-.35-.1-.06-.23-.12-.09-.17l.38.06c-.12-.07.41-.08.02-.17,1.04.13.27-.2.46-.26l-.5-.09c.04-.06-.09-.14-.28-.25l-.44-.07c-.35-.12.34-.11.31-.22.17.03.12.05.01.05,1.02.04-.69-.37.06-.36-.16-.05-.1-.06.01-.07,0,0,0,0,.02.01,0,0,0-.01,0-.01.08,0,.17,0,.24,0-.11,0-.2,0-.24,0,0-.02-.06-.06-.16-.11l.48.06s0,0-.01,0c.18,0-.22-.06-.58-.1-.08-.03-.17-.06-.28-.08.77.09-.25-.12.58-.03-.4-.08-.28-.2-1.12-.34.11.01.16.01.17.03.1-.02.2-.04-.03-.1l.61.07-.8-.19c.38,0,.59.02,1.05.13-.7-.21-.26-.13-.96-.32l.39.06s-.53-.16-.2-.13c.76.02.15-.35.87-.46-1.16-.1.53-.03-.37-.14.27.02.43.01.67.07-.26-.13.45-.1-.3-.25.28.02.4.06.56.07-.06-.01-.24-.06-.07-.05.16,0,.23.04.35.07-.04-.11-.88-.21-1.67-.3.38-.01.33-.04-.19-.13.26,0,.54,0,.62.08.04-.03.4-.18-.23-.24.16,0,.05-.04-.02-.06.05-.07.1-.08.05-.16h-.11c-.76-.09-.17-.07-.25-.14h.08c.57-.08-.26-.07.38-.16l-.48-.03c-1.03-.1.62-.07.23-.19h-.28c-.35-.06,1.41,0,1.54-.04.09,0,.14.03.21.05.62-.07-.62-.06-.76-.16.34,0,.86.09.93.03.28-.01-1.08-.25-.43-.29-.26,0-.52,0-.72-.05-.09-.07.99-.11.18-.22.07,0,.14,0,.21,0-.21-.06-.34-.18-.79-.23,1.66.05-.79-.34.74-.26l-.07-.15h.16c.11-.08-.26-.13-.62-.18.1-.02.25,0,.33.01.31-.12.25-.14-.51-.29h.5c-.29-.03.78-.17.21-.32.06,0,.15,0,.22.02-.57-.17,1.38-.34-.42-.43l-.44-.11c-.14.12-.78-.03-1.08.01-.11-.05.55-.12.64-.06h-.09c.94.05.34-.15.98-.13-.04-.25.48-.5.52-.74l-.73.03.04-.08c.17-.02.57-.03.54.03.41-.03-.35-.1-.51-.1.29-.12.85.04.87,0l-.05-.05h-.09c-.3-.03-.62-.03-.58-.1.15-.05.45-.03.48-.05.05,0,.08,0,.02-.03l.06-.11-.58.05c-.29-.04.03-.1-.62-.04,1.01-.09.36-.4.67-.45-.42-.05-.42-.12-.37-.2-.12.02-.77.05-.69-.01,1.34-.02.58-.14,1.54-.23-.64.07-.16-.19-1.07-.08.11-.06.5-.02.81-.08-.52-.11.32-.32.14-.48-.18,0-.44.05-.71.03l.87-.14c-.09-.03-1.02.02-.41-.07-.15.02-.37.04-.43.02.84-.39-.74-.62.84-1.08-.34.07-.37.05-.39.01-.08.03-.43.03-.67.06l.65-.19c-.66.03-.06-.15-.69-.11l.12.03c-.75,0-1.65.23-2.6.3.85,0-1.24.26-.02.27-.19.04-.31,0-.53.04.41,0,.5.02.32.09h-.1c.11.15-.28.25-.54.45l.47-.04c-.06.04-.21.06-.33.09.72,0,.04-.11.83-.12-.96.11,0,.27-1.09.37,0,.06.55-.05.54.01l-.3.03h.38c-.06.04-.43.08-.68.09.03-.01-.07-.02-.09-.03-.35.07.13.13.01.16l.18-.07c.29.15-.09.36.51.49l.22-.02c.42.1-.24.1-.05.23h-.05c.22.02.34.05.31.08-.26-.02-.51.08-.8.04.45.11.35.05,1.18.12l-.37.03c.34.02.51.02.61.08-.32-.05-.56.06-.99,0-.81.15.82.19-.36.27,1.03.05.57-.13.79-.1.33-.04.77.04.67.08-.02.05-1.31.1-1.29.21,0-.01-.07-.01-.07-.02-.26.04.35.08-.07.13.62.02-.03.07.76.07l-.18-.1c.21.06,1.13.1.69.2-.16,0-.37-.03-.49-.05-.23.03.15.05-.08.08-.79,0-.17-.12-.78-.18-.33.03.57.11-.28.09,1.09.04-.14.11.7.18h-.47c.07,0,.3.03.29.05l-.62-.04c.53.06-.46.11-.17.17-.01-.12.57-.03.92-.08.63.15-1.24.08-1.02.25-.07-.02.29-.08.51-.04-.1.03-.28.07-.53.09.1.11.49-.01.78.04-.58.03.23.06.42.11h-.48c-.31.12,1,.04.63.15l-.67-.06.17.06-.55-.02c.41.07.3.09.15.15.34,0,.87.03.89.08-.29.03-.46-.03-.39.05-.3-.02-.68-.05-.24-.08-.16-.01-.3-.02-.46-.03-.33.03-.08.1-.07.13.02-.01.04-.02.11-.03l.67.13c-.18.01-.33,0-.47-.02.05.02.27.05.31.08-.39-.02-.8-.03-.98-.08l.43.12c-.17,0-.47.04-.61.02-.23.05.76.17.45.24.08,0,.15.02.2.04-.09.07-.57.12-.04.23l-.7.02c.16.08.89-.03,1.15.1.22.09-.6,0-.8.02.35.06,1.07.16.49.21-.13-.03-.03-.05-.08-.07ZM7.29,16.75c-.1-.02-.41-.08-.12-.07.55.06.29.05.12.07ZM8.33,18.17c-.16-.03-.08-.04.11-.04.04.02.02.04-.11.04ZM11.04,22.54s-.01,0-.02,0c.19,0,.12,0,.02,0ZM10.82,22.58c.06.02.13.04.2.05-.12-.03-.12-.05-.08-.07-.12-.02-.21-.03-.11.02ZM11.51,13.45l-.13.02c-.14-.04-.01-.03.13-.02Z" class="uuid-6cc345fd-39a9-4190-9197-c9dc1f2853c3"></path><path d="M7.69,17.95c.08,0,.17.01.26.02-.08-.02-.17-.02-.26-.02Z" class="uuid-6cc345fd-39a9-4190-9197-c9dc1f2853c3"></path><polygon points="6.8 15.34 6.81 15.34 6.72 15.33 6.8 15.34" class="uuid-6cc345fd-39a9-4190-9197-c9dc1f2853c3"></polygon><path d="M7.04,20.57c.07,0,.16,0,.25.01-.12-.02-.22-.03-.25-.01Z" class="uuid-6cc345fd-39a9-4190-9197-c9dc1f2853c3"></path><path d="M11.52,23.2l-.11-.08s-.09.02-.17.02c.11.02.27.05.28.07Z" class="uuid-6cc345fd-39a9-4190-9197-c9dc1f2853c3"></path><path d="M8.51,23c.06.02,0,.02.06.04l.22.05s-.18-.1-.28-.09Z" class="uuid-6cc345fd-39a9-4190-9197-c9dc1f2853c3"></path><path d="M9.95,22.91c-.4-.08-.27-.02-.2.03,0,0,0,0,0,0,.55.13.38.05.2-.03Z" class="uuid-6cc345fd-39a9-4190-9197-c9dc1f2853c3"></path><path d="M9.75,22.95s.02.03,0,.04c.22.05.05,0,0-.04Z" class="uuid-6cc345fd-39a9-4190-9197-c9dc1f2853c3"></path><path d="M11.06,22.75c-.11,0,.51.12.34.09.5.13-.58-.25-.34-.09Z" class="uuid-6cc345fd-39a9-4190-9197-c9dc1f2853c3"></path><polygon points="8.64 22.65 9.13 22.74 8.74 22.64 8.64 22.65" class="uuid-6cc345fd-39a9-4190-9197-c9dc1f2853c3"></polygon><path d="M9.06,22.44l-.15.03c.08.02.13.03.16.05.02-.03.13-.05-.01-.08Z" class="uuid-6cc345fd-39a9-4190-9197-c9dc1f2853c3"></path><path d="M9.07,22.52s0,.04.07.06c0-.01-.01-.04-.07-.06Z" class="uuid-6cc345fd-39a9-4190-9197-c9dc1f2853c3"></path><polygon points="8.51 22.54 8.61 22.54 8.66 22.51 8.51 22.54" class="uuid-6cc345fd-39a9-4190-9197-c9dc1f2853c3"></polygon><path d="M9.28,21.84l-.13-.09c-.17-.04-.27-.04-.21,0,.11.04.18.07.34.1Z" class="uuid-6cc345fd-39a9-4190-9197-c9dc1f2853c3"></path><path d="M7.9,21.76c.1,0,.21.02.38.05l-.61-.12.23.08Z" class="uuid-6cc345fd-39a9-4190-9197-c9dc1f2853c3"></path><path d="M7.79,21.56c-.17-.04-.47-.18-.44-.1.17.04.29.13.44.1Z" class="uuid-6cc345fd-39a9-4190-9197-c9dc1f2853c3"></path><polygon points="8.73 20.77 8.74 20.79 9.74 20.96 8.73 20.77" class="uuid-6cc345fd-39a9-4190-9197-c9dc1f2853c3"></polygon><path d="M6.46,19.58c-.25.03.62.11.31.13.24.05.25-.01.46.03-.24-.08-.1-.08-.77-.16Z" class="uuid-6cc345fd-39a9-4190-9197-c9dc1f2853c3"></path><path d="M7.22,19.74s.09.03.15.05c-.06-.02-.11-.04-.15-.05Z" class="uuid-6cc345fd-39a9-4190-9197-c9dc1f2853c3"></path><polygon points="11.87 10.3 12.08 10.23 11.74 10.3 11.87 10.3" class="uuid-6cc345fd-39a9-4190-9197-c9dc1f2853c3"></polygon><path d="M11.11,10.27l.65-.07-.59.02s.09.03-.06.05Z" class="uuid-6cc345fd-39a9-4190-9197-c9dc1f2853c3"></path><path d="M5.98,16.77l.16.02c.17,0,.18,0,.21-.02h-.37Z" class="uuid-6cc345fd-39a9-4190-9197-c9dc1f2853c3"></path><polygon points="6.51 16.21 6.49 16.21 7.08 16.23 6.51 16.21" class="uuid-6cc345fd-39a9-4190-9197-c9dc1f2853c3"></polygon><path d="M5.79,15.66s.1.05.08.07c-.1-.05.65-.04-.08-.07Z" class="uuid-6cc345fd-39a9-4190-9197-c9dc1f2853c3"></path></svg>