<svg viewBox="0 0 25.87 19.96" xmlns="http://www.w3.org/2000/svg" id="uuid-c79cc55a-3b8c-4f93-9658-a2ed92b8a45c"><defs><style>.uuid-314f91b4-29ff-40b4-bed7-03e579de2342{fill:#82cd50;stroke-width:0px;}</style></defs><path d="M12.39,19.94s.38.02.46.02c-.09-.05-.57-.02-.46-.02Z" class="uuid-314f91b4-29ff-40b4-bed7-03e579de2342"></path><polygon points="11.44 19.45 11.61 19.46 11.19 19.39 11.44 19.45" class="uuid-314f91b4-29ff-40b4-bed7-03e579de2342"></polygon><path d="M11.45,19c-.71.04.12.16-.14.25h-.16s.58.05.58.05c-.09-.1-.47-.23-.27-.3Z" class="uuid-314f91b4-29ff-40b4-bed7-03e579de2342"></path><path d="M12.99,18.75c-.28.01-.24-.05-.09.06.03,0,.05,0,.07-.01,0,0,0-.02.02-.05Z" class="uuid-314f91b4-29ff-40b4-bed7-03e579de2342"></path><path d="M12.97,18.8s.23-.03,0,0h0Z" class="uuid-314f91b4-29ff-40b4-bed7-03e579de2342"></path><path d="M12.82,18.58l.25.06c.16-.01.2-.07.32-.05-.14-.06-.3-.05-.57-.01Z" class="uuid-314f91b4-29ff-40b4-bed7-03e579de2342"></path><path d="M12.29,18.52l.1.03c.07,0,.09-.01-.1-.03Z" class="uuid-314f91b4-29ff-40b4-bed7-03e579de2342"></path><path d="M12.62,18.62l-.22-.07c-.11,0-.35.01.08.03-.21,0,0,0,.14.04Z" class="uuid-314f91b4-29ff-40b4-bed7-03e579de2342"></path><path d="M12.51,18.66c-.16.04-.25.08-.5.02.1.12.6.1.5-.02Z" class="uuid-314f91b4-29ff-40b4-bed7-03e579de2342"></path><path d="M10.71,18.97l-.21.05.24.04c-.12-.02.19-.09-.03-.09Z" class="uuid-314f91b4-29ff-40b4-bed7-03e579de2342"></path><path d="M13.19,18.19c-.15,0-.4.02-.6.03l.17.05c.1-.02.2-.07.42-.07Z" class="uuid-314f91b4-29ff-40b4-bed7-03e579de2342"></path><path d="M12.59,18.21l-.26-.07c-.03.06.09.07.26.07Z" class="uuid-314f91b4-29ff-40b4-bed7-03e579de2342"></path><polygon points="11.5 18.51 12.05 18.62 11.49 18.49 11.5 18.51" class="uuid-314f91b4-29ff-40b4-bed7-03e579de2342"></polygon><polygon points="13.2 17.92 13.56 17.96 13.02 17.89 13.2 17.92" class="uuid-314f91b4-29ff-40b4-bed7-03e579de2342"></polygon><path d="M13.14,17.74c.29.03.49-.04.67,0-.05-.05-.3-.09-.53-.13.13.04.09.08-.14.13Z" class="uuid-314f91b4-29ff-40b4-bed7-03e579de2342"></path><path d="M12.96,17.55c.07.02.19.04.33.06-.07-.02-.16-.04-.33-.06Z" class="uuid-314f91b4-29ff-40b4-bed7-03e579de2342"></path><path d="M12.4,18.02c.09,0,.33-.02.43-.05l-.43.03s0,.02,0,.03Z" class="uuid-314f91b4-29ff-40b4-bed7-03e579de2342"></path><path d="M12.39,18h.01s.02-.05.02-.06c0,0-.02.03-.04.06Z" class="uuid-314f91b4-29ff-40b4-bed7-03e579de2342"></path><path d="M12.4,18.03s0,0,0,0c-.04,0-.06,0,0,0Z" class="uuid-314f91b4-29ff-40b4-bed7-03e579de2342"></path><path d="M11.89,18.32c-.24-.04-.5-.13-.86-.04.29.03.5-.02.86.04Z" class="uuid-314f91b4-29ff-40b4-bed7-03e579de2342"></path><path d="M11.86,18.06l-.1.07c.11,0,.28-.01.4,0l-.3-.08Z" class="uuid-314f91b4-29ff-40b4-bed7-03e579de2342"></path><polygon points="11.73 18.03 11.86 18.06 11.9 18.04 11.73 18.03" class="uuid-314f91b4-29ff-40b4-bed7-03e579de2342"></polygon><path d="M12.56,17.67c-.19-.03-.2-.07-.23-.11-.08.04-.13.09-.13.13.13,0,.38.02.36-.02Z" class="uuid-314f91b4-29ff-40b4-bed7-03e579de2342"></path><path d="M12.44,17.83s-.01,0-.02,0c-.04,0-.05,0,.02,0Z" class="uuid-314f91b4-29ff-40b4-bed7-03e579de2342"></path><path d="M12.33,17.18s-.05,0-.08,0c.02,0,.05,0,.07,0h0Z" class="uuid-314f91b4-29ff-40b4-bed7-03e579de2342"></path><path d="M12.12,17.7c-.08.03.02.05.15.07-.04-.02-.07-.05-.07-.08-.06,0-.1,0-.08,0Z" class="uuid-314f91b4-29ff-40b4-bed7-03e579de2342"></path><path d="M12.76,17.44c-.09.02-.17.04-.23.06.13-.02.35-.05.23-.06Z" class="uuid-314f91b4-29ff-40b4-bed7-03e579de2342"></path><path d="M12.54,17.81s.01,0,.02,0c.09-.01.05,0-.02,0Z" class="uuid-314f91b4-29ff-40b4-bed7-03e579de2342"></path><path d="M12.54,17.81c-.06-.02-.17-.03-.26-.04.03.02.08.04.14.05.03,0,.08,0,.12-.01Z" class="uuid-314f91b4-29ff-40b4-bed7-03e579de2342"></path><path d="M9.59,17.06c.4,0,.76.09.34.16.3.07,1.6.02,2.33-.04-.17,0-.33,0-.57-.08-.22.03-.51.16-.86.1-.2-.1.14-.08.35-.13-.49.04-.72-.12-1.44-.1l.26.08c-.11,0-.29-.03-.4,0Z" class="uuid-314f91b4-29ff-40b4-bed7-03e579de2342"></path><path d="M12.21,17.32l.05.03c.07-.03.23-.06.54-.1-.19-.05-.34-.06-.47-.06l-.06.15h-.06Z" class="uuid-314f91b4-29ff-40b4-bed7-03e579de2342"></path><path d="M12.26,17.49c-.43-.02-.61-.1-1.08-.05.03.09.36.06.55.11-.11-.14.24.04.48-.06.07.03.1.05.11.08.05-.03.12-.05.2-.07-.01,0-.02,0-.03,0h0s0,0,0,0c-.05,0-.09,0-.06,0,0,0,0,0,0,0-.06,0-.11,0-.16,0,.09-.04.11,0,.16,0,.02,0,.04,0,.07,0,0,0,0,0,0,0l-.24-.14c-.06.03-.05.07,0,.14Z" class="uuid-314f91b4-29ff-40b4-bed7-03e579de2342"></path><path d="M10.1,18.2s.07,0,.1,0c-.05,0-.09-.01-.1,0Z" class="uuid-314f91b4-29ff-40b4-bed7-03e579de2342"></path><path d="M10.36,18.15c.06.01.23.02.19.05-.13.03-.21,0-.35,0,.11.02.31.07.52,0h-.06c.15-.07.69-.14.74-.13-.39.02-.66.03-1.04.07Z" class="uuid-314f91b4-29ff-40b4-bed7-03e579de2342"></path><path d="M11.2,17.81l-.21-.12-.37.06h.22c-.09.06.19.05.36.06Z" class="uuid-314f91b4-29ff-40b4-bed7-03e579de2342"></path><polygon points="12.55 17.16 13 17.18 12.36 17.11 12.55 17.16" class="uuid-314f91b4-29ff-40b4-bed7-03e579de2342"></polygon><polygon points="12.49 17.01 12.89 17.01 12.65 16.97 12.49 17.01" class="uuid-314f91b4-29ff-40b4-bed7-03e579de2342"></polygon><path d="M7.58,8.28l-.11-.03s.07.03.11.03Z" class="uuid-314f91b4-29ff-40b4-bed7-03e579de2342"></path><path d="M7.55,8.54h.19c-.11,0-.19-.01-.19,0Z" class="uuid-314f91b4-29ff-40b4-bed7-03e579de2342"></path><path d="M12.45,13.21c.37-.05.94-.11.5-.1l-.43.02c.08.04.03.06-.06.09Z" class="uuid-314f91b4-29ff-40b4-bed7-03e579de2342"></path><path d="M9.86,10.61s-.09,0-.13.01c.15.01.29.02.41.03-.09-.02-.18-.03-.28-.05Z" class="uuid-314f91b4-29ff-40b4-bed7-03e579de2342"></path><path d="M8.06,10.57l.28-.07c-.1.02-.19.04-.28.07Z" class="uuid-314f91b4-29ff-40b4-bed7-03e579de2342"></path><path d="M7.12,6.9l-.44-.04c0,.06.22.04.44.04Z" class="uuid-314f91b4-29ff-40b4-bed7-03e579de2342"></path><path d="M12.33,15.42c.17-.04.24-.08.26-.11-.25.05-.62.1-.26.11Z" class="uuid-314f91b4-29ff-40b4-bed7-03e579de2342"></path><path d="M12.19,8.38c-.08-.02-.17-.03-.26-.03.07.02.16.03.26.03Z" class="uuid-314f91b4-29ff-40b4-bed7-03e579de2342"></path><path d="M12.59,15.19s-.07.02-.1.02c.07.03.13.06.1.1.18-.04.3-.08,0-.13Z" class="uuid-314f91b4-29ff-40b4-bed7-03e579de2342"></path><path d="M7.48,1.89s.03,0,.05-.01c-.06,0-.06,0-.05.01Z" class="uuid-314f91b4-29ff-40b4-bed7-03e579de2342"></path><path d="M11.86.42s.03.04.03.06c.03-.01.03-.03-.03-.06Z" class="uuid-314f91b4-29ff-40b4-bed7-03e579de2342"></path><path d="M12.68,16.39s.05,0,0,0h0Z" class="uuid-314f91b4-29ff-40b4-bed7-03e579de2342"></path><path d="M10.96,16.55s-.11-.01-.21-.01c.1,0,.17,0,.21.01Z" class="uuid-314f91b4-29ff-40b4-bed7-03e579de2342"></path><path d="M9.89,14.86s0,0,0,0c-.08,0-.07,0,0,0Z" class="uuid-314f91b4-29ff-40b4-bed7-03e579de2342"></path><path d="M12.48,16.44c.05-.01.1-.03.13-.04-.03,0-.08.02-.13.04Z" class="uuid-314f91b4-29ff-40b4-bed7-03e579de2342"></path><path d="M12.69,16.43s-.03.02-.04.03c.07,0,.12,0,.04-.03Z" class="uuid-314f91b4-29ff-40b4-bed7-03e579de2342"></path><path d="M12.66,16.34s-.01.04-.04.05c.03,0,.05,0,.07,0,0,0-.02-.02-.02-.05Z" class="uuid-314f91b4-29ff-40b4-bed7-03e579de2342"></path><path d="M8.64,4.57s.02,0,.04,0c-.18-.03-.15-.02-.04,0Z" class="uuid-314f91b4-29ff-40b4-bed7-03e579de2342"></path><path d="M7.94,12.36s.02,0,.02,0c0,0,.01,0,.02,0h-.04Z" class="uuid-314f91b4-29ff-40b4-bed7-03e579de2342"></path><path d="M7.62,12.24c.54.05.47.08.36.12l1.25-.04-1.61-.08Z" class="uuid-314f91b4-29ff-40b4-bed7-03e579de2342"></path><path d="M7.46,7.68l-.39.08c-.64-.1-.42-.17-.97-.09,1.36.01.14.32,1.5.33l-.29.05s-.07-.02-.05-.03c-.65.11.98.08.79.22-.1.05-.3.08-.46.05l.34.11s-.26.02-.24,0l.11.16h-.04c.21.02.54.07.68.1-.2.04-.14-.02-.31-.01l.33.09c-.35.04-.69-.04-.64-.1-1.36.08.34.07-.45.25l-.17-.08c-.77.05-.49.12-.97.22.25-.02,1.21-.19,1.55-.09-.1.03-.15.06.12.12-.48,0-.36.05-.34.12h-.64c.19.06.51.06.8.1-.06.08-.56.09-.98.11-.1.12.79-.09.92.06-.24.1.02.17.4.3-.22.07-.39-.01-.57.01l.51.06s-.17.01-.25,0c.2.05.64,0,.81.09.71.02-1.03.17-.23.28-.18.03-.39-.01-.64,0,.53.14.38.12,1.09.24l-.42.1c.48-.07,1.05.02,1.52.1.23-.03.44-.05.53-.06l.34.13c-.1.02-.33,0-.59-.02.05,0,.1.02.15.02-.24.05-.61.02-.96-.01.13-.02.26-.03.4-.05-.39-.03-.82-.06-1.19-.06.07,0,.14.03.17.04-.11,0-.2-.01-.26-.01-.07,0,.07.02.24.04l-.71.03h.28s-.45.18-.45.18c.72.12,1.77.23,2.07.43-.52-.05-.85-.01-1.47-.01.66-.05-.28-.15-.15-.25-.07.05-.37.04-.47.03l.6.18c-.51,0-.38.04-.59.09,1-.04.67.14.97.21-.34,0-.68-.01-.6-.1-.75.1,1.18.13.54.23,0-.02.04-.03-.13-.04.3.05.06.18-.23.15v-.02c-.13.15-.01.44.84.46-.11,0-1.03-.02-1.2-.03l2.86.26c-.73-.02-2.47.07-2.88-.06-.1.03-.23.08.03.15.1-.02,1.06-.06,1.12-.03-.81.09-.44.06-1.13.17.16-.04,1.3,0,1.27.06-.17,0-1.13,0-1.25-.02l1.12.14c-.2-.03-.95,0-1.27.03.22-.01-.02.12.09.16l.26-.06c-.17.16,1.58.16,1.52.31-.23-.02-1.43-.05-1.57.03.58.04,2.77.16,3.21.3l-.33.03.38.11c-.87-.07-2.69-.25-3.4-.35-.26.06-.39.02-.36.1-.31.03-.47-.05-.49-.07l-.2.21c.67,0,.67.16,1.23.15l-.7-.22c.67,0,1.91.13,1.79.27-.27.04-1.2-.03-1.42-.02.23.02.44.14.28.15l-.36-.06c-.25.08.89.13.25.23-.04.03-.87.1-.47.11.77-.05,3.14-.07,3.72-.03-.05.01-.73.18-1.11.21-.6.06-1.43-.08-1.95-.04.18,0,.41.03.48.05-.16.04-.57-.01-.49.06.68.01-.06.16.58.04.19.08-.14.08-.11.17.44-.03,1.5.08,1.69.15-.17,0-.4.01-.5.02-.06.15-.37.24-.38.38-.17.01-.36.08-.66.05.12.02.35.04.37.08-.59.09-.09-.1-.8-.03.4,0,.55.11.79.18.61-.02.12-.15-.13-.21.84,0,1.73.11,2.12.26.21.12-.55.05-.43.07-.15.22,1.47.19.86.38-.54.07-1.07,0-1.46.02-.2-.1.34-.15.32-.21l-.25.08c-.18-.03-.31-.1-.16-.13-.48.06-.09.38-.54.55.18.03.37.08.58.06l-.07-.05c.43-.05.6.1.8.03.31.07.78.16.54.26l-.61.02c.18,0,.36-.07.18-.1.27.04-.83.16-.03.21l.42-.07c.31.07.96.16.77.26.61-.04-.07-.02.64-.09-.88.06.04-.23-.89-.14.82-.07.35-.12,1.05-.2-.2,0-.39.03-.29-.05-.06,0-.13-.01-.18-.02,0,0,0,0,.02,0,0,0-.02,0-.02,0-.03,0-.04,0,0,0-.09.02-.2.03-.31.04-.46-.04-.45-.16-.69-.2.1-.05.23.02.45,0l-.36-.06c.45,0,.75-.12,1.01-.01l.02-.1c.25-.06.35-.14.16-.18.1-.05-.5-.11-.15-.08l-.28-.15h.11c.06-.15-.74-.31.07-.48-.11-.05-.25-.1-.12-.19l.39-.02c-.13-.06.39-.19-.02-.22,1.05-.07.23-.31.41-.43h-.51c.03-.08-.12-.16-.32-.25h-.45c-.37-.08.32-.21.27-.34.17,0,.13.04.02.07,1.01-.16-.74-.33,0-.48-.16-.04-.11-.06,0-.09,0,0,.01,0,.02,0,0,0,0,0,0-.01.08-.02.17-.03.24-.05-.11.01-.2.03-.24.04,0-.03-.06-.07-.18-.11l.48-.02s0,0-.01,0c.18-.04-.23-.03-.59-.01-.08-.02-.17-.04-.29-.05.78-.03-.26-.11.57-.15-.4-.03-.3-.21-1.16-.23.11,0,.16-.01.17,0,.1-.05.19-.09-.05-.13l.61-.02-.82-.1c.37-.06.59-.09,1.06-.03-.73-.15-.27-.12-.99-.24h.4s-.55-.11-.22-.14c.75-.1.1-.49.8-.74-1.17.05.52-.12-.38-.13.28-.02.43-.05.67,0-.27-.13.44-.19-.32-.28.28-.01.4.03.57.01-.06-.01-.24-.04-.08-.05.16-.01.23.02.35.04-.05-.13-.9-.15-1.69-.16.38-.07.32-.1-.2-.15.26-.02.53-.06.63.02.04-.05.38-.28-.26-.29.16-.01.05-.06-.03-.08.04-.1.1-.11.04-.21l-.1.03c-.77-.04-.17-.08-.26-.17h.08c.56-.19-.27-.08.37-.26h-.48c-1.03,0,.61-.15.21-.26l-.27.04c-.35-.06,1.4-.16,1.53-.22.09-.01.14.02.21.04.61-.15-.63-.02-.77-.14.34-.02.86.03.93-.05.27-.04-1.1-.23-.45-.33-.26.02-.52.05-.72,0-.09-.08.99-.22.16-.3.07-.01.14-.01.21-.01-.21-.06-.35-.2-.8-.24,1.66-.06-.81-.39.72-.39l-.08-.19h.16c.1-.12-.27-.16-.63-.21.1-.03.25,0,.33,0,.31-.18.24-.2-.52-.35l.5-.02c-.29-.04.78-.26.2-.44.06,0,.15,0,.22.02-.58-.2,1.37-.48-.43-.55l-.44-.13c-.14.17-.78-.03-1.08.04-.11-.07.54-.17.64-.09h-.09c.94.04.33-.2.97-.19-.05-.33.47-.66.51-.97l-.73.04.04-.11c.17-.03.57-.04.54.04.41-.04-.35-.13-.51-.13.3-.15.85.06.87.01l-.05-.06h-.09c-.3-.04-.62-.04-.58-.14.15-.06.45-.03.48-.05.05,0,.08,0,.02-.04l.06-.14-.58.06c-.29-.06.03-.13-.62-.07,1.01-.09.36-.51.67-.57-.42-.09-.41-.17-.36-.27-.12.03-.77.04-.69-.05,1.34.03.58-.17,1.55-.24-.64.06-.16-.26-1.07-.15.11-.08.5,0,.82-.06-.52-.18.34-.39.16-.62-.18,0-.44.03-.71-.01l.88-.12c-.09-.04-1.02-.04-.4-.12-.15.01-.37.03-.43,0,.86-.43-.7-.89.91-1.33-.34.06-.37.02-.39-.03-.08.03-.43,0-.67,0l.66-.18c-.66-.03-.04-.2-.68-.22l.11.06c-.75-.08-1.66.11-2.62.1.85.09-1.26.23-.04.37-.2.03-.31-.03-.53,0,.41.04.5.08.31.16h-.1c.1.22-.3.32-.57.57l.47-.02c-.06.05-.21.07-.33.09.72.06.04-.15.83-.1-.96.07-.01.39-1.11.44,0,.08.55-.02.54.06l-.3.02.38.02c-.06.06-.43.08-.68.09.03-.01-.07-.04-.09-.05-.35.07.12.2,0,.23l.18-.08c.28.23-.11.51.49.73l.22-.02c.41.17-.25.14-.05.32h-.05c.22.03.33.08.31.13-.26-.05-.51.09-.8.03.44.18.35.09,1.18.21l-.37.03c.34.04.51.04.61.14-.32-.08-.56.06-.99-.03-.81.2.82.29-.37.38,1.03.09.57-.17.79-.12.33-.04.77.07.66.14-.02.06-1.31.11-1.29.26,0-.02-.07-.02-.07-.03-.26.06.35.12-.07.19.62.04-.04.09.76.1l-.18-.14c.21.08,1.13.16.68.29-.16-.01-.37-.05-.49-.08-.23.04.15.08-.09.12-.79-.01-.17-.18-.78-.26-.33.04.57.17-.28.12,1.09.06-.14.15.7.26h-.47c.07,0,.3.04.29.08l-.62-.06c.52.09-.46.17-.17.25-.01-.17.57-.04.92-.11.64.21-1.24.12-1.01.36-.07-.03.28-.12.5-.07-.1.05-.28.11-.53.13.1.16.49-.02.78.04-.58.05.24.08.42.15h-.48c-.31.18,1.01.05.63.21l-.67-.07.17.08-.55-.02c.41.09.3.12.15.21.34-.02.88.01.89.09-.29.05-.46-.03-.39.08-.3-.03-.68-.05-.24-.1-.16,0-.3-.03-.46-.03-.33.06-.07.15-.07.19.02-.02.04-.03.11-.04l.67.16c-.18.03-.33,0-.47-.02.05.03.27.06.32.1-.39-.01-.8,0-.98-.08l.44.16c-.17.01-.47.08-.61.06-.23.09.76.21.46.33.08,0,.15.02.2.04-.09.11-.57.2-.03.33l-.7.07c.16.1.89-.1,1.15.07.22.12-.6.04-.79.09.35.06,1.08.16.5.27-.13-.04-.03-.06-.08-.1ZM7.77,8.91c-.1-.02-.41-.07-.13-.09.55.03.29.05.13.09ZM8.93,10.79c-.16-.02-.08-.05.1-.08.04.02.02.05-.1.08ZM12.29,16.03s-.01,0-.02,0c.19-.05.11-.03.02,0ZM12.08,16.14c.07.01.13.01.2,0-.12,0-.13-.03-.1-.06-.13,0-.21.02-.11.06ZM11.89,4.22l-.13.02c-.14-.05-.01-.04.13-.02Z" class="uuid-314f91b4-29ff-40b4-bed7-03e579de2342"></path><path d="M8.27,10.58c.08,0,.17,0,.26-.01-.08,0-.17,0-.26.01Z" class="uuid-314f91b4-29ff-40b4-bed7-03e579de2342"></path><path d="M7.2,6.91s0,0,0,0c-.03,0-.06,0-.09,0h.08Z" class="uuid-314f91b4-29ff-40b4-bed7-03e579de2342"></path><path d="M7.99,14.42c.07-.02.16-.04.25-.04-.12,0-.22,0-.25.04Z" class="uuid-314f91b4-29ff-40b4-bed7-03e579de2342"></path><path d="M12.9,16.73l-.13-.07s-.08.05-.16.06c.11,0,.28-.02.28,0Z" class="uuid-314f91b4-29ff-40b4-bed7-03e579de2342"></path><path d="M9.91,17.34c.06.01,0,.02.07.03h.22s-.2-.08-.29-.03Z" class="uuid-314f91b4-29ff-40b4-bed7-03e579de2342"></path><path d="M11.3,16.79c-.41,0-.27.05-.19.1,0,0,0,0,0,0,.57.01.38-.04.19-.09Z" class="uuid-314f91b4-29ff-40b4-bed7-03e579de2342"></path><path d="M11.12,16.9s.03.03.01.05c.23,0,.05-.02-.01-.05Z" class="uuid-314f91b4-29ff-40b4-bed7-03e579de2342"></path><path d="M12.35,16.28c-.1.02.52.01.35.03.52.03-.62-.16-.35-.03Z" class="uuid-314f91b4-29ff-40b4-bed7-03e579de2342"></path><polygon points="9.96 16.83 10.46 16.81 10.06 16.79 9.96 16.83" class="uuid-314f91b4-29ff-40b4-bed7-03e579de2342"></polygon><path d="M10.33,16.44l-.14.08c.08,0,.13,0,.17.02.02-.05.12-.1-.03-.1Z" class="uuid-314f91b4-29ff-40b4-bed7-03e579de2342"></path><path d="M10.36,16.54s0,.05.08.06c0-.01-.02-.04-.08-.06Z" class="uuid-314f91b4-29ff-40b4-bed7-03e579de2342"></path><polygon points="9.81 16.72 9.91 16.7 9.95 16.64 9.81 16.72" class="uuid-314f91b4-29ff-40b4-bed7-03e579de2342"></polygon><path d="M10.42,15.58l-.14-.09c-.17,0-.28.01-.21.05.12.02.19.05.35.04Z" class="uuid-314f91b4-29ff-40b4-bed7-03e579de2342"></path><path d="M9.05,15.85c.1-.02.22-.02.38-.04h-.62s.24.04.24.04Z" class="uuid-314f91b4-29ff-40b4-bed7-03e579de2342"></path><path d="M8.91,15.59c-.17,0-.49-.13-.46-.02.17,0,.31.1.46.02Z" class="uuid-314f91b4-29ff-40b4-bed7-03e579de2342"></path><polygon points="9.69 14.28 9.7 14.31 10.72 14.3 9.69 14.28" class="uuid-314f91b4-29ff-40b4-bed7-03e579de2342"></polygon><path d="M7.25,13.13c-.24.1.63.02.32.12.24.02.25-.08.46-.05-.25-.06-.11-.09-.78-.07Z" class="uuid-314f91b4-29ff-40b4-bed7-03e579de2342"></path><path d="M8.04,13.2s.09.02.15.03c-.06-.02-.11-.03-.15-.03Z" class="uuid-314f91b4-29ff-40b4-bed7-03e579de2342"></path><polygon points="12.41 .18 12.62 .12 12.28 .16 12.41 .18" class="uuid-314f91b4-29ff-40b4-bed7-03e579de2342"></polygon><path d="M11.65.06l.65-.02-.59-.04s.08.04-.06.06Z" class="uuid-314f91b4-29ff-40b4-bed7-03e579de2342"></path><path d="M6.46,9.1h.16c.17,0,.18-.02.21-.05l-.36.05Z" class="uuid-314f91b4-29ff-40b4-bed7-03e579de2342"></path><polygon points="6.95 8.2 6.93 8.21 7.52 8.19 6.95 8.2" class="uuid-314f91b4-29ff-40b4-bed7-03e579de2342"></polygon><path d="M6.2,7.45s.11.07.08.1c-.11-.07.65-.11-.08-.1Z" class="uuid-314f91b4-29ff-40b4-bed7-03e579de2342"></path><path d="M25.69,12.73s.15-.35.18-.42c-.09.07-.22.52-.18.42Z" class="uuid-314f91b4-29ff-40b4-bed7-03e579de2342"></path><polygon points="24.77 13.42 24.83 13.26 24.6 13.62 24.77 13.42" class="uuid-314f91b4-29ff-40b4-bed7-03e579de2342"></polygon><path d="M24.2,13.21c-.19.69.24-.04.26.24l-.04.16.24-.53c-.15.04-.44.35-.46.13Z" class="uuid-314f91b4-29ff-40b4-bed7-03e579de2342"></path><path d="M24.42,11.65c-.07.27-.15.2.04.11,0-.03,0-.05.01-.07-.01,0-.03,0-.05-.04Z" class="uuid-314f91b4-29ff-40b4-bed7-03e579de2342"></path><path d="M24.47,11.68c.07,0,.04-.23,0,0h0Z" class="uuid-314f91b4-29ff-40b4-bed7-03e579de2342"></path><path d="M24.14,11.73l.16-.21c.04-.16-.02-.22.05-.32-.13.1-.16.26-.21.53Z" class="uuid-314f91b4-29ff-40b4-bed7-03e579de2342"></path><path d="M23.89,12.2l.08-.08c.02-.07.01-.09-.08.08Z" class="uuid-314f91b4-29ff-40b4-bed7-03e579de2342"></path><path d="M24.13,11.94l-.16.18c-.03.11-.1.33.07-.06-.08.2,0,.01.09-.12Z" class="uuid-314f91b4-29ff-40b4-bed7-03e579de2342"></path><path d="M24.14,12.06c0,.16.02.27-.14.48.18-.04.33-.52.14-.48Z" class="uuid-314f91b4-29ff-40b4-bed7-03e579de2342"></path><path d="M23.93,13.89v.22s.12-.21.12-.21c-.06.1-.05-.22-.12-.01Z" class="uuid-314f91b4-29ff-40b4-bed7-03e579de2342"></path><path d="M23.78,11.21c-.06.14-.11.39-.17.58l.12-.14c0-.11-.02-.22.05-.43Z" class="uuid-314f91b4-29ff-40b4-bed7-03e579de2342"></path><path d="M23.61,11.79l-.17.21c.07.06.12-.06.17-.21Z" class="uuid-314f91b4-29ff-40b4-bed7-03e579de2342"></path><polygon points="23.61 12.94 23.94 12.48 23.58 12.94 23.61 12.94" class="uuid-314f91b4-29ff-40b4-bed7-03e579de2342"></polygon><polygon points="23.45 11.08 23.62 10.76 23.35 11.23 23.45 11.08" class="uuid-314f91b4-29ff-40b4-bed7-03e579de2342"></polygon><path d="M23.21,11.06c.13-.26.11-.48.21-.64-.08.03-.21.25-.33.44.09-.1.13-.05.12.2Z" class="uuid-314f91b4-29ff-40b4-bed7-03e579de2342"></path><path d="M22.91,11.14c.05-.06.11-.17.19-.28-.05.05-.11.14-.19.28Z" class="uuid-314f91b4-29ff-40b4-bed7-03e579de2342"></path><path d="M23.31,11.88c.02-.09.09-.32.08-.43l-.11.41s.02.01.03.02Z" class="uuid-314f91b4-29ff-40b4-bed7-03e579de2342"></path><path d="M23.28,11.88h0s-.06-.05-.07-.06c0,0,.03.03.06.06Z" class="uuid-314f91b4-29ff-40b4-bed7-03e579de2342"></path><path d="M23.32,11.89s0,0,0,0c-.01.04-.01.05,0,0Z" class="uuid-314f91b4-29ff-40b4-bed7-03e579de2342"></path><path d="M23.52,12.5c-.13.21-.32.41-.34.79.13-.26.14-.48.34-.79Z" class="uuid-314f91b4-29ff-40b4-bed7-03e579de2342"></path><path d="M23.18,12.4l.06.12c.04-.11.07-.27.14-.37l-.2.25Z" class="uuid-314f91b4-29ff-40b4-bed7-03e579de2342"></path><polygon points="23.09 12.52 23.18 12.4 23.16 12.36 23.09 12.52" class="uuid-314f91b4-29ff-40b4-bed7-03e579de2342"></polygon><path d="M22.93,11.58c-.1.16-.15.16-.21.17.02.1.06.16.12.18.05-.12.16-.34.09-.35Z" class="uuid-314f91b4-29ff-40b4-bed7-03e579de2342"></path><path d="M23.09,11.76s-.01.01-.02.02c0,.04,0,.05.02-.02Z" class="uuid-314f91b4-29ff-40b4-bed7-03e579de2342"></path><path d="M22.24,11.57s-.01.05-.02.08c0-.02.02-.05.03-.07h0Z" class="uuid-314f91b4-29ff-40b4-bed7-03e579de2342"></path><path d="M22.82,12c.01.09.07,0,.14-.11-.04.03-.08.04-.12.04-.02.06-.04.09-.02.08Z" class="uuid-314f91b4-29ff-40b4-bed7-03e579de2342"></path><path d="M22.71,11.28c0,.09-.01.17,0,.25.02-.13.05-.35,0-.25Z" class="uuid-314f91b4-29ff-40b4-bed7-03e579de2342"></path><path d="M23.1,11.66s0-.01.01-.02c.02-.09,0-.05-.01.02Z" class="uuid-314f91b4-29ff-40b4-bed7-03e579de2342"></path><path d="M23.1,11.66c-.04.05-.09.15-.14.23.04-.02.07-.06.11-.11,0-.03.02-.08.03-.12Z" class="uuid-314f91b4-29ff-40b4-bed7-03e579de2342"></path><path d="M21.18,14.11c.14-.37.37-.68.31-.25.19-.25.56-1.5.73-2.21-.06.16-.11.31-.28.5-.04.21.03.55-.16.86-.19.15-.05-.17-.04-.38-.11.48-.39.62-.61,1.32l.19-.2c-.04.11-.13.26-.14.37Z" class="uuid-314f91b4-29ff-40b4-bed7-03e579de2342"></path><path d="M22.38,11.75l.05-.03c-.02-.08,0-.24.05-.55-.13.16-.19.29-.24.42l.17.12-.03.05Z" class="uuid-314f91b4-29ff-40b4-bed7-03e579de2342"></path><path d="M22.6,11.77c-.17.4-.32.54-.42,1,.12.01.2-.31.33-.47-.21.04.13-.21.08-.48.06-.06.1-.07.13-.07-.01-.06-.02-.13-.03-.22,0,.01,0,.02,0,.03h0s0,0,0,0c-.01.05-.02.09-.02.05,0,0,0,0,0,0-.02.06-.04.1-.06.15-.02-.1.03-.11.06-.15,0-.02.02-.04.02-.06,0,0,0,0,0,0l-.26.16c.02.07.07.08.17.06Z" class="uuid-314f91b4-29ff-40b4-bed7-03e579de2342"></path><path d="M22.77,14.13s.02-.07.03-.1c-.03.05-.05.08-.03.1Z" class="uuid-314f91b4-29ff-40b4-bed7-03e579de2342"></path><path d="M22.79,13.86c.03-.05.1-.21.13-.15,0,.13-.07.19-.11.33.06-.1.19-.26.18-.49l-.03.05c-.02-.17.07-.7.1-.76-.11.37-.18.64-.26,1.02Z" class="uuid-314f91b4-29ff-40b4-bed7-03e579de2342"></path><path d="M22.65,12.92l-.22.15-.05.38.07-.21c.05.11.13-.15.2-.31Z" class="uuid-314f91b4-29ff-40b4-bed7-03e579de2342"></path><polygon points="22.29 11.37 22.46 10.94 22.16 11.52 22.29 11.37" class="uuid-314f91b4-29ff-40b4-bed7-03e579de2342"></polygon><polygon points="22.08 11.35 22.22 10.98 22.09 11.19 22.08 11.35" class="uuid-314f91b4-29ff-40b4-bed7-03e579de2342"></polygon><path d="M9.61,12.14l-.08.09s.06-.06.08-.09Z" class="uuid-314f91b4-29ff-40b4-bed7-03e579de2342"></path><path d="M9.91,12.28l.07-.18c-.05.1-.08.17-.07.18Z" class="uuid-314f91b4-29ff-40b4-bed7-03e579de2342"></path><path d="M17.35,9.72c.06-.37.18-.94.04-.51l-.12.42c.07-.06.09,0,.09.1Z" class="uuid-314f91b4-29ff-40b4-bed7-03e579de2342"></path><path d="M13.26,11.02s-.02.09-.03.13c.06-.13.12-.26.18-.38-.05.08-.1.16-.16.25Z" class="uuid-314f91b4-29ff-40b4-bed7-03e579de2342"></path><path d="M12.61,12.7v-.29c0,.1,0,.2,0,.29Z" class="uuid-314f91b4-29ff-40b4-bed7-03e579de2342"></path><path d="M7.74,11.97l-.2.4c.08.03.12-.2.2-.4Z" class="uuid-314f91b4-29ff-40b4-bed7-03e579de2342"></path><path d="M20.06,10.8c0-.18-.02-.26-.05-.3-.02.26-.09.63.05.3Z" class="uuid-314f91b4-29ff-40b4-bed7-03e579de2342"></path><path d="M11.27,7.84c-.05.06-.09.14-.12.24.05-.06.1-.13.12-.24Z" class="uuid-314f91b4-29ff-40b4-bed7-03e579de2342"></path><path d="M19.86,10.45s0,.07,0,.11c.06-.05.12-.1.16-.05.01-.19,0-.32-.16-.05Z" class="uuid-314f91b4-29ff-40b4-bed7-03e579de2342"></path><path d="M1.63,9.42s0-.03,0-.05c-.02.06-.02.06,0,.05Z" class="uuid-314f91b4-29ff-40b4-bed7-03e579de2342"></path><path d="M1.28,4.65s.06,0,.09,0c0-.03-.03-.04-.09,0Z" class="uuid-314f91b4-29ff-40b4-bed7-03e579de2342"></path><path d="M21.37,10.9c.05-.01.02-.04,0,0h0Z" class="uuid-314f91b4-29ff-40b4-bed7-03e579de2342"></path><path d="M21,12.58s-.05.1-.09.19c.04-.1.07-.16.09-.19Z" class="uuid-314f91b4-29ff-40b4-bed7-03e579de2342"></path><path d="M18.55,12.86s0,0,0,0c-.02.08-.01.07,0,0Z" class="uuid-314f91b4-29ff-40b4-bed7-03e579de2342"></path><path d="M21.37,11.1c0-.06,0-.1,0-.14,0,.03,0,.08,0,.14Z" class="uuid-314f91b4-29ff-40b4-bed7-03e579de2342"></path><path d="M21.43,10.91s.02.04.02.05c.03-.07.04-.11-.02-.05Z" class="uuid-314f91b4-29ff-40b4-bed7-03e579de2342"></path><path d="M21.31,10.9s.04.03.05.07c0-.03,0-.05.01-.07-.01,0-.03,0-.06,0Z" class="uuid-314f91b4-29ff-40b4-bed7-03e579de2342"></path><path d="M5.35,9.51s0-.02,0-.04c-.1.16-.07.13,0,.04Z" class="uuid-314f91b4-29ff-40b4-bed7-03e579de2342"></path><path d="M14.79,13.59s0-.01.01-.02c0,0,0-.01,0-.02v.04Z" class="uuid-314f91b4-29ff-40b4-bed7-03e579de2342"></path><path d="M14.53,13.84c.24-.49.26-.41.27-.29l.37-1.2-.63,1.48Z" class="uuid-314f91b4-29ff-40b4-bed7-03e579de2342"></path><path d="M8.81,11.99l-.03.4c-.34.56-.35.32-.44.87.47-1.28.45.01.91-1.26l-.03.29s-.04.05-.06.04c-.09.66.43-.89.53-.65.02.12,0,.32-.09.46l.24-.27s-.06.26-.09.22l.24-.03v.04c.08-.19.26-.48.34-.6-.01.2-.07.13-.12.29l.22-.27c-.07.35-.28.64-.34.56-.35,1.31.21-.29.17.54l-.16.12c-.19.75-.01.52-.06,1.01.06-.25.17-1.22.4-1.5,0,.11.03.17.19-.06-.16.46-.06.37.03.37l-.22.6c.15-.14.25-.45.4-.71.08.09-.07.57-.19.97.12.15.16-.79.38-.84.05.28.22.06.5-.25.02.24-.15.36-.18.55l.25-.45s-.04.16-.07.24c.13-.16.22-.6.38-.73.26-.65-.13,1.05.27.34-.03.18-.15.36-.22.6.35-.43.28-.31.66-.92l-.02.44c.07-.48.38-.98.63-1.38.04-.23.08-.43.1-.53l.28-.27c-.02.11-.11.31-.22.55.03-.05.06-.09.08-.13-.02.24-.17.58-.33.9.02-.13.05-.26.07-.39-.17.35-.35.74-.47,1.1.04-.07.08-.12.11-.14-.05.1-.08.18-.1.24-.02.07.05-.06.13-.21l-.2.69.1-.26.07.5c.39-.62.88-1.57,1.22-1.76-.23.47-.3.8-.51,1.38.15-.64-.28.2-.36.03.04.09-.07.36-.12.45l.42-.48c-.17.48-.08.38-.09.59.29-.96.39-.57.58-.83-.11.32-.24.64-.33.52-.13.75.55-1.05.46-.41-.03,0-.03-.06-.1.1.16-.26.24.02.11.28h-.03c.14.17.55.2.86-.59-.03.1-.37.96-.43,1.12l1.28-2.58c-.27.68-.74,2.36-1.03,2.69,0,.11.02.25.2.04,0-.11.28-1.02.34-1.07-.16.81-.07.44-.16,1.14,0-.16.44-1.23.5-1.17-.07.16-.37,1.07-.44,1.17l.55-1c-.11.18-.33.9-.39,1.21.06-.21.14.07.23-.02v-.27c.15.23.73-1.42.91-1.3-.1.21-.54,1.33-.48,1.5.24-.53,1.12-2.54,1.44-2.9l-.08.32.26-.31c-.37.79-1.21,2.43-1.57,3.05-.01.27-.11.37.01.38-.06.3-.22.42-.25.43l.19.28c.21-.64.42-.57.6-1.1l-.51.56c.21-.64.8-1.74.94-1.57-.04.27-.43,1.12-.5,1.33.1-.21.32-.36.28-.2l-.2.31c.02.27.46-.78.37-.13.03.06-.16.86-.02.49.19-.75.97-2.99,1.21-3.52,0,.05-.03.77-.1,1.14-.13.59-.58,1.31-.7,1.82.06-.17.18-.37.22-.44,0,.16-.21.53-.09.49.24-.64.17.12.24-.53.16-.15.05.17.17.18.11-.43.6-1.38.76-1.53-.06.16-.12.38-.14.48.17.13.17.45.35.52-.04.16-.02.38-.15.64.07-.1.17-.31.23-.31-.09.59-.15.04-.31.74.14-.37.32-.47.49-.67.18-.59-.14-.17-.3.03.28-.8.71-1.58,1.03-1.88.22-.15-.12.54-.05.43.23.24.73-1.3.76-.65-.09.54-.35,1.01-.46,1.38-.19.15-.07-.39-.16-.4l.02.28c-.1.16-.22.25-.22.09-.08.48.44.25.5.75.1-.16.23-.31.27-.52l-.09.05c.08-.43.33-.52.31-.74.19-.26.45-.67.5-.39l-.18.59c.06-.17.04-.37-.06-.21.14-.24-.08.85.25.12l.05-.43c.19-.26.52-.83.57-.61.15-.59-.05.06.11-.64-.22.86-.28-.14-.47.77.19-.8-.03-.38.1-1.08-.06.19-.09.38-.15.25-.02.05-.06.12-.08.16,0,0,0,0,0-.02,0,0,0,.02,0,.02-.01.03-.02.03,0,0,0,.09-.02.2-.05.31-.2.42-.35.35-.48.56-.02-.11.1-.21.14-.42l-.2.31c.14-.43.1-.76.32-.96l-.11-.06c.01-.26-.05-.39-.17-.23-.02-.11-.31.42-.14.1l-.28.2.04-.11c-.17-.12-.63.57-.57-.27-.1.08-.21.19-.27.04l.11-.37c-.13.1-.11-.45-.28-.08.26-1.02-.31-.35-.39-.58l-.17.48c-.09-.06-.23.04-.42.19l-.14.43c-.23.31-.16-.4-.34-.41.07-.16.1-.1.09,0,.14-1.02-.66.55-.59-.21-.1.14-.11.07-.11-.04,0,0,.01,0,.02-.02,0,0,0,0-.02-.01,0-.08.02-.17.02-.25-.02.11-.03.2-.03.24-.04,0-.11.03-.2.12l.14-.46s0,0-.02,0c0-.19-.12.2-.21.55-.05.06-.11.15-.16.25.22-.75-.22.2,0-.6-.17.37-.36.2-.67.99.04-.11.04-.16.07-.16-.02-.11-.05-.22-.18-.01l.18-.59-.4.73c.05-.38.09-.59.32-1.01-.42.62-.24.21-.63.83l.14-.37c-.06,0-.32.46-.25.14.13-.75-.57-.31-.65-1.08-.33,1.12.03-.54-.29.3.07-.27.08-.43.21-.64-.25.2-.1-.5-.46.18.07-.27.17-.37.21-.53-.03.05-.13.21-.09.05.04-.16.1-.21.17-.31-.18-.01-.48.78-.76,1.53.04-.38-.02-.35-.25.12.06-.26.1-.53.23-.58-.04-.06-.22-.48-.44.12.04-.16-.06-.07-.1,0-.12-.08-.11-.14-.25-.13v.11c-.31.71-.16.12-.29.18l.03-.07c-.05-.61-.19.21-.21-.47l-.15.46c-.37.97,0-.65-.27-.32l-.04.28c-.19.31.26-1.4.23-1.54.01-.09.07-.13.12-.18.01-.64-.23.58-.43.67.09-.33.32-.8.25-.89.04-.28-.65.94-.56.28-.06.26-.12.51-.25.67-.13.05.05-1.03-.31-.28.01-.07.03-.14.05-.2-.15.17-.37.24-.57.65.48-1.59-.75.59-.24-.85h-.27s.06-.15.06-.15c-.12-.15-.3.18-.47.5,0-.11.07-.24.1-.31-.12-.37-.17-.32-.61.34l.15-.47c-.15.25-.06-.85-.48-.38.02-.05.06-.14.1-.2-.44.46-.13-1.5-.83.16l-.31.36c.16.21-.29.73-.31,1.04-.12.07-.03-.59.1-.64v.09c.34-.87-.17-.41.05-1.01-.43-.1-.66-.74-1.04-.91l-.2.71-.12-.09c.02-.17.14-.56.23-.49.09-.41-.28.27-.33.42-.09-.35.36-.78.31-.81l-.1.02v.09c-.17.26-.29.56-.39.48-.02-.16.11-.44.09-.48.02-.05.02-.08-.04-.04l-.15-.12-.12.57c-.17.24-.15-.09-.29.56.22-.99-.52-.57-.48-.89-.25.36-.35.31-.46.22,0,.12-.21.74-.29.63.49-1.25-.01-.62.22-1.56-.13.63-.37.04-.55.94-.06-.14.16-.48.2-.8-.4.41-.38-.49-.71-.42-.06.17-.11.43-.25.66l.15-.88c-.08.06-.39.94-.28.33-.04.14-.09.36-.14.4-.25-1-1.33.27-1.34-1.44-.04.35-.1.36-.16.35,0,.09-.15.41-.22.64v-.71c-.27.61-.27-.04-.5.54l.11-.08c-.35.67-.42,1.61-.75,2.51.39-.76-.14,1.29.45.2-.03.2-.14.28-.19.5.18-.37.26-.43.3-.22l-.05.09c.32,0,.3.43.53.8l.13-.46c.05.08.01.23,0,.35.32-.65-.18-.11.16-.83-.23.94.48.18.17,1.24.1.04.15-.53.26-.48l-.07.29.15-.35c.05.08-.04.45-.12.68,0-.03-.07.05-.1.06-.03.36.29-.02.28.09l-.04-.21c.38-.16.6.33,1.08-.14l.05-.22c.35-.31.09.29.38.19l-.03.05c.12-.19.22-.28.27-.23-.15.23-.06.52-.23.76.38-.34.23-.29.66-1.02l-.09.36c.16-.3.23-.46.37-.51-.2.27-.11.56-.36.92-.03.85.63-.64.35.51.45-.93-.02-.61.12-.8.06-.33.35-.69.39-.57.07.05-.31,1.29-.1,1.34-.02-.01-.05.06-.06.05-.01.27.26-.28.21.15.26-.57.1.07.38-.67l-.24.11c.17-.16.57-1,.59-.52-.07.15-.19.33-.26.42-.03.24.15-.11.12.13-.28.74-.27.08-.58.62-.06.33.4-.47.06.32.44-1,.15.2.56-.54l-.17.44c.05-.06.16-.26.2-.23l-.28.56c.28-.46.05.51.25.27-.22-.06.14-.56.17-.92.48-.5-.26,1.22.11,1.11-.06.05-.06-.32.08-.51.02.11.04.31-.01.56.23-.02.13-.47.31-.72-.13.57.17-.19.32-.33l-.16.46c.12.37.4-.93.47-.5l-.31.6.16-.13-.21.51c.25-.34.25-.23.31-.05.09-.33.31-.82.41-.8-.03.29-.19.42-.03.4-.13.27-.29.62-.21.18-.06.15-.13.27-.19.42-.04.34.16.14.21.15-.01-.02-.03-.06-.02-.12l.43-.56c-.03.18-.1.31-.18.44.06-.04.16-.23.24-.25-.15.36-.28.75-.43.89l.34-.34c-.04.17-.06.48-.13.6.03.26.52-.62.56-.29.03-.07.07-.13.12-.17.1.13.06.63.4.18l-.14.69c.18-.11.17-.88.47-1.05.22-.16-.15.58-.16.79.19-.31.56-.94.5-.36-.09.11-.09,0-.15.03ZM10.45,12.24c-.06.08-.23.36-.15.08.22-.51.16-.25.15-.08ZM13.17,11.97c-.07.14-.08.06-.06-.13.04-.03.07,0,.06.13ZM20.8,11.11s0,.01-.01.02c0-.2,0-.12.01-.02ZM20.86,11.36c.04-.06.06-.12.07-.19-.05.11-.08.11-.11.06-.03.12-.04.21.03.12ZM6,6.29l-.02.13c-.11.11-.05,0,.02-.13Z" class="uuid-314f91b4-29ff-40b4-bed7-03e579de2342"></path><path d="M12.69,12.5c.02-.08.05-.17.07-.25-.04.07-.07.16-.07.25Z" class="uuid-314f91b4-29ff-40b4-bed7-03e579de2342"></path><path d="M7.77,11.89s0,0,0,0c-.01.03-.02.05-.03.08l.04-.07Z" class="uuid-314f91b4-29ff-40b4-bed7-03e579de2342"></path><path d="M17.36,14.46c0-.08,0-.16.03-.25-.04.11-.06.21-.03.25Z" class="uuid-314f91b4-29ff-40b4-bed7-03e579de2342"></path><path d="M21.87,10.84l-.13.09c.05,0,.03.1.03.18.04-.11.07-.27.1-.26Z" class="uuid-314f91b4-29ff-40b4-bed7-03e579de2342"></path><path d="M21.64,13.93c.03-.05.03,0,.06-.05l.07-.21c-.06,0-.16.15-.13.26Z" class="uuid-314f91b4-29ff-40b4-bed7-03e579de2342"></path><path d="M21.41,12.38c-.13.39-.03.27.06.23,0,0,0,0-.01,0,.21-.53.08-.38-.05-.22Z" class="uuid-314f91b4-29ff-40b4-bed7-03e579de2342"></path><path d="M21.49,12.6s.05-.01.06.01c.08-.21,0-.05-.06-.01Z" class="uuid-314f91b4-29ff-40b4-bed7-03e579de2342"></path><path d="M21.13,11.16c0,.11.19-.48.15-.32.21-.47-.4.52-.15.32Z" class="uuid-314f91b4-29ff-40b4-bed7-03e579de2342"></path><polygon points="21.02 13.66 21.16 13.18 20.99 13.55 21.02 13.66" class="uuid-314f91b4-29ff-40b4-bed7-03e579de2342"></polygon><path d="M20.65,13.14l.05.17c.03-.08.06-.12.08-.15-.06-.04-.09-.16-.14-.02Z" class="uuid-314f91b4-29ff-40b4-bed7-03e579de2342"></path><path d="M20.79,13.15s.06.02.11-.05c-.02,0-.06,0-.11.05Z" class="uuid-314f91b4-29ff-40b4-bed7-03e579de2342"></path><polygon points="20.83 13.75 20.84 13.64 20.78 13.59 20.83 13.75" class="uuid-314f91b4-29ff-40b4-bed7-03e579de2342"></polygon><path d="M19.62,12.67l-.16.1c-.07.16-.07.27-.01.22.07-.1.13-.15.17-.31Z" class="uuid-314f91b4-29ff-40b4-bed7-03e579de2342"></path><path d="M19.49,14.08c0-.11.04-.21.08-.38l-.21.58.13-.21Z" class="uuid-314f91b4-29ff-40b4-bed7-03e579de2342"></path><path d="M19.13,14.11c-.07.16-.32.41-.17.42.07-.16.22-.25.17-.42Z" class="uuid-314f91b4-29ff-40b4-bed7-03e579de2342"></path><polygon points="17.77 12.79 17.8 12.79 18.13 11.83 17.77 12.79" class="uuid-314f91b4-29ff-40b4-bed7-03e579de2342"></polygon><path d="M15.52,14.58c.05.27.24-.58.25-.25.11-.22-.01-.27.09-.45-.16.21-.15.06-.34.71Z" class="uuid-314f91b4-29ff-40b4-bed7-03e579de2342"></path><path d="M15.86,13.87s.06-.07.09-.13c-.04.05-.07.09-.09.13Z" class="uuid-314f91b4-29ff-40b4-bed7-03e579de2342"></path><polygon points="1.16 4.03 1.15 3.8 1.09 4.14 1.16 4.03" class="uuid-314f91b4-29ff-40b4-bed7-03e579de2342"></polygon><path d="M.75,4.69l.2-.62-.25.54s.08-.06.05.08Z" class="uuid-314f91b4-29ff-40b4-bed7-03e579de2342"></path><path d="M10.24,13.55l.06-.15c.04-.16.03-.18,0-.22l-.06.37Z" class="uuid-314f91b4-29ff-40b4-bed7-03e579de2342"></path><polygon points="9.29 12.7 9.31 12.72 9.47 12.16 9.29 12.7" class="uuid-314f91b4-29ff-40b4-bed7-03e579de2342"></polygon><path d="M8.11,13.08s.12-.07.15-.03c-.12.07.09-.66-.15.03Z" class="uuid-314f91b4-29ff-40b4-bed7-03e579de2342"></path></svg>