<svg viewBox="0 0 24.7 23.31" xmlns="http://www.w3.org/2000/svg" id="uuid-5ba00b50-05de-470a-894d-a72e55c06380"><defs><style>.uuid-9515fe42-6e2a-4e17-bd6e-be64621e9352{fill:#82b650;stroke-width:0px;}</style></defs><path d="M13.06,3.77c-.06-.04-.06.38-.07.45.11-.08.07-.56.07-.45Z" class="uuid-9515fe42-6e2a-4e17-bd6e-be64621e9352"></path><polygon points="14.32 2.99 14.27 3.15 14.54 2.78 14.32 2.99" class="uuid-9515fe42-6e2a-4e17-bd6e-be64621e9352"></polygon><path d="M15.44,3.31c.13-.71-.44-.03-.56-.34v-.17s-.23.54-.23.54c.25-.04.68-.27.79-.03Z" class="uuid-9515fe42-6e2a-4e17-bd6e-be64621e9352"></path><path d="M15.38,4.96c.09-.27.2-.17-.07-.13,0,.03,0,.05,0,.07.02,0,.05.02.08.06Z" class="uuid-9515fe42-6e2a-4e17-bd6e-be64621e9352"></path><path d="M15.3,4.9c-.1-.03-.03.24,0,0h0Z" class="uuid-9515fe42-6e2a-4e17-bd6e-be64621e9352"></path><path d="M15.79,4.96l-.23.17c-.05.16.04.24-.05.33.18-.07.24-.22.29-.49Z" class="uuid-9515fe42-6e2a-4e17-bd6e-be64621e9352"></path><path d="M16.16,4.55l-.12.06c-.02.07-.01.09.12-.06Z" class="uuid-9515fe42-6e2a-4e17-bd6e-be64621e9352"></path><path d="M15.8,4.75l.24-.13c.03-.11.14-.32-.1.04.11-.18-.01-.02-.14.09Z" class="uuid-9515fe42-6e2a-4e17-bd6e-be64621e9352"></path><path d="M15.77,4.61c0-.17-.06-.31.18-.47-.31-.04-.47.44-.18.47Z" class="uuid-9515fe42-6e2a-4e17-bd6e-be64621e9352"></path><path d="M15.75,2.64l-.05-.24-.19.19c.09-.09.17.26.24.05Z" class="uuid-9515fe42-6e2a-4e17-bd6e-be64621e9352"></path><path d="M16.33,5.7c.09-.12.19-.36.28-.53l-.19.09c-.01.11.02.24-.1.43Z" class="uuid-9515fe42-6e2a-4e17-bd6e-be64621e9352"></path><path d="M16.62,5.17c.09-.05.19-.09.28-.13-.1-.12-.2-.01-.28.13Z" class="uuid-9515fe42-6e2a-4e17-bd6e-be64621e9352"></path><path d="M16.56,3.87c-.17.11-.35.24-.51.36.18-.12.38-.24.56-.34l-.05-.02Z" class="uuid-9515fe42-6e2a-4e17-bd6e-be64621e9352"></path><polygon points="16.77 6.05 16.49 6.28 16.94 5.95 16.77 6.05" class="uuid-9515fe42-6e2a-4e17-bd6e-be64621e9352"></polygon><path d="M17.1,6.24c-.23.18-.26.43-.43.52.1.02.33-.11.54-.22-.15.04-.19-.04-.11-.3Z" class="uuid-9515fe42-6e2a-4e17-bd6e-be64621e9352"></path><path d="M17.54,6.4c-.08.02-.2.08-.32.15.08-.02.18-.06.32-.15Z" class="uuid-9515fe42-6e2a-4e17-bd6e-be64621e9352"></path><path d="M17.08,5.28c-.04.08-.17.29-.16.42l.21-.38-.05-.04Z" class="uuid-9515fe42-6e2a-4e17-bd6e-be64621e9352"></path><path d="M17.13,5.31h0c.05.06.08.1.1.11-.01-.01-.04-.05-.09-.11Z" class="uuid-9515fe42-6e2a-4e17-bd6e-be64621e9352"></path><path d="M17.06,5.27h.01s.03-.04-.01,0Z" class="uuid-9515fe42-6e2a-4e17-bd6e-be64621e9352"></path><path d="M16.76,4.45c.21-.15.55-.25.55-.67-.22.21-.23.45-.55.67Z" class="uuid-9515fe42-6e2a-4e17-bd6e-be64621e9352"></path><path d="M17.31,4.78l-.09-.19c-.06.1-.13.25-.24.32l.33-.13Z" class="uuid-9515fe42-6e2a-4e17-bd6e-be64621e9352"></path><polygon points="17.47 4.73 17.31 4.78 17.35 4.85 17.47 4.73" class="uuid-9515fe42-6e2a-4e17-bd6e-be64621e9352"></polygon><path d="M17.6,5.92c.18-.09.25-.04.34,0-.02-.13-.06-.23-.14-.3-.1.09-.29.24-.2.3Z" class="uuid-9515fe42-6e2a-4e17-bd6e-be64621e9352"></path><path d="M17.41,5.58h.03s.02-.06-.03,0Z" class="uuid-9515fe42-6e2a-4e17-bd6e-be64621e9352"></path><path d="M18.57,6.59s.03-.04.05-.06l-.06.04v.02Z" class="uuid-9515fe42-6e2a-4e17-bd6e-be64621e9352"></path><path d="M17.85,5.54c0-.11-.1-.07-.22,0,.07,0,.13.03.18.07.05-.04.07-.07.04-.07Z" class="uuid-9515fe42-6e2a-4e17-bd6e-be64621e9352"></path><path d="M17.85,6.42c.04-.09.07-.18.08-.25-.06.12-.17.32-.08.25Z" class="uuid-9515fe42-6e2a-4e17-bd6e-be64621e9352"></path><path d="M17.38,5.68h-.02c-.04.09-.01.06.02,0Z" class="uuid-9515fe42-6e2a-4e17-bd6e-be64621e9352"></path><path d="M17.38,5.68c.07-.02.16-.08.24-.13-.06,0-.12,0-.18.02-.01.03-.04.07-.06.11Z" class="uuid-9515fe42-6e2a-4e17-bd6e-be64621e9352"></path><path d="M20.91,5.11c-.32.22-.75.26-.58-.17-.37.03-1.24,1.01-1.71,1.58.14-.11.26-.21.56-.22.13-.18.1-.64.49-.75.34.07.04.25-.05.49.32-.4.77-.16,1.32-.64l-.36-.05c.09-.07.28-.11.32-.23Z" class="uuid-9515fe42-6e2a-4e17-bd6e-be64621e9352"></path><path d="M18.43,6.25l-.08-.02c0,.11-.07.26-.24.54.22-.04.35-.12.46-.2l-.19-.3.06-.02Z" class="uuid-9515fe42-6e2a-4e17-bd6e-be64621e9352"></path><path d="M18.13,5.99c.35-.27.6-.25.86-.66-.18-.15-.38.14-.6.18.34.17-.24.1-.23.45-.1,0-.16-.02-.22-.04,0,.08,0,.16,0,.26v-.02s.01,0,.01,0h0c.03-.05.05-.08.04-.05,0,0,.01,0,.01,0,.04-.04.09-.07.13-.1,0,.13-.07.09-.13.1l-.05.04h0c.14.02.26.06.4.09,0-.09-.07-.16-.22-.24Z" class="uuid-9515fe42-6e2a-4e17-bd6e-be64621e9352"></path><path d="M18,3.11s-.03.06-.04.09c.05-.03.08-.05.04-.09Z" class="uuid-9515fe42-6e2a-4e17-bd6e-be64621e9352"></path><path d="M18,3.42c-.06.03-.17.15-.23.07,0-.15.11-.17.19-.29-.12.06-.34.15-.31.42l.06-.03c.06.21-.1.78-.16.81.19-.34.32-.59.45-.97Z" class="uuid-9515fe42-6e2a-4e17-bd6e-be64621e9352"></path><path d="M18.24,4.65l.37.06.12-.39-.14.17c-.08-.19-.23.04-.36.16Z" class="uuid-9515fe42-6e2a-4e17-bd6e-be64621e9352"></path><polygon points="18.43 6.75 18.06 7.01 18.66 6.72 18.43 6.75" class="uuid-9515fe42-6e2a-4e17-bd6e-be64621e9352"></polygon><polygon points="18.69 7 18.37 7.22 18.61 7.15 18.69 7" class="uuid-9515fe42-6e2a-4e17-bd6e-be64621e9352"></polygon><path d="M6.2,20.87l-.17.02c.07,0,.13,0,.17-.02Z" class="uuid-9515fe42-6e2a-4e17-bd6e-be64621e9352"></path><path d="M7.04,21.35l.11-.17c-.09.08-.14.14-.11.17Z" class="uuid-9515fe42-6e2a-4e17-bd6e-be64621e9352"></path><path d="M18.95,14.53c-.36-.14-.87-.43-.52-.15l.35.25c-.01-.11.06-.13.17-.11Z" class="uuid-9515fe42-6e2a-4e17-bd6e-be64621e9352"></path><path d="M14.24,20.05s.05.08.07.12c0-.15.02-.29.02-.43-.03.1-.06.2-.09.31Z" class="uuid-9515fe42-6e2a-4e17-bd6e-be64621e9352"></path><path d="M14.44,21.84l-.27-.23c.07.09.15.16.27.23Z" class="uuid-9515fe42-6e2a-4e17-bd6e-be64621e9352"></path><path d="M2.08,17.49l-.46.1c.14.22.26,0,.46-.1Z" class="uuid-9515fe42-6e2a-4e17-bd6e-be64621e9352"></path><path d="M20.27,10.18c-.14.12-.22.2-.24.27.24-.14.6-.29.24-.27Z" class="uuid-9515fe42-6e2a-4e17-bd6e-be64621e9352"></path><path d="M8.77,17.04c-.08.05-.15.12-.19.2.08-.04.15-.1.19-.2Z" class="uuid-9515fe42-6e2a-4e17-bd6e-be64621e9352"></path><path d="M20.06,10.7s.06-.04.1-.06c-.08-.06-.14-.12-.12-.21-.18.1-.29.19.02.26Z" class="uuid-9515fe42-6e2a-4e17-bd6e-be64621e9352"></path><path d="M6.25.65s.04.01.06.03c-.02-.05-.04-.05-.06-.03Z" class="uuid-9515fe42-6e2a-4e17-bd6e-be64621e9352"></path><path d="M11.57,3.73s-.09.03-.14.03c.02.03.06.03.14-.03Z" class="uuid-9515fe42-6e2a-4e17-bd6e-be64621e9352"></path><path d="M19.28,8.28c-.05-.05-.05.01,0,0h0Z" class="uuid-9515fe42-6e2a-4e17-bd6e-be64621e9352"></path><path d="M20.6,7.13c.05,0,.11-.03.2-.07-.09.04-.16.07-.2.07Z" class="uuid-9515fe42-6e2a-4e17-bd6e-be64621e9352"></path><path d="M22.76,11.51h0c.09-.02.07-.01,0,0Z" class="uuid-9515fe42-6e2a-4e17-bd6e-be64621e9352"></path><path d="M19.41,8.09s-.06.1-.07.14c.02-.03.05-.08.07-.14Z" class="uuid-9515fe42-6e2a-4e17-bd6e-be64621e9352"></path><path d="M19.24,8.2s0-.05,0-.07c-.07.03-.1.05,0,.07Z" class="uuid-9515fe42-6e2a-4e17-bd6e-be64621e9352"></path><path d="M19.34,8.36s-.02-.08,0-.13c-.02.03-.04.04-.05.05.01.02.03.04.06.08Z" class="uuid-9515fe42-6e2a-4e17-bd6e-be64621e9352"></path><path d="M1.57,9.04s.02-.01.04-.02c-.16-.14-.14-.09-.04.02Z" class="uuid-9515fe42-6e2a-4e17-bd6e-be64621e9352"></path><path d="M20.24,19.49s0-.02,0-.02h-.02s.02.02.02.02Z" class="uuid-9515fe42-6e2a-4e17-bd6e-be64621e9352"></path><path d="M20.08,20c-.16-.54-.04-.54.13-.54l-.85-.92c.25.49.48.97.71,1.46Z" class="uuid-9515fe42-6e2a-4e17-bd6e-be64621e9352"></path><path d="M4.26,19.57v.5c-.75.23-.83-.16-.96.46.95-.97,1.13.77,1.99-.28v.35s-.09.01-.13-.03c-.02.77.82-.63,1.13-.2.09.18.1.42-.09.49.17-.02.34-.04.51-.09.09.07-.05.27-.14.19l.6.18-.02.03c.17-.15.48-.37.62-.45.05.24-.12.1-.16.27.14-.05.28-.1.42-.17,0,.38-.4.59-.59.44-.25,1.39.38-.19.74.78l-.37.05c-.07.79.29.62.53,1.21-.04-.28-.36-1.4.11-1.6.06.13.18.22.45.02-.14.47.09.42.33.44l-.18.62c.32-.12.37-.44.58-.69.27.12.24.62.23,1.05.46.2-.18-.85.39-.85.34.29.67.06,1.14-.28.25.25-.07.39,0,.58l.26-.49c.06.01.03.17.02.25.2-.2.05-.64.34-.81.07-.71.62,1.04.97.22.1.17-.02.4.02.64.48-.57.42-.43.74-1.17l.4.38c-.32-.44-.08-1.04.08-1.56-.12-.21-.22-.4-.28-.49l.31-.41c.06.09.07.32.06.59.01-.06.03-.11.04-.17.18.2.19.58.16.95-.07-.12-.15-.24-.22-.36-.03.4-.05.85.03,1.21.02-.08.06-.15.11-.2,0,.11-.01.21.01.27.03.06.05-.09.09-.26l.24.68-.03-.28.7.31c.26-.82.29-1.92.74-2.4.04.55.26.81.47,1.4-.38-.55-.4.42-.79.4.2.01.25.31.23.42.15-.25.29-.5.42-.75.16.49.25.31.48.44-.47-.89.19-.8.3-1.17.15.3.23.64-.09.68.62.55-.06-1.23.49-.8-.06.04-.12.01-.07.18.02-.35.5-.33.55-.03l-.06.04c.51-.1,1.35-.77.92-1.51.07.09.52.89.59,1.05-.27-.96-.59-1.89-.99-2.8.38.63,1.69,1.81,1.6,2.41.16,0,.36,0,.4-.36-.14-.02-.82-.7-.78-.82.75.44.43.21,1.18.49-.2-.04-.85-.98-.7-1.08.09.15.78.82.8.96-.13-.39-.28-.78-.43-1.15.06.22.65.7.96.84-.2-.12.33-.29.34-.47-.11,0-.23-.01-.34-.02.52-.31-.84-1.46-.49-1.78.15.18,1.03,1,1.32.86-.35-.46-1.95-2.07-2.15-2.56l.32.11c-.06-.14-.11-.28-.19-.42.72.53,1.95,1.96,2.31,2.72.33-.03.35.17.51-.13.33.06.29.42.25.51l.61-.59c-.58-.31-.27-.87-.8-1.1.1.36.14.71.18,1.07-.58-.35-1.36-1.37-1.08-1.73.3,0,1.03.62,1.23.72-.17-.17-.18-.65,0-.63l.23.36c.36-.19-.59-.78.11-.9.08-.1.94-.09.57-.24-.8-.02-3.04-.79-3.57-1.05.05,0,.86-.21,1.24-.26.62-.04,1.34.6,1.87.58-.17-.05-.38-.22-.44-.27.18-.09.54.18.52-.12-.66-.18.16-.54-.54-.24-.15-.29.19-.25.21-.56-.44.03-1.45-.44-1.65-.65.17.02.4-.01.5-.03.09-.46.4-.73.36-1.19.16-.05.34-.31.64-.24-.13-.06-.36-.09-.39-.24.56-.37.12.32.8,0-.38.02-.59-.32-.89-.47-.59.17-.01.47.23.66-.83.08-1.74-.13-2.21-.42-.27-.26.5-.26.38-.28,0-.66-1.56-.06-1.11-.69.44-.37,1-.39,1.35-.56.28.21-.19.53-.11.69l.17-.3c.2.03.39.18.27.32.41-.32-.26-1.11-.11-1.77-.2-.01-.44-.07-.6.1l.13.12c-.33.32-.66,0-.76.27-.35-.06-.89,0-.81-.35l.5-.36c-.15.1-.22.34-.02.32-.29.05.49-.81-.26-.5l-.26.4c-.35-.02-1.03.18-1-.1-.43.43.09,0-.4.53.32-.3.4-.19.47-.08.06.11.12.21.46-.13-.62.57-.16.43-.67.94.17-.1.3-.25.3-.05.06-.02.13-.04.18-.05v.02s0-.02,0-.02c.03,0,.04,0,0,0,.06-.08.13-.16.22-.22.47-.15.57.14.83.14-.04.15-.23.05-.4.2h.39c-.4.19-.57.54-.91.43l.07.2c-.18.21-.24.39-.03.43-.06.12.55.09.19.11.12.08.26.16.36.24l-.11.03c0,.3.89.57.09,1.02.12.09.28.21.15.39l-.39.03c.12.14-.41.35,0,.43-.51.03-.59.14-.58.29.02.15.16.34.04.42l.49.14c-.08.14.01.31.15.58l.42.14c.31.33-.5.33-.56.6-.14-.1-.07-.14.04-.14-.52-.07-.42.16-.35.42.09.26.19.57-.19.5.08.16,0,.18-.13.15,0,0,0-.02,0-.03,0,0-.02.01-.03.02-.08-.02-.18-.04-.26-.06.11.04.2.07.25.08-.03.05-.05.16-.02.31l-.39-.28s0,.01,0,.02c-.19-.05.13.21.43.4.03.09.07.19.14.29-.62-.46,0,.38-.67-.12.24.33-.14.56.39,1.24-.08-.08-.13-.1-.1-.14-.15.01-.31,0-.24.26l-.43-.44c.11.26.21.53.31.81-.36-.19-.53-.33-.7-.8.15.82-.07.39.06,1.17l-.21-.34c-.09.07.04.63-.2.39-.59-.5-1.21.55-2.08.12.52,1.05-.45-.38-.18.47-.13-.25-.26-.37-.23-.63-.23.35-.56-.29-.58.52-.1-.26-.03-.41-.11-.56,0,.07-.04.25-.11.1-.07-.15-.01-.23,0-.36-.28.1-.14.94,0,1.72-.25-.33-.32-.27-.36.28-.11-.24-.25-.49-.05-.63-.13.01-.76-.29-.72.35-.05-.16-.17-.03-.2.05-.28,0-.3-.08-.57-.02l.08.1c-.1.77-.23.17-.45.27v-.08c-.47-.56-.24.25-.67-.42l-.02.48c-.17,1.01-.38-.63-.7-.32l.05.29c-.24.31-.15-1.47-.22-1.62,0-.09.08-.13.13-.19-.18-.66-.2.6-.5.68.05-.34.29-.81.16-.93.04-.29-.84.88-.83.18-.06.26-.11.53-.3.65-.24-.02-.03-1.12-.58-.47.01-.07.04-.14.07-.19-.23.1-.59.03-.93.34.4-.73.1-.67-.2-.66-.31.02-.64.05-.12-.51-.14-.07-.27-.17-.39-.27l.12-.1c-.13-.28-.47-.11-.83.05.03-.12.17-.17.24-.22-.05-.56-.09-.52-.96-.4l.38-.31c-.29.04.31-.94-.37-1.05.05-.02.14-.06.22-.06-.36-.09-.19-.5-.09-.8.1-.3.07-.48-.82-.3-.18-.06-.36-.13-.52-.2-.03.49-.77.15-1.01.42-.15-.17.41-.63.55-.42l-.08.06c.93-.16.19-.64.82-.76-.19-.85.26-1.69.41-2.38h-.73s.06-.26.06-.26c.18-.05.57-.01.53.17.41-.04-.3-.35-.45-.39.37-.31.81.29.85.17l-.02-.15-.09.02c-.27-.17-.58-.25-.5-.47.17-.11.45.04.49-.01.05.01.07,0,.04-.07l.16-.27-.59-.05c-.22-.23.13-.3-.54-.35,1,.08.83-1.06,1.2-1.04-.25-.39-.12-.58.06-.77-.13-.01-.69-.36-.48-.52,1.02.89.73,0,1.57.53-.58-.32.3-.55-.51-1.01.22-.06.36.35.68.48-.03-.7.93-.36,1.25-.76-.08-.16-.31-.33-.34-.62.24.2.47.4.69.61.04-.12-.4-.94.06-.49-.09-.12-.23-.3-.19-.38.68.14,1.09-.2,1.61-.42.5-.22,1.12-.26,1.58.55-.12-.34-.04-.38.06-.39-.07-.08.01-.43,0-.67.15.22.28.45.39.69.15-.66.44.01.6-.6l-.16.09c.35-.7-.03-1.69.09-2.63-.2.41-.35.07-.58-.21-.21-.27-.5-.5-.74.11-.12-.19.09-.31.02-.53-.13.42-.27.51-.57.35l.02-.1c-.81.19-1.22-.16-2.23-.14l.21.43c-.21,0-.3-.13-.43-.21.01.75.55-.13.59.69-.56-.87-1.27.44-1.87-.47-.29.13.32.46.04.58l-.21-.23.1.38c-.2.04-.47-.24-.6-.46.06,0,.09-.13.13-.18-.42-.18-.62.49-.75.44h.36c-.59.65-1.69,1.01-1.85,2.04l.2.12c-.12.72-.53.17-.82.82l-.03-.05c.09.25.06.45-.06.58-.11-.3-.59-.03-.7-.39-.02.83.09.5.56,1.3l-.37-.11c.21.29.35.38.3.71-.17-.38-.59-.07-.83-.54-.52.14-.46.49-.4.75.04.26.1.45-.51.4.86.65.73-.37.89-.12.36,0,.61.52.46.67-.08.18-1.37-.08-1.51.5.02-.06-.06-.08-.04-.13-.31.15.26.5-.21.67.58.26-.1.34.67.51l-.08-.53c.16.34.98.72.51,1.1-.16-.05-.35-.21-.46-.32-.24.11.13.28-.12.39-.79-.12-.12-.63-.63-1.05-.36.11.45.7-.37.41,1.05.37-.19.58.6,1.04l-.47-.05c.07.07.28.21.26.32l-.6-.24c.49.34-.46.63-.18.96-.03-.67.57-.16.91-.43.67.74-1.26.48-.94,1.41-.08-.12.23-.49.47-.32-.08.18-.23.42-.46.56.18.59.47-.16.79.06-.54.28.27.25.49.46l-.47.09c-.15.71,1.02-.04.79.6l-.71-.08.24.26-.55.07c.48.24.39.36.36.72.3-.18.85-.22.95.03-.21.28-.47.05-.27.41-.31.02-.71.05-.35-.27-.15.03-.32,0-.47.04-.24.32.12.56.17.7,0-.06,0-.14.05-.2.27.12.56.22.85.3-.13.16-.29.15-.45.14.1.09.34.08.45.22-.37.12-.73.31-1.02.14l.65.36c-.14.11-.28.49-.44.49-.04.43,1.08.35,1.05.88.08-.02.16-.02.26.02.16.37.02.98.74,1.03-.13.23-.23.44-.34.67.39.18.41-.86,1.04-.57.46.16-.32.53-.35.78.42-.07,1.17-.33,1.11.36-.19.01-.21-.14-.34-.18ZM8.45,21.7c-.12.07-.4.3-.36,0,.29-.48.27-.21.36,0ZM15,20.84c-.02.17-.13.11-.27-.05.06-.05.15-.05.27.05ZM19.96,8.87s.01,0,.02,0c-.14.18-.08.11-.02,0ZM20.06,8.55c-.07,0-.13.03-.19.07.12-.03.15.02.15.09.11-.06.18-.13.04-.16ZM4.95,8.67l-.13.02c-.11-.15,0-.08.13-.02Z" class="uuid-9515fe42-6e2a-4e17-bd6e-be64621e9352"></path><path d="M14.42,21.63c-.04-.08-.06-.16-.08-.25-.02.09,0,.18.08.25Z" class="uuid-9515fe42-6e2a-4e17-bd6e-be64621e9352"></path><path d="M2.16,17.47s0,0,0-.02c-.03,0-.06.02-.08.04l.08-.02Z" class="uuid-9515fe42-6e2a-4e17-bd6e-be64621e9352"></path><path d="M24.43,13.28c-.08.07-.18.1-.27.1.11.03.22.02.27-.1Z" class="uuid-9515fe42-6e2a-4e17-bd6e-be64621e9352"></path><path d="M18.72,7.75l.18.07c-.06-.05.02-.13.06-.21-.09.06-.22.18-.25.14Z" class="uuid-9515fe42-6e2a-4e17-bd6e-be64621e9352"></path><path d="M20.09,4.66c-.06.02-.05-.05-.11-.03l-.16.16c.1.09.29.04.27-.13Z" class="uuid-9515fe42-6e2a-4e17-bd6e-be64621e9352"></path><path d="M19.98,6.74c.33-.24.14-.26,0-.32,0,0,.01,0,.01.02-.49.3-.25.3-.01.31Z" class="uuid-9515fe42-6e2a-4e17-bd6e-be64621e9352"></path><path d="M19.95,6.39s-.07-.05-.08-.09c-.19.12,0,.07.08.09Z" class="uuid-9515fe42-6e2a-4e17-bd6e-be64621e9352"></path><path d="M19.68,8.36c.07-.09-.48.19-.35.09-.49.16.71.06.35-.09Z" class="uuid-9515fe42-6e2a-4e17-bd6e-be64621e9352"></path><polygon points="21.02 5.9 20.64 6.22 21.02 6.06 21.02 5.9" class="uuid-9515fe42-6e2a-4e17-bd6e-be64621e9352"></polygon><path d="M21.31,7.08v-.27c-.07.04-.13.04-.18.03.06.13.05.31.18.24Z" class="uuid-9515fe42-6e2a-4e17-bd6e-be64621e9352"></path><path d="M21.14,6.84c-.03-.07-.08-.12-.17-.12.02.03.08.1.17.12Z" class="uuid-9515fe42-6e2a-4e17-bd6e-be64621e9352"></path><polygon points="21.33 6.09 21.28 6.21 21.34 6.37 21.33 6.09" class="uuid-9515fe42-6e2a-4e17-bd6e-be64621e9352"></polygon><path d="M22.06,9.44l.19.22c.17,0,.26-.09.18-.18-.13-.04-.21-.12-.37-.04Z" class="uuid-9515fe42-6e2a-4e17-bd6e-be64621e9352"></path><path d="M23.19,8.3c-.08.1-.18.14-.33.23l.6-.17-.27-.06Z" class="uuid-9515fe42-6e2a-4e17-bd6e-be64621e9352"></path><path d="M23.54,9.09c.17-.01.57.33.46-.04-.17,0-.37-.26-.46.04Z" class="uuid-9515fe42-6e2a-4e17-bd6e-be64621e9352"></path><polygon points="22.66 13.3 22.67 13.23 21.69 12.96 22.66 13.3" class="uuid-9515fe42-6e2a-4e17-bd6e-be64621e9352"></polygon><path d="M22.81,18.01c.44-.16-.43-.47.03-.55-.13-.22-.38.07-.48-.14.05.34-.14.34.44.69Z" class="uuid-9515fe42-6e2a-4e17-bd6e-be64621e9352"></path><path d="M22.37,17.32c0-.05-.02-.11-.05-.19,0,.09.03.14.05.19Z" class="uuid-9515fe42-6e2a-4e17-bd6e-be64621e9352"></path><polygon points="12.02 4.33 12.11 4.56 12.09 4.21 12.02 4.33" class="uuid-9515fe42-6e2a-4e17-bd6e-be64621e9352"></polygon><path d="M12.42,3.64l-.1.64.21-.56s-.11.07-.11-.08Z" class="uuid-9515fe42-6e2a-4e17-bd6e-be64621e9352"></path><path d="M8.76,23.18l.06-.15c0-.18-.05-.19-.17-.26l.11.41Z" class="uuid-9515fe42-6e2a-4e17-bd6e-be64621e9352"></path><polygon points="5.59 21.23 5.63 21.27 5.85 20.71 5.59 21.23" class="uuid-9515fe42-6e2a-4e17-bd6e-be64621e9352"></polygon><path d="M2.72,19.8c.07.11.27.13.34.24-.27-.13.17-.77-.34-.24Z" class="uuid-9515fe42-6e2a-4e17-bd6e-be64621e9352"></path></svg>