<svg viewBox="0 0 17.9 14.34" xmlns="http://www.w3.org/2000/svg" id="uuid-f1597062-1ca2-4150-a57a-97b3ccff972d"><defs><style>.uuid-3013f9ed-2ac3-42d0-9c10-d46e02539794{fill:#82cd50;stroke-width:0px;}</style></defs><path d="M3.1,2.04s-.11.37-.13.44c.1-.07.15-.55.13-.44Z" class="uuid-3013f9ed-2ac3-42d0-9c10-d46e02539794"></path><polygon points="4.11 1.3 4.05 1.46 4.27 1.08 4.11 1.3" class="uuid-3013f9ed-2ac3-42d0-9c10-d46e02539794"></polygon><path d="M4.85,1.51c.13-.71-.3.03-.37-.25l.02-.16-.21.54c.18-.04.5-.36.56-.13Z" class="uuid-3013f9ed-2ac3-42d0-9c10-d46e02539794"></path><path d="M4.79,3.1c.06-.27.15-.2-.06-.11,0,.03,0,.05,0,.07.02,0,.04,0,.07.04Z" class="uuid-3013f9ed-2ac3-42d0-9c10-d46e02539794"></path><path d="M4.72,3.07c-.08,0-.02.24,0,0h0Z" class="uuid-3013f9ed-2ac3-42d0-9c10-d46e02539794"></path><path d="M5.1,3.02l-.17.21c-.03.16.04.22-.03.33.14-.1.17-.26.2-.53Z" class="uuid-3013f9ed-2ac3-42d0-9c10-d46e02539794"></path><path d="M5.36,2.56l-.08.08c-.01.07,0,.1.08-.08Z" class="uuid-3013f9ed-2ac3-42d0-9c10-d46e02539794"></path><path d="M5.1,2.81l.18-.17c.02-.11.09-.33-.07.06.07-.2-.01-.01-.1.12Z" class="uuid-3013f9ed-2ac3-42d0-9c10-d46e02539794"></path><path d="M5.07,2.69c0-.16-.05-.28.12-.48-.22.03-.34.52-.12.48Z" class="uuid-3013f9ed-2ac3-42d0-9c10-d46e02539794"></path><path d="M5.1.81l-.02-.23-.14.21c.07-.1.1.23.16.02Z" class="uuid-3013f9ed-2ac3-42d0-9c10-d46e02539794"></path><path d="M5.57,3.57c.06-.14.11-.39.16-.58l-.13.14c0,.11.04.22-.03.44Z" class="uuid-3013f9ed-2ac3-42d0-9c10-d46e02539794"></path><path d="M5.74,2.99l.2-.21c-.09-.06-.15.05-.2.21Z" class="uuid-3013f9ed-2ac3-42d0-9c10-d46e02539794"></path><polygon points="5.63 1.81 5.28 2.27 5.67 1.82 5.63 1.81" class="uuid-3013f9ed-2ac3-42d0-9c10-d46e02539794"></polygon><polygon points="5.96 3.74 5.77 4.04 6.07 3.59 5.96 3.74" class="uuid-3013f9ed-2ac3-42d0-9c10-d46e02539794"></polygon><path d="M6.24,3.78c-.15.25-.13.48-.24.63.09-.02.24-.23.38-.41-.1.09-.15.04-.14-.21Z" class="uuid-3013f9ed-2ac3-42d0-9c10-d46e02539794"></path><path d="M6.59,3.73c-.06.05-.13.15-.22.26.06-.05.12-.13.22-.26Z" class="uuid-3013f9ed-2ac3-42d0-9c10-d46e02539794"></path><path d="M6.09,2.93c-.02.09-.09.32-.07.44l.11-.42-.04-.02Z" class="uuid-3013f9ed-2ac3-42d0-9c10-d46e02539794"></path><path d="M6.13,2.94h0s.07.06.08.07c0,0-.03-.03-.08-.07Z" class="uuid-3013f9ed-2ac3-42d0-9c10-d46e02539794"></path><path d="M6.08,2.92h0s.01-.05,0,0Z" class="uuid-3013f9ed-2ac3-42d0-9c10-d46e02539794"></path><path d="M5.79,2.28c.14-.2.37-.4.36-.79-.15.26-.14.48-.36.79Z" class="uuid-3013f9ed-2ac3-42d0-9c10-d46e02539794"></path><path d="M6.21,2.4l-.08-.14c-.04.11-.07.27-.14.37l.23-.23Z" class="uuid-3013f9ed-2ac3-42d0-9c10-d46e02539794"></path><polygon points="6.32 2.3 6.21 2.4 6.24 2.45 6.32 2.3" class="uuid-3013f9ed-2ac3-42d0-9c10-d46e02539794"></polygon><path d="M6.56,3.28c.12-.15.18-.14.25-.15-.03-.1-.08-.18-.14-.2-.06.12-.18.33-.1.35Z" class="uuid-3013f9ed-2ac3-42d0-9c10-d46e02539794"></path><path d="M6.37,3.08l.02-.02s0-.05-.02.02Z" class="uuid-3013f9ed-2ac3-42d0-9c10-d46e02539794"></path><path d="M7.39,3.39s.02-.05.02-.07l-.03.07h0Z" class="uuid-3013f9ed-2ac3-42d0-9c10-d46e02539794"></path><path d="M6.68,2.86c-.02-.1-.09,0-.16.1.05-.02.1-.04.14-.02.03-.06.04-.09.02-.08Z" class="uuid-3013f9ed-2ac3-42d0-9c10-d46e02539794"></path><path d="M6.83,3.62c.01-.09.01-.17.01-.25-.03.13-.06.35-.01.25Z" class="uuid-3013f9ed-2ac3-42d0-9c10-d46e02539794"></path><path d="M6.36,3.18v.02c-.03.09-.02.05,0-.02Z" class="uuid-3013f9ed-2ac3-42d0-9c10-d46e02539794"></path><path d="M6.36,3.18s.11-.14.16-.22c-.04.02-.09.05-.13.1,0,.03-.02.08-.03.12Z" class="uuid-3013f9ed-2ac3-42d0-9c10-d46e02539794"></path><path d="M8.72.98c-.18.35-.46.62-.41.18-.24.22-.69,1.44-.9,2.15.07-.16.14-.3.35-.46.05-.21-.04-.58.2-.86.24-.11.07.19.05.41.14-.48.5-.56.77-1.23l-.25.17c.04-.1.17-.24.18-.36Z" class="uuid-3013f9ed-2ac3-42d0-9c10-d46e02539794"></path><path d="M7.22,3.19l-.06.03c.02.08,0,.25-.06.56.15-.14.23-.27.29-.39l-.2-.15.04-.05Z" class="uuid-3013f9ed-2ac3-42d0-9c10-d46e02539794"></path><path d="M6.95,3.13c.2-.38.39-.5.5-.96-.15-.03-.24.29-.39.43.26,0-.16.19-.09.49-.07.05-.12.05-.16.06.02.06.03.14.03.23v-.03s0,0,0,0h0c.01-.06.02-.09.02-.06h0c.03-.06.05-.11.07-.15.03.11-.03.11-.07.15l-.03.06h0s.31-.12.31-.12c-.02-.07-.08-.09-.21-.08Z" class="uuid-3013f9ed-2ac3-42d0-9c10-d46e02539794"></path><path d="M6.59.66s-.02.07-.03.1c.03-.04.05-.08.03-.1Z" class="uuid-3013f9ed-2ac3-42d0-9c10-d46e02539794"></path><path d="M6.6.94s-.11.21-.15.15c0-.14.07-.19.12-.33-.07.1-.22.25-.19.48l.04-.05c.05.17-.02.72-.06.77.11-.37.18-.64.25-1.02Z" class="uuid-3013f9ed-2ac3-42d0-9c10-d46e02539794"></path><path d="M6.85,1.94l.27-.12.04-.38-.08.21c-.08-.12-.16.14-.23.3Z" class="uuid-3013f9ed-2ac3-42d0-9c10-d46e02539794"></path><polygon points="7.32 3.6 7.11 4 7.48 3.46 7.32 3.6" class="uuid-3013f9ed-2ac3-42d0-9c10-d46e02539794"></polygon><polygon points="7.57 3.65 7.4 4.01 7.56 3.82 7.57 3.65" class="uuid-3013f9ed-2ac3-42d0-9c10-d46e02539794"></polygon><path d="M9.12,12.69l-.06.13s.05-.08.06-.13Z" class="uuid-3013f9ed-2ac3-42d0-9c10-d46e02539794"></path><path d="M9.71,12.58l-.04-.19c0,.11,0,.19.04.19Z" class="uuid-3013f9ed-2ac3-42d0-9c10-d46e02539794"></path><path d="M11.06,5.73c-.47.11-1.24.24-.63.15l.59-.1c-.12,0-.07-.02.05-.05Z" class="uuid-3013f9ed-2ac3-42d0-9c10-d46e02539794"></path><path d="M12.52,8.62s.09.04.13.07c-.1-.11-.2-.21-.29-.3.06.07.11.15.16.23Z" class="uuid-3013f9ed-2ac3-42d0-9c10-d46e02539794"></path><path d="M13.89,9.81l-.36-.07c.11.04.22.07.36.07Z" class="uuid-3013f9ed-2ac3-42d0-9c10-d46e02539794"></path><path d="M5.63,13.17l-.2.41c.18.04.14-.2.2-.41Z" class="uuid-3013f9ed-2ac3-42d0-9c10-d46e02539794"></path><path d="M9.92,4.74c-.03.18,0,.28,0,.31.08-.24.21-.61,0-.31Z" class="uuid-3013f9ed-2ac3-42d0-9c10-d46e02539794"></path><path d="M8.34,8.14c0,.08,0,.17.02.27.01-.08.01-.16-.02-.27Z" class="uuid-3013f9ed-2ac3-42d0-9c10-d46e02539794"></path><path d="M9.97,5.08s.03-.06.05-.09c-.06.05-.1.09-.1.06-.08.17-.14.26.05.03Z" class="uuid-3013f9ed-2ac3-42d0-9c10-d46e02539794"></path><path d="M.2,2.37s.03-.01.06-.01c-.05-.03-.06-.01-.06.01Z" class="uuid-3013f9ed-2ac3-42d0-9c10-d46e02539794"></path><path d="M5.14,3.04s-.02.04-.03.06c.02.02.04.01.03-.06Z" class="uuid-3013f9ed-2ac3-42d0-9c10-d46e02539794"></path><path d="M8.39,4.27c-.06,0-.03.04,0,0h0Z" class="uuid-3013f9ed-2ac3-42d0-9c10-d46e02539794"></path><path d="M8.94,2.62s.07-.09.12-.18c-.05.09-.09.15-.12.18Z" class="uuid-3013f9ed-2ac3-42d0-9c10-d46e02539794"></path><path d="M12.08,3.24h0c.05-.07.04-.05,0,0Z" class="uuid-3013f9ed-2ac3-42d0-9c10-d46e02539794"></path><path d="M8.41,4.06c0,.06,0,.11,0,.15,0-.04,0-.08,0-.15Z" class="uuid-3013f9ed-2ac3-42d0-9c10-d46e02539794"></path><path d="M8.33,4.24s-.02-.04-.02-.06c-.04.06-.05.1.02.06Z" class="uuid-3013f9ed-2ac3-42d0-9c10-d46e02539794"></path><path d="M8.47,4.28s-.05-.04-.06-.08c0,.03-.01.05-.02.07.02,0,.04,0,.08.01Z" class="uuid-3013f9ed-2ac3-42d0-9c10-d46e02539794"></path><path d="M1.69,8.63s.02-.02.03-.03c-.19.02-.15.03-.03.03Z" class="uuid-3013f9ed-2ac3-42d0-9c10-d46e02539794"></path><polygon points="17.01 6.38 17 6.37 16.97 6.38 17.01 6.38" class="uuid-3013f9ed-2ac3-42d0-9c10-d46e02539794"></polygon><path d="M17.21,6.66c-.55-.15-.43-.2-.24-.27h-1.52c.59.08,1.18.17,1.76.27Z" class="uuid-3013f9ed-2ac3-42d0-9c10-d46e02539794"></path><path d="M7.66,12.98l.23.38c-.23.65-.46.43-.21.97-.02-1.34.89-.2.76-1.56l.17.27s-.04.07-.08.06c.36.61.06-.99.39-.85.12.08.24.25.2.43l.17-.38c.08,0,.11.24.04.23l.34-.19v.04c0-.22.03-.56.04-.72.14.16,0,.15.07.31l.09-.38c.18.31.12.69-.03.68.57,1.24.06-.38.7.24l-.14.23c.37.69.44.37.84.74-.16-.21-.87-.98-.76-1.38.09.07.2.1.21-.2.17.45.24.29.37.21l.23.6c.08-.24-.06-.53-.09-.83.19-.01.43.42.64.78.32-.03-.52-.64-.26-.89.32.11.34-.2.41-.67.27.11.16.36.31.48l-.11-.52s.11.13.15.2c.02-.25-.32-.56-.23-.81-.17-.31.05-.15.31-.02.26.13.56.2.42-.17.18.1.23.32.41.49-.02-.61.03-.5-.25-1.16.17.05.34.09.51.13-.51-.21-.75-.73-1.01-1.11-.23-.12-.43-.23-.52-.28-.04-.12-.07-.23-.12-.34.11.05.28.2.48.39-.03-.04-.07-.08-.1-.12.27.1.55.34.79.6-.13-.05-.26-.12-.4-.18.27.28.55.6.86.83-.04-.06-.06-.12-.06-.17.07.08.13.15.19.18.06.04-.02-.08-.12-.21l.64.39-.22-.19c.23,0,.47-.03.71-.06-.38-.63-1.19-1.3-1.23-1.67.45.28.82.37,1.42.62-.73-.19.03.39-.29.52.16-.06.42.1.48.18-.06-.21-.16-.42-.25-.61.48.22.43.09.72.08-1.05-.33-.43-.5-.64-.74.35.1.69.25.45.39.95.06-1.01-.62-.21-.59-.02.04-.09.05.07.11-.24-.18.19-.33.46-.21l-.02.04c.35-.24.66-.88-.29-.98.13,0,1.15.14,1.33.18-1-.29-1.84-.49-3.23-.63,1.14.08,3.2-.06,3.55.21.17-.07.39-.17.18-.32-.16.06-1.35.11-1.39.05,1.1-.17.6-.11,1.61-.36-.24.08-1.61.05-1.5-.04.2,0,1.43-.09,1.55-.05-.37-.08-.92-.12-1.44-.15.22.02.79-.03,1.27-.11.16-.03.3-.06.4-.08-.27.05-.21-.23-.43-.28l-.23.15c-.09-.31-2.3.02-2.43-.17.3-.04,1.82-.26,1.84-.44-.38.04-1.29.15-2.15.28-.91.13-1.8.3-2.12.33l.37-.14-.54.06c.51-.15,1.4-.37,2.24-.5.83-.13,1.69-.2,2.21-.21.19-.18.42-.14.21-.29.29-.16.64-.05.72,0l-.23-.48c-.73.24-1.08-.06-1.66.17.39.03.8.08,1.21.15-.76.21-2.38.42-2.46.21.22-.16,1.31-.44,1.55-.53-.29.05-.73-.05-.59-.15l.49-.05c.08-.27-1.15.18-.71-.29-.02-.07.61-.62.22-.42-.58.5-2.87,1.7-3.49,2,.05-.03.52-.54.79-.82.44-.43,1.4-.73,1.79-1.08-.17.1-.43.19-.51.21.07-.15.52-.31.3-.38-.6.39-.26-.27-.56.3-.3.02-.03-.2-.23-.3-.3.32-1.3.9-1.53.99.13-.12.28-.3.34-.38-.18-.21-.12-.53-.37-.7.07-.15.05-.4.27-.61-.11.07-.27.25-.34.22.18-.59.21.02.48-.64-.22.33-.47.34-.71.5-.29.54.16.24.4.1-.46.71-1.09,1.34-1.52,1.55-.28.07.2-.51.11-.43-.27-.33-1.02,1.1-.99.42.15-.53.52-.94.68-1.29.25-.09.07.42.18.47v-.29c.14-.13.31-.18.29-.02.15-.48-.55-.42-.61-.96-.13.13-.31.25-.37.47l.12-.02c-.12.42-.44.44-.43.68-.26.21-.6.57-.65.28l.25-.56c-.08.16-.06.38.07.24-.19.21.12-.87-.31-.19l-.08.44c-.25.22-.67.74-.72.5-.2.58.06-.05-.15.64.3-.84.32.2.6-.69-.27.79.02.4-.18,1.09.09-.18.13-.37.2-.22.04-.05.08-.11.11-.15v.02s0-.02,0-.02c.02-.02.02-.03,0,0,.01-.09.04-.2.08-.3.27-.38.45-.28.62-.45.02.12-.14.19-.2.4l.26-.27c-.2.4-.18.75-.46.9l.13.09c-.04.26.02.41.18.28.01.12.41-.34.18-.06l.35-.11-.06.1c.09.09.29,0,.45-.02.08,0,.15.01.18.08.02.06-.02.15-.12.33.08-.08.21-.17.17-.04l-.25.3c.13-.08-.21.33.1.05-.78.74-.1.21-.2.37l.47-.29s.17-.02.43-.08l.45-.23c.45-.13-.18.28-.06.31-.2.07-.17.03-.07-.02-.52.25-.29.19.02.16.3-.04.69-.06.26.08.23-.03.18,0,.04.04,0,0-.02,0-.04,0,0,0,0,0,0,0-.09.03-.2.06-.29.08.14-.03.25-.06.3-.08.03.01.13.02.3.02l-.65.11s.01,0,.02,0c-.23.05.33-.03.82-.12.13,0,.27-.01.44-.02-1.07.16.46.03-.7.19.18-.01.3-.01.42,0,.14.01.29.02.49.04.18.02.43.03.87.02-.17,0-.25.02-.25,0-.18.05-.35.1-.02.13l-.9.03c.38.02.75.06,1.11.1-.58.06-.88.05-1.52-.01.94.16.32.09,1.21.29l-.53-.06s.64.19.19.17c-.53-.02-.64.07-.76.17-.12.1-.26.23-.72.15,1.27.49-.62-.16.31.26-.29-.12-.47-.18-.69-.32.19.21-.52-.15.14.32-.26-.15-.36-.24-.52-.33.05.04.2.16.04.07-.15-.09-.2-.14-.3-.22,0,.06.73.59,1.41,1.09-.39-.18-.36-.14.01.25-.24-.15-.49-.31-.49-.43-.08.01-.51-.1-.07.37-.13-.11-.09,0-.06.07-.13.04-.17,0-.24.11l.09.07c.42.65,0,.2-.03.33l-.04-.07c-.5-.35.04.28-.52-.14l.24.42c.44.93-.51-.41-.49,0l.17.22c.05.36-.82-1.18-.92-1.27-.05-.08-.03-.14-.04-.21-.41-.48.22.59.12.79-.15-.3-.28-.82-.39-.84-.12-.25.09,1.13-.25.56.1.24.21.48.2.69-.1.14-.54-.89-.45-.06-.03-.07-.05-.13-.06-.2-.04.23-.2.41-.19.85-.17-.81-.26-.6-.37-.37-.1.24-.22.47-.25-.29l-.25.09v-.16c-.15-.09-.21.26-.3.62-.03-.11,0-.25.01-.33-.22-.34-.21-.25-.55.46l.06-.49c-.13.25-.15-.81-.5-.33.02-.05.05-.14.09-.2-.2.23-.24-.14-.26-.35,0-.22,0-.27-.47.5-.11.11-.23.21-.36.31.13.22-.45.65-.51.95-.18.04.06-.61.21-.61l-.04.09c.55-.76-.04-.46.36-.96-.35-.2-.16-.85-.29-1.12l-.61.4s-.03-.09-.03-.15c.13-.12.49-.31.5-.21.35-.24-.37.02-.52.08.19-.3.8-.31.79-.37l-.08-.04-.07.05c-.29.08-.59.2-.61.08.1-.12.4-.2.41-.24.05-.02.07-.03,0-.05v-.17s-.51.26-.51.26c-.29.02-.03-.18-.62.12.9-.43.17-.79.46-.94-.45-.05-.43-.18-.4-.33-.12.04-.76.12-.69-.03,1.35-.02.55-.28,1.53-.36-.64.07-.14-.32-1.05-.24.11-.1.5.03.82-.02-.27-.14-.14-.25,0-.35.14-.1.32-.17.29-.29-.17-.06-.44-.09-.67-.23.3.04.59.09.87.16-.07-.06-.94-.41-.34-.26-.14-.05-.35-.11-.39-.17.26-.03.37-.09.41-.19.06-.09.08-.2.11-.32.07-.22.36-.42.92.2-.21-.27-.2-.31-.17-.34-.06-.06-.21-.37-.33-.57.17.15.33.32.48.5-.23-.6.16-.09-.02-.68l-.03.12c-.13-.71-.73-1.46-1.12-2.34.07.42-.18.16-.45,0-.26-.17-.56-.25-.39.35-.18-.12-.11-.29-.27-.46.14.39.1.51-.18.47l-.04-.1c-.38.46-.85.26-1.53.73l.41.24c-.14.08-.28.02-.42.01.49.54.29-.32.83.28-.43-.22-.63-.01-.75.2-.13.21-.27.39-.8.23-.11.21.53.17.42.37l-.3-.06.33.2c-.1.1-.47.04-.71-.04.04-.02-.03-.12-.04-.17-.4.07-.07.58-.2.6l.24-.16c.02.34-.09.65-.12.98-.05.32-.04.66.25.94l.23-.02c.4.4-.28.31-.07.74h-.05c.23.07.35.17.33.28-.27-.09-.49.24-.79.12.48.4.36.2,1.22.35l-.36.11c.35.04.52.02.66.18-.34-.1-.53.24-.98.13-.71.65.93.45-.14.97,1.04-.11.43-.53.67-.48.3-.17.79-.05.73.09.02.12-1.19.62-1.03.99-.01-.04-.09,0-.09-.05-.19.24.44.12.13.45.6-.18.07.23.79-.1l-.31-.22c.28.1,1.16-.19.89.27-.15.06-.38.09-.5.09-.17.19.21.08.06.27-.71.38-.35-.27-.98-.2-.25.25.69.11-.12.41,1.02-.38.08.43.94.22l-.41.24c.09,0,.32-.05.36.02l-.59.22c.56-.11-.14.65.26.67-.31-.38.38-.43.55-.8.82.02-.78,1.02-.13,1.41-.12-.03-.03-.46.23-.5.01.16,0,.41-.12.65.41.25.28-.4.62-.48-.28.52.33-.03.58-.07l-.31.37c.2.56.71-.72.81-.17-.17.15-.35.3-.53.44h.28s-.35.42-.35.42c.45-.18.46-.08.61.19.11-.33.45-.75.63-.67,0,.32-.27.38.03.45-.18.25-.43.55-.35.08-.08.13-.2.24-.29.37,0,.38.37.28.48.32-.03-.03-.08-.09-.07-.16.24-.12.44-.31.65-.46,0,.19-.1.31-.2.43.1-.02.23-.21.35-.21-.16.36-.28.75-.52.86.19-.09.36-.18.54-.27-.03.17.07.52-.03.64.18.31.75-.6.98-.24.03-.07.07-.14.15-.18.25.15.46.63.85.14l.15.72c.27-.14-.2-.9.23-1.14.29-.23.1.6.2.79.17-.36.38-1.08.68-.52-.08.13-.16.03-.24.09ZM10.49,12.11c-.02.11-.02.44-.15.19-.12-.54.01-.31.15-.19ZM13.58,8.93c.11.12,0,.12-.21.05,0-.06.06-.08.21-.05ZM9.09,4.2s0-.01.02-.02c-.02.21,0,.13-.02.02ZM9.03,3.93s-.08.11-.11.17c.07-.1.11-.09.13-.04.05-.12.07-.2-.03-.14ZM4.37,6.72l-.11.07c-.15,0-.03-.04.11-.07Z" class="uuid-3013f9ed-2ac3-42d0-9c10-d46e02539794"></path><path d="M13.74,9.67c-.08-.04-.15-.1-.23-.15.05.07.12.13.23.15Z" class="uuid-3013f9ed-2ac3-42d0-9c10-d46e02539794"></path><path d="M5.66,13.09s0,0,0,0l-.03.08.03-.08Z" class="uuid-3013f9ed-2ac3-42d0-9c10-d46e02539794"></path><path d="M14.41,2.6c-.01.08-.06.15-.13.22.11-.07.17-.14.13-.22Z" class="uuid-3013f9ed-2ac3-42d0-9c10-d46e02539794"></path><path d="M7.81,4.21l.16-.06c-.06,0-.03-.11-.02-.19-.05.1-.1.26-.14.25Z" class="uuid-3013f9ed-2ac3-42d0-9c10-d46e02539794"></path><path d="M8.11,1.06s-.04,0-.08.04l-.08.21c.08.02.2-.13.17-.25Z" class="uuid-3013f9ed-2ac3-42d0-9c10-d46e02539794"></path><path d="M8.42,2.73c.17-.37.04-.28-.07-.25,0,0,.01,0,.01,0-.27.5-.11.37.06.24Z" class="uuid-3013f9ed-2ac3-42d0-9c10-d46e02539794"></path><path d="M8.32,2.48s-.06,0-.08-.02c-.11.2,0,.06.08.02Z" class="uuid-3013f9ed-2ac3-42d0-9c10-d46e02539794"></path><path d="M8.7,4.06c.02-.11-.27.45-.21.29-.28.43.52-.43.21-.29Z" class="uuid-3013f9ed-2ac3-42d0-9c10-d46e02539794"></path><polygon points="8.94 1.49 8.75 1.96 8.97 1.62 8.94 1.49" class="uuid-3013f9ed-2ac3-42d0-9c10-d46e02539794"></polygon><path d="M9.4,2.14l-.06-.19c-.04.08-.08.11-.11.13.07.06.11.19.17.05Z" class="uuid-3013f9ed-2ac3-42d0-9c10-d46e02539794"></path><path d="M9.23,2.09s-.08-.04-.14.02c.02,0,.08.02.14-.02Z" class="uuid-3013f9ed-2ac3-42d0-9c10-d46e02539794"></path><polygon points="9.18 1.45 9.17 1.56 9.25 1.64 9.18 1.45" class="uuid-3013f9ed-2ac3-42d0-9c10-d46e02539794"></polygon><path d="M10.69,2.97l.21-.04c.1-.14.12-.25.04-.22-.09.08-.18.11-.24.26Z" class="uuid-3013f9ed-2ac3-42d0-9c10-d46e02539794"></path><path d="M10.97,1.55c-.01.11-.07.21-.13.37l.32-.53-.19.17Z" class="uuid-3013f9ed-2ac3-42d0-9c10-d46e02539794"></path><path d="M11.46,1.67c.1-.14.47-.3.26-.37-.1.14-.32.17-.26.37Z" class="uuid-3013f9ed-2ac3-42d0-9c10-d46e02539794"></path><polygon points="13.12 3.75 13.08 3.73 12.14 4.31 13.12 3.75" class="uuid-3013f9ed-2ac3-42d0-9c10-d46e02539794"></polygon><path d="M17.89,4.69c.08-.26-.83.08-.65-.16-.34.01-.15.2-.46.2.44.06.33.15,1.11-.04Z" class="uuid-3013f9ed-2ac3-42d0-9c10-d46e02539794"></path><path d="M16.78,4.73c-.07,0-.15-.02-.25-.02.11.02.19.02.25.02Z" class="uuid-3013f9ed-2ac3-42d0-9c10-d46e02539794"></path><polygon points="5.55 3.47 5.66 3.65 5.52 3.35 5.55 3.47" class="uuid-3013f9ed-2ac3-42d0-9c10-d46e02539794"></polygon><path d="M5.4,2.75l.2.59-.13-.55s-.02.09-.07-.04Z" class="uuid-3013f9ed-2ac3-42d0-9c10-d46e02539794"></path><path d="M11.37,13.18l-.05-.15c-.09-.15-.13-.14-.21-.14l.25.29Z" class="uuid-3013f9ed-2ac3-42d0-9c10-d46e02539794"></path><polygon points="9.04 13.35 9.08 13.36 8.9 12.79 9.04 13.35" class="uuid-3013f9ed-2ac3-42d0-9c10-d46e02539794"></polygon><path d="M7.04,14.25c.09.02.19-.11.28-.08-.2.11-.29-.65-.28.08Z" class="uuid-3013f9ed-2ac3-42d0-9c10-d46e02539794"></path></svg>