<svg viewBox="0 0 48.14 44.12" xmlns="http://www.w3.org/2000/svg" id="uuid-7a1f03c3-4e75-47f4-bb08-02cfdea4dde8"><defs><style>.uuid-38b9db48-a332-46fe-b267-2d58d434716e{fill:#82cd50;stroke-width:0px;}</style></defs><path d="M40.96,27.65c.04.07.25-.29.3-.35-.15.01-.36.44-.3.35Z" class="uuid-38b9db48-a332-46fe-b267-2d58d434716e"></path><polygon points="39.51 27.82 39.62 27.69 39.25 27.95 39.51 27.82" class="uuid-38b9db48-a332-46fe-b267-2d58d434716e"></polygon><path d="M38.65,27.24c-.31.65.38.11.39.43l-.07.15.39-.43c-.24-.05-.69.1-.71-.15Z" class="uuid-38b9db48-a332-46fe-b267-2d58d434716e"></path><path d="M39.04,25.64c-.12.25-.23.13.06.14,0-.03.01-.05.02-.07-.02,0-.05-.03-.08-.07Z" class="uuid-38b9db48-a332-46fe-b267-2d58d434716e"></path><path d="M39.12,25.72c.1.04.07-.23,0,0h0Z" class="uuid-38b9db48-a332-46fe-b267-2d58d434716e"></path><path d="M38.61,25.57l.26-.13c.07-.15-.02-.26.08-.33-.2.03-.26.18-.34.46Z" class="uuid-38b9db48-a332-46fe-b267-2d58d434716e"></path><path d="M38.21,25.93l.12-.05c.03-.06.02-.1-.12.05Z" class="uuid-38b9db48-a332-46fe-b267-2d58d434716e"></path><path d="M38.58,25.78l-.26.1c-.05.11-.17.3.1-.03-.13.17.01.02.15-.07Z" class="uuid-38b9db48-a332-46fe-b267-2d58d434716e"></path><path d="M38.6,25.92c-.02.17.01.31-.24.44.28.07.53-.37.24-.44Z" class="uuid-38b9db48-a332-46fe-b267-2d58d434716e"></path><path d="M38.19,27.82l-.03.23.21-.15c-.1.07-.07-.28-.18-.09Z" class="uuid-38b9db48-a332-46fe-b267-2d58d434716e"></path><path d="M38.06,24.76c-.09.12-.18.36-.28.53l.19-.09c.01-.12-.02-.25.1-.45Z" class="uuid-38b9db48-a332-46fe-b267-2d58d434716e"></path><path d="M37.78,25.3l-.28.13c.1.1.19.02.28-.13Z" class="uuid-38b9db48-a332-46fe-b267-2d58d434716e"></path><polygon points="37.75 26.57 38.27 26.26 37.7 26.55 37.75 26.57" class="uuid-38b9db48-a332-46fe-b267-2d58d434716e"></polygon><polygon points="37.56 24.41 37.83 24.17 37.4 24.52 37.56 24.41" class="uuid-38b9db48-a332-46fe-b267-2d58d434716e"></polygon><path d="M37.19,24.24c.22-.21.19-.46.35-.57-.12-.02-.34.14-.53.28.14-.06.21.02.18.29Z" class="uuid-38b9db48-a332-46fe-b267-2d58d434716e"></path><path d="M36.71,24.14c.08-.03.18-.11.3-.2-.08.03-.17.08-.3.2Z" class="uuid-38b9db48-a332-46fe-b267-2d58d434716e"></path><path d="M37.32,25.21c.04-.08.15-.3.13-.43l-.18.39.05.04Z" class="uuid-38b9db48-a332-46fe-b267-2d58d434716e"></path><path d="M37.26,25.18h0c-.05-.06-.08-.09-.1-.11.01.01.04.05.09.11Z" class="uuid-38b9db48-a332-46fe-b267-2d58d434716e"></path><path d="M37.33,25.22h-.01s-.02.04.01,0Z" class="uuid-38b9db48-a332-46fe-b267-2d58d434716e"></path><path d="M37.61,26.02c-.21.15-.51.25-.56.66.22-.21.24-.44.56-.66Z" class="uuid-38b9db48-a332-46fe-b267-2d58d434716e"></path><path d="M37.1,25.71l.09.17c.06-.1.12-.25.23-.32l-.32.15Z" class="uuid-38b9db48-a332-46fe-b267-2d58d434716e"></path><polygon points="36.95 25.78 37.1 25.71 37.07 25.65 36.95 25.78" class="uuid-38b9db48-a332-46fe-b267-2d58d434716e"></polygon><path d="M36.73,24.64c-.16.12-.24.08-.33.06.03.12.09.22.17.27.08-.1.25-.28.16-.33Z" class="uuid-38b9db48-a332-46fe-b267-2d58d434716e"></path><path d="M36.97,24.93h-.03s-.01.06.03,0Z" class="uuid-38b9db48-a332-46fe-b267-2d58d434716e"></path><path d="M35.66,24.2s-.02.05-.03.07l.04-.06h-.01Z" class="uuid-38b9db48-a332-46fe-b267-2d58d434716e"></path><path d="M36.55,25.04c.02.11.11.05.22-.04-.07,0-.13,0-.19-.04-.04.05-.06.08-.03.08Z" class="uuid-38b9db48-a332-46fe-b267-2d58d434716e"></path><path d="M36.39,24.17c-.02.1-.02.18-.02.27.04-.13.1-.35.02-.27Z" class="uuid-38b9db48-a332-46fe-b267-2d58d434716e"></path><path d="M36.99,24.83h.02c.03-.1,0-.06-.02,0Z" class="uuid-38b9db48-a332-46fe-b267-2d58d434716e"></path><path d="M36.99,24.83c-.07.03-.15.1-.23.17.06,0,.12-.02.18-.05,0-.03.03-.07.04-.11Z" class="uuid-38b9db48-a332-46fe-b267-2d58d434716e"></path><path d="M33.93,26.35c.23-.32.59-.53.49-.08.3-.16.92-1.31,1.2-1.99-.1.14-.19.27-.45.38-.07.21.03.63-.28.85-.3.05-.08-.22-.05-.45-.19.46-.63.45-.98,1.08l.3-.11c-.06.1-.22.21-.23.32Z" class="uuid-38b9db48-a332-46fe-b267-2d58d434716e"></path><path d="M35.87,24.48h.08c-.03-.1.01-.27.09-.58-.2.1-.3.21-.38.32l.25.23-.05.04Z" class="uuid-38b9db48-a332-46fe-b267-2d58d434716e"></path><path d="M36.22,24.65c-.28.33-.52.39-.69.84.19.09.32-.22.52-.31-.33-.09.21-.15.15-.48.09-.03.15-.01.21,0-.02-.08-.03-.16-.03-.26v.03s0,0,0,0h0c-.02.06-.03.09-.03.05,0,0-.01,0-.01,0-.04.05-.07.09-.1.13-.03-.13.05-.1.1-.13l.04-.05h0s-.4.01-.4.01c.02.09.1.12.26.17Z" class="uuid-38b9db48-a332-46fe-b267-2d58d434716e"></path><path d="M36.4,27.36s.03-.06.05-.09c-.05.03-.07.06-.05.09Z" class="uuid-38b9db48-a332-46fe-b267-2d58d434716e"></path><path d="M36.43,27.07c.05-.04.16-.17.2-.09-.02.14-.11.17-.19.29.1-.07.31-.17.3-.42l-.05.04c-.03-.2.13-.74.18-.77-.18.35-.31.59-.44.96Z" class="uuid-38b9db48-a332-46fe-b267-2d58d434716e"></path><path d="M36.26,25.95l-.34.03-.09.39.12-.19c.08.16.2-.09.32-.22Z" class="uuid-38b9db48-a332-46fe-b267-2d58d434716e"></path><polygon points="35.75 24.01 36.03 23.65 35.54 24.1 35.75 24.01" class="uuid-38b9db48-a332-46fe-b267-2d58d434716e"></polygon><polygon points="35.42 23.86 35.65 23.54 35.44 23.68 35.42 23.86" class="uuid-38b9db48-a332-46fe-b267-2d58d434716e"></polygon><path d="M15.94,17.49l-.13.06c.05-.01.09-.03.13-.06Z" class="uuid-38b9db48-a332-46fe-b267-2d58d434716e"></path><path d="M16.42,17.81l.11-.16c-.08.08-.13.14-.11.16Z" class="uuid-38b9db48-a332-46fe-b267-2d58d434716e"></path><path d="M28.07,19.2c.1-.38.29-.93.07-.55l-.2.39c.11-.02.14.05.13.16Z" class="uuid-38b9db48-a332-46fe-b267-2d58d434716e"></path><path d="M21.65,18.28s-.03.09-.04.13c.1-.11.2-.22.28-.31-.08.06-.16.12-.24.18Z" class="uuid-38b9db48-a332-46fe-b267-2d58d434716e"></path><path d="M20.65,19.77l.02-.32c-.02.1-.03.21-.02.32Z" class="uuid-38b9db48-a332-46fe-b267-2d58d434716e"></path><path d="M13.01,16.29l-.3.33c.13.07.18-.15.3-.33Z" class="uuid-38b9db48-a332-46fe-b267-2d58d434716e"></path><path d="M32.29,22.02c0-.2-.02-.3-.07-.36-.03.28-.15.64.07.36Z" class="uuid-38b9db48-a332-46fe-b267-2d58d434716e"></path><path d="M18.5,13.65c-.08.04-.15.11-.19.19.08-.04.15-.09.19-.19Z" class="uuid-38b9db48-a332-46fe-b267-2d58d434716e"></path><path d="M31.97,21.51s0,.07-.01.11c.1-.02.2-.03.26.04.02-.2,0-.36-.25-.16Z" class="uuid-38b9db48-a332-46fe-b267-2d58d434716e"></path><path d="M3.32,10.35s0-.03,0-.06c-.03.05-.02.06,0,.06Z" class="uuid-38b9db48-a332-46fe-b267-2d58d434716e"></path><path d="M2.51,4.91s.09.02.14.04c0-.04-.04-.06-.14-.04Z" class="uuid-38b9db48-a332-46fe-b267-2d58d434716e"></path><path d="M34.33,22.92c.08.02.04-.03,0,0h0Z" class="uuid-38b9db48-a332-46fe-b267-2d58d434716e"></path><path d="M33.7,24.56s-.08.08-.14.16c.06-.08.11-.13.14-.16Z" class="uuid-38b9db48-a332-46fe-b267-2d58d434716e"></path><path d="M29.89,23.38h0c-.03.08-.02.06,0,0Z" class="uuid-38b9db48-a332-46fe-b267-2d58d434716e"></path><path d="M34.32,23.15c0-.06,0-.12-.01-.16,0,.04,0,.09.01.16Z" class="uuid-38b9db48-a332-46fe-b267-2d58d434716e"></path><path d="M34.42,22.97s.02.05.03.07c.05-.06.07-.1-.03-.07Z" class="uuid-38b9db48-a332-46fe-b267-2d58d434716e"></path><path d="M34.23,22.88s.06.06.08.1c0-.03.01-.06.02-.07-.02,0-.05-.02-.1-.04Z" class="uuid-38b9db48-a332-46fe-b267-2d58d434716e"></path><path d="M9.2,12.33s0-.02,0-.04c-.15.12-.11.11,0,.04Z" class="uuid-38b9db48-a332-46fe-b267-2d58d434716e"></path><polygon points="24.03 21.99 24.05 21.98 24.05 21.96 24.03 21.99" class="uuid-38b9db48-a332-46fe-b267-2d58d434716e"></polygon><path d="M23.63,22.12c.38-.4.4-.31.41-.17l.59-1.11-1,1.27Z" class="uuid-38b9db48-a332-46fe-b267-2d58d434716e"></path><path d="M14.7,16.9l-.04.43c-.52.44-.55.16-.68.72.71-1.16.7.25,1.41-.9l-.04.31s-.07.04-.09,0c-.12.68.66-.75.82-.43.04.14,0,.35-.14.45l.38-.17c.05.06-.09.25-.14.19l.37.09-.02.03c.15-.16.43-.38.55-.47-.02.22-.11.1-.18.26l.34-.18c-.11.35-.43.55-.52.44-.53,1.26.32-.21.27.68l-.25.05c-.29.72-.02.56-.08,1.09.08-.24.25-1.26.61-1.44,0,.12.05.2.29.03-.25.41-.09.37.05.42l-.34.54c.23-.08.39-.36.61-.56.12.14-.11.59-.29.97.19.23.24-.78.59-.71.07.33.35.19.79,0,.03.27-.23.32-.27.51l.39-.36s-.07.16-.11.22c.21-.11.34-.54.59-.59.41-.58-.2,1.08.42.52-.04.19-.23.32-.34.54.55-.28.44-.18,1.03-.64l-.02.48c.11-.5.59-.87.99-1.17.07-.23.13-.43.15-.53l.44-.14c-.02.11-.16.28-.35.48.04-.04.09-.07.13-.1-.03.26-.27.54-.52.81.04-.13.07-.26.11-.39-.27.29-.55.62-.73.95.06-.05.12-.09.17-.1-.07.08-.13.15-.16.21-.03.06.07-.04.2-.16l-.31.64.16-.23.1.58c.61-.47,1.38-1.24,1.91-1.26-.37.39-.47.72-.8,1.24.24-.62-.44.06-.57-.18.07.12-.11.36-.19.43l.66-.29c-.27.43-.12.37-.14.6.46-.9.61-.41.91-.58-.17.29-.38.56-.51.39-.2.76.86-.85.72-.19-.05-.02-.04-.08-.15.06.26-.19.37.16.16.37l-.05-.02c.22.28.85.54,1.34-.16-.06.1-.58.85-.69.98l2.01-2.12c-.43.59-1.18,2.17-1.63,2.38.01.13.03.28.31.15,0-.12.44-.97.54-.99-.26.8-.11.44-.27,1.16.01-.18.7-1.1.79-1-.11.13-.59.96-.69,1.04l.86-.79c-.17.13-.52.8-.63,1.11.09-.2.22.16.35.11l.02-.29c.21.33,1.14-1.15,1.41-.91-.16.17-.85,1.15-.77,1.37.38-.44,1.79-2.15,2.29-2.36l-.12.31.41-.19c-.59.65-1.92,1.97-2.49,2.45-.03.29-.18.35.01.43-.1.3-.34.34-.4.32l.29.42c.34-.58.66-.38.95-.86l-.8.32c.34-.58,1.27-1.46,1.48-1.18-.07.27-.69.98-.81,1.17.16-.17.5-.21.44-.05l-.31.23c.02.31.73-.59.57.07.04.08-.27.85-.05.52.31-.71,1.56-2.73,1.94-3.17,0,.06-.05.84-.18,1.2-.22.58-.93,1.11-1.12,1.6.1-.15.28-.31.35-.35-.02.18-.33.46-.14.49.39-.56.27.24.38-.44.25-.07.08.22.26.3.18-.41.96-1.17,1.21-1.24-.1.14-.19.35-.23.45.26.24.25.6.53.79-.06.15-.04.41-.25.62.1-.08.27-.25.36-.21-.15.6-.24-.04-.5.63.22-.33.51-.32.77-.45.29-.54-.21-.28-.47-.15.46-.71,1.14-1.32,1.64-1.46.34-.03-.2.52-.09.45.35.4,1.17-1,1.19-.26-.15.54-.57.9-.75,1.25-.3.05-.1-.47-.24-.53l.02.31c-.16.11-.35.15-.34-.03-.14.48.68.54.76,1.13.16-.11.36-.2.43-.42h-.15c.14-.43.52-.38.5-.64.31-.16.72-.46.79-.13l-.3.54c.09-.15.07-.39-.09-.27.23-.17-.15.89.38.28l.09-.45c.31-.17.84-.6.91-.32.25-.56-.08.03.18-.64-.37.81-.43-.32-.76.56.32-.77-.03-.44.18-1.13-.11.17-.15.36-.25.18-.04.05-.1.1-.13.13v-.02s0,.03,0,.03c-.02.02-.03.03,0,0-.01.1-.04.21-.09.31-.33.34-.55.18-.76.33-.03-.14.16-.17.23-.38l-.31.22c.23-.38.17-.78.52-.86l-.18-.14c.03-.28-.07-.46-.27-.36-.04-.14-.49.27-.22.03l-.44.05.06-.1c-.26-.23-.99.24-.89-.65-.16.03-.33.09-.43-.13l.18-.35c-.2.03-.17-.57-.44-.26.43-.97-.48-.58-.6-.87l-.28.42c-.14-.12-.36-.09-.66-.04l-.23.39c-.36.21-.25-.53-.53-.66.11-.13.15-.05.14.06.23-1.05-1.04.22-.92-.58-.16.1-.18.02-.17-.11,0,0,.02,0,.03,0,0,0-.01-.02-.03-.02.01-.08.03-.18.03-.26-.03.11-.05.2-.05.25-.06-.03-.17-.03-.31.02l.22-.43s-.01,0-.03,0c.02-.2-.18.15-.33.49-.08.04-.17.1-.26.18.35-.7-.35.09,0-.67-.27.31-.56,0-1.05.7.06-.1.06-.16.11-.14-.04-.14-.07-.27-.28-.12l.29-.54-.63.58c.08-.39.15-.6.51-.93-.67.44-.37.09-.99.55l.22-.33c-.09-.04-.51.33-.39.02.2-.76-.9-.68-1.02-1.58-.51,1.05.04-.59-.45.17.12-.25.13-.43.33-.58-.39.08-.15-.61-.72-.06.12-.25.27-.31.32-.47-.05.04-.21.16-.15,0,.06-.16.16-.17.26-.25-.28-.12-.75.59-1.19,1.26.07-.4-.03-.4-.39,0,.09-.25.16-.53.37-.51-.07-.09-.35-.66-.69-.12.06-.16-.1-.12-.16-.07-.18-.16-.17-.22-.4-.29v.12c-.48.61-.25.05-.46.03l.04-.06c-.08-.7-.3.13-.33-.63l-.23.42c-.57.86,0-.71-.42-.5l-.07.28c-.3.23.4-1.4.35-1.58.02-.09.11-.1.18-.13,0-.71-.36.51-.66.5.13-.32.5-.71.38-.85.06-.28-1.01.68-.88,0-.09.25-.18.5-.38.61-.21-.02.07-1.11-.5-.49.02-.07.04-.14.08-.19-.23.11-.58.06-.88.4.73-1.49-1.18.24-.4-1.08l-.42-.16.09-.13c-.19-.23-.46.04-.74.3,0-.12.11-.22.16-.29-.2-.47-.27-.44-.95.04l.22-.45c-.23.2-.12-.97-.76-.68.03-.05.09-.13.15-.17-.68.27-.25-1.74-1.3-.26l-.48.23c.27.32-.44.65-.46.99-.19.02-.07-.67.14-.65l-.02.09c.53-.78-.25-.53.08-1.08-.69-.34-1.07-1.17-1.67-1.56l-.29.68-.2-.16c.03-.18.21-.54.35-.43.12-.41-.43.15-.52.29-.16-.43.54-.67.46-.74l-.15-.02v.09c-.26.2-.43.47-.6.33-.04-.19.16-.43.13-.48.03-.05.02-.08-.06-.06l-.24-.21-.18.56c-.26.18-.24-.17-.44.47.31-.98-.84-.9-.8-1.23-.38.27-.54.17-.72,0,0,.13-.29.72-.44.55.72-1.13-.04-.69.28-1.61-.18.63-.59-.15-.83.76-.1-.18.24-.44.28-.78-.61.25-.62-.73-1.15-.83-.09.15-.15.43-.37.6l.19-.9c-.13.03-.57.84-.44.22-.05.14-.12.36-.21.37-.45-1.23-2.11-.36-2.22-2.26-.04.37-.14.35-.24.31.02.1-.21.38-.31.6l-.05-.78c-.38.54-.42-.18-.76.36l.17-.04c-.51.57-.58,1.58-1.06,2.41.58-.65-.15,1.35.72.44-.03.21-.2.24-.27.45.27-.32.4-.35.47-.1l-.07.08c.5.16.5.62.88,1.14l.19-.44c.08.12.03.26.02.39.47-.56-.29-.21.21-.84-.32.92.76.44.33,1.45.16.1.22-.51.38-.41l-.1.28.23-.31c.08.12-.04.47-.16.69-.01-.04-.11.02-.15.02-.03.38.46.12.45.24l-.07-.25c.59.01.96.66,1.69.38l.08-.21c.54-.17.15.37.61.41l-.04.04c.18-.15.34-.19.43-.12-.22.18-.07.54-.34.73.58-.18.35-.2,1-.79l-.13.35c.25-.25.34-.4.57-.38-.31.19-.16.56-.54.83-.01.92.98-.39.57.75.68-.79-.05-.69.15-.82.08-.34.52-.58.6-.42.11.09-.44,1.26-.12,1.42-.03-.02-.07.04-.1.02-.01.29.4-.18.33.27.39-.49.17.14.58-.54h-.38c.26-.09.88-.81.92-.27-.1.13-.28.26-.4.33-.04.25.23-.05.19.21-.42.67-.43-.05-.9.38-.08.34.61-.31.1.38.67-.88.24.29.86-.31l-.25.4c.07-.05.25-.2.31-.16l-.42.47c.43-.36.1.58.4.43-.35-.18.21-.54.24-.92.74-.31-.38,1.22.2,1.29-.1.02-.1-.38.11-.52.04.14.07.36,0,.61.36.09.2-.45.48-.63-.18.56.27-.12.5-.2l-.24.42c.2.47.6-.82.73-.31l-.47.5.25-.05-.31.46c.38-.25.39-.12.49.11.13-.32.46-.74.63-.67-.04.31-.29.36-.03.43-.2.23-.45.53-.32.09-.09.13-.2.23-.29.36-.05.35.25.23.33.27-.02-.03-.05-.08-.03-.15l.66-.39c-.04.19-.15.29-.27.39.09,0,.25-.17.36-.15-.22.32-.42.68-.65.76l.52-.2c-.07.16-.08.5-.19.6.05.3.8-.41.87-.02.05-.06.11-.11.19-.13.17.2.11.72.63.41l-.21.69c.28-.02.26-.88.72-.91.35-.06-.22.57-.24.78.29-.24.86-.74.78-.12-.14.07-.14-.05-.23-.04ZM17.27,18.06c-.1.06-.35.27-.24,0,.34-.44.24-.19.24,0ZM21.52,19.28c-.12.11-.13.01-.1-.18.06,0,.1.04.1.18ZM33.43,22.8l-.02.02c0-.22,0-.14.02-.02ZM33.53,23.12c.06-.04.09-.1.12-.16-.08.09-.13.07-.17,0-.05.12-.07.21.05.16ZM10.12,9.11l-.02.13c-.17.07-.08-.03.02-.13Z" class="uuid-38b9db48-a332-46fe-b267-2d58d434716e"></path><path d="M20.76,19.59c.03-.08.07-.16.12-.24-.06.06-.11.14-.12.24Z" class="uuid-38b9db48-a332-46fe-b267-2d58d434716e"></path><path d="M13.07,16.23s0,0,0,0l-.05.07.06-.06Z" class="uuid-38b9db48-a332-46fe-b267-2d58d434716e"></path><path d="M28.02,24.44c0-.09.02-.18.05-.26-.07.1-.1.19-.05.26Z" class="uuid-38b9db48-a332-46fe-b267-2d58d434716e"></path><path d="M35.1,23.16l-.2.02c.08.02.04.13.04.21.06-.1.12-.25.17-.23Z" class="uuid-38b9db48-a332-46fe-b267-2d58d434716e"></path><path d="M34.65,26.43c.05-.04.05.02.1-.02l.12-.19c-.09-.04-.25.07-.22.21Z" class="uuid-38b9db48-a332-46fe-b267-2d58d434716e"></path><path d="M34.35,24.59c-.21.35-.05.29.09.29,0,0-.01,0-.02-.01.34-.46.13-.37-.07-.28Z" class="uuid-38b9db48-a332-46fe-b267-2d58d434716e"></path><path d="M34.47,24.88s.08.01.09.05c.14-.18,0-.06-.09-.05Z" class="uuid-38b9db48-a332-46fe-b267-2d58d434716e"></path><path d="M33.94,23.07c-.01.12.31-.42.25-.26.33-.4-.64.33-.25.26Z" class="uuid-38b9db48-a332-46fe-b267-2d58d434716e"></path><polygon points="33.7 25.76 33.94 25.32 33.67 25.62 33.7 25.76" class="uuid-38b9db48-a332-46fe-b267-2d58d434716e"></polygon><path d="M33.15,24.96l.08.22c.04-.07.09-.1.13-.12-.08-.08-.13-.23-.21-.1Z" class="uuid-38b9db48-a332-46fe-b267-2d58d434716e"></path><path d="M33.36,25.06s.1.06.17,0c-.03-.01-.1-.04-.17,0Z" class="uuid-38b9db48-a332-46fe-b267-2d58d434716e"></path><polygon points="33.41 25.75 33.42 25.63 33.33 25.53 33.41 25.75" class="uuid-38b9db48-a332-46fe-b267-2d58d434716e"></polygon><path d="M31.56,23.82h-.24c-.11.15-.12.26-.02.25.1-.08.2-.09.27-.25Z" class="uuid-38b9db48-a332-46fe-b267-2d58d434716e"></path><path d="M31.32,25.3c.01-.12.07-.21.13-.37l-.34.52.21-.15Z" class="uuid-38b9db48-a332-46fe-b267-2d58d434716e"></path><path d="M30.76,25.11c-.11.13-.51.26-.28.36.11-.13.35-.15.28-.36Z" class="uuid-38b9db48-a332-46fe-b267-2d58d434716e"></path><polygon points="28.67 22.84 28.72 22.86 29.26 22 28.67 22.84" class="uuid-38b9db48-a332-46fe-b267-2d58d434716e"></polygon><path d="M25.16,23.5c.07.33.38-.5.4-.13.17-.18-.01-.3.14-.45-.25.14-.24-.02-.54.58Z" class="uuid-38b9db48-a332-46fe-b267-2d58d434716e"></path><path d="M25.7,22.92s.09-.05.14-.09c-.07.03-.11.06-.14.09Z" class="uuid-38b9db48-a332-46fe-b267-2d58d434716e"></path><polygon points="2.28 4.16 2.25 3.9 2.18 4.25 2.28 4.16" class="uuid-38b9db48-a332-46fe-b267-2d58d434716e"></polygon><path d="M1.67,4.69l.28-.59-.36.47s.13-.03.08.12Z" class="uuid-38b9db48-a332-46fe-b267-2d58d434716e"></path><path d="M16.95,19.4l.09-.13c.07-.16.04-.19,0-.24l-.09.37Z" class="uuid-38b9db48-a332-46fe-b267-2d58d434716e"></path><polygon points="15.46 17.94 15.48 17.97 15.72 17.43 15.46 17.94" class="uuid-38b9db48-a332-46fe-b267-2d58d434716e"></polygon><path d="M13.61,17.71c.05.06.18-.01.23.04-.18.01.12-.68-.23-.04Z" class="uuid-38b9db48-a332-46fe-b267-2d58d434716e"></path><path d="M11.23,43.89c-.06.05.34.19.4.23-.04-.14-.5-.27-.4-.23Z" class="uuid-38b9db48-a332-46fe-b267-2d58d434716e"></path><polygon points="10.78 42.5 10.93 42.58 10.61 42.27 10.78 42.5" class="uuid-38b9db48-a332-46fe-b267-2d58d434716e"></polygon><path d="M11.19,41.54c-.7-.18-.04.39-.34.47l-.16-.03.5.3c0-.24-.24-.66,0-.73Z" class="uuid-38b9db48-a332-46fe-b267-2d58d434716e"></path><path d="M12.83,41.62c-.27-.07-.17-.2-.13.09.03,0,.05,0,.07,0,0-.02.02-.05.06-.09Z" class="uuid-38b9db48-a332-46fe-b267-2d58d434716e"></path><path d="M12.77,41.71c-.02.11.24.02,0,0h0Z" class="uuid-38b9db48-a332-46fe-b267-2d58d434716e"></path><path d="M12.82,41.18l.17.23c.16.03.25-.07.34.02-.07-.19-.23-.22-.51-.25Z" class="uuid-38b9db48-a332-46fe-b267-2d58d434716e"></path><path d="M12.39,40.85l.07.11c.07.01.1,0-.07-.11Z" class="uuid-38b9db48-a332-46fe-b267-2d58d434716e"></path><path d="M12.61,41.19l-.14-.23c-.11-.02-.33-.11.05.1-.19-.09-.01.01.1.13Z" class="uuid-38b9db48-a332-46fe-b267-2d58d434716e"></path><path d="M12.47,41.24c-.17.02-.31.07-.48-.15-.02.29.46.45.48.15Z" class="uuid-38b9db48-a332-46fe-b267-2d58d434716e"></path><path d="M10.53,41.21l-.24.02.19.18c-.09-.09.26-.12.05-.2Z" class="uuid-38b9db48-a332-46fe-b267-2d58d434716e"></path><path d="M13.51,40.49c-.14-.07-.39-.11-.58-.17l.12.17c.12-.01.25-.07.46,0Z" class="uuid-38b9db48-a332-46fe-b267-2d58d434716e"></path><path d="M12.93,40.31l-.18-.25c-.08.12.02.19.18.25Z" class="uuid-38b9db48-a332-46fe-b267-2d58d434716e"></path><polygon points="11.67 40.53 12.08 40.98 11.68 40.48 11.67 40.53" class="uuid-38b9db48-a332-46fe-b267-2d58d434716e"></polygon><polygon points="13.76 39.93 14.05 40.15 13.62 39.8 13.76 39.93" class="uuid-38b9db48-a332-46fe-b267-2d58d434716e"></polygon><path d="M13.86,39.53c.24.17.49.1.63.24,0-.12-.2-.3-.38-.47.08.13.02.21-.25.23Z" class="uuid-38b9db48-a332-46fe-b267-2d58d434716e"></path><path d="M13.86,39.05c.05.07.14.16.25.26-.04-.07-.12-.15-.25-.26Z" class="uuid-38b9db48-a332-46fe-b267-2d58d434716e"></path><path d="M12.92,39.84c.09.02.32.09.45.05l-.42-.1-.03.06Z" class="uuid-38b9db48-a332-46fe-b267-2d58d434716e"></path><path d="M12.94,39.79h.01c.04-.06.06-.1.07-.11-.01.01-.04.05-.09.11Z" class="uuid-38b9db48-a332-46fe-b267-2d58d434716e"></path><path d="M12.92,39.86h0s-.06-.03,0,0Z" class="uuid-38b9db48-a332-46fe-b267-2d58d434716e"></path><path d="M12.19,40.29c-.18-.18-.35-.46-.76-.42.24.17.48.15.76.42Z" class="uuid-38b9db48-a332-46fe-b267-2d58d434716e"></path><path d="M12.39,39.73l-.16.12c.11.04.27.07.36.16l-.21-.28Z" class="uuid-38b9db48-a332-46fe-b267-2d58d434716e"></path><polygon points="12.3 39.6 12.39 39.73 12.45 39.68 12.3 39.6" class="uuid-38b9db48-a332-46fe-b267-2d58d434716e"></polygon><path d="M13.38,39.16c-.14-.14-.13-.22-.12-.31-.11.06-.2.13-.23.22.12.06.33.19.35.09Z" class="uuid-38b9db48-a332-46fe-b267-2d58d434716e"></path><path d="M13.13,39.45l-.02-.02s-.05,0,.02.02Z" class="uuid-38b9db48-a332-46fe-b267-2d58d434716e"></path><path d="M13.6,38.02s-.05-.01-.08-.02l.07.03v-.02Z" class="uuid-38b9db48-a332-46fe-b267-2d58d434716e"></path><path d="M12.95,39.05c-.1.04-.02.12.08.2-.02-.07-.02-.13,0-.19-.05-.03-.09-.05-.08-.02Z" class="uuid-38b9db48-a332-46fe-b267-2d58d434716e"></path><path d="M13.77,38.74c-.1,0-.18.01-.27.03.14.02.36.03.27-.03Z" class="uuid-38b9db48-a332-46fe-b267-2d58d434716e"></path><path d="M13.23,39.45v.02c.11.01.06,0,0-.02Z" class="uuid-38b9db48-a332-46fe-b267-2d58d434716e"></path><path d="M13.23,39.45c-.04-.06-.13-.13-.21-.19.02.05.04.11.09.17.03,0,.08.01.12.02Z" class="uuid-38b9db48-a332-46fe-b267-2d58d434716e"></path><path d="M11.17,36.73c.36.16.63.48.17.47.21.26,1.46.66,2.19.81-.16-.07-.31-.13-.46-.38-.22-.03-.61.15-.89-.12-.1-.28.2-.11.43-.14-.49-.1-.56-.53-1.25-.76l.16.28c-.11-.04-.25-.17-.36-.16Z" class="uuid-38b9db48-a332-46fe-b267-2d58d434716e"></path><path d="M13.36,38.29l.02.08c.09-.05.26-.04.59-.02-.14-.18-.26-.26-.38-.31l-.18.29-.05-.04Z" class="uuid-38b9db48-a332-46fe-b267-2d58d434716e"></path><path d="M13.27,38.66c-.38-.21-.48-.44-.95-.52-.05.2.28.27.41.45.03-.34.19.18.5.05.04.09.04.15.04.21.07-.03.15-.06.25-.08h-.03s0,0,0,0h0c-.06,0-.09-.02-.05-.02,0,0,0,0,0,0-.05-.03-.1-.05-.14-.08.12-.05.11.03.14.08l.06.03h0s-.09-.39-.09-.39c-.08.04-.1.13-.12.29Z" class="uuid-38b9db48-a332-46fe-b267-2d58d434716e"></path><path d="M10.64,39.35s.07.02.1.03c-.04-.04-.07-.06-.1-.03Z" class="uuid-38b9db48-a332-46fe-b267-2d58d434716e"></path><path d="M10.93,39.33s.2.13.13.18c-.15.01-.19-.08-.32-.13.09.09.22.27.47.21l-.05-.04c.19-.07.75-.02.79.03-.37-.11-.64-.19-1.03-.25Z" class="uuid-38b9db48-a332-46fe-b267-2d58d434716e"></path><path d="M12,38.94l-.09-.33h-.4s.21.06.21.06c-.14.11.13.18.28.27Z" class="uuid-38b9db48-a332-46fe-b267-2d58d434716e"></path><polygon points="13.81 38.08 14.22 38.28 13.68 37.89 13.81 38.08" class="uuid-38b9db48-a332-46fe-b267-2d58d434716e"></polygon><polygon points="13.89 37.73 14.25 37.89 14.07 37.71 13.89 37.73" class="uuid-38b9db48-a332-46fe-b267-2d58d434716e"></polygon><path d="M16.71,17.38l-.08-.11s.04.08.08.11Z" class="uuid-38b9db48-a332-46fe-b267-2d58d434716e"></path><path d="M16.48,17.9l.18.08c-.09-.06-.16-.1-.18-.08Z" class="uuid-38b9db48-a332-46fe-b267-2d58d434716e"></path><path d="M17.12,29.64c.39.03.97.12.55-.03l-.42-.13c.04.1-.03.14-.13.16Z" class="uuid-38b9db48-a332-46fe-b267-2d58d434716e"></path><path d="M16.9,23.15s-.09-.01-.13-.02c.13.08.25.15.36.22-.07-.06-.14-.13-.22-.21Z" class="uuid-38b9db48-a332-46fe-b267-2d58d434716e"></path><path d="M15.26,22.42l.32-.04c-.1,0-.21,0-.32.04Z" class="uuid-38b9db48-a332-46fe-b267-2d58d434716e"></path><path d="M17.41,14.27l-.38-.24c-.05.14.18.16.38.24Z" class="uuid-38b9db48-a332-46fe-b267-2d58d434716e"></path><path d="M15.12,34.31c.19-.03.29-.08.34-.13-.28.02-.66-.03-.34.13Z" class="uuid-38b9db48-a332-46fe-b267-2d58d434716e"></path><path d="M20.92,19.25c-.06-.07-.13-.13-.22-.16.05.07.12.13.22.16Z" class="uuid-38b9db48-a332-46fe-b267-2d58d434716e"></path><path d="M15.56,33.9s-.07,0-.11.01c.04.1.07.19,0,.26.2-.01.35-.07.11-.27Z" class="uuid-38b9db48-a332-46fe-b267-2d58d434716e"></path><path d="M21.76,3.69s.03,0,.06,0c-.05-.02-.06-.01-.06,0Z" class="uuid-38b9db48-a332-46fe-b267-2d58d434716e"></path><path d="M27.02,2.06s0,.09-.02.14c.04-.01.05-.05.02-.14Z" class="uuid-38b9db48-a332-46fe-b267-2d58d434716e"></path><path d="M14.61,36.48c0,.08.04.03,0,0h0Z" class="uuid-38b9db48-a332-46fe-b267-2d58d434716e"></path><path d="M12.88,36.17s-.09-.07-.18-.11c.09.05.15.08.18.11Z" class="uuid-38b9db48-a332-46fe-b267-2d58d434716e"></path><path d="M13.34,32.2h0c-.09-.02-.07-.01,0,0Z" class="uuid-38b9db48-a332-46fe-b267-2d58d434716e"></path><path d="M14.38,36.51c.06,0,.11-.02.16-.04-.04,0-.09.01-.16.04Z" class="uuid-38b9db48-a332-46fe-b267-2d58d434716e"></path><path d="M14.58,36.57s-.05.03-.06.04c.06.04.11.05.06-.04Z" class="uuid-38b9db48-a332-46fe-b267-2d58d434716e"></path><path d="M14.63,36.37s-.04.07-.09.1c.03,0,.06,0,.07.01,0-.02,0-.06.02-.11Z" class="uuid-38b9db48-a332-46fe-b267-2d58d434716e"></path><path d="M20.72,9.84s.02,0,.04,0c-.14-.13-.13-.09-.04,0Z" class="uuid-38b9db48-a332-46fe-b267-2d58d434716e"></path><polygon points="13.66 26.16 13.67 26.18 13.69 26.17 13.66 26.16" class="uuid-38b9db48-a332-46fe-b267-2d58d434716e"></polygon><path d="M13.46,25.79c.46.31.37.34.24.38l1.19.38-1.43-.76Z" class="uuid-38b9db48-a332-46fe-b267-2d58d434716e"></path><path d="M17.09,16.04l-.43.04c-.52-.44-.25-.52-.83-.55,1.26.51-.13.73,1.12,1.25h-.31s-.05-.05-.02-.08c-.69,0,.85.52.56.74-.14.06-.35.06-.47-.06l.23.35c-.05.06-.26-.04-.21-.1l-.03.38-.04-.02c.18.13.44.36.55.46-.22.02-.12-.1-.28-.13l.23.31c-.36-.05-.62-.33-.52-.44-1.33-.31.26.28-.63.38l-.09-.24c-.76-.16-.56.08-1.08.11.25.04,1.29.03,1.52.36-.12.02-.19.08.02.29-.45-.17-.38-.02-.41.12l-.59-.24c.11.21.42.32.66.51-.12.14-.6,0-1-.12-.2.23.81.11.8.46-.31.13-.13.38.13.78-.27.07-.35-.17-.55-.18l.42.32s-.17-.04-.24-.07c.14.19.59.24.68.48.64.31-1.1,0-.45.51-.19-.01-.35-.17-.59-.24.37.5.25.4.81.91l-.47.06c.51.02.96.43,1.32.77.24.03.45.06.55.06l.21.41c-.11,0-.3-.11-.54-.26.04.04.08.07.12.11-.26.01-.58-.17-.89-.38.13.01.27.03.41.04-.33-.21-.71-.43-1.06-.56.06.05.11.1.13.16-.09-.06-.17-.1-.24-.12-.07-.02.05.07.19.17l-.69-.2.26.12-.56.2c.56.52,1.46,1.14,1.57,1.66-.45-.29-.79-.34-1.36-.57.66.13-.13-.42.08-.59-.11.09-.37-.05-.46-.11l.4.6c-.47-.19-.39-.06-.62-.03.96.29.51.53.73.8-.32-.11-.62-.28-.47-.44-.78-.07.99.7.31.67.01-.05.07-.06-.08-.14.24.22-.09.4-.34.23v-.05c-.22.27-.37.94.41,1.3-.1-.04-.94-.42-1.09-.5l2.44,1.61c-.66-.32-2.35-.77-2.63-1.18-.13.04-.27.08-.1.33.12-.01,1.03.27,1.07.36-.83-.11-.46-.03-1.19-.05.17-.02,1.21.49,1.12.59-.15-.08-1.05-.41-1.15-.5l.93.71c-.16-.15-.88-.37-1.2-.42.22.05-.12.25-.05.37l.29-.03c-.29.27,1.34.92,1.15,1.23-.2-.13-1.29-.63-1.49-.51.5.29,2.44,1.37,2.73,1.83l-.33-.07.26.37c-.75-.46-2.28-1.54-2.86-2.01-.29.03-.38-.11-.42.09-.31-.05-.39-.28-.39-.34l-.36.36c.63.23.49.58,1.02.78l-.46-.73c.63.23,1.66.98,1.43,1.25-.28-.02-1.09-.5-1.3-.58.2.13.29.46.13.42l-.28-.26c-.3.08.71.61.04.58-.07.06-.89-.11-.52.05.76.17,2.97,1.03,3.47,1.33-.06,0-.83.1-1.22.04-.61-.11-1.26-.71-1.78-.81.17.07.35.22.41.28-.18.02-.52-.24-.5-.05.62.28-.19.31.5.29.12.23-.2.12-.25.31.43.11,1.32.73,1.44.96-.16-.07-.38-.12-.48-.14-.19.3-.55.36-.68.66-.16-.03-.41.04-.66-.14.09.09.29.22.27.32-.62-.04,0-.24-.71-.37.36.16.41.45.58.67.58.19.23-.26.06-.49.78.32,1.51.88,1.74,1.35.09.33-.55-.1-.46,0-.33.42,1.2.96.48,1.12-.56-.05-.99-.4-1.37-.51-.1-.28.44-.19.48-.33l-.31.08c-.14-.13-.21-.32-.03-.34-.5-.05-.41.77-.97.96.14.13.27.32.49.34l-.02-.14c.44.06.47.44.71.37.22.27.59.63.27.75l-.58-.19c.17.06.4,0,.25-.14.21.19-.91.02-.2.42h.46c.22.28.75.72.49.84.6.14-.05-.07.67.06-.86-.21.24-.48-.7-.64.82.17.42-.11,1.15-.03-.19-.07-.39-.08-.23-.21-.05-.03-.11-.08-.15-.1h.02s-.03,0-.03,0c-.03-.02-.03-.02,0,0-.1,0-.21,0-.32-.03-.4-.26-.28-.51-.46-.69.13-.06.2.13.42.16l-.28-.27c.42.16.8.02.95.35l.1-.2c.28-.03.44-.15.31-.33.13-.06-.36-.43-.07-.21l-.13-.43.1.04c.18-.3-.42-.93.48-.99-.06-.15-.15-.31.05-.44l.37.11c-.07-.19.53-.27.18-.48,1.03.24.48-.58.75-.75l-.47-.2c.09-.16.02-.37-.08-.65l-.42-.15c-.27-.31.48-.34.55-.64.15.08.08.14-.04.15,1.08.04-.4-.98.41-1.01-.12-.14-.05-.17.08-.18,0,0,0,.02.01.03,0,0,.01-.02.02-.03.08,0,.18,0,.26-.02-.11,0-.21-.01-.26,0,.02-.06,0-.17-.07-.3l.46.14s0-.01,0-.03c.2-.02-.18-.15-.54-.24-.06-.07-.13-.15-.22-.22.75.22-.15-.33.66-.11-.35-.21-.11-.55-.88-.91.1.04.16.03.15.08.13-.06.26-.12.07-.3l.59.19-.68-.52c.4,0,.62.04,1.01.34-.55-.58-.15-.35-.72-.88l.36.16c.02-.1-.41-.45-.08-.38.78.07.51-1,1.37-1.29-1.13-.32.58-.06-.25-.41.27.07.44.05.63.23-.14-.38.57-.25-.06-.72.27.07.35.21.52.24-.05-.04-.19-.18-.02-.14.16.03.2.12.29.21.07-.3-.71-.64-1.45-.95.41,0,.39-.1-.06-.39.26.05.55.06.57.27.07-.08.59-.46,0-.71.16.03.1-.12.04-.17.12-.21.18-.21.21-.44l-.12.02c-.68-.37-.09-.24-.11-.45l.07.03c.67-.2-.18-.27.57-.44l-.46-.15c-.95-.41.7-.13.43-.5l-.29-.02c-.28-.25,1.44.16,1.61.08.09,0,.12.1.16.16.7-.11-.57-.27-.61-.57.33.08.78.37.9.23.29.02-.84-.88-.15-.87-.26-.04-.52-.09-.66-.27-.02-.21,1.1-.12.4-.57.08,0,.14.02.2.04-.15-.21-.16-.56-.55-.8,1.59.47-.43-1.12.99-.57l.08-.44.14.07c.2-.23-.11-.45-.42-.68.12-.02.24.07.31.11.44-.28.39-.34-.2-.93l.48.14c-.24-.19.94-.28.54-.87.05.02.14.07.19.12-.38-.63,1.67-.53.04-1.33l-.31-.44c-.27.31-.71-.33-1.05-.29-.04-.18.65-.18.67.03h-.09c.85.39.48-.34,1.08-.1.23-.73.98-1.25,1.27-1.9l-.71-.18.13-.22c.18,0,.57.12.48.28.42.06-.22-.4-.37-.46.4-.22.75.43.8.33v-.16s-.09,0-.09,0c-.24-.22-.53-.34-.42-.52.19-.08.45.09.49.05.05.02.08.01.05-.07l.17-.27-.58-.08c-.22-.23.13-.27-.53-.36,1.02.15.75-.97,1.09-.99-.33-.33-.25-.51-.12-.71-.13.01-.75-.18-.61-.35,1.23.54.68-.15,1.64.03-.65-.08.06-.6-.88-.7.16-.12.47.17.82.15-.34-.56.63-.73.64-1.27-.16-.07-.44-.08-.65-.27l.92.05c-.05-.12-.92-.44-.28-.4-.15-.03-.37-.07-.4-.15,1.15-.64.04-2.14,1.9-2.54-.37.01-.37-.09-.34-.19-.1.04-.41-.15-.64-.22l.77-.17c-.6-.3.11-.44-.47-.7l.06.16c-.64-.42-1.65-.33-2.54-.69.73.48-1.36.06-.33.78-.21,0-.27-.16-.49-.2.36.22.4.34.17.45l-.09-.05c-.08.52-.54.59-.99,1.04l.46.12c-.1.1-.25.07-.38.08.62.38.16-.32.86.08-.96-.18-.32.82-1.39.55-.07.18.53.14.46.31l-.3-.05.34.18c-.1.1-.47.03-.71-.05.04-.02-.04-.11-.04-.14-.38.03-.05.47-.17.49l.23-.11c.08.59-.51,1.06-.12,1.74l.22.04c.25.51-.34.21-.31.67l-.04-.03c.18.16.24.3.18.4-.21-.19-.55.01-.77-.22.27.55.25.32.94.87l-.37-.07c.28.21.45.28.46.51-.24-.27-.58-.07-.9-.4-.92.13.53.91-.65.68.89.55.67-.16.83.02.35.03.66.43.51.52-.07.12-1.32-.23-1.42.11.02-.03-.06-.06-.04-.09-.29.03.24.37-.22.38.55.3-.11.19.62.49l-.06-.37c.13.25.93.74.41.87-.14-.08-.31-.24-.39-.34-.25,0,.08.22-.17.22-.73-.3-.02-.43-.52-.83-.35-.03.4.56-.36.16.97.52-.25.28.44.8l-.44-.18c.06.06.24.22.2.28l-.53-.34c.42.37-.56.19-.36.47.13-.37.57.12.95.09.42.68-1.26-.18-1.24.41-.04-.09.36-.16.53.03-.13.06-.35.13-.6.1-.03.37.48.12.7.37-.58-.09.16.25.27.46l-.45-.17c-.44.27.9.46.42.67l-.57-.38.09.24-.5-.23c.31.34.19.36-.03.5.33.08.81.34.76.51-.31.01-.4-.23-.43.04-.26-.16-.59-.36-.14-.3-.14-.07-.26-.16-.4-.23-.35,0-.19.29-.22.38.03-.03.07-.06.14-.06l.49.59c-.19,0-.31-.1-.43-.2.02.09.21.22.21.34-.36-.17-.74-.3-.85-.52l.28.49c-.17-.04-.5,0-.62-.09-.29.1.54.72.16.86.07.04.12.09.16.16-.17.2-.7.23-.3.69l-.72-.1c.07.27.91.11,1.02.56.11.33-.6-.12-.81-.1.28.25.87.73.25.75-.09-.12.03-.15,0-.24ZM16.37,18.78c-.07-.09-.33-.3-.05-.24.49.26.23.21.05.24ZM15.89,23.2c-.13-.1-.04-.13.16-.12.02.06-.02.11-.16.12ZM14.56,35.57s-.01,0-.02-.01c.22-.04.13-.03.02.01ZM14.27,35.73c.05.05.12.07.18.09-.11-.06-.09-.12-.04-.17-.12-.03-.22-.03-.15.08ZM24.04,10.23h-.14c-.09-.15.02-.08.14,0Z" class="uuid-38b9db48-a332-46fe-b267-2d58d434716e"></path><path d="M15.45,22.51c.08.02.17.04.25.07-.07-.05-.15-.08-.25-.07Z" class="uuid-38b9db48-a332-46fe-b267-2d58d434716e"></path><path d="M17.48,14.31s0,0,0,0l-.08-.04.07.04Z" class="uuid-38b9db48-a332-46fe-b267-2d58d434716e"></path><path d="M11.95,30.55c.08-.02.18-.02.27,0-.11-.05-.21-.06-.27,0Z" class="uuid-38b9db48-a332-46fe-b267-2d58d434716e"></path><path d="M14.52,37.28l-.05-.2c0,.08-.12.07-.2.08.11.04.27.07.26.12Z" class="uuid-38b9db48-a332-46fe-b267-2d58d434716e"></path><path d="M11.22,37.46s-.01.05.03.09l.21.08c.02-.1-.12-.23-.24-.17Z" class="uuid-38b9db48-a332-46fe-b267-2d58d434716e"></path><path d="M12.98,36.81c-.38-.14-.29,0-.27.14,0,0,0-.01,0-.02.51.25.38.06.26-.12Z" class="uuid-38b9db48-a332-46fe-b267-2d58d434716e"></path><path d="M12.71,36.98s0,.08-.03.1c.21.1.06-.02.03-.1Z" class="uuid-38b9db48-a332-46fe-b267-2d58d434716e"></path><path d="M14.4,36.13c-.12.01.47.23.3.19.46.25-.44-.57-.3-.19Z" class="uuid-38b9db48-a332-46fe-b267-2d58d434716e"></path><polygon points="11.7 36.39 12.18 36.55 11.83 36.33 11.7 36.39" class="uuid-38b9db48-a332-46fe-b267-2d58d434716e"></polygon><path d="M12.39,35.7l-.2.12c.08.03.11.07.14.11.06-.1.2-.17.06-.23Z" class="uuid-38b9db48-a332-46fe-b267-2d58d434716e"></path><path d="M12.33,35.93c-.03.05-.04.11.02.17,0-.03.02-.1-.02-.17Z" class="uuid-38b9db48-a332-46fe-b267-2d58d434716e"></path><polygon points="11.66 36.11 11.78 36.1 11.86 35.99 11.66 36.11" class="uuid-38b9db48-a332-46fe-b267-2d58d434716e"></polygon><path d="M13.21,33.93l-.06-.24c-.15-.08-.27-.07-.23.02.09.09.13.18.29.22Z" class="uuid-38b9db48-a332-46fe-b267-2d58d434716e"></path><path d="M11.72,33.96c.12-.01.22.03.39.06l-.57-.24.19.18Z" class="uuid-38b9db48-a332-46fe-b267-2d58d434716e"></path><path d="M11.8,33.37c-.15-.08-.35-.45-.41-.21.15.08.21.32.41.21Z" class="uuid-38b9db48-a332-46fe-b267-2d58d434716e"></path><polygon points="13.65 30.9 13.64 30.95 14.58 31.32 13.65 30.9" class="uuid-38b9db48-a332-46fe-b267-2d58d434716e"></polygon><path d="M12.37,27.55c-.31.13.56.29.2.37.2.14.3-.07.47.06-.18-.23-.02-.24-.67-.43Z" class="uuid-38b9db48-a332-46fe-b267-2d58d434716e"></path><path d="M13.03,27.98s.06.08.12.12c-.04-.06-.08-.1-.12-.12Z" class="uuid-38b9db48-a332-46fe-b267-2d58d434716e"></path><polygon points="27.73 1.73 27.98 1.66 27.62 1.64 27.73 1.73" class="uuid-38b9db48-a332-46fe-b267-2d58d434716e"></polygon><path d="M27.12,1.2l.62.19-.52-.29s.05.12-.1.1Z" class="uuid-38b9db48-a332-46fe-b267-2d58d434716e"></path><path d="M15,18.7l.14.07c.17.04.19.01.24-.05l-.38-.02Z" class="uuid-38b9db48-a332-46fe-b267-2d58d434716e"></path><polygon points="16.19 16.97 16.16 17 16.73 17.15 16.19 16.97" class="uuid-38b9db48-a332-46fe-b267-2d58d434716e"></polygon><path d="M16.1,15.1c-.05.06.04.18,0,.24-.04-.18.69,0,0-.24Z" class="uuid-38b9db48-a332-46fe-b267-2d58d434716e"></path><path d="M24.96,26.55c-.01.05.35-.15.42-.18-.11-.02-.52.23-.42.18Z" class="uuid-38b9db48-a332-46fe-b267-2d58d434716e"></path><polygon points="23.8 26.37 23.96 26.3 23.54 26.4 23.8 26.37" class="uuid-38b9db48-a332-46fe-b267-2d58d434716e"></polygon><path d="M23.51,25.79c-.61.38.21.16.04.38l-.14.09.54-.21c-.15-.08-.57-.08-.44-.25Z" class="uuid-38b9db48-a332-46fe-b267-2d58d434716e"></path><path d="M24.74,24.79c-.24.14-.25.04-.04.11.02-.02.04-.03.06-.04,0-.01-.02-.03-.02-.07Z" class="uuid-38b9db48-a332-46fe-b267-2d58d434716e"></path><path d="M24.75,24.85c.05.05.19-.14,0,0h0Z" class="uuid-38b9db48-a332-46fe-b267-2d58d434716e"></path><path d="M24.47,24.65l.26-.03c.14-.09.14-.18.26-.2-.16-.02-.3.07-.52.23Z" class="uuid-38b9db48-a332-46fe-b267-2d58d434716e"></path><path d="M23.97,24.8h.11c.06-.04.07-.06-.11,0Z" class="uuid-38b9db48-a332-46fe-b267-2d58d434716e"></path><path d="M24.32,24.79h-.24c-.1.07-.3.18.09.01-.19.09,0,.01.15-.01Z" class="uuid-38b9db48-a332-46fe-b267-2d58d434716e"></path><path d="M24.25,24.88c-.12.11-.18.22-.44.24.16.11.6-.14.44-.24Z" class="uuid-38b9db48-a332-46fe-b267-2d58d434716e"></path><path d="M22.84,26.09l-.16.16.24-.06c-.12.03.11-.2-.08-.1Z" class="uuid-38b9db48-a332-46fe-b267-2d58d434716e"></path><path d="M24.56,23.98c-.14.06-.35.2-.52.3l.19-.02c.08-.08.14-.18.34-.28Z" class="uuid-38b9db48-a332-46fe-b267-2d58d434716e"></path><path d="M24.04,24.28l-.28.02c.01.09.13.05.28-.02Z" class="uuid-38b9db48-a332-46fe-b267-2d58d434716e"></path><polygon points="23.25 25.14 23.81 25.04 23.23 25.11 23.25 25.14" class="uuid-38b9db48-a332-46fe-b267-2d58d434716e"></polygon><polygon points="24.42 23.64 24.76 23.54 24.23 23.68 24.42 23.64" class="uuid-38b9db48-a332-46fe-b267-2d58d434716e"></polygon><path d="M24.25,23.44c.28-.09.42-.26.6-.3-.08-.04-.33.02-.55.07.14,0,.13.06-.05.23Z" class="uuid-38b9db48-a332-46fe-b267-2d58d434716e"></path><path d="M23.97,23.27c.07,0,.2-.03.33-.06-.07,0-.17.02-.33.06Z" class="uuid-38b9db48-a332-46fe-b267-2d58d434716e"></path><path d="M23.76,24.12c.08-.05.29-.16.36-.26l-.37.22v.04Z" class="uuid-38b9db48-a332-46fe-b267-2d58d434716e"></path><path d="M23.73,24.09h.01s-.01-.08-.02-.09c0,.01,0,.04,0,.09Z" class="uuid-38b9db48-a332-46fe-b267-2d58d434716e"></path><path d="M23.76,24.13h0s-.05.02,0,0Z" class="uuid-38b9db48-a332-46fe-b267-2d58d434716e"></path><path d="M23.48,24.73c-.24.05-.52.05-.8.32.28-.09.44-.24.8-.32Z" class="uuid-38b9db48-a332-46fe-b267-2d58d434716e"></path><path d="M23.3,24.41l-.04.14c.1-.05.24-.14.36-.17l-.32.03Z" class="uuid-38b9db48-a332-46fe-b267-2d58d434716e"></path><polygon points="23.15 24.42 23.3 24.41 23.31 24.36 23.15 24.42" class="uuid-38b9db48-a332-46fe-b267-2d58d434716e"></polygon><path d="M23.68,23.6c-.19.04-.22,0-.28-.04-.05.09-.06.17-.04.22.12-.05.35-.13.31-.18Z" class="uuid-38b9db48-a332-46fe-b267-2d58d434716e"></path><path d="M23.67,23.86h-.03s-.04.03.03,0Z" class="uuid-38b9db48-a332-46fe-b267-2d58d434716e"></path><path d="M23.18,23.07s-.05.03-.07.04l.07-.03h0Z" class="uuid-38b9db48-a332-46fe-b267-2d58d434716e"></path><path d="M23.3,23.83c-.06.08.05.06.18.02-.05-.01-.09-.03-.11-.07-.06.02-.09.04-.07.04Z" class="uuid-38b9db48-a332-46fe-b267-2d58d434716e"></path><path d="M23.72,23.22c-.07.06-.13.12-.18.17.11-.08.28-.21.18-.17Z" class="uuid-38b9db48-a332-46fe-b267-2d58d434716e"></path><path d="M23.75,23.79h.02c.08-.05.04-.03-.02,0Z" class="uuid-38b9db48-a332-46fe-b267-2d58d434716e"></path><path d="M23.75,23.79c-.07,0-.17.04-.26.06.04,0,.1.01.16,0,.03-.02.06-.04.1-.06Z" class="uuid-38b9db48-a332-46fe-b267-2d58d434716e"></path><path d="M20.62,24.08c.36-.16.75-.21.4.07.31-.03,1.46-.65,2.08-1.04-.16.07-.3.14-.56.14-.18.12-.36.43-.72.5-.24-.04.08-.16.24-.31-.42.26-.73.14-1.37.48h.28c-.1.05-.28.09-.36.16Z" class="uuid-38b9db48-a332-46fe-b267-2d58d434716e"></path><path d="M23.16,23.3l.06.02c.04-.07.17-.17.42-.36-.21.02-.34.07-.47.12l.04.21h-.06Z" class="uuid-38b9db48-a332-46fe-b267-2d58d434716e"></path><path d="M23.3,23.5c-.4.16-.61.14-1.01.4.08.1.36-.07.56-.09-.19-.14.24-.05.4-.29.08,0,.12.03.15.05.03-.06.07-.11.13-.18l-.02.02h0s0,0,0,0c-.05.03-.07.05-.05.03h0c-.05.02-.1.04-.15.06.05-.09.1-.06.15-.06l.06-.03h0s-.3-.09-.3-.09c-.04.06,0,.11.08.17Z" class="uuid-38b9db48-a332-46fe-b267-2d58d434716e"></path><path d="M21.8,25.36s.06-.04.09-.05c-.05.01-.09.02-.09.05Z" class="uuid-38b9db48-a332-46fe-b267-2d58d434716e"></path><path d="M22,25.17c.06-.01.22-.08.2-.01-.1.09-.19.09-.31.15.12-.02.32-.04.47-.22h-.06c.1-.13.53-.46.59-.47-.34.19-.58.33-.9.55Z" class="uuid-38b9db48-a332-46fe-b267-2d58d434716e"></path><path d="M22.55,24.37l-.27-.06-.3.24.2-.1c-.04.13.2-.01.36-.08Z" class="uuid-38b9db48-a332-46fe-b267-2d58d434716e"></path><polygon points="23.36 22.96 23.78 22.79 23.16 22.97 23.36 22.96" class="uuid-38b9db48-a332-46fe-b267-2d58d434716e"></polygon><polygon points="23.22 22.78 23.58 22.62 23.34 22.67 23.22 22.78" class="uuid-38b9db48-a332-46fe-b267-2d58d434716e"></polygon><path d="M14.03,12.77l-.12-.02s.08.02.12.02Z" class="uuid-38b9db48-a332-46fe-b267-2d58d434716e"></path><path d="M14.12,13.14l.19-.05c-.11.02-.19.03-.19.05Z" class="uuid-38b9db48-a332-46fe-b267-2d58d434716e"></path><path d="M21.04,17.86c.32-.21.82-.49.41-.32l-.39.18c.09.02.06.07-.01.14Z" class="uuid-38b9db48-a332-46fe-b267-2d58d434716e"></path><path d="M17.29,15.29s-.08.04-.12.06c.15-.03.28-.06.41-.09-.09,0-.19.02-.29.03Z" class="uuid-38b9db48-a332-46fe-b267-2d58d434716e"></path><path d="M15.58,15.84l.23-.19c-.08.05-.16.12-.23.19Z" class="uuid-38b9db48-a332-46fe-b267-2d58d434716e"></path><path d="M12.99,10.94l-.44.07c.03.09.23-.01.44-.07Z" class="uuid-38b9db48-a332-46fe-b267-2d58d434716e"></path><path d="M22.15,20.8c.13-.13.18-.2.18-.25-.2.17-.52.37-.18.25Z" class="uuid-38b9db48-a332-46fe-b267-2d58d434716e"></path><path d="M18.46,11.5c-.08,0-.17,0-.26.04.08,0,.16,0,.26-.04Z" class="uuid-38b9db48-a332-46fe-b267-2d58d434716e"></path><path d="M22.25,20.39s-.05.05-.08.07c.09.01.16.03.15.09.15-.12.23-.23-.07-.16Z" class="uuid-38b9db48-a332-46fe-b267-2d58d434716e"></path><path d="M11.45,3.61s.03-.02.05-.03c-.06.01-.06.02-.05.03Z" class="uuid-38b9db48-a332-46fe-b267-2d58d434716e"></path><path d="M15.29.62s.04.05.05.08c.03-.02.02-.05-.05-.08Z" class="uuid-38b9db48-a332-46fe-b267-2d58d434716e"></path><path d="M23.02,21.9s.05-.01,0,0h0Z" class="uuid-38b9db48-a332-46fe-b267-2d58d434716e"></path><path d="M21.56,22.82s-.11.03-.2.07c.1-.04.16-.06.2-.07Z" class="uuid-38b9db48-a332-46fe-b267-2d58d434716e"></path><path d="M19.58,21.03h0c-.07.04-.06.03,0,0Z" class="uuid-38b9db48-a332-46fe-b267-2d58d434716e"></path><path d="M22.87,22.05s.07-.07.09-.11c-.03.02-.06.06-.09.11Z" class="uuid-38b9db48-a332-46fe-b267-2d58d434716e"></path><path d="M23.05,21.96s-.02.04-.02.05c.07-.02.11-.05.02-.05Z" class="uuid-38b9db48-a332-46fe-b267-2d58d434716e"></path><path d="M22.97,21.85s0,.05,0,.09c.02-.02.04-.03.06-.04-.01,0-.03-.02-.05-.05Z" class="uuid-38b9db48-a332-46fe-b267-2d58d434716e"></path><path d="M13.52,7.2s.02-.01.04-.02c-.19,0-.15.01-.04.02Z" class="uuid-38b9db48-a332-46fe-b267-2d58d434716e"></path><polygon points="16.39 18.36 16.41 18.36 16.42 18.35 16.39 18.36" class="uuid-38b9db48-a332-46fe-b267-2d58d434716e"></polygon><path d="M16.03,18.31c.53-.12.48-.06.4.03l1.15-.5-1.54.47Z" class="uuid-38b9db48-a332-46fe-b267-2d58d434716e"></path><path d="M13.64,11.95l-.34.23c-.66.05-.48-.12-.97.15,1.3-.39.28.42,1.58.03l-.25.16s-.07,0-.07-.03c-.57.35.97-.19.85.07-.08.1-.25.21-.42.21l.37.05c-.01.05-.24.11-.23.06l.18.2h-.04c.21-.02.55-.05.69-.06-.17.12-.15.02-.3.08l.35.02c-.32.16-.68.16-.66.06-1.25.54.36,0-.31.5l-.2-.07c-.71.32-.41.32-.82.61.23-.11,1.06-.65,1.42-.62-.08.07-.11.14.17.12-.46.15-.32.19-.26.27l-.61.2c.21.04.51-.07.81-.11-.02.13-.48.31-.87.47-.04.21.71-.38.9-.21-.18.22.1.24.52.29-.17.17-.38.11-.54.21l.51-.08s-.15.07-.23.09c.21.01.61-.2.81-.14.68-.2-.89.58-.08.46-.16.1-.38.11-.61.21.57.03.42.05,1.15-.03l-.35.28c.42-.26,1-.32,1.48-.37.2-.12.38-.22.47-.27l.39.06c-.09.06-.3.11-.57.17.05,0,.11-.01.16-.02-.2.14-.56.24-.91.31.11-.06.23-.13.35-.2-.38.09-.8.19-1.15.33.07-.01.14-.01.18,0-.1.02-.2.05-.25.08-.06.03.08,0,.24-.02l-.66.28.27-.09-.33.39c.74-.07,1.78-.29,2.16-.12-.52.11-.81.28-1.39.49.59-.3-.34-.11-.26-.3-.04.1-.32.18-.42.2l.65.05c-.48.17-.34.18-.51.32.92-.4.7-.04,1.02-.05-.31.12-.64.22-.61.07-.66.4,1.17-.23.62.12-.02-.03.02-.06-.14-.01.31-.03.15.22-.14.28l-.02-.03c-.04.24.23.62,1.03.34-.1.04-.97.33-1.13.39l2.8-.67c-.69.23-2.27.98-2.72.97-.08.09-.17.19.11.2.08-.07.95-.46,1.03-.44-.71.42-.37.24-.96.64.13-.11,1.21-.47,1.21-.38-.16.05-1.05.42-1.17.44l1.12-.22c-.21.03-.89.34-1.17.5.2-.1.05.17.17.18l.21-.18c-.07.28,1.55-.37,1.58-.14-.23.06-1.35.47-1.44.63.55-.16,2.66-.82,3.14-.8l-.29.16h.4c-.84.24-2.63.68-3.34.8-.21.18-.35.17-.27.28-.27.16-.46.11-.49.08l-.07.36c.62-.27.71-.04,1.23-.26l-.77-.04c.62-.26,1.84-.54,1.81-.3-.23.15-1.12.42-1.33.51.22-.06.49.02.34.1l-.37.05c-.19.21.9-.16.36.22-.02.06-.74.47-.37.33.68-.37,2.86-1.3,3.41-1.47-.04.04-.58.52-.91.72-.52.31-1.37.44-1.82.71.17-.07.4-.11.47-.13-.12.11-.53.2-.41.27.63-.25.04.23.55-.18.22.03-.08.16,0,.27.39-.21,1.42-.48,1.64-.46-.16.06-.36.17-.45.23.03.23-.2.46-.12.66-.14.08-.29.26-.57.33.12-.02.35-.09.39-.04-.49.35-.14-.1-.75.28.37-.15.57-.07.83-.08.55-.27.02-.24-.24-.23.77-.34,1.65-.55,2.09-.51.26.07-.47.29-.35.27,0,.36,1.46-.35,1.01.14-.45.32-.97.44-1.32.62-.24-.05.22-.34.17-.42l-.18.21c-.18.03-.34,0-.22-.11-.4.28.14.54-.16.95.18-.03.39-.04.57-.16l-.1-.04c.36-.25.61-.11.75-.29.32-.03.81-.12.65.11l-.54.28c.16-.08.29-.24.1-.2.27-.06-.66.55.1.28l.34-.27c.32-.03.97-.19.85,0,.52-.31-.08,0,.53-.38-.77.44-.11-.32-.89.19.71-.43.25-.29.83-.7-.18.09-.33.2-.29.06-.06.02-.13.04-.17.05h.01s-.02,0-.02,0c-.03,0-.04.01,0,0-.07.06-.16.12-.26.18-.44.14-.51-.02-.75.03.06-.1.22-.07.4-.19l-.36.07c.4-.19.61-.46.91-.43l-.04-.13c.2-.18.24-.32.04-.3.06-.1-.52.05-.18-.04l-.34-.08.1-.05c-.03-.22-.86-.1-.21-.65-.13-.02-.29-.03-.22-.19l.35-.18c-.16-.03.25-.41-.14-.28.92-.5.04-.5.15-.72l-.47.19c-.02-.11-.19-.15-.43-.2l-.41.18c-.39.03.18-.4.06-.56.16-.05.14,0,.06.08.85-.59-.86-.16-.25-.63-.17.01-.13-.04-.04-.12,0,0,.01,0,.03,0,0,0,0-.01,0-.02.06-.05.14-.11.2-.15-.09.06-.17.11-.2.14-.02-.03-.1-.07-.22-.08l.44-.2s0,0-.02,0c.14-.12-.23.04-.55.2-.08,0-.18.01-.3.04.71-.33-.3-.05.45-.41-.39.11-.39-.16-1.2.12.1-.04.15-.08.16-.05.07-.1.13-.19-.11-.16l.56-.25-.82.17c.32-.22.51-.33.98-.42-.75.07-.31-.06-1.05.03l.37-.13c-.04-.05-.57.04-.28-.11.65-.4-.15-.69.38-1.28-1.07.47.43-.34-.42-.04.25-.11.38-.22.62-.24-.32-.08.32-.41-.44-.27.25-.11.39-.1.54-.17-.06,0-.25.03-.1-.05.15-.07.23-.05.35-.07-.11-.16-.91.11-1.67.37.32-.22.26-.24-.26-.13.23-.12.47-.26.6-.18.01-.08.22-.51-.38-.3.15-.07.01-.1-.06-.1-.01-.15.04-.18-.07-.3l-.08.07c-.75.2-.2-.06-.33-.14l.08-.02c.44-.44-.29-.02.23-.48l-.45.17c-.98.31.5-.42.08-.44l-.24.14c-.36.03,1.25-.67,1.35-.79.08-.05.15-.02.22-.02.51-.4-.6.17-.8.06.31-.14.83-.24.85-.36.24-.14-1.15.04-.58-.3-.24.11-.48.23-.69.21-.12-.08.84-.61.03-.45.06-.04.13-.06.19-.08-.23-.02-.42-.17-.87-.09,1.55-.58-.94-.29.52-.75l-.16-.24.15-.04c.04-.2-.32-.15-.69-.1.09-.07.23-.08.31-.1.22-.34.15-.34-.64-.33l.47-.16c-.29.03.64-.58.01-.66.06-.01.15-.04.22-.04-.64-.11,1.13-1.03-.63-.63l-.48-.06c-.07.27-.76.18-1.02.36-.13-.06.46-.39.58-.3l-.08.04c.92-.21.24-.38.86-.55-.17-.45.2-1.03.13-1.48l-.69.24v-.16c.15-.08.54-.2.54-.08.39-.16-.38-.09-.54-.06.23-.29.85-.13.85-.2l-.08-.07-.08.04c-.31,0-.62.08-.62-.06.12-.12.43-.15.44-.19.05-.01.07-.03,0-.05v-.21s-.53.22-.53.22c-.3-.01-.02-.19-.63.06.94-.38.17-.8.46-.96-.44-.02-.46-.14-.44-.3-.11.06-.73.24-.69.09,1.31-.27.51-.37,1.42-.69-.6.24-.24-.32-1.09.03.08-.13.49-.12.77-.27-.57-.13.2-.62-.04-.89-.17.03-.42.14-.69.14l.82-.35c-.1-.04-1,.16-.43-.08-.14.05-.35.12-.42.09.7-.78-.96-1.1.5-2.04-.32.15-.36.1-.39.04-.07.06-.43.08-.66.14l.6-.39c-.66.08-.1-.27-.73-.17l.13.06c-.76.03-1.6.47-2.54.64.86-.04-1.17.58.07.54-.18.08-.31.02-.52.09.41-.03.51.02.35.17h-.1c.17.32-.21.54-.39.97l.46-.13c-.04.09-.19.14-.29.2.72-.06,0-.23.78-.31-.92.31.11.56-.95.86.02.12.53-.15.55-.03l-.28.1.38-.05c-.04.09-.4.21-.64.27.02-.03-.08-.04-.11-.06-.32.18.18.27.08.33l.15-.16c.34.27.05.77.72.95l.21-.08c.46.15-.19.25.06.48h-.05c.23,0,.36.05.35.13-.27,0-.46.25-.77.23.5.16.37.05,1.22.03l-.35.13c.34-.02.51-.06.64.05-.33-.03-.53.22-.97.2-.72.48.9.22-.22.63,1.03-.12.49-.38.72-.36.31-.14.77-.08.69.03,0,.09-1.23.47-1.16.7,0-.02-.08,0-.08-.03-.23.15.39.08,0,.29.62-.1,0,.14.77-.04l-.23-.16c.23.07,1.16-.06.77.24-.16.03-.38.02-.5.01-.21.12.18.07-.04.19-.77.19-.23-.21-.85-.18-.31.15.62.09-.23.25,1.08-.19-.08.26.77.2l-.46.11c.08,0,.31,0,.31.04l-.62.08c.54-.01-.38.36-.07.4-.08-.25.54-.2.84-.4.7.14-1.15.5-.83.78-.08-.03.23-.25.46-.23-.08.09-.23.23-.46.33.16.2.46-.17.77-.15-.54.23.26.05.46.1l-.46.13c-.23.34.99-.2.69.13l-.67.08.2.07-.54.12c.43.02.34.09.23.26.32-.12.85-.22.89-.11-.25.16-.45.08-.34.23-.3.05-.68.11-.27-.08-.15.03-.3.05-.45.08-.29.17-.01.23,0,.29.01-.03.03-.06.09-.09l.71.05c-.16.09-.31.1-.46.11.07.03.29,0,.35.06-.38.09-.77.21-.98.16l.48.1c-.16.06-.42.25-.56.26-.18.19.82.09.58.34.08-.01.15-.02.21,0-.04.18-.46.46.11.48l-.64.31c.2.1.81-.4,1.13-.24.27.1-.55.24-.72.36.37-.02,1.1-.09.6.23-.14-.01-.06-.08-.12-.11ZM14.5,13.61c-.11,0-.43.03-.16-.08.54-.13.3-.02.16.08ZM16.51,15.85c-.16.03-.1-.04.06-.14.05.02.04.06-.06.14ZM22.45,21.6s-.01,0-.02,0c.14-.15.08-.09.02,0ZM22.33,21.83c.07-.01.13-.04.19-.08-.12.04-.14.01-.12-.04-.11.06-.18.12-.06.12ZM16.53,5.89l-.11.06c-.15-.03-.03-.05.11-.06Z" class="uuid-38b9db48-a332-46fe-b267-2d58d434716e"></path><path d="M15.78,15.78c.07-.04.16-.07.24-.1-.08.01-.17.05-.24.1Z" class="uuid-38b9db48-a332-46fe-b267-2d58d434716e"></path><polygon points="13.07 10.93 13.07 10.92 12.99 10.94 13.07 10.93" class="uuid-38b9db48-a332-46fe-b267-2d58d434716e"></polygon><path d="M17.58,21.18c.05-.06.12-.11.2-.16-.11.04-.2.1-.2.16Z" class="uuid-38b9db48-a332-46fe-b267-2d58d434716e"></path><path d="M23.42,22.25l-.16-.04s-.05.09-.11.15c.1-.05.24-.13.26-.11Z" class="uuid-38b9db48-a332-46fe-b267-2d58d434716e"></path><path d="M21.09,24.31c.06-.01.02.03.08.01l.2-.1c-.04-.05-.22-.02-.28.09Z" class="uuid-38b9db48-a332-46fe-b267-2d58d434716e"></path><path d="M22.01,23.01c-.37.18-.21.18-.11.21,0,0,0,0,0-.01.52-.22.32-.21.12-.2Z" class="uuid-38b9db48-a332-46fe-b267-2d58d434716e"></path><path d="M21.91,23.23s.04.03.04.06c.21-.09.03-.04-.04-.06Z" class="uuid-38b9db48-a332-46fe-b267-2d58d434716e"></path><path d="M22.65,21.9c-.08.07.48-.2.34-.11.49-.18-.66.06-.34.11Z" class="uuid-38b9db48-a332-46fe-b267-2d58d434716e"></path><polygon points="20.82 23.62 21.26 23.39 20.88 23.52 20.82 23.62" class="uuid-38b9db48-a332-46fe-b267-2d58d434716e"></polygon><path d="M20.91,22.95l-.08.16c.08-.04.13-.04.17-.04-.01-.07.04-.18-.09-.12Z" class="uuid-38b9db48-a332-46fe-b267-2d58d434716e"></path><path d="M21,23.07s.03.06.12.05c-.01-.02-.05-.05-.12-.05Z" class="uuid-38b9db48-a332-46fe-b267-2d58d434716e"></path><polygon points="20.61 23.54 20.69 23.46 20.69 23.38 20.61 23.54" class="uuid-38b9db48-a332-46fe-b267-2d58d434716e"></polygon><path d="M20.49,21.78l-.18-.06c-.16.06-.24.13-.16.15.12-.02.2,0,.35-.09Z" class="uuid-38b9db48-a332-46fe-b267-2d58d434716e"></path><path d="M19.39,22.69c.08-.07.18-.12.33-.21l-.57.25.24-.04Z" class="uuid-38b9db48-a332-46fe-b267-2d58d434716e"></path><path d="M19.11,22.4c-.16.06-.53.03-.43.16.16-.06.34,0,.43-.16Z" class="uuid-38b9db48-a332-46fe-b267-2d58d434716e"></path><polygon points="19.08 20.33 19.1 20.36 20.03 19.96 19.08 20.33" class="uuid-38b9db48-a332-46fe-b267-2d58d434716e"></polygon><path d="M16.18,19.68c-.17.23.6-.2.37.04.24-.06.19-.2.4-.24-.27,0-.16-.09-.76.2Z" class="uuid-38b9db48-a332-46fe-b267-2d58d434716e"></path><path d="M16.94,19.49s.09,0,.16-.01c-.07,0-.12,0-.16.01Z" class="uuid-38b9db48-a332-46fe-b267-2d58d434716e"></path><polygon points="15.76 .18 15.95 .05 15.63 .17 15.76 .18" class="uuid-38b9db48-a332-46fe-b267-2d58d434716e"></polygon><path d="M14.99.15l.63-.15-.59.06s.1.05-.04.09Z" class="uuid-38b9db48-a332-46fe-b267-2d58d434716e"></path><path d="M13.35,14.28l.15-.04c.16-.07.16-.09.17-.15l-.32.19Z" class="uuid-38b9db48-a332-46fe-b267-2d58d434716e"></path><polygon points="13.39 12.85 13.39 12.87 13.93 12.65 13.39 12.85" class="uuid-38b9db48-a332-46fe-b267-2d58d434716e"></polygon><path d="M12.34,11.99c-.01.05.13.06.12.12-.13-.06.57-.34-.12-.12Z" class="uuid-38b9db48-a332-46fe-b267-2d58d434716e"></path><path d="M48.1,13.83c.07.03,0-.38,0-.46-.11.11.01.57,0,.46Z" class="uuid-38b9db48-a332-46fe-b267-2d58d434716e"></path><polygon points="47.04 14.91 47.04 14.73 46.91 15.17 47.04 14.91" class="uuid-38b9db48-a332-46fe-b267-2d58d434716e"></polygon><path d="M45.94,15.02c.18.7.38-.16.61.07l.05.16.03-.58c-.23.12-.5.53-.68.35Z" class="uuid-38b9db48-a332-46fe-b267-2d58d434716e"></path><path d="M45.2,13.55c.06.27-.1.25.15.07-.01-.03-.02-.05-.03-.07-.02,0-.06,0-.11,0Z" class="uuid-38b9db48-a332-46fe-b267-2d58d434716e"></path><path d="M45.31,13.55c.11-.03-.1-.22,0,0h0Z" class="uuid-38b9db48-a332-46fe-b267-2d58d434716e"></path><path d="M44.8,13.76l.13-.26c-.05-.16-.19-.18-.15-.31-.14.15-.09.31.02.57Z" class="uuid-38b9db48-a332-46fe-b267-2d58d434716e"></path><path d="M44.71,14.3l.07-.11c-.02-.07-.04-.09-.07.11Z" class="uuid-38b9db48-a332-46fe-b267-2d58d434716e"></path><path d="M44.92,13.95l-.14.24c.03.11.06.34.07-.09,0,.21.02,0,.08-.15Z" class="uuid-38b9db48-a332-46fe-b267-2d58d434716e"></path><path d="M45.02,14.04c.1.15.22.23.09.49.28-.13.19-.62-.09-.49Z" class="uuid-38b9db48-a332-46fe-b267-2d58d434716e"></path><path d="M45.97,15.76l.14.2.07-.25c-.04.12-.24-.17-.21.05Z" class="uuid-38b9db48-a332-46fe-b267-2d58d434716e"></path><path d="M43.82,13.49c0,.15.09.4.12.59l.09-.19c-.07-.1-.19-.18-.22-.41Z" class="uuid-38b9db48-a332-46fe-b267-2d58d434716e"></path><path d="M43.94,14.08l-.14.28c.15.02.17-.11.14-.28Z" class="uuid-38b9db48-a332-46fe-b267-2d58d434716e"></path><polygon points="44.76 15.09 44.98 14.51 44.71 15.1 44.76 15.09" class="uuid-38b9db48-a332-46fe-b267-2d58d434716e"></polygon><polygon points="43.18 13.53 43.24 13.17 43.12 13.72 43.18 13.53" class="uuid-38b9db48-a332-46fe-b267-2d58d434716e"></polygon><path d="M42.76,13.64c.04-.3-.14-.48-.09-.67-.11.06-.18.32-.25.55.08-.13.19-.11.34.11Z" class="uuid-38b9db48-a332-46fe-b267-2d58d434716e"></path><path d="M42.3,13.87c.04-.07.08-.2.12-.34-.04.07-.08.17-.12.34Z" class="uuid-38b9db48-a332-46fe-b267-2d58d434716e"></path><path d="M43.5,14.31c-.02-.09-.07-.33-.17-.42l.11.42h.07Z" class="uuid-38b9db48-a332-46fe-b267-2d58d434716e"></path><path d="M43.44,14.32h0c-.07-.02-.12-.02-.14-.02.02,0,.06,0,.15.02Z" class="uuid-38b9db48-a332-46fe-b267-2d58d434716e"></path><path d="M43.52,14.31h-.02s.02.05.02,0Z" class="uuid-38b9db48-a332-46fe-b267-2d58d434716e"></path><path d="M44.28,14.75c-.07.25-.25.52-.02.87.04-.3-.09-.49.02-.87Z" class="uuid-38b9db48-a332-46fe-b267-2d58d434716e"></path><path d="M43.66,14.83l.19.08c-.01-.11-.06-.27-.03-.4l-.16.32Z" class="uuid-38b9db48-a332-46fe-b267-2d58d434716e"></path><polygon points="43.58 14.98 43.66 14.83 43.59 14.8 43.58 14.98" class="uuid-38b9db48-a332-46fe-b267-2d58d434716e"></polygon><path d="M42.65,14.23c-.06.19-.14.22-.23.26.11.07.22.11.32.1,0-.14.02-.38-.09-.35Z" class="uuid-38b9db48-a332-46fe-b267-2d58d434716e"></path><path d="M43.04,14.31v.03s0,.05,0-.03Z" class="uuid-38b9db48-a332-46fe-b267-2d58d434716e"></path><path d="M41.48,14.57s.02.05.02.08v-.07s-.02,0-.02,0Z" class="uuid-38b9db48-a332-46fe-b267-2d58d434716e"></path><path d="M42.76,14.66c.08.07.12-.03.15-.17-.05.05-.11.08-.18.09,0,.06,0,.1.02.08Z" class="uuid-38b9db48-a332-46fe-b267-2d58d434716e"></path><path d="M42.06,14.09c.05.09.1.16.15.22-.05-.13-.15-.33-.15-.22Z" class="uuid-38b9db48-a332-46fe-b267-2d58d434716e"></path><path d="M42.98,14.23v-.02c-.02-.09-.02-.04,0,.02Z" class="uuid-38b9db48-a332-46fe-b267-2d58d434716e"></path><path d="M42.98,14.23c-.03.07-.05.17-.08.27.04-.04.08-.09.11-.16-.01-.03-.03-.07-.04-.12Z" class="uuid-38b9db48-a332-46fe-b267-2d58d434716e"></path><path d="M41.44,17.33c-.02-.4.15-.78.36-.37.14-.31-.09-1.6-.31-2.31.01.17.03.33-.13.58.08.21.44.47.32.84-.22.22-.21-.12-.34-.32.14.48-.23.74-.12,1.46l.18-.27c.01.11-.04.3.02.4Z" class="uuid-38b9db48-a332-46fe-b267-2d58d434716e"></path><path d="M41.84,14.66l.07-.06c-.09-.06-.16-.21-.3-.51-.1.2-.11.35-.11.48l.36.02-.02.06Z" class="uuid-38b9db48-a332-46fe-b267-2d58d434716e"></path><path d="M42.23,14.57c-.02.44-.17.63-.02,1.09.21-.05.12-.37.23-.57-.33.14.08-.25-.2-.47.06-.08.12-.11.17-.13-.07-.05-.13-.1-.2-.18v.03s.01,0,.01,0h0c.02.06.03.09,0,.06,0,0,0,0,0,0v.16c-.11-.08-.03-.11,0-.16v-.07s0,0,0,0l-.32.27c.08.05.17.03.33-.03Z" class="uuid-38b9db48-a332-46fe-b267-2d58d434716e"></path><path d="M44.17,16.55s-.02-.07-.02-.1c-.02.05-.02.09.02.1Z" class="uuid-38b9db48-a332-46fe-b267-2d58d434716e"></path><path d="M44,16.31c.02-.06.02-.24.11-.2.08.12.02.21.04.35.04-.12.14-.32-.03-.52l-.02.06c-.15-.13-.39-.65-.37-.71.08.38.14.65.27,1.02Z" class="uuid-38b9db48-a332-46fe-b267-2d58d434716e"></path><path d="M43.11,15.55l-.27.24.18.36-.03-.22c.17.07.11-.2.11-.37Z" class="uuid-38b9db48-a332-46fe-b267-2d58d434716e"></path><polygon points="41.42 14.36 41.42 13.91 41.31 14.56 41.42 14.36" class="uuid-38b9db48-a332-46fe-b267-2d58d434716e"></polygon><polygon points="41.06 14.45 41.03 14.06 40.96 14.3 41.06 14.45" class="uuid-38b9db48-a332-46fe-b267-2d58d434716e"></polygon><path d="M20.17,20.64l-.08.11s.06-.07.08-.11Z" class="uuid-38b9db48-a332-46fe-b267-2d58d434716e"></path><path d="M20.79,20.65v-.2c-.02.11-.03.19,0,.2Z" class="uuid-38b9db48-a332-46fe-b267-2d58d434716e"></path><path d="M31.91,15.21c-.15-.36-.32-.92-.28-.48l.07.43c.08-.08.15-.04.21.05Z" class="uuid-38b9db48-a332-46fe-b267-2d58d434716e"></path><path d="M25.76,18.15s.03.09.04.13c.02-.15.04-.29.06-.42-.03.09-.07.19-.11.29Z" class="uuid-38b9db48-a332-46fe-b267-2d58d434716e"></path><path d="M25.76,19.95l-.18-.27c.04.1.1.19.18.27Z" class="uuid-38b9db48-a332-46fe-b267-2d58d434716e"></path><path d="M16.79,21.19l-.09.44c.16,0,.08-.23.09-.44Z" class="uuid-38b9db48-a332-46fe-b267-2d58d434716e"></path><path d="M37.26,14.94c-.12-.16-.21-.22-.28-.24.15.24.28.6.28.24Z" class="uuid-38b9db48-a332-46fe-b267-2d58d434716e"></path><path d="M20.27,16.03c-.05.08-.07.17-.06.27.05-.08.08-.16.06-.27Z" class="uuid-38b9db48-a332-46fe-b267-2d58d434716e"></path><path d="M36.67,14.73s.04.06.06.1c.07-.08.15-.14.24-.12-.11-.18-.23-.28-.31.03Z" class="uuid-38b9db48-a332-46fe-b267-2d58d434716e"></path><path d="M4.5,20.86s-.02-.03-.03-.05c0,.06,0,.06.03.05Z" class="uuid-38b9db48-a332-46fe-b267-2d58d434716e"></path><path d="M1.03,16.42s.09-.03.15-.03c-.03-.03-.07-.03-.15.03Z" class="uuid-38b9db48-a332-46fe-b267-2d58d434716e"></path><path d="M39.54,14.4c.08-.04,0-.05,0,0h0Z" class="uuid-38b9db48-a332-46fe-b267-2d58d434716e"></path><path d="M40.08,16.07s-.02.11-.01.21c0-.1,0-.17.01-.21Z" class="uuid-38b9db48-a332-46fe-b267-2d58d434716e"></path><path d="M36.09,17.48h0c.03.08.02.07,0,0Z" class="uuid-38b9db48-a332-46fe-b267-2d58d434716e"></path><path d="M39.68,14.58s-.07-.09-.11-.12c.02.03.05.07.11.12Z" class="uuid-38b9db48-a332-46fe-b267-2d58d434716e"></path><path d="M39.64,14.38s.05.02.07.04c0-.07,0-.12-.07-.04Z" class="uuid-38b9db48-a332-46fe-b267-2d58d434716e"></path><path d="M39.43,14.43s.09,0,.13.03c-.02-.03-.03-.05-.02-.07-.02,0-.05.02-.11.03Z" class="uuid-38b9db48-a332-46fe-b267-2d58d434716e"></path><path d="M11.08,19.74s0-.02-.02-.04c-.08.18-.04.15.02.04Z" class="uuid-38b9db48-a332-46fe-b267-2d58d434716e"></path><path d="M30.12,19.84s0-.02,0-.02v-.02s0,.04,0,.04Z" class="uuid-38b9db48-a332-46fe-b267-2d58d434716e"></path><path d="M29.85,20.18c.09-.55.16-.48.26-.37l-.17-1.24-.1,1.62Z" class="uuid-38b9db48-a332-46fe-b267-2d58d434716e"></path><path d="M18.69,20.81l.21.38c-.23.65-.41.43-.21.97,0-1.36.79-.16.78-1.52l.14.28s-.04.07-.08.06c.28.64.17-.99.5-.8.12.1.21.29.13.46l.25-.34c.08.02.07.26-.01.24l.39-.12v.04c.05-.21.17-.55.22-.69.11.19-.05.15-.01.31l.21-.33c.1.35-.07.7-.22.65.25,1.35.17-.35.64.43l-.2.18c.16.76.31.48.56.95-.06-.25-.51-1.19-.29-1.54.07.1.16.15.28-.13.02.48.14.36.3.33v.64c.18-.19.15-.52.24-.81.19.06.25.55.31.96.31.09-.24-.79.11-.92.26.23.43-.03.71-.43.19.21-.02.39.06.57l.14-.52s.03.17.03.25c.12-.2-.02-.64.18-.82.03-.71.47,1.01.69.2.07.18-.01.39.02.64.33-.54.28-.4.54-1.11l.26.41c-.2-.47,0-1.05.18-1.52-.07-.23-.14-.43-.18-.52l.3-.36c.04.1.02.32-.02.59.02-.05.04-.11.05-.16.13.23.08.6.02.96-.04-.12-.09-.26-.13-.39-.06.39-.12.83-.08,1.2.02-.07.05-.14.1-.18-.02.11-.02.2-.01.26.01.07.04-.08.09-.24l.11.71v-.28s.45.43.45.43c.27-.73.48-1.8.94-2.12-.09.53.02.85.04,1.47-.16-.65-.36.3-.61.17.13.06.12.36.09.46l.41-.62c.02.51.11.37.24.58-.14-1,.29-.68.46-1,.03.33,0,.68-.22.61.28.74.25-1.19.52-.56-.05.01-.08-.04-.1.13.11-.31.43-.09.37.21h-.05c.36.11,1.08-.04,1.09-.89,0,.11.01,1.03,0,1.2l.47-2.89c-.01.73.31,2.46.03,2.89.09.1.2.22.37-.05-.06-.1-.21-1.05-.13-1.12.26.8.18.42.48,1.1-.1-.15-.07-1.3.07-1.27-.01.17.08,1.13.04,1.25l.27-1.14c-.07.21.04.95.14,1.27-.05-.22.3,0,.38-.12l-.16-.25c.4.15.28-1.6.66-1.57-.03.23-.02,1.43.18,1.56.05-.58.21-2.79.51-3.25l.09.32.23-.39c-.1.88-.43,2.72-.63,3.45.16.25.07.39.28.34.1.3-.09.47-.15.5l.52.17c-.07-.67.34-.7.28-1.26l-.5.73c-.07-.67.19-1.92.55-1.83.11.26.02,1.2.04,1.42.03-.23.31-.47.35-.3l-.13.37c.22.24.26-.91.54-.29.08.04.31.85.29.45-.19-.76-.38-3.12-.34-3.7.03.05.48.7.6,1.07.18.59-.1,1.44.06,1.95,0-.18.05-.42.08-.49.1.15,0,.57.19.47-.02-.68.38.03.05-.58.17-.21.2.13.42.08-.1-.43.08-1.51.25-1.72,0,.17.06.4.09.5.38.04.6.32.95.3.04.16.23.35.18.65.04-.12.07-.36.17-.38.26.57-.23.11-.02.8-.02-.4.23-.57.37-.83-.1-.61-.36-.09-.5.17-.07-.84.13-1.74.46-2.16.27-.23.17.53.21.41.55.1.34-1.51.84-.94.22.52.1,1.06.17,1.45-.22.22-.39-.31-.55-.28l.22.24c-.06.18-.21.33-.3.18.19.47.92.02,1.38.42.06-.19.17-.38.09-.59l-.13.09c-.16-.42.2-.62.01-.81.15-.32.31-.81.58-.59l.1.61c-.02-.18-.2-.35-.25-.16.08-.28.46.79.5-.02l-.21-.41c.15-.32.31-.99.55-.82-.15-.59-.04.07-.26-.62.21.87-.57.01-.27.92-.23-.8-.31-.32-.58-1,.02.2.11.38-.08.3,0,.06-.02.14-.02.18h-.01s.01,0,.01,0c0,.03,0,.04,0,0,.05.08.1.19.12.3-.05.47-.35.48-.43.73-.12-.09.03-.24-.05-.45l-.12.37c-.05-.45-.36-.72-.12-1h-.23c-.16-.24-.35-.33-.46-.13-.12-.09-.24.52-.17.16l-.34.31v-.11c-.38-.03-.69.8-1.17.03-.11.12-.23.27-.44.16l-.07-.38c-.15.15-.5-.35-.53.06-.25-1.03-.77-.17-1.06-.34l.03.51c-.19-.01-.36.14-.58.36l.05.45c-.18.38-.54-.28-.86-.21.01-.17.09-.13.16-.03-.45-.98-.76.79-1.15.07-.08.17-.14.12-.21,0,0,0,.01-.01.02-.03,0,0-.02,0-.04,0-.04-.07-.09-.16-.14-.23.04.11.08.19.12.23-.07.01-.16.08-.25.19l-.07-.48s-.01,0-.02.02c-.11-.17-.06.23.01.59-.04.08-.08.18-.11.3-.13-.77-.24.28-.4-.54-.04.41-.48.33-.48,1.19-.01-.11-.04-.16.01-.17-.12-.09-.23-.18-.32.07l-.08-.61-.19.84c-.17-.36-.24-.58-.12-1.06-.31.74-.27.29-.53,1.02v-.4c-.11.02-.25.56-.34.24-.28-.74-1.19-.04-1.84-.7.18,1.16-.31-.51-.29.4-.05-.27-.14-.43-.06-.67-.3.28-.49-.42-.67.36-.05-.27.05-.41,0-.57-.02.06-.09.24-.13.08-.04-.16.03-.23.08-.35-.32.06-.31.91-.29,1.71-.18-.37-.26-.31-.35.22-.07-.26-.18-.53.02-.63-.11-.03-.7-.35-.68.29-.04-.16-.16-.04-.19.04-.25-.03-.28-.08-.52-.01l.07.1c-.06.78-.2.18-.39.28v-.08c-.48-.54-.18.27-.66-.34l.04.48c0,1.03-.42-.59-.67-.19l.1.27c-.13.36-.45-1.39-.6-1.51-.03-.09.04-.15.08-.21-.4-.6-.03.63-.3.79-.06-.34.04-.86-.15-.92-.1-.27-.51,1.12-.78.48.06.26.13.52,0,.72-.2.1-.57-.97-.72-.14-.03-.07-.04-.14-.04-.2-.15.22-.48.37-.56.82-.19-1.65-.92.83-.96-.69l-.46.1v-.16c-.29-.09-.39.27-.49.64-.07-.1-.02-.25-.02-.33-.44-.3-.48-.23-.83.54l-.05-.5c-.09.29-.65-.76-1.06-.18,0-.06.01-.15.04-.22-.47.59-1.17-1.35-1.32.45l-.31.45c.41.14-.05.78.12,1.08-.16.11-.43-.54-.23-.63l.03.09c.06-.94-.52-.33-.51-.97-.81.06-1.6-.45-2.36-.49l.09.73-.26-.04c-.07-.17-.1-.57.09-.54-.1-.41-.31.35-.32.51-.37-.29.14-.85.03-.87l-.15.05.04.09c-.12.3-.13.62-.36.58-.14-.15-.07-.45-.13-.48,0-.05-.02-.08-.09-.02l-.33-.06.13.58c-.15.29-.31-.03-.16.62-.23-1.01-1.24-.36-1.38-.68-.21.42-.41.41-.67.36.06.12.1.77-.12.69.09-1.34-.4-.58-.57-1.55.15.64-.62.15-.38,1.06-.18-.11,0-.5-.14-.82-.44.52-.95-.35-1.49-.18-.01.18.08.45-.04.71l-.27-.88c-.11.08-.11,1.01-.3.4.02.15.06.37,0,.43-1.03-.87-2.16.67-3.19-.97.14.34.04.38-.07.39.07.08-.01.43,0,.67l-.43-.67c-.1.66-.48.03-.54.66l.14-.11c-.21.74.22,1.67.17,2.62.23-.84.53,1.27.91.06.07.2-.07.31-.04.53.1-.41.21-.49.4-.3l-.02.1c.56-.09.79.33,1.41.61l-.04-.47c.13.06.16.21.22.33.17-.72-.38-.05-.22-.84.16.97.94.03,1.05,1.13.21,0-.05-.55.15-.54l.05.3.06-.38c.13.06.2.44.2.69-.03-.03-.09.07-.13.09.17.35.5-.11.56,0l-.2-.19c.57-.27,1.25.13,1.8-.47l-.04-.22c.42-.41.33.25.79.06l-.02.05c.09-.22.22-.33.34-.31-.12.26.21.51.06.8.45-.44.23-.35.53-1.18l.07.37c.1-.34.11-.51.34-.61-.19.32.14.57-.07.98.48.82.71-.82.93.37.22-1.03-.41-.57-.29-.79-.1-.33.18-.77.33-.67.15.02.26,1.31.64,1.29-.04,0-.04.07-.08.07.14.26.28-.35.46.07.1-.62.23.03.25-.76l-.35.18c.2-.21.38-1.13.71-.69-.02.16-.12.37-.19.49.1.23.18-.15.29.08-.02.79-.43.17-.64.78.1.33.4-.57.3.28.15-1.09.38.14.64-.7v.47c.03-.07.11-.3.19-.29l-.13.62c.21-.53.41.46.61.17-.42.02-.1-.57-.28-.92.52-.64.31,1.24.89,1-.08.07-.3-.28-.18-.5.11.1.26.28.33.53.39-.1-.06-.49.1-.78.14.58.19-.24.35-.42v.48c.45.3.11-1.01.51-.64l-.16.67.21-.17-.04.55c.22-.41.29-.31.52-.15-.06-.34.02-.88.21-.89.14.28-.07.46.21.39-.06.3-.12.68-.25.24-.01.16-.06.3-.07.46.15.33.36.07.46.06-.04-.02-.09-.04-.11-.11l.39-.68c.07.18.02.33-.03.47.08-.05.13-.28.25-.32-.02.39,0,.8-.18.99l.38-.44c.03.17.21.46.16.61.22.23.51-.77.79-.47.01-.08.04-.15.1-.21.27.08.51.56.81.02l.19.7c.24-.16-.26-.88.14-1.15.28-.23.12.6.23.79.14-.36.37-1.09.65-.52-.08.13-.16.03-.24.09ZM21.71,20.41c-.05.1-.16.42-.21.14.05-.55.11-.29.21-.14ZM26.25,19.06c-.04.16-.11.09-.19-.09.05-.04.12-.03.19.09ZM38.71,14.86s0,.01,0,.02c-.14-.18-.09-.11,0-.02ZM39,15.05c.02-.07.01-.14,0-.2,0,.12-.07.14-.14.11.03.12.07.21.14.09ZM10.22,16.49l.05.13c-.12.14-.08.01-.05-.13Z" class="uuid-38b9db48-a332-46fe-b267-2d58d434716e"></path><path d="M25.76,19.74c-.02-.08-.03-.17-.04-.26-.02.08-.02.18.04.26Z" class="uuid-38b9db48-a332-46fe-b267-2d58d434716e"></path><polygon points="16.81 21.11 16.8 21.1 16.79 21.19 16.81 21.11" class="uuid-38b9db48-a332-46fe-b267-2d58d434716e"></polygon><path d="M35.15,19.46c-.06-.07-.1-.15-.13-.24,0,.12.04.22.13.24Z" class="uuid-38b9db48-a332-46fe-b267-2d58d434716e"></path><path d="M40.34,14.11l-.16.14c.08-.03.12.07.17.14-.01-.11-.06-.27,0-.28Z" class="uuid-38b9db48-a332-46fe-b267-2d58d434716e"></path><path d="M42.1,16.95c.02-.06.05-.01.07-.07l-.03-.22c-.11.02-.16.21-.04.3Z" class="uuid-38b9db48-a332-46fe-b267-2d58d434716e"></path><path d="M40.64,15.69c.05.4.15.26.26.17,0,0-.01,0-.02,0-.02-.57-.13-.37-.24-.17Z" class="uuid-38b9db48-a332-46fe-b267-2d58d434716e"></path><path d="M40.93,15.84s.07-.04.11-.02c0-.23-.05-.04-.11.02Z" class="uuid-38b9db48-a332-46fe-b267-2d58d434716e"></path><path d="M39.31,14.75c.07.1,0-.52.04-.36.02-.52-.32.66-.04.36Z" class="uuid-38b9db48-a332-46fe-b267-2d58d434716e"></path><polygon points="40.86 17.01 40.77 16.52 40.74 16.93 40.86 17.01" class="uuid-38b9db48-a332-46fe-b267-2d58d434716e"></polygon><path d="M39.87,16.73l.21.12c-.01-.08,0-.13.04-.17-.12,0-.26-.09-.24.05Z" class="uuid-38b9db48-a332-46fe-b267-2d58d434716e"></path><path d="M40.12,16.68c.06,0,.12-.01.15-.1-.03,0-.1.03-.15.1Z" class="uuid-38b9db48-a332-46fe-b267-2d58d434716e"></path><polygon points="40.61 17.19 40.54 17.09 40.4 17.06 40.61 17.19" class="uuid-38b9db48-a332-46fe-b267-2d58d434716e"></polygon><path d="M37.8,16.81l-.2.16c0,.17.06.27.13.2.04-.12.11-.2.07-.36Z" class="uuid-38b9db48-a332-46fe-b267-2d58d434716e"></path><path d="M38.55,18.13c-.07-.1-.08-.21-.12-.37l.04.62.08-.25Z" class="uuid-38b9db48-a332-46fe-b267-2d58d434716e"></path><path d="M37.94,18.32c0,.17-.27.52,0,.46,0-.17.21-.33,0-.46Z" class="uuid-38b9db48-a332-46fe-b267-2d58d434716e"></path><polygon points="34.7 17.78 34.75 17.77 34.67 16.76 34.7 17.78" class="uuid-38b9db48-a332-46fe-b267-2d58d434716e"></polygon><path d="M32.06,20.41c.27.23.02-.63.27-.34.04-.24-.2-.24-.15-.45-.13.26-.22.13-.11.79Z" class="uuid-38b9db48-a332-46fe-b267-2d58d434716e"></path><path d="M32.17,19.62s.04-.09.07-.16c-.04.07-.06.12-.07.16Z" class="uuid-38b9db48-a332-46fe-b267-2d58d434716e"></path><polygon points=".46 15.85 .31 15.64 .4 15.98 .46 15.85" class="uuid-38b9db48-a332-46fe-b267-2d58d434716e"></polygon><path d="M.13,16.6l-.02-.65-.11.58s.11-.08.13.06Z" class="uuid-38b9db48-a332-46fe-b267-2d58d434716e"></path><path d="M22.2,21.7v-.16c-.02-.17-.06-.18-.14-.2l.14.36Z" class="uuid-38b9db48-a332-46fe-b267-2d58d434716e"></path><polygon points="19.98 21.28 20.02 21.3 19.94 20.71 19.98 21.28" class="uuid-38b9db48-a332-46fe-b267-2d58d434716e"></polygon><path d="M18.16,22.08c.08.02.16-.11.24-.09-.16.11-.28-.64-.24.09Z" class="uuid-38b9db48-a332-46fe-b267-2d58d434716e"></path></svg>