<svg viewBox="0 0 96.8 154.39" xmlns="http://www.w3.org/2000/svg" id="uuid-a7e64b0d-e83d-4696-a815-3d3fc988453d"><defs><style>.uuid-69908da9-b538-4a66-9108-7a3f1e42b9ea{fill:none;}.uuid-69908da9-b538-4a66-9108-7a3f1e42b9ea,.uuid-f8ed5f88-590b-425a-a584-8617ddf7f28c{stroke-width:0px;}.uuid-f8ed5f88-590b-425a-a584-8617ddf7f28c{fill:#82cd50;}</style></defs><polygon points="15.31 961.47 349.11 908.17 256.76 104.94 -77.05 383.09 15.31 961.47" class="uuid-69908da9-b538-4a66-9108-7a3f1e42b9ea"></polygon><path d="M7.77,151.53c-1.58-.28-3.01-.9-4.22-1.91-1.04-.86-1.69-2.01-1.62-3.44.01-.31.11-.65.28-.9.85-1.29,1.37-2.82,2.67-3.8.67-.51,1.29-1.08,1.98-1.57.94-.66,1.92-1.25,2.88-1.88.88-.58,1.76-1.16,2.63-1.76,1.94-1.35,3.87-2.72,5.79-4.08.28-.2.63-.39.78-.67.7-1.3,1.91-1.95,3.15-2.58.31-.16.62-.33.9-.54.53-.39,1.03-.81,1.56-1.2.37-.28.83-.47,1.14-.81.57-.62,1.15-1.16,2.04-1.26.17-.02.31-.23.46-.37.43-.38.79-.88,1.28-1.12,1.03-.5,1.98-1.03,2.77-1.92,1.55-1.74,3.24-3.36,4.87-5.03,1.08-1.11,1.97-2.41,3.45-3.07.19-.08.35-.46.35-.7,0-.74.26-1.33.71-1.93.51-.68.98-1.45,1.24-2.26.59-1.78,1.03-3.61,1.57-5.41.22-.74.5-1.47.83-2.17.54-1.12,1.03-2.24,1.05-3.52,0-.19.19-.36.27-.55.12-.3.27-.59.31-.9.09-.83.11-1.67.19-2.51.16-1.71.43-3.42.47-5.13.08-3.64.38-7.28-.27-10.92-.35-1.97.15-4.05-.8-5.95-.04-.08-.07-.19-.04-.26.4-.75-.12-1.36-.24-2.04-.3-1.64-.95-3.26-.47-4.99.04-.15-.01-.36-.09-.5-.65-1.1-.37-2.25-.19-3.39.21-1.31.49-2.61.67-3.93.16-1.21.03-2.5.38-3.64.55-1.75.28-3.5.38-5.25.09-1.52-.09-3.06-.16-4.59-.01-.26-.05-.53-.04-.79.08-1.76.15-3.52.26-5.27.02-.25.21-.48.31-.73.11-.27.19-.56.31-.83.57-1.27,1.01-2.63,1.77-3.77,1.18-1.78,2.79-3.13,4.84-3.95.97-.39,1.89-.95,2.77-1.53,1.24-.82,2.43-1.71,3.63-2.59,1.57-1.14,3.14-2.28,4.67-3.47.24-.19.4-.62.41-.94.07-2.42.1-4.84.11-7.26,0-1.31-.01-2.62-.09-3.93-.07-1.08-.25-2.14-.37-3.22-.07-.64-.25-1.29-.17-1.91.19-1.55,1.77-2.25,3.52-1.65,1.26.43,2.54.74,3.66,1.59.65.5,1.17.94,1.31,1.75.32,1.89.61,3.78.95,5.66.24,1.34.41,2.72.87,3.99.72,2.01,1.49,4.01,2.78,5.76.97,1.32,1.88,2.69,2.85,4.01.69.93,1.46,1.81,2.16,2.74.16.22.26.55.25.82-.02.89.4,1.54,1.01,2.15.74.74,1.44,1.53,2.09,2.34.39.49.6,1.13.99,1.63.39.5,1.01.85.7,1.65-.03.07.13.25.23.34.39.34.68.67.54,1.28-.05.23.27.54.42.82.18.32.39.63.54.96.13.27.15.59.3.85.61,1.06.61,2.39,1.47,3.34.04.05-.02.17,0,.26.06.3.12.61.2.9.11.45.29.88.35,1.34.08.56-.08,1.2.13,1.69.97,2.3.98,4.76,1.35,7.16.06.4.16.81.15,1.21-.02.99-.11,1.98-.15,2.97-.04.99.5,1.96.03,2.98-.17.37-.09.85-.12,1.29-.06.81-.03,1.64-.22,2.42-.21.85-1.16,1.56-.41,2.57.01.02-.01.06-.01.08-.07,1.26-.15,2.53-.23,3.79,0,.14-.06.29-.12.41-.41.87-.77,1.74-.53,2.74.07.27.1.67-.05.86-.83,1.12-.8,2.47-1.1,3.73-.23.99-.69,1.93-1.08,2.87-.24.58-.8,1.15-.78,1.71.07,1.74-1.2,2.93-1.6,4.46-.2.78-.45,1.56-.7,2.33-.09.27-.23.52-.37.77-.12.2-.32.36-.4.56-.45,1.18-.83,2.38-1.32,3.54-.55,1.28-1.5,2.33-1.96,3.7-.37,1.11-1.2,2.07-1.86,3.07-.58.87-1.22,1.7-1.84,2.55-.29.39-.66.74-.91,1.15-.74,1.23-1.34,2.56-2.59,3.4-.09.06-.15.19-.17.29-.41,1.65-1.55,2.75-2.77,3.81-.35.3-.54.81-.78,1.23-.1.17-.11.4-.23.55-.59.77-1.17,1.55-1.81,2.28-1.25,1.44-2.54,2.86-3.81,4.29-.4.45-.75.93-1.17,1.36-.7.73-1.46,1.4-2.15,2.14-.75.8-1.36,1.74-2.17,2.47-1.32,1.18-2.74,2.24-4.13,3.35-.6.48-1.2.96-1.84,1.39-.56.38-1.2.63-1.74,1.03-1,.75-1.95,1.57-2.93,2.35-.3.24-.6.47-.92.67-1.22.73-2.45,1.44-3.67,2.18-.32.19-.55.65-.86.69-1.34.16-1.95,1.86-3.47,1.59-.06-.01-.15.16-.22.25-.97,1.27-2.45,1.67-3.81,2.31-.98.46-2.31.29-2.92,1.5-.04.09-.27.11-.41.11-.69.01-1.32.14-1.73.79-.09.15-.34.21-.53.28-1.11.39-2.24.75-3.33,1.18-.36.14-.61.55-.97.71-1.02.45-2.05.9-3.12,1.22-1.84.55-3.72.99-5.58,1.51-.53.15-1,.56-1.53.64-1.69.25-3.4.4-5.53.64-.92-.2-2.22-.51-3.54-.75ZM83.22,40.35c-.86.51-1.61.96-2.49,1.48M83,66.08" class="uuid-69908da9-b538-4a66-9108-7a3f1e42b9ea"></path><path d="M81.97,43.92s.19.33.23.4c-.04-.08-.29-.49-.23-.4Z" class="uuid-f8ed5f88-590b-425a-a584-8617ddf7f28c"></path><polygon points="81.55 43.07 81.63 43.22 81.43 42.85 81.55 43.07" class="uuid-f8ed5f88-590b-425a-a584-8617ddf7f28c"></polygon><path d="M81.61,43.04c-.37-.61.04.11-.1-.1l-.08-.14.29.5c-.03-.09-.21-.42-.1-.26Z" class="uuid-f8ed5f88-590b-425a-a584-8617ddf7f28c"></path><path d="M82.43,44.35c-.14-.24-.12-.21-.05-.07.02.03.03.04.04.06,0,0,0,0,.01.01Z" class="uuid-f8ed5f88-590b-425a-a584-8617ddf7f28c"></path><path d="M82.41,44.34s.12.2,0,0h0Z" class="uuid-f8ed5f88-590b-425a-a584-8617ddf7f28c"></path><path d="M82.36,44.19l.12.22c.09.14.11.17.17.27-.06-.12-.15-.26-.29-.49Z" class="uuid-f8ed5f88-590b-425a-a584-8617ddf7f28c"></path><path d="M82.1,43.73l.05.09c.04.06.05.08-.05-.09Z" class="uuid-f8ed5f88-590b-425a-a584-8617ddf7f28c"></path><path d="M82.26,44.02l-.1-.2c-.06-.1-.18-.3.04.07-.11-.18,0,0,.07.12Z" class="uuid-f8ed5f88-590b-425a-a584-8617ddf7f28c"></path><path d="M82.2,43.93c-.08-.13-.14-.21-.26-.43.04.09.29.52.26.43Z" class="uuid-f8ed5f88-590b-425a-a584-8617ddf7f28c"></path><path d="M81.24,42.4l-.11-.18.12.21c-.06-.1.11.16,0-.03Z" class="uuid-f8ed5f88-590b-425a-a584-8617ddf7f28c"></path><path d="M82.6,44.48c-.08-.13-.21-.35-.31-.51l.08.15c.06.09.11.17.23.36Z" class="uuid-f8ed5f88-590b-425a-a584-8617ddf7f28c"></path><path d="M82.29,43.96l-.12-.23s.04.09.12.23Z" class="uuid-f8ed5f88-590b-425a-a584-8617ddf7f28c"></path><polygon points="81.7 43.05 81.96 43.53 81.7 43.04 81.7 43.05" class="uuid-f8ed5f88-590b-425a-a584-8617ddf7f28c"></polygon><polygon points="82.64 44.47 82.82 44.78 82.55 44.32 82.64 44.47" class="uuid-f8ed5f88-590b-425a-a584-8617ddf7f28c"></polygon><path d="M82.63,44.41c.15.25.26.42.34.58-.02-.05-.14-.27-.25-.46.06.11.04.09-.09-.11Z" class="uuid-f8ed5f88-590b-425a-a584-8617ddf7f28c"></path><path d="M82.56,44.23c.03.06.09.17.16.29-.03-.06-.08-.14-.16-.29Z" class="uuid-f8ed5f88-590b-425a-a584-8617ddf7f28c"></path><path d="M82.22,43.79c.05.08.17.28.23.37l-.22-.37s0,0,0,0Z" class="uuid-f8ed5f88-590b-425a-a584-8617ddf7f28c"></path><path d="M82.22,43.78h0s.02.02.02.03c0,0-.01-.01-.03-.03Z" class="uuid-f8ed5f88-590b-425a-a584-8617ddf7f28c"></path><path d="M82.22,43.79s0,0,0,0c-.02-.04-.03-.05,0,0Z" class="uuid-f8ed5f88-590b-425a-a584-8617ddf7f28c"></path><path d="M81.92,43.37c-.12-.21-.24-.43-.43-.74.15.25.26.43.43.74Z" class="uuid-f8ed5f88-590b-425a-a584-8617ddf7f28c"></path><path d="M81.94,43.33l-.06-.08c.06.1.14.24.2.34l-.14-.26Z" class="uuid-f8ed5f88-590b-425a-a584-8617ddf7f28c"></path><polygon points="81.87 43.21 81.94 43.33 81.96 43.36 81.87 43.21" class="uuid-f8ed5f88-590b-425a-a584-8617ddf7f28c"></polygon><path d="M82.34,43.9c-.09-.16-.09-.18-.1-.21-.05-.07-.08-.1-.08-.1.07.12.19.32.19.31Z" class="uuid-f8ed5f88-590b-425a-a584-8617ddf7f28c"></path><path d="M82.26,43.81s0-.01-.01-.02c-.02-.03-.02-.04.01.02Z" class="uuid-f8ed5f88-590b-425a-a584-8617ddf7f28c"></path><path d="M82.29,43.67s-.03-.05-.04-.07c.01.02.02.04.04.06h0Z" class="uuid-f8ed5f88-590b-425a-a584-8617ddf7f28c"></path><path d="M82.12,43.52c-.05-.07,0,.02.07.14-.02-.04-.03-.06-.03-.07-.03-.05-.05-.09-.04-.07Z" class="uuid-f8ed5f88-590b-425a-a584-8617ddf7f28c"></path><path d="M82.47,44.05c-.05-.08-.09-.14-.13-.2.07.11.18.29.13.2Z" class="uuid-f8ed5f88-590b-425a-a584-8617ddf7f28c"></path><path d="M82.31,43.89s0,.01,0,.02c.05.08.02.04,0-.02Z" class="uuid-f8ed5f88-590b-425a-a584-8617ddf7f28c"></path><path d="M82.31,43.89c-.03-.05-.08-.15-.13-.23.02.03.04.07.07.13.02.03.04.07.06.1Z" class="uuid-f8ed5f88-590b-425a-a584-8617ddf7f28c"></path><path d="M80.9,41.3c.2.34.38.66.15.3.14.26.81,1.38,1.19,2-.09-.15-.17-.29-.28-.49-.11-.18-.28-.42-.45-.74-.09-.18.08.11.19.29-.26-.42-.35-.63-.72-1.25l.12.23c-.06-.1-.15-.25-.2-.34Z" class="uuid-f8ed5f88-590b-425a-a584-8617ddf7f28c"></path><path d="M82.21,43.58l.02.04c.04.06.12.19.29.45-.09-.17-.17-.3-.23-.41l-.05-.04-.03-.05Z" class="uuid-f8ed5f88-590b-425a-a584-8617ddf7f28c"></path><path d="M82.21,43.63c-.22-.37-.3-.54-.55-.93,0,.03.18.31.27.48-.04-.1.12.21.25.41.03.07.04.09.05.1.03.04.07.1.11.16,0,0,0-.01-.01-.02h0s0,0,0,0c-.03-.05-.05-.07-.03-.05,0,0,0,0,0,0-.03-.05-.06-.1-.08-.14.05.07.06.1.08.14.01.02.02.04.03.06,0,0,0,0,0,0l-.1-.21s-.03-.04-.02.01Z" class="uuid-f8ed5f88-590b-425a-a584-8617ddf7f28c"></path><path d="M81.02,41.83s.04.06.05.09c-.03-.05-.04-.08-.05-.09Z" class="uuid-f8ed5f88-590b-425a-a584-8617ddf7f28c"></path><path d="M81.16,42.05c.03.05.12.2.09.17-.07-.11-.1-.18-.18-.3.06.1.15.27.26.45l-.03-.05c.08.12.37.58.4.63-.2-.33-.34-.57-.54-.89Z" class="uuid-f8ed5f88-590b-425a-a584-8617ddf7f28c"></path><path d="M81.63,42.74l-.09-.19-.2-.32.11.19c-.05-.07.09.17.18.31Z" class="uuid-f8ed5f88-590b-425a-a584-8617ddf7f28c"></path><polygon points="82.4 43.85 82.63 44.24 82.31 43.68 82.4 43.85" class="uuid-f8ed5f88-590b-425a-a584-8617ddf7f28c"></polygon><polygon points="82.39 43.79 82.59 44.13 82.48 43.92 82.39 43.79" class="uuid-f8ed5f88-590b-425a-a584-8617ddf7f28c"></polygon><path d="M80.97,38.92l-.05-.1s.03.06.05.1Z" class="uuid-f8ed5f88-590b-425a-a584-8617ddf7f28c"></path><path d="M80.93,38.92l.1.17c-.05-.09-.09-.16-.1-.17Z" class="uuid-f8ed5f88-590b-425a-a584-8617ddf7f28c"></path><path d="M82.84,43.47c.19.31.49.8.27.42l-.22-.37c.04.07,0,.03-.04-.05Z" class="uuid-f8ed5f88-590b-425a-a584-8617ddf7f28c"></path><path d="M81.84,41.05s-.05-.07-.07-.11c.07.13.14.25.21.36-.04-.08-.09-.16-.14-.25Z" class="uuid-f8ed5f88-590b-425a-a584-8617ddf7f28c"></path><path d="M80.93,39.51l.15.24c-.05-.08-.1-.16-.15-.24Z" class="uuid-f8ed5f88-590b-425a-a584-8617ddf7f28c"></path><path d="M80.91,38.42l-.22-.38s.11.2.22.38Z" class="uuid-f8ed5f88-590b-425a-a584-8617ddf7f28c"></path><path d="M82.51,43.54c.09.14.13.2.15.22-.13-.21-.33-.53-.15-.22Z" class="uuid-f8ed5f88-590b-425a-a584-8617ddf7f28c"></path><path d="M83.31,42.89c-.04-.07-.08-.15-.13-.23.03.07.08.14.13.23Z" class="uuid-f8ed5f88-590b-425a-a584-8617ddf7f28c"></path><path d="M82.67,43.74s-.04-.06-.05-.09c.03.06.06.12.04.1.1.16.16.25.02-.01Z" class="uuid-f8ed5f88-590b-425a-a584-8617ddf7f28c"></path><path d="M81.72,38.36s.02.02.03.04c-.03-.05-.03-.05-.03-.04Z" class="uuid-f8ed5f88-590b-425a-a584-8617ddf7f28c"></path><path d="M84.14,42.02s0,.03,0,.03c.02.02.02.02,0-.03Z" class="uuid-f8ed5f88-590b-425a-a584-8617ddf7f28c"></path><path d="M82.57,43.91s.02.04,0,0h0Z" class="uuid-f8ed5f88-590b-425a-a584-8617ddf7f28c"></path><path d="M81.67,42.44s-.06-.1-.11-.18c.05.09.09.15.11.18Z" class="uuid-f8ed5f88-590b-425a-a584-8617ddf7f28c"></path><path d="M81.33,41.4s0,0,0,0c-.04-.07-.04-.06,0,0Z" class="uuid-f8ed5f88-590b-425a-a584-8617ddf7f28c"></path><path d="M82.46,43.74s.05.08.07.11c-.02-.03-.04-.06-.07-.11Z" class="uuid-f8ed5f88-590b-425a-a584-8617ddf7f28c"></path><path d="M82.56,43.92s-.02-.02-.02-.03c.04.06.06.1.02.03Z" class="uuid-f8ed5f88-590b-425a-a584-8617ddf7f28c"></path><path d="M82.56,43.88s-.01,0-.03-.03c.02.02.03.05.04.06,0,0,0-.02,0-.02Z" class="uuid-f8ed5f88-590b-425a-a584-8617ddf7f28c"></path><path d="M81.98,39.56s.01.02.02.03c-.09-.16-.07-.13-.02-.03Z" class="uuid-f8ed5f88-590b-425a-a584-8617ddf7f28c"></path><path d="M80.65,39.53s0,.01.01.02c0,0,0,0,0,.01l-.02-.03Z" class="uuid-f8ed5f88-590b-425a-a584-8617ddf7f28c"></path><path d="M80.5,39.25c.27.47.23.41.17.32l.64,1.07-.81-1.39Z" class="uuid-f8ed5f88-590b-425a-a584-8617ddf7f28c"></path><path d="M80.99,38.77l-.21-.33c-.31-.56-.19-.37-.48-.84.69,1.17.03.14.72,1.31l-.15-.24s-.03-.06-.02-.05c-.35-.55.49.85.38.69-.06-.09-.16-.25-.24-.39l.16.3s-.14-.22-.12-.2l.04.11-.02-.03c.11.18.27.47.34.59-.1-.17-.07-.13-.16-.27l.16.29c-.19-.3-.35-.6-.32-.56-.7-1.16.16.3-.26-.37l-.08-.15c-.4-.66-.27-.41-.52-.82.13.21.64,1.03.8,1.32-.06-.09-.08-.12.05.11-.25-.42-.19-.31-.19-.28l-.33-.55c.09.16.25.44.39.69-.04-.05-.3-.47-.51-.83-.07-.08.42.68.46.79-.14-.2-.01.03.17.37-.12-.18-.2-.34-.29-.49l.25.44s-.09-.14-.13-.21c.09.17.33.55.4.71.36.61-.55-.87-.15-.18-.1-.15-.2-.34-.33-.55.25.46.18.34.53.95l-.23-.35c.25.41.53.9.76,1.31.12.2.23.37.28.45l.16.3c-.06-.09-.17-.28-.3-.51.03.05.05.09.08.13-.13-.2-.31-.52-.49-.83.07.11.14.22.21.34-.19-.34-.41-.71-.6-1.03.04.06.07.12.08.15-.05-.09-.1-.17-.13-.23-.03-.06.04.07.12.21l-.37-.61.14.24-.25-.37c.35.63.88,1.54,1,1.81-.26-.45-.43-.74-.75-1.27.34.56-.12-.25-.04-.14-.04-.06-.19-.31-.24-.4l.28.53c-.26-.44-.2-.32-.31-.5.52.86.32.58.47.85-.17-.29-.35-.59-.29-.52-.4-.64.58,1.02.25.48,0,0,.03.04-.06-.11.15.26,0,.07-.14-.19h0c-.08-.1-.06.02.37.75-.06-.1-.52-.88-.61-1.03l1.43,2.48c-.37-.63-1.27-2.12-1.47-2.48-.06-.09-.12-.19,0,.04.06.09.55.9.58.96-.43-.69-.23-.37-.6-.96.08.13.66,1.12.64,1.09-.09-.15-.58-.97-.64-1.08l.56.98c-.1-.18-.49-.82-.65-1.09.11.19-.03,0,.03.09l.14.22c-.11-.13.79,1.37.74,1.33-.12-.2-.72-1.23-.81-1.35.29.5,1.39,2.39,1.6,2.79l-.17-.28.18.33c-.43-.75-1.34-2.33-1.69-2.95-.14-.22-.2-.33-.2-.3-.16-.26-.23-.41-.24-.42l-.13-.16c.34.58.32.59.61,1.07l-.33-.62c.34.58.96,1.65.88,1.56-.14-.23-.61-1.03-.72-1.22.12.2.21.39.12.25l-.18-.31c-.14-.21.44.78.1.23-.03-.03-.45-.74-.25-.39.4.66,1.61,2.69,1.9,3.19-.03-.04-.4-.62-.59-.94-.31-.51-.72-1.24-.99-1.68.09.16.21.36.24.42-.08-.13-.29-.49-.26-.41.35.59-.05-.04.29.5.09.17-.08-.12-.08-.08.23.38.76,1.29.85,1.47-.09-.15-.21-.34-.26-.43-.05-.04-.22-.3-.24-.3-.09-.14-.2-.31-.34-.56.06.11.17.31.18.32-.31-.5-.03-.09-.4-.69.2.34.27.48.38.7.31.52.08.09-.04-.13.43.73.87,1.49,1.05,1.84.09.19-.28-.46-.23-.36-.1-.11.73,1.28.39.77-.28-.46-.55-.92-.75-1.25-.09-.18.19.28.19.26l-.14-.21c-.09-.16-.15-.28-.06-.15-.25-.41-.09-.05-.34-.42.09.16.18.32.29.51l-.03-.07c.23.37.29.52.41.69.15.27.38.69.24.48l-.32-.53c.09.15.19.31.1.15.13.24-.44-.7-.04,0l.23.36c.15.27.47.84.36.68.31.52-.03-.06.34.54-.46-.75.05.01-.44-.77.43.7.19.29.56.89-.1-.17-.2-.33-.14-.25-.03-.05-.07-.12-.09-.15,0,0,0,0,0,.01,0,0,0-.01-.01-.02-.02-.03-.02-.03,0,0-.05-.08-.1-.17-.16-.26-.23-.4-.21-.4-.33-.61.05.08.12.2.23.38l-.18-.31c.23.39.4.63.52.87h.02c.14.22.2.3.11.14.06.08-.24-.44-.06-.13l-.12-.25.06.1s-.34-.66.09.02c-.05-.1-.12-.22-.04-.12l.2.33c-.06-.12.22.32.02-.03.54.89.16.17.26.32l-.26-.44s-.04-.11-.13-.29l-.23-.38c-.18-.32.19.26.18.21.09.15.06.11,0,.02.54.86-.33-.66.06-.03-.08-.14-.05-.1.01,0,0,0,0,0,.01.02,0,0,0,0,0,0,.04.07.09.14.13.2-.06-.09-.11-.17-.13-.2,0,0-.02-.06-.08-.16l.25.41s0,0,0-.01c.1.15-.11-.2-.3-.51-.04-.07-.08-.15-.14-.25.4.67-.12-.23.31.48-.2-.35-.13-.28-.56-1.01.06.1.09.14.09.15.06.08.11.16,0-.05l.31.52-.41-.71c.2.32.31.5.54.91-.35-.63-.12-.24-.48-.87l.2.34s-.26-.48-.09-.2c.4.64.11.05.5.64-.6-1,.28.44-.18-.34.14.24.23.37.34.58-.12-.24.25.36-.13-.3.14.24.2.35.29.49-.03-.05-.12-.21-.03-.07.09.14.12.2.17.3,0-.05-.44-.78-.85-1.47.2.32.18.27-.08-.18.14.22.28.45.32.54.03.03.23.31-.1-.24.08.14.03.04,0-.03.03.03.06.07.04.01l-.06-.09c-.39-.67-.08-.15-.11-.24l.04.07c.31.46-.13-.23.22.3l-.25-.41c-.52-.89.33.51.14.16l-.14-.23c-.17-.31.74,1.19.81,1.3.05.08.07.12.1.18.33.51-.32-.54-.38-.68.18.29.44.74.48.79.15.23-.53-.96-.19-.41-.14-.22-.27-.44-.37-.62-.04-.09.53.83.12.12.04.06.07.12.11.18-.1-.19-.15-.32-.38-.71.85,1.42-.36-.72.42.59l-.02-.08.08.13c.07.08-.11-.24-.3-.56.06.09.13.21.17.28.18.25.15.19-.22-.47l.26.43c-.14-.25.43.65.16.14.03.05.08.13.11.19-.27-.51.76,1.15-.15-.41l-.21-.39c-.09-.11-.4-.68-.56-.93-.05-.1.3.46.34.54l-.05-.08c.48.81.2.27.52.82.02-.07.32.36.38.37l-.38-.63.04.03c.09.14.3.49.27.47.22.35-.16-.31-.24-.44.17.24.43.74.44.75l-.02-.05-.05-.07c-.15-.26-.31-.53-.28-.51.08.12.23.39.25.41.03.05.04.07.02.02l.05.04-.3-.49c-.14-.25.03.02-.31-.54.53.86.25.27.42.54-.2-.37-.19-.37-.15-.33-.06-.1-.4-.66-.35-.6.68,1.15.32.49.82,1.31-.33-.54-.05-.15-.52-.93.06.09.26.43.42.7-.24-.46.22.26.16.09-.09-.15-.23-.38-.36-.61l.46.75c-.04-.08-.51-.88-.19-.36-.08-.13-.19-.32-.22-.37.49.7-.25-.67.63.68-.18-.29-.19-.32-.19-.33-.04-.07-.22-.37-.34-.58l.36.56c-.33-.57,0-.05-.32-.6l.05.1c-.37-.65-.86-1.42-1.35-2.24.42.74-.67-1.06-.07,0-.1-.17-.15-.27-.27-.46.21.36.24.43.14.28l-.05-.09c.02.1-.2-.24-.37-.45l.24.41c-.04-.05-.12-.18-.18-.28.36.62.04.02.44.71-.5-.82-.06.02-.62-.92-.01,0,.28.47.27.47l-.15-.25.19.33c-.04-.05-.23-.37-.36-.58.02.02-.03-.06-.04-.08-.19-.29.04.12-.03.02l.1.15c.11.26-.12-.06.16.48l.12.19c.19.37-.14-.2-.07-.02l-.03-.05c.11.19.16.29.14.28-.13-.23-.27-.43-.41-.69.2.4.17.31.58,1.03l-.19-.32c.17.29.26.44.29.53-.15-.28-.3-.48-.5-.85-.44-.68.38.73-.23-.29.51.89.31.48.42.67.18.29.38.67.32.58-.02-.02-.68-1.12-.69-1.09,0,0-.04-.06-.03-.06-.14-.22.17.31-.06-.05.31.54-.03-.02.37.66l-.08-.17c.1.18.56.99.31.61-.08-.14-.18-.32-.24-.42-.12-.2.07.14-.06-.06-.4-.68-.07-.16-.36-.69-.18-.28.27.51-.16-.24.55.94-.09-.11.32.62l-.24-.41c.04.07.15.26.14.25l-.31-.53c.26.46-.26-.38-.12-.13.01-.02.3.49.48.78.3.56-.65-1.06-.56-.84-.03-.06.16.24.27.43-.06-.08-.16-.23-.29-.45.03.1.25.42.39.67-.3-.49.11.21.2.37l-.25-.41c-.18-.25.51.87.3.56l-.33-.58.08.15-.28-.47c.2.36.14.27.05.14.18.29.45.75.44.77-.15-.24-.23-.4-.21-.33-.15-.26-.34-.59-.11-.21-.08-.14-.15-.26-.23-.4-.18-.28-.06-.05-.06-.05.01.01.03.04.06.09l.32.59c-.1-.15-.17-.28-.24-.41.02.05.13.24.15.28-.2-.34-.41-.69-.49-.85l.2.39c-.09-.15-.25-.4-.32-.52-.13-.19.36.67.19.42.04.07.07.13.1.18-.06-.07-.32-.47-.06,0l-.37-.6c.07.14.46.75.58.99.1.2-.31-.51-.42-.68.17.31.53.94.22.45-.06-.12,0-.03-.03-.08ZM80.99,39.13c-.05-.09-.2-.36-.05-.12.28.48.14.25.05.12ZM81.35,40.27c-.08-.14-.04-.07.06.08.02.04,0,.02-.06-.08ZM82.41,43.54s0-.01-.01-.02c.1.16.06.09.01.02ZM82.29,43.37c.03.06.07.12.1.17-.06-.1-.06-.11-.04-.09-.07-.11-.11-.18-.06-.09ZM83.68,42.32l-.07-.11c-.06-.12,0-.01.07.11Z" class="uuid-f8ed5f88-590b-425a-a584-8617ddf7f28c"></path><path d="M81.04,39.68c.04.07.09.15.14.22-.04-.07-.09-.15-.14-.22Z" class="uuid-f8ed5f88-590b-425a-a584-8617ddf7f28c"></path><path d="M80.95,38.49s0,0,0,0c-.01-.02-.03-.05-.04-.08l.04.07Z" class="uuid-f8ed5f88-590b-425a-a584-8617ddf7f28c"></path><path d="M80.42,39.73c.04.06.08.13.13.21-.06-.1-.11-.19-.13-.21Z" class="uuid-f8ed5f88-590b-425a-a584-8617ddf7f28c"></path><path d="M82.63,44.12l-.06-.11s-.05-.07-.09-.13c.06.1.14.24.14.24Z" class="uuid-f8ed5f88-590b-425a-a584-8617ddf7f28c"></path><path d="M81.03,41.6c.03.05,0,0,.03.06l.11.19s-.09-.17-.15-.25Z" class="uuid-f8ed5f88-590b-425a-a584-8617ddf7f28c"></path><path d="M81.81,42.75c-.21-.35-.14-.23-.11-.16,0,0,0,0,0,0,.29.49.2.32.11.16Z" class="uuid-f8ed5f88-590b-425a-a584-8617ddf7f28c"></path><path d="M81.7,42.6s.01.03,0,.01c.12.2.03.04,0-.01Z" class="uuid-f8ed5f88-590b-425a-a584-8617ddf7f28c"></path><path d="M82.41,43.61c-.06-.09.26.45.18.31.26.45-.3-.55-.18-.31Z" class="uuid-f8ed5f88-590b-425a-a584-8617ddf7f28c"></path><polygon points="81.12 41.6 81.38 42.03 81.17 41.68 81.12 41.6" class="uuid-f8ed5f88-590b-425a-a584-8617ddf7f28c"></polygon><path d="M81.36,41.89l-.08-.11c.04.07.07.11.08.15.02.01.07.09,0-.03Z" class="uuid-f8ed5f88-590b-425a-a584-8617ddf7f28c"></path><path d="M81.36,41.92s0,0,.03.08c0,0,0-.02-.03-.08Z" class="uuid-f8ed5f88-590b-425a-a584-8617ddf7f28c"></path><polygon points="81.06 41.46 81.11 41.55 81.14 41.58 81.06 41.46" class="uuid-f8ed5f88-590b-425a-a584-8617ddf7f28c"></polygon><path d="M81.51,41.91l-.06-.13c-.09-.15-.14-.24-.11-.18.06.1.09.16.17.31Z" class="uuid-f8ed5f88-590b-425a-a584-8617ddf7f28c"></path><path d="M80.78,40.75c.06.09.11.18.2.32l-.32-.53.12.21Z" class="uuid-f8ed5f88-590b-425a-a584-8617ddf7f28c"></path><path d="M80.74,40.6c-.09-.15-.24-.43-.23-.39.09.15.15.28.23.39Z" class="uuid-f8ed5f88-590b-425a-a584-8617ddf7f28c"></path><polygon points="81.3 41.18 81.3 41.19 81.82 42.07 81.3 41.18" class="uuid-f8ed5f88-590b-425a-a584-8617ddf7f28c"></polygon><path d="M80.2,39c-.14-.2.32.54.15.29.12.21.14.21.24.39-.12-.22-.05-.1-.39-.68Z" class="uuid-f8ed5f88-590b-425a-a584-8617ddf7f28c"></path><path d="M80.59,39.68s.04.08.07.13c-.03-.06-.05-.1-.07-.13Z" class="uuid-f8ed5f88-590b-425a-a584-8617ddf7f28c"></path><polygon points="84.45 42.47 84.57 42.65 84.39 42.36 84.45 42.47" class="uuid-f8ed5f88-590b-425a-a584-8617ddf7f28c"></polygon><path d="M84.08,41.81l.33.56-.29-.51s.04.08-.04-.05Z" class="uuid-f8ed5f88-590b-425a-a584-8617ddf7f28c"></path><path d="M80.3,38.02l.08.13c.09.14.1.15.11.17l-.19-.31Z" class="uuid-f8ed5f88-590b-425a-a584-8617ddf7f28c"></path><polygon points="80.66 38.37 80.65 38.36 80.95 38.86 80.66 38.37" class="uuid-f8ed5f88-590b-425a-a584-8617ddf7f28c"></polygon><path d="M80.37,37.67s.05.1.03.08c-.05-.1.35.55-.03-.08Z" class="uuid-f8ed5f88-590b-425a-a584-8617ddf7f28c"></path><path d="M7.78,154.02c-.55-.15-.42.3-.52.36.94.1.52-.47.52-.36Z" class="uuid-f8ed5f88-590b-425a-a584-8617ddf7f28c"></path><path d="M18.22,152.71l-.14.26c.55-.39.52-.54.76-.72.06-.05.15-.1.23-.15-.09.04-.18.09-.24.13-.09.06-.18.12-.26.2l-.11.11s-.16.12-.24.18Z" class="uuid-f8ed5f88-590b-425a-a584-8617ddf7f28c"></path><path d="M26.66,150.07c-.54-.16-1.29.2-2.2.57-.87.33-1.77.72-2.58.81l-.3-.09-.53.74c.92-.3,1.97-.7,2.95-1.05,1.02-.35,2.01-.81,2.67-.98Z" class="uuid-f8ed5f88-590b-425a-a584-8617ddf7f28c"></path><path d="M31.4,149.59c-.36-.17.86-.56-1.04.28.11,0,.14,0,.21,0,.17-.07.42-.15.84-.28Z" class="uuid-f8ed5f88-590b-425a-a584-8617ddf7f28c"></path><path d="M30.57,149.86c-.85.32.64.02,0,0h0Z" class="uuid-f8ed5f88-590b-425a-a584-8617ddf7f28c"></path><path d="M33.58,148.17s-.03.02-.03.03v.02s-.04-.24-.04-.24c-.07-.37-.11-.57-.18-.76-.1-.33-.2-.43-.16-.38-.05-.05.06,0,.22.59.15.57.24,1.5.13.63.02.16.04.31.06.46l.02.2h0s.02-.03.04-.04c.04-.01,0-.02.11-.03.14-.01.27-.03.39-.06.25-.05.5-.12.75-.22.24-.1.44-.22.43-.24,0-.03-.19.04-.41.09-.22.05-.45.07-.65.07-.19,0-.4-.01-.58-.04-.04-.03-.08-.06-.11-.09Z" class="uuid-f8ed5f88-590b-425a-a584-8617ddf7f28c"></path><path d="M35.65,145.96c.06.05.06.04.18.13l.08.04.04.02h.02s0,.01,0,.01h0s0,0,0,0h0s.22.12.22.12h0s0,.01,0,.01v.02c-.45.78-.89.96-1.11,1.1-.24.12-.4.18-.53.22.15-.03.32-.04.74-.27.22-.15.53-.3.92-.94l.03-.06.02-.03h0s0-.02,0-.02l-.29-.15h0s0,0,0,0h-.02s-.04-.02-.04-.02c-.05-.02-.1-.06-.17-.1-.03-.02-.07-.04-.1-.08Z" class="uuid-f8ed5f88-590b-425a-a584-8617ddf7f28c"></path><path d="M33.24,146.96c.04.09.11.28.17.52.04.12.07.33.09.42,0,0,0-.02.02-.03.03-.02.07-.04.14-.06-.01,0,.16-.02.31-.04.15-.02.32-.05.58-.13-.42.04-.52-.05-.73-.05-.04,0-.12,0-.15,0-.02,0-.03.02-.05.04-.04.04-.08.11-.1.21.01-.11-.01-.11-.03-.06.04.34-.13-.64-.25-.81Z" class="uuid-f8ed5f88-590b-425a-a584-8617ddf7f28c"></path><path d="M33.38,147.02s.1.07.15.1l.51.33-.1.14c-.07.1-.14.17-.21.24-.14.15-.27.25-.39.33-.47.32-.72.37-.89.42-.17.04-.25.05-.27.04-.05,0-.12,0-.16,0-.08,0-.11-.04-.06-.11.02-.03.1-.09.14-.13.05-.06.17-.08.64-.36-.39.18-.72.33-1,.45-.19.09-.34.17-.45.24-.22.14-.29.24-.23.28.06.04.26.04.57-.04.16-.04.34-.09.56-.16.05-.02.15-.03.55-.21.19-.1.48-.22.9-.62.11-.11.21-.22.33-.39l.08-.12-.53-.36-.03-.02s-.09-.06-.12-.09Z" class="uuid-f8ed5f88-590b-425a-a584-8617ddf7f28c"></path><path d="M26.79,149.21l-.95.17-.68.52c.36-.25,1.77-.51,1.63-.7Z" class="uuid-f8ed5f88-590b-425a-a584-8617ddf7f28c"></path><path d="M42.25,144.5c0-.19-.79.12-1.01.02-.34.3-.68.56-1.01.79.3-.09.73-.27,1.14-.47.41-.19.76-.39.88-.34Z" class="uuid-f8ed5f88-590b-425a-a584-8617ddf7f28c"></path><path d="M41.24,144.51c.51-.46.99-1,1.38-1.64-.64.77-1.06,1.08-1.27,1.31-.21.21-.21.3-.12.34Z" class="uuid-f8ed5f88-590b-425a-a584-8617ddf7f28c"></path><path d="M35.49,145.79c.02.06.04.09.07.14,0,.03.03,0,0,.07-.28.5-.55.64-.72.76-.18.11-.29.15-.4.19-.37.13-.53.15-.74.19-.18.05-.25.1-.3.16-.03,0-.02.1-.03.03-.06-.18-.09-.29-.14-.37.04.08.12.3.15.42,0-.02.01-.05.06-.08.12-.08.06-.06.79-.21.09-.02.18-.05.32-.11.14-.06.31-.12.61-.37.09-.08.17-.16.25-.26.05-.06.09-.13.13-.19.03-.05.1-.18.08-.15h0s0-.02,0-.02c-.02-.03-.02-.04-.04-.07-.02-.04-.04-.09-.01-.16-.04.02-.05.04-.07.05Z" class="uuid-f8ed5f88-590b-425a-a584-8617ddf7f28c"></path><path d="M45.31,142.69l-.23.06-.12.03h-.06s-.03.02-.03.02h0s0,0,0,0l-.19-1.57h0s0,.02,0,.02v.03s.04.13.04.13c.03.09.04.08.09.24.05.13.11.25.19.36-.28-.47-.32-.76-.32-.76h0s0-.01,0-.01h0c-.17-1.45.24,1.97.2,1.62h0s.01,0,.01,0h.03c.14-.03.29-.06.43-.1.26-.08.5-.19.68-.28.39-.22.58-.4.76-.57.15-.15.25-.29.31-.38.05-.09,0-.06,0-.1v.06c-.05.08-.12.17-.24.3-.24.23-.59.63-1.55.93Z" class="uuid-f8ed5f88-590b-425a-a584-8617ddf7f28c"></path><path d="M49.04,140.37c-.34.54.93.02.5.48.79-.54,1.26-1.06,2.05-1.93-.9.84-1.5,1.08-2.55,1.45Z" class="uuid-f8ed5f88-590b-425a-a584-8617ddf7f28c"></path><path d="M52.44,137.85c-.12.14-.24.3-.36.47-.07.09-.1.16-.19.27-.1.11-.2.22-.3.34.48-.43.61-.68.85-1.07Z" class="uuid-f8ed5f88-590b-425a-a584-8617ddf7f28c"></path><path d="M44.3,142.44c.09,0,.2,0,.39-.04.15-.02.41-.12.48-.09-.09-.12-.25-.17-.44-.21-.13.1-.28.22-.42.34Z" class="uuid-f8ed5f88-590b-425a-a584-8617ddf7f28c"></path><path d="M44.7,142.1h.02c.18-.13.23-.15.24-.16-.07-.1-.18-.36-.2-.43-.03-.07-.05-.13-.06-.17.03.08.03.15.25.57.03.07-.04.02-.24.19Z" class="uuid-f8ed5f88-590b-425a-a584-8617ddf7f28c"></path><path d="M44.15,142.55c.05-.04.09-.07.14-.11-.08,0-.12.02-.14.11Z" class="uuid-f8ed5f88-590b-425a-a584-8617ddf7f28c"></path><path d="M38.53,145.12c.32-.26.9-.65,1.17-.95.27-.31.18-.41-.69-.2-.43.51.53.32-.48,1.15Z" class="uuid-f8ed5f88-590b-425a-a584-8617ddf7f28c"></path><path d="M42.95,142.68c-.4.19-.92.33-1.43.33-.26.01-.5-.02-.74-.06l-.09-.02h-.01s0,0,0,0c-.07.39.6-3.36.32-1.78h0s0,.02,0,.02c0,.01.02.04.03.06.08.11.23.24.55.49l.78.57s-.01.01-.02.03l-.08.1c.11.04.49-.2.21.37.06-.09.11-.17.15-.27l.02-.03s0,0,0,0h0l-.08-.06-.19-.13-.51-.37-.31-.23c-.33-.25-.47-.4-.53-.49-.01-.02-.02-.04-.02-.05h0s0,0,0,0c-.74,4.13-.2,1.14-.37,2.07h.02s.03,0,.03,0h.1s.21,0,.21,0c.14,0,.28,0,.42-.02.58-.05,1.14-.28,1.54-.54Z" class="uuid-f8ed5f88-590b-425a-a584-8617ddf7f28c"></path><path d="M43.79,141.98c-.2.21-.46.46-.84.7.31-.14.55-.29.76-.43.04-.1.05-.18.08-.27Z" class="uuid-f8ed5f88-590b-425a-a584-8617ddf7f28c"></path><path d="M49.91,139.17c.33-.37,1.33-1.14,1.83-1.58-.41.26-.82.53-1.23.8l-.33.22-.28.15c-.18.1-.36.21-.53.31-.03.17-.21.56.54.1Z" class="uuid-f8ed5f88-590b-425a-a584-8617ddf7f28c"></path><path d="M47.21,140.64s.08-.06.11-.09c-.09.01-.16.04-.11.09Z" class="uuid-f8ed5f88-590b-425a-a584-8617ddf7f28c"></path><polygon points="57.9 133.12 57.74 133.14 57.77 133.21 57.9 133.12" class="uuid-f8ed5f88-590b-425a-a584-8617ddf7f28c"></polygon><path d="M49.21,139.08c-.58.25-.84.53-1.08.82.38-.27.79-.55,1.24-.82.01-.08,0-.12-.16,0Z" class="uuid-f8ed5f88-590b-425a-a584-8617ddf7f28c"></path><path d="M53.93,136.4c-.3.13-.63.29-.97.47.33-.09.95-.31.97-.47Z" class="uuid-f8ed5f88-590b-425a-a584-8617ddf7f28c"></path><path d="M47.56,140.54s-.04.04-.07.06c.22-.03.18-.05.07-.06Z" class="uuid-f8ed5f88-590b-425a-a584-8617ddf7f28c"></path><path d="M47.56,140.54c.24-.22.4-.43.57-.64-.31.22-.59.44-.81.65.08-.01.17-.01.24,0Z" class="uuid-f8ed5f88-590b-425a-a584-8617ddf7f28c"></path><path d="M57.98,129.52c.17.36-.86,1.72-2.26,2.23-.93,1.08.52,1.61,2.03,1.39-.07-.16-.16-.29.83-1.39-.51.17-2.9,1.62-2.12.57,1.41-1.35,1.32-.87,2.19-1.3-.93.12,1.43-2.09.63-2.37l-1.13,1.24c-.1-.07.26-.58-.17-.37Z" class="uuid-f8ed5f88-590b-425a-a584-8617ddf7f28c"></path><path d="M55.21,134.9l-.51.33c.28-.11.6-.21,1.02-.37.19-.07.38-.15.6-.23.19-.07.4-.14.64-.22.75-.8.83-1.05.8-1.2l-1.27.92-.65.46c-.3.2-.58.34-.81.46l.17-.16Z" class="uuid-f8ed5f88-590b-425a-a584-8617ddf7f28c"></path><path d="M52.87,136.61c.09-.62,1.07-1.64.12-1.48-1.32,1.09-.72,1.04-1.4,1.82,2.08-1.8-.47.68,1.23-.36-.38.39-.74.71-1.08,1.01.42-.27.83-.51,1.23-.73-.03,0-.04.01-.07.02h0s0,0,0,0c-.12.03-.18.03-.05-.03,0,0,.03-.03.04-.04-.02-.06-.01-.13,0-.21.67-.42.17.01,0,.21,0,.02,0,.05.01.07h.01s1-.95,1-.95l.25-.24.12-.12.05-.06c.08-.08.21-.18.38-.29-.12.05-.23.1-.33.15-.12.07-.11.05-.31.22-.32.26-.71.59-1.2,1.01Z" class="uuid-f8ed5f88-590b-425a-a584-8617ddf7f28c"></path><path d="M39.95,142.39c.09-.02.11,0,.13.03.12-.16.15-.23-.13-.03Z" class="uuid-f8ed5f88-590b-425a-a584-8617ddf7f28c"></path><path d="M41.01,141.74c-.1.2-.09.5-.7.93-.59.27-.12-.17-.23-.26-.25.33-1.12,1.08.18.51l.15-.18c.28-.17.58-.36.87-.58.14-.11.3-.24.41-.33,0,0,.01,0,.01,0,0,0,.01,0,0,0l-.14-.1c-.18-.14-.29-.23-.38-.32-.08-.07-.14-.15-.16-.19-.01-.02-.02-.04-.01-.04h0s0,0,0,0c-.08.45.18-1-.18,1h0s0,0,0,0h.02c.1.04.19.07.29.1.79.22,1.4.05,1.23.16-.33-.09-.64-.19-.97-.35-.17-.07-.33-.18-.5-.28h-.02s0-.01,0-.01h0c-.1.56.14-.77.11-.63h0s0,0,0,0h0s.01.04.03.07c.04.06.11.14.23.24.2.17.09.07.1.1-.02,0-.03,0-.05.02-.09.05-.18.1-.29.15Z" class="uuid-f8ed5f88-590b-425a-a584-8617ddf7f28c"></path><path d="M46.85,139.41l1.89-1.37-1.21.29.17.16c-1.18.6-.8.69-.85.92Z" class="uuid-f8ed5f88-590b-425a-a584-8617ddf7f28c"></path><polygon points="58.25 133.11 58.28 133.67 58.96 132.3 58.25 133.11" class="uuid-f8ed5f88-590b-425a-a584-8617ddf7f28c"></polygon><polygon points="60.63 131.11 60.8 131.48 61.28 130.78 60.63 131.11" class="uuid-f8ed5f88-590b-425a-a584-8617ddf7f28c"></polygon><path d="M65.29,23.12l-.49.5c.24-.22.39-.38.49-.5Z" class="uuid-f8ed5f88-590b-425a-a584-8617ddf7f28c"></path><path d="M68.1,17.14l-.19-.13c.1.23.18.33.19.13Z" class="uuid-f8ed5f88-590b-425a-a584-8617ddf7f28c"></path><path d="M95.53,66.8c.25-.3.47-.63.66-.98.6-1.36.78-1.94.46-1.88l-.45.33c.02.42-.05,1.04-.18,1.5-.12.4-.29.74-.48,1.03Z" class="uuid-f8ed5f88-590b-425a-a584-8617ddf7f28c"></path><path d="M77.8,19.62c.02.1.04.21.06.32.26.11.51.21.73.31-.24-.19-.51-.39-.79-.63Z" class="uuid-f8ed5f88-590b-425a-a584-8617ddf7f28c"></path><path d="M75.88,19.94c-.18-.47-.32-.94-.45-1.41.05.33.18.79.45,1.41Z" class="uuid-f8ed5f88-590b-425a-a584-8617ddf7f28c"></path><path d="M49.62,40.37l.4.81c.06-1.23-.19-.7-.4-.81Z" class="uuid-f8ed5f88-590b-425a-a584-8617ddf7f28c"></path><path d="M80.45,107.04c.29-.19.79-.73.98-.94.25-.27.46-.53.66-.78-.42.37-.83.67-1.12.93-.39.39-.58.58-.51.79Z" class="uuid-f8ed5f88-590b-425a-a584-8617ddf7f28c"></path><path d="M63.33,18.82c-.05.17-.06.26.02.33.12-.17.1-.3-.02-.33Z" class="uuid-f8ed5f88-590b-425a-a584-8617ddf7f28c"></path><path d="M83.53,103.31c-.12.09-.22.19-.33.29-.25.5-.64,1.12-1.12,1.73.6-.52,1.29-1.27,1.44-2.02Z" class="uuid-f8ed5f88-590b-425a-a584-8617ddf7f28c"></path><path d="M24.63,130.27c-.07.03-.14.07-.21.1.02.06.1,0,.21-.1Z" class="uuid-f8ed5f88-590b-425a-a584-8617ddf7f28c"></path><path d="M.02,146.56c-.01-.2-.04-.44.03-.9.06-.4.19-.81.43-1.24-.13.21-.27.48-.36.84-.11.35-.14.92-.09,1.3Z" class="uuid-f8ed5f88-590b-425a-a584-8617ddf7f28c"></path><path d="M69.45,122.21c-.41.5-.03.11,0,0h0Z" class="uuid-f8ed5f88-590b-425a-a584-8617ddf7f28c"></path><path d="M66.08,123.45c.06-.14.08-.26.02-.34.04.11.03.23-.02.34Z" class="uuid-f8ed5f88-590b-425a-a584-8617ddf7f28c"></path><path d="M84.44,96.18s.02-.03.03-.05c-.16.13-.13.11-.03.05Z" class="uuid-f8ed5f88-590b-425a-a584-8617ddf7f28c"></path><path d="M68.66,122.81c.2-.15.42-.33.65-.53-.11.08-.31.24-.65.53Z" class="uuid-f8ed5f88-590b-425a-a584-8617ddf7f28c"></path><path d="M68.9,122.85c-.16.16-.29.28-.41.39,0,.11.08.08.41-.39Z" class="uuid-f8ed5f88-590b-425a-a584-8617ddf7f28c"></path><path d="M70.03,121.52c-.24.28-.48.52-.73.75.11-.07.16-.1.15-.06.12-.15.29-.35.58-.69Z" class="uuid-f8ed5f88-590b-425a-a584-8617ddf7f28c"></path><path d="M48.97,85.33s-.02.09-.04.14c.16.66.14.37.04-.14Z" class="uuid-f8ed5f88-590b-425a-a584-8617ddf7f28c"></path><path d="M91.13,49.64s.02.04.03.06c0-.03,0-.06,0-.08l-.03.03Z" class="uuid-f8ed5f88-590b-425a-a584-8617ddf7f28c"></path><path d="M90.13,47.52c.14.22.29.4.41.57.17.21.25.3.33.42.08.11.13.23.17.35.08.24.1.48.11.76.36-.31.71-.63,1.05-.97-.24-.11-.47-.22-.7-.31-.24-.1-.46-.15-.73-.32-.21-.15-.44-.31-.64-.49Z" class="uuid-f8ed5f88-590b-425a-a584-8617ddf7f28c"></path><path d="M54.98,30.15c.08,0,.26-.04.44-.08l.51-.12c.33-.09.65-.18.97-.28-.43.42-.91.78-1.36,1.05-.13.08-.19.12-.23.15-.05.04-.1.07-.14.11-.08.07-.15.13-.21.18-.2.21-.14.26.41.3-.05-.16-.03-.31.05-.45.13-.16.48-.38.79-.59.67-.42,1.47-.92,2.17-1.4,1.34-.96,2.62-1.94,2.33-2.56l1.06-.4c-.26.17-.26.27-.52.44,2.13-.72.69-1.72,2.99-3.17.82-.48,1.47-.71,1.05-.2.19-.21.71-.67,1.08-1.02.36-.37.68-.72.88-1.18.23-.39.32-.54.36-.46.03.07,0,.38-.27.76.45-.7.57-1.51.55-2.34l-.03-1.89.04.02c-.21-.46-.52-1.5-.65-2,.21-.81.14.41.31.2l-.3-1.77c.36-.72.68.75.61,1.97.69-.82.61-1.19.46-1.79-.15-.61-.34-1.43,0-3.29l.21,1.73c.74-1.12.46-2.49.84-4.49-.19.5-1.1,4-1.48,2.02.04-.28.07-.6.06-.99,0-.39-.09-.83-.3-1.35.24-.02.3-.29.28-.72-.01-.21-.04-.46-.08-.74-.02-.11-.05-.24-.07-.37l.65.09c-.11-.15-.27-.28-.43-.42-.15-.13-.33-.26-.48-.5.04-.3.32-.34.55-.23.24.11.47.33.67.54.21-.01.05-.22-.2-.45-.12-.11-.27-.22-.33-.34-.06-.11-.03-.27.25-.33.47.13.71.28,1.06.29.09,0,.18.01.28.02.1,0,.34.07.5.11.36.09.71.22.98.32.19.31.05.35-.07.35-.13,0-.27,0-.27.12.24-.02.51.03.73.15.03.15-.14.16-.22.17.07.09.13.13.21.15.24.11.47-.27.81.99.77.31-.45,3.57.68,5.41-.09.54-.43-.18-.65.02.5,1.4.78,2.09,1.09,2.65.32.59.59.92,1.36,1.93.12.68.27,1.37.46,2.07-.22-1.62,1.07,0,2.37,1.09-.09-.56-.13-1.03-.18-1.33.5.7,1.06,1.26,1.66,1.91.1.32-.23.23-.69.05.14.11.28.22.4.29.34.89-.23.72-.9.39-.08-.33-.15-.67-.22-1-.69-.3-1.38-.65-1.63-.34.16.12.39.39.64.69-.19-.09-.33-.14-.34-.03,0,.12.28.3.68.57l-.23.9.31-.05,1.6,3.02c.98.78,2.08,1.38,3.19,2.18.14.1.28.2.42.31l.1.07s.03,0,.05,0c.04.01.07.05.11.08.07.1.13.14.17.33.04.22.11.44.19.66.18.43.46.81.79,1.12.34.32.69.59,1.02.93-1.01-.34-.75.44-1.24.83,0-.58-.88-1.07-1.47-2.34-.14-.32-.24-.67-.3-1.03l-.02-.13v-.07s-.01-.03-.01-.03v-.02s0,0,0,0h0c.19,0-.42-.01.42,0h-.01c-.12,0-.21,0-.28.01-.14.02-.13.03-.01-.01.06-.02.14-.06.23-.1l.14-.08.07-.05.03-.02h0c-.28.21.62-.47-.62.46h0s0,0,0,0h0s-.25-.28-.25-.28c-.16-.19-.32-.38-.46-.59.59.86.21.86-.03.71l.34.31.08.08h.01s0,.01,0,.01h0s0,0,0,0c-.2.15,1.77-1.33.94-.7h0s-.04.03-.04.03l-.08.06c-.11.07-.23.12-.31.16-.17.07-.17.04.05.02h.19s.03,0,.03,0c.17,0-1.48-.03-.78-.01h0s0,0,0,0h0s0,.02,0,.02v.05s.02.09.02.09c.01.12.04.25.06.38.19,1.05.85,1.93,1.43,2.42-.24.11-.1.41.08.69.15.26.41.58.62.97.15-.58.69-.23,1.34.38.15.14.37.35.45.45.1.12.19.27.33.49.12.21.28.47.47.72.18.24.39.44.58.58-.09.15-.26.23-.63-.02-.18-.12-.39-.35-.61-.68-.19-.28-.37-.63-.46-.8-.03.28.12.67.45,1.09.17.21.35.39.56.53.21.15.42.26.54.28.07.02.12.02.17.02.03,0,.04-.01.06-.01.02,0,0,0,.04-.02l.14-.08c.32-.18.38-.12.23-.13-.05,0-.28-.05-.2-.02h0s0,.02,0,.02l-.04.12c-.02.07-.03.14-.04.2,0,.1,0,.19,0,.28.12.5.22.51.28.64.07.1.13.17.19.24.07.08.14.15.15.17.05.07.08.14.07.2-.04-.04-.07-.07-.1-.1-.08-.07-.15-.14-.22-.2-.09-.09-.17-.16-.28-.28-.05-.06-.12-.14-.19-.26-.06-.15-.22-.33-.14-.92-.08.46,0,.64.05.79.05.13.1.22.14.28.08.13.15.2.21.26.11.11.23.22.34.3.11.07.19.14.21.15.01,0-.02.01.02-.01l.1-.06c.07-.04.09-.05.13-.06.05-.02.03,0-.03,0-.04,0-.08,0-.15,0h-.1s-.01,0-.01,0c0,.03,0-.04-.02.07-.06.29-.02.51.01.68.18.59.31.69.37.85.06.13.06.17.07.24,0,.12-.07.15-.15.14-.05-.09-.07-.1-.17-.25.1.15.12.19.16.28.07.13.14.26.22.4.07.13.16.28.2.37.05.16.1.33.15.5.03.09.07.19.13.31l.11.2s.05.1.08.16c.06.12.11.26.17.42.12.33.25.75.44,1.22.19.47.47,1.01.87,1.46l.15.17.04.04h0s0,.01,0,.01c-.98.88,1.33-1.2,1.09-.98h0s-.01,0-.02.01c-.07.01-.1.03-.49-.02-.07,0-1.25-.2-.93-.14v.06c-.01.06-.03.16-.02.34,0,.05,0,.09.01.16l.02.09v.02s.02.04.02.04l.02.07c.06.19.12.38.18.56.11.35.29.74.4.94.13.23.21.33.31.47.12.18.22.31.34.35-.1,0-.87-.21-1.15-.24-.02,0-.05-.01-.06-.02l.03.02c.11.07.2.15.29.24.02.03.05.04.07.08l.07.17.14.34c.19.44.47.82.81,1.13.9.72,1.68,1.58,2.41,2.55-.4-.17-.96.25-1.52.41-.57.17-1.1.05-1.51-.93.02.61.02,1.34.43,2.72.05-.47.92-1.25,1.06-.64-.6,1.79-.33,1.3-.68,3.48.04-.41.89-.28,1.18.29.06.17.09.39.07.6-.16-.17-1.13.06-1.23-.34.33.92.65,1.79.99,2.78-.09-.41-.32-.4-.58-.3-.26.1-.55.58-.64,1.05.07-.23.23.72.26,1.08,0,.2-.03.21-.02.2h0s.01-.02,0,.02l-.07.18c-.08.23-.13.43-.16.59-.05.33-.04.52-.03.66.05-.28.1-.67.34-1.19l.09-.18h.02s.04,0,.04,0c.02,0,.05,0,.07-.02,0,.02-.02.03-.02.04,0,0,0,.01,0,.02h0s0,0,0,.02l-.04.08c-.18.46-.19.8-.2,1.04.01.49.09.66.14.79.19,1.03.73,1.51.88,2.31.04.24.01.49-.09.78-.09.3-.3.64-.35,1.14-.11-.21-.35-.62-.67-.73-.16-.05-.37-.02-.57.27-.1.15-.2.39-.23.73-.02.33.04.79.23,1.17.1.1.21.17.34.27l.1.07h.01s0,.01,0,.01h0s0,0,0,0h0s1.25-.93,1.25-.93h0s-.01,0-.04,0l-1.5-.14h0s0,0,0,0h0s0-.03,0-.03c0-.02,0,0,0,0h0s0,.04,0,.04c.02.06.06.13.09.2.38.6.96,1.36,1.46,2.35.24.5.5.96.65,1.7.06.35-.03.71-.09,1.06-.02.26-.04.49-.05.69-.14.08-.27.17-.39.27.03.23.11.42.21.6.09.24.17.52.18.87,0,.18,0,.39-.08.68-.03.13-.14.34-.23.48l-.02.08s-.02-.07-.03-.11c.07-.14.16-.38.17-.52.04-.32-.01-.55-.08-.74-.07-.2-.16-.36-.27-.53-.11-.17-.19-.18-.28-.29-.37-.37-.6-1.07-.63-1.83-.02-.41-.02-.69-.11-.99-.12-.31-.27-.51-.39-.88-.25-.66-.46-1.27-.6-1.77-.33,1.13-.41.3-.48,2.02-.08.06-.15.06-.21.03-.06,0-.1-.16-.13-.35-.06-.38-.07-.89-.07-1.15l-.11,1-.05.46-.03.13s-.04.08-.06.11c-.03.04-.02,0-.15.28-.19.41-.39.91-.53,1.52.18-.04.23.28.3.8.03.26.08.58.16.91.04.17.08.34.14.5l.04.12v.03s.01,0,.01,0h0s0,0,0,0c.95-.23.26-.06.47-.11h-.02s-.08.02-.08.02c-.08.02-.1.02-.04,0,.21-.05,1.1-.07,1.44.08.05.02.09.04.12.05l.04.02h.02s0,.02,0,.02h0c-.66-.48,1.47,1.09-1.47-1.09h0s0,0,0,0l-.09.18c-.06.12-.11.23-.14.34-.15.43-.14.71,0,.71.08-.25.19-.5.31-.75l.1-.18.05-.09v-.02s.02-.01.02-.01c-1.09-.81,1.49,1.1,1.22.9h0s0,0,0,0h0s-.04-.03-.04-.03c-.12-.08-.36-.14-.64-.17-.27-.03-.57-.02-.78,0h-.14s-.01.01-.01.01h0l.07-.02h.04s0-.01,0-.01h0c.12-.03-.16.04-.13.03h0s0-.02,0-.02l-.02-.06-.03-.11c-.02-.07-.04-.15-.06-.23-.04-.15-.07-.31-.09-.47-.09-.64-.05-1.28.06-1.82.05-.27.11-.52.17-.76l.1-.34c0-.06,0-.08,0-.12.08.02.17.06.25.12.07.08.18.09.19.32.07.38.05.95.12,1.67.04.36.1.75.23,1.14.15.46.27.59.3.7,0,0,0,0,0,0l.13.03c.1.03.17.06.23.09l.04.02h0c.29.22-.39-.28-.32-.23h0s0,.01,0,.01v.02s-.04.07-.04.07l-.07.13c-.09.18-.18.37-.25.55-.15.38-.26.76-.37,1.13-.22.35-.48.16-.71-.16-.23-.31-.39-.79-.5-.79.01.29-.08,1.18-.11,1.84-.04.68-.14,1.13-.25,1.21-.03-.32-.09-.64-.15-1.04-.22.64-.13.96-.17,1.53-.02.53-.13,1.16-.55,1.82-.07.1-.15.13-.3.24-.08.11-.24.25-.47.51-.22.25-.56.66-.71,1.42l-.04.29c0,.06,0,.09-.01.08h-.01s-.05.06-.05.06c-.03.03-.05.05-.07.07-.02.04,0,.07.09.1.26-.07.54-.14.84-.22.08-.03.17-.02.26-.1.09-.09.18-.15.28-.2.2-.09.4-.12.59-.12.39,0,.74.14,1.05.22.15.04.35.06.22.05h-.05s0,0,0,0c-.08,0,.65-.03.35-.01h0s0,0,0,0h0s0,0,0,0l.02.02.04.04s.09.11.13.17c-.01.08-.06.43-.23.86-.16.44-.44.93-.76,1.35-.66.82-1.33,1.46-1.61,1.76-.44.41-.7-.05-.83-.65-.13-.58-.19-1.18-.66-.82.14.12.05.86.04,1.2-.2.41-.3.25-.43.26-.12,0-.23.1-.4.8.3.2.06.94-.07,1.29-.05.14-.11.2-.07.18.06-.02.17-.1.49-.65-.07.36-.1.63-.18.76-.08.16-.16.28-.25.4-.05.06-.11.11-.17.16-.02.02-.22.17-.4.56-.14.31-.25.56-.4.98.59-.35.88,1.99.49,3.47-.12-.15-.47.05-.64.14-.76,1.27-1.55,2.2-1.96,3.28-.48.96-1.25,1.74-2.06,2.92-.29.12-1.24,1.09-1.14.46-.13.39-.16.82-.65,1.53-.35.23-.45.21-.45.13.01-.08.11-.25.26-.49.28-.45.57-.94-.09-.64.09.11,0,.42-.16.82-.09.31-.47.77-.78,1.42-.18.42-.32.8-.44,1.13.28,0,.56-.36.85-.88.26-.46.63-.91.82-1.32.23-.47.44-.92.6-1.27.25.18.34.58.28,1.17-.04.29-.08.62-.23,1.01-.14.38-.31.74-.39,1.09-.17.59-.38,1.32-.79,2.13-.69,1.17-1.16,1.29-1.21,1.17-.12-.09-.04-.38-.16-.19l-.02.02c-.25.22-.58.36-.57.67-.03.13-.06.26-.09.38-.05.16-.09.31-.15.47-.21.61-.4,1.08-.57,1.5-.17.41-.32.77-.52,1.12-.1.18-.21.35-.34.52-.06.08-.14.17-.21.25-.06.06-.12.13-.18.2-.07.08-.16.15-.24.25-.04.05-.09.1-.13.16l-.07.09s-.1.15-.13.19l-.1.1c-.12.1-.13.02-.34.33-.09.12-.22.26-.31.32-.05,0-.09,0-.13,0-.15-.02-.24-.12-.3-.24-.08-.08-.01-.4-.1-.52-.07-.13-.16-.19-.29-.13.06-.24.1-.41.2-.57.24-.51.49-.89.88-1.09.62-.39,1.23-.74,1.7-1.34-.42.39-.87.71-1.33,1.01.35-.54,1.12-1.55,1.58-2.09-.38.32-1.11,1.19-2.25,2.12-.41.28-.65.78-.89,1.23-.16.21-.21.56-.33.71l-.52.64c-.35.42-.7.85-1.04,1.26-.7.81-1.46,1.52-2.1,2.08-.26.57-.81,1.47-.32,1.24l.65-.85c.98-.45-.89,1.9.16,1.02-.36.64-.72,1.34-1.18,2.05-.47.7-1.02,1.55-1.83,2.13l-.71-.16c.16.09,1.21-.65,1.43-1.25-.17.44-.86.85-1.52,1.29-.64.45-1.3.97-1.28,1.55.38-.22.86-.46,1.28-.69-.2.3-.4.64-.6.98-.15.31-.3.66-.5,1.04-.2.38-.44.8-.77,1.22-.17.21-.36.42-.58.63-.2.18-.37.29-.57.42.53-.05.58-.1.74-.24.16-.15.39-.35,1.17-.7-.77.23.19-.89.75-1.57.25-.31.64-.67.78-.9.14-.22.08-.32-.4-.17,1.52-.37,1.83-1.25,3.53-2.21-.19-.08-.69.19.39-.88,0-.09.05-.26.09-.37.04-.03.05-.04.08-.07-.03.02-.05.03-.07.05.02-.07.02-.08-.03.02-.31.21-.58.36-.74.37.15-.87,1.75-2.65,2.11-3.42.67-.61-.07.43.41.21l.53-1.14c.42.24,2.12-1.45.94.46l1.26-1.55c.23-.19.46-.4.69-.63l.09-.09c-.03.06.23-.29.31-.45.11-.19.17-.34.22-.46.06-.14.03-.07.05-.1.02-.04.06-.07.08-.1.07-.11.13-.22.19-.32.03-.06.06-.11.09-.17l.02-.04s.07-.08.1-.12c.84-.56,1.58-2.38,1.17-1.37.39-.51.77-1.1,1.07-1.75.15-.32.29-.7.35-.92.01-.09,0-.2.03-.3l.1.06c.07-.07.16-.12.22-.2l.19-.19.22-.24c.14-.16.27-.33.39-.49.24-.33.44-.66.61-.98.34-.63.6-1.22.84-1.68.04-.09.06-.13.15-.25l.37-.47c.27-.36.55-.72.82-1.08.51-.65,1.15-1.34,1.77-1.87.2-.39.46-.83.81-1.42.17-.29.38-.63.59-1.04.11-.21.22-.44.33-.69.05-.12.1-.25.16-.38l.08-.16.43-.03c.08-.37.58-.97,1.17-1.82.28-.41.58-.94.73-1.35.11-.33.17-.59.12-.76.36-.23.7-.71,1.01-1.33.16-.31.31-.66.45-1.03l.11-.28v-.02s.01,0,.01,0c-1.15-.44,2.58.99-2.59-1h0s0,0,0,0l.06.02s.1.05.18.1c.18.11.32.2.97.72l.29.23.14.12c-.11-.08,1.08.85.59.44h0s0-.01,0-.01l.04-.05.09-.11.17-.23c.12-.15.19-.33.27-.5.16-.35.32-.69.48-1.04.09-.18.13-.34.16-.48l.08-.32c.11-.43.21-.86.32-1.27.05-.2.1-.4.15-.6.05-.16.02-.12.06-.22.05-.13.14-.31.26-.51l-.42-.29c.3-.58.82-1.43,1.09-2.74.06-.33.1-.67.11-1.03,0-.18,0-.36-.02-.54v-.07s0-.03,0-.03h0c.38-.02-3.28.13-1.73.07h0s0,0,0,0c.03,0,.05,0,.07,0,.08,0,.14.02.27.04.22.06.55.16,1.12.43l.1.05h0s0,0,0,0v-.02s.02-.05.03-.08c.06-.15.16-.34.34-.72l-.48-.06c.08-.2.16-.4.23-.63.21-.78.77-1.63,1.24-2.95.43-1.35.63-2.43.86-2.84.12.14-.03.37-.21.71.19-.25.33-.43.44-.54l.14-.14v-.02s.12-.15.12-.15c.22-.33.32-.61.38-.84.13-.47.13-.76.13-1.04,0-.27-.04-.49-.08-.71l-.04-.17-.02-.08h0s-.01-.02-.01-.02c-.01-.02-.03-.03-.05-.06-.04-.06-.07-.21-.03-.46l.04-.2.03-.11.08-.22c.11-.29.2-.59.24-.89.04-.3.03-.61.03-.9,0-.21,0-.41,0-.62,0-.77.08-1.51.3-2.2-.03-.13-.04-.35-.05-.37v-.04s0-.02,0-.02h0s0-.05,0-.05v-.04s.01-.14.01-.14c0-.08,0-.24-.02-.38-.02-.16-.07-.37-.18-.6-.06-.12-.13-.24-.2-.35l-.12.07h0s-.02.02-.02.02l-.03.03-.07.05s-.1.07-.15.1c-.12.06-.16.1-.24.13l-.17.06c-.16.05-.13-.01.2.06-.07-.02-.18-.03-.22-.03.08,0,.18.02.48.1l.37.12.22.08s0,0,.01,0c.03-.01.05,0,.09-.05.03-.02.09-.08.14-.13.07-.09.15-.2.23-.32-.37.45-.44.48-.54.46.05.01.03-.06.2-.39.17-.35.33-.77.41-1.21.05-.31.08-.69.08-1l.51-.39c0-.08,0-.14,0-.22.21-.84-.2-.66-.58-.26-.05-.38-.13-.67-.21-.89,0-.08-.02-.13-.03-.18.2-.24.28-.5.31-.6,0-.03.04-.03-.02-.04-.3-.03-.54-.08-.69-.11l-.2-.06-.07-.03h-.03s-.02-.02-.02-.02h0s0,0,0,0c.43.2-.96-.44.95.44h0s0,0,0,0l.13-.38c.15-.53.17-1.07.19-1.5.02-.44.05-.78.21-1.06-.11-.12-.23-.39-.3-.56-.04-.08-.07-.17-.09-.27-.01-.2-.03-.41-.05-.62-.06-.89-.15-1.8-.4-2.32-.07-.18-.17-.31-.28-.37.1-.04.15-.36.18.21.02-.28,0-.63-.02-.86-.02-.21-.04-.42-.07-.63-.05-.41-.14-.81-.3-1.19l.57-.44-1.06-1.88c.18-1.27.25-1.89.97-.69-.35-.85-.61-1.41-.81-1.84-.1-.21-.18-.4-.26-.56-.08-.18-.15-.32-.21-.42-.08-.11-.18-.23-.26-.42-.04-.09-.08-.2-.13-.34-.05-.14-.1-.53-.22-.82l.41.11c0-.06-.02-.12-.03-.19-.05-.28-.19-.64-.31-.87-.12-.25-.24-.43-.33-.63-.09-.21-.16-.41-.2-.6,0-.05-.02-.09-.02-.13h0c.88-.18-1.2.22-.98.18h0s0,0,0,0h0s.01,0,.01,0h.06s.09,0,.19,0l.17.02.33.05.24.04h0s.02-.07.03-.16c0-.09.05-.22-.05-.55-.03-.09-.06-.17-.13-.27-.03-.05-.07-.1-.1-.14-.02-.02,0,0-.01-.02v-.02s0-.04,0-.04c-.04-.33-.12-.7-.4-1.85-.08-.28-.17-.61-.33-.98-.04-.09-.08-.18-.13-.28l-.08-.14-.02-.04c.53-.31-.73.42-.6.34h0s.01-.01.01-.01l.03-.02.13-.07c.1-.04.25-.11.45-.19,0,0,0,0,0-.02l-.07-.25c-.11-.46-.35-.82-.52-1.12-.1-.18-.2-.36-.3-.54-.06-.1-.13-.21-.2-.3l-.1-.14h0s-.22.13-.22.13l-.38.21c-.23.11-.35.17-.49.2-.1.03-.19.03-.21.03h0c-.31-.07,2.66.6,1.41.31h0s0-.04,0-.04v-.07s.04-.14.04-.14c.06-.38.04-.9-.15-1.36-.18-.46-.45-.79-.66-1-.1-.11-.2-.2-.28-.27h-.02c.08-.11-.76.85-.39.43l.02-.02.04-.05.12-.13c.06-.06.06-.06.03-.03-.07.07-.27.25-.48.41-.21.16-.44.29-.57.32-.03,0-.05,0-.06,0-1.36-.53,1.85.71,1.52.58h0s0-.03,0-.03v-.04s.06-.14.06-.14c.06-.19.11-.42.12-.68.04-.51-.14-1.11-.36-1.46-.22-.37-.42-.58-.55-.73-.13-.15-.15-.18-.22-.27-.06-.09-.09-.16-.15-.28l-.22-.47c-.15-.34-.53-.95-.73-1.17-.45-.58-.87-1.15-1.25-1.71-.09.78-.4.23-.79-.45-.16-.28-.22-.5-.26-.6-.04-.1-.11-.11-.33-.06.23-.19.4-.22.64-.21-.02,0-.03,0-.04-.02v-.02s-.01,0-.01,0v-.15c-.01-.2-.04-.38-.07-.56-.07-.34-.17-.66-.33-.99-.08-.17-.18-.34-.31-.52l-.12-.16c-.3-.4-.54-.78-.79-1.13-.48-.7-.98-1.26-1.79-1.75.05-.4.64.2.62-.11-.17-.13-.66-.51-.68-.83-.02-.31.4.17.73.42-1.54-2.08-2.37-1.79-3.12-1.47-.48-1.34-.84-1.69-1.73-2.2.02-.52-.07-1.22.72,0-.2-.35-.71-1.49-1.14-2.62-.22-.56-.44-1.12-.65-1.52-.22-.43-.37-.59-.53-.58.07-.27-.24-1.1-.35-1.32-.16-.95-.22-1.52-.31-2.07-.08-.54-.17-1.08-.36-2.05v.56c-.9-.64-.45-1.6-.81-3.17l.08.03c0-.15,0-.28,0-.4,0-.16-.01-.29-.02-.4-.04-.89-.33-1.39-.56-1.68-.24-.3-.43-.43-.62-.58-.2-.15-.42-.31-.79-.61-.36-.28-.84-.67-1.73-1.17.04.19.06.37.06.54-.39.4-1.13-.06-2.32-.64-.58-.28-1.29-.54-2.01-.51-.71.01-1.42.3-1.82.82.28-.15.6-.24.92-.29-.36.3-.96.56-1.47,1.02-.53.44-.96,1-1.26,1.64-.23.5-.34,1.1-.3,1.62-.03.41-.26-.68-.33-1.26-.06.58-.04,1.08,0,1.46.04.39.05.62.09.8.07.35.18.38.3.37.12-.02.27-.03.41.08.14.1.27.34.37.88-.29.42-.92-.44-.81,1.01-.25.72,1.24,4.17.51,6.28.27-.45.54-.9.72.15.03.8-.23,1.88-.4,2.94l-.06.4-.04.21c-.02.13-.03.24-.03.36.02.26.03.49.04.72-.15.02-.24,0-.29-.04-.02.03-.05.07-.08.11-.08.18-.92.9-1.51,1.49-.62.6-1.16,1.18-1.31,1.55-.94-.31-2.35.91-3.64,2.11-1.29,1.24-2.5,2.09-2.81,1.38l-.35.17-.42.19c-.34.15-.67.32-.99.5-.65.36-1.27.79-1.84,1.26v-.2c-1.17.86-1.75,1.68-2.09,2.32-.33.64-.46,1.19-.53,1.7-.39.51-.3.04-.34-.05-.54.87-.84,1.52-1.09,2.04-.11.25-.21.48-.31.7-.09.2-.16.4-.24.65-.06.22-.12.44-.18.67-.11.31-.24.62-.23.98,0,.34.06.79.12,1.09.06.3.13.64.2,1.02l-.51.28c.13.42-.15,1.65-.35,3.32-.1,1.94,0,3.69.2,5.23-.05-.05-.15-.12-.21-.35.01.11.02.2.03.33l.02.43c0,.27.02.55.02.84,0,.55,0,1.07-.05,1.54-.05.48-.13.91-.26,1.28-.06.19-.13.35-.21.51-.03.07-.13.34-.18.5-.06.18-.1.35-.14.53-.29,1.36-.29,2.27-.29,2.84,0,.17.01.32.02.48,0,.17.03.33.07.48.07.3.2.56.39.77v2.58c.7-3.23.7.61,1.23-.69-.06.66-.34,1.45-.56,1.93-.2.49-.41.62-.36-.27l.13-.25c-.21-.19-.38-.03-.51.36-.13.39-.24,1.05-.1,1.82.07.38.2.77.37,1.11l.06.13h0s0,.01,0,.01h0c.25-.14-.56.33.56-.32l-.02.02-.05.03-.08.04c-.08.04-.06.02.02,0,.08-.02.22-.03.33-.02h.08s.04.02.04.02h0s0,0,0,0c.86.24-1.16-.32-.96-.27h0s0,.02,0,.02l-.03.1c-.18.52-.28.87-.44.83-.17,1.93.41,3.42.58,4.65.06.43.27.96.31,1.12.01.05.02.09.02.1.03.02-.08.03.16,0,.33-.04.39,0,.35-.01-.05-.01-.09-.03-.19-.07l-.03-.02h-.01s0-.01,0-.01l-.25-.12c-.19.37-.2.63-.21.81,0,.36.05.52.09.68l.22.57c.06.2.12.4.15.63.16.89.03,2.05.07,3.47,0,.35.04.73.09,1.12l.1.86c.06.56.09,1.13.11,1.69.04,1.14.03,2.29,0,3.45l.74-.68-.08,2.1c-.19.55-.59.72-.52-.78-.43.77.27,2.55.43,2.6-.39,3.01-.82-1.21-.86-.28l.02,1.26.09-.28c.07.26.14.46.2.64.07.16.13.31.18.49.09.35.14.8.03,1.69-.27,1.11-.51.53-.59.98-.05,0-.09.14-.1.7-.13.94-.21,1.83-.3,2.7l.65-1c.1.6.04,1.23.06,1.55.02.24.1.36.47-.22-.09.14-.18.32-.25.49-.08.18-.22.37-.36.57-.08.15-.27.35-.38.61-.11.26-.13.55-.17.85-.12.66-.34,1.22-.68,1.97l-.26.55c-.09.22-.17.44-.26.66-.17.45-.33.88-.49,1.3-.17.43-.27.79-.36,1.13-.1.34-.19.65-.27.93-.17.55-.31.96-.42,1.13-.03.86-.16,1.69-.36,2.54-.17.75-.54,1.38-1.12,2.11.19-.15.45-.18.54-.03.05.08.05.21-.03.4-.1.22-.29.51-.52,1-.23-.31-.48-.29-.75.09-.13.18-.25.46-.32.78-.02.08-.03.16-.05.25l-.02.13v.07s0,0,0,0c.41,0-.92,0,.92,0h0s-.02,0-.02,0h-.04s-.07,0-.07,0c-.41-.03-.62-.15-.41-.06.09.04.26.13.4.25.07.06.14.12.19.18.02.02.05.06.06.08v.02s.02.01.02.01h0s0,0,0,0c.12.26-1.03-2.29-.55-1.21h-.03c-.17.08-.35.15-.51.24-.34.16-.67.35-.97.53-.6.37-1.11.7-1.56.82.73-.31-.25.8-.88,1.6-.74.87-1.43,1.74-.4,1.32-1.11.99-.42-.28-1.44.31-.71.99-1.59,1.93-2.56,2.86-.24.23-.48.45-.72.68-.18.16-.36.31-.57.45s-.44.26-.7.39l-.4.19-.5.22c-.42.18-.8.43-1.14.74-.39.35-.56.53-.69.64-.1.09-.23.21-.3.29h-.01s0,.01,0,.01l.17.17c.33.33.47.48.6.63.24.27.32.4.38.51.02.05.04.09.04.11v.02s0,0,0,0c-.41-3.75-.11-1.04-.2-1.88h0s0,0,0,0h0s-.02,0-.02,0h-.07s-.26.05-.26.05c-.18.03-.35.08-.52.13-.7.22-1.29.63-1.7,1.01.02.1.27.03.42.07.15.04.12.2-.21.7-.15.07-.34.19-.44.21-.39.14-.52-.1-1.41.28l-.34.1c-.31.29-.31.62-.44.92-.11.29-.43.67-1.04.64.2.05.55.1.2.38-1.06.43-2.83,1.13-3.9,2.71-.12.23-.31.4-.54.53l-1.1.77c-.73.53-1.47,1.06-2.21,1.6-1.47,1.09-2.93,2.17-4.43,3.17-.73.51-1.54,1.02-2.32,1.51l-1.19.73-1.14.81-1.21.83c-.52.37-.98.82-1.35,1.25-.76.88-1.29,1.73-1.83,2.26.4-.33.53-.4.5-.23-.01.08-.06.2-.13.34-.04.07-.08.14-.12.22-.07.11-.14.23-.21.35.04-.07.09-.13.13-.18.02-.01.03-.03.05-.03.03-.02.06-.02.09-.02.05,0,.1.05.14.11.09.1.14.3.27.3-.35.45-.54.9-.65,1.43-.08.45-.12.83-.11,1.27.02.85.27,1.74.69,2.51.52.22,1.42,1.14,2.34,1.7.93.61,1.93.99,2.23.76-.42-.11-.83-.25-1.24-.42.96.04.53-.59.15-1.32-.4-.74-.69-1.61-.29-1.9-.81-.11-1.17-1.14-.94-1.95.05-.21.12-.46.18-.45.02-.01.03-.03.04-.03,0-.01.07.02-.1-.07l-.09-.05-.05-.03h-.01s0,0,0,0c-.25-.17.34.22.28.18h0s.01-.02.01-.02l.09-.12c.06-.08.11-.16.16-.24.42-.66.63-1.32.69-2,.45-.35.02.55.37.42-.02-.37.05-.71.25-1.04.22-.35.46-.51,1.19-.96l-.08.19c1.63-1.45,3.07-2.14,4.49-2.96,1.47-.83,3.03-1.67,5.14-3.01l-.58-.17c.92-.57,1.19-.58,1.67-.77.6-1.3-2.49,1.71-2.03.41.57-.01,1.44-.49,2.41-1.12.48-.32.98-.67,1.49-1.01l.41-.28c.18-.12.36-.24.52-.38.34-.26.57-.62.79-.95.43-.55,1.09-.78,1.49-.6.56-.32.44-.4.27-.47-.15-.07-.34-.14.34-.49l.25.04h.32c.1-.22.19-.42.27-.62.28-.14.53-.27.74-.38.19-.09.36-.14.51-.18.3-.06.51-.03.6.06-.23.14-.56.52-.77.71.46-.2.97-.57,1.46-.96-.06,0,1.07-.67,1.47-1.23.36-.45.38-.46.44-.46-.09,0-.23.05-.56.34-.16.15-.33.29-.51.41.16-.14.31-.29.46-.46.33-.39.45-.49.51-.54.03-.02.03-.03.06-.04h.01s.16-.03.16-.03c.08-.02.18-.04.24-.06.15-.04.28-.1.39-.15.43-.22.58-.39.72-.51l.24-.25c.31-.29.56-.57.61-.61.09-.09.2-.17.32-.23l.52-.27c.2-.11.41-.22.61-.35.42-.25.84-.55,1.24-.89.2-.17.4-.35.58-.55l.47-.5c.26-.28.52-.57.78-.85,1.03-1.13,2-2.26,2.81-3.38l-.39.08c.98-1.29,1.57-1.86,2.06-2.27.24-.2.49-.4.84-.67.16-.12.33-.26.53-.4.1-.06.2-.13.32-.21.06-.04.12-.06.18-.1l.07-.04c.19-.09.33-.19.44-.29.21-.19.32-.34.41-.48-.05.12-.13.25-.26.4.47-.62.49-.93.57-1.49.02-.45-.02-.34-.03-.43-.01-.06-.02-.11-.02-.17-.01-.22.08-.48.31-.78-.04.17.01.21.1.19.04,0,.1-.03.17-.06.09-.07.18-.14.28-.21.37-.3.73-.61.44.08.53-.97.76-1.67.88-2.15.13-.52.08-.65.07-.83-.05-.33-.18-.52-.24-1.8l.51-.42c-.09-.89-.24-1,.18-2.79-.12,1.54.87-.96.8.78.36-.75.66-1.26.86-1.76.2-.51.31-.95.52-1.52.36-1.06.53-2.18.74-3.02.04-.09.09-.18.16-.25.08-.07.23-.1.37-.13-.02-.28-.06-.49-.13-.55-.07-.06-.17,0-.28.14-.02.02-.04.04-.07.07,0,0-.02.03-.05.08-.02.03-.02.02-.04.04-.04.04-.09.08-.14.14-.1.11-.07.27-.11.42-.14,1.01-.51,2.03-.42,1.47-.44.54-.28-.5-.28-1.57.01-.19-.07-.41.03-.58.05-.08.1-.16.14-.24.05-.11.1-.21.14-.3.14-.31.32-.59.45-.92.45-.93,1.22-1.91,1.48-4.19-.04.3.04.33,0,.63.38-1.11-.07-2.29.41-3.81-.6-.83.09-1.82-.69-2.08.02.95.08,1.84.08,2.88-.04-.88-.33-1.64-.5-2.55-.17-.91-.25-1.95,0-3.27.16.21.35,1.01.45,1.56.26-.77-.12-1.5.13-2.32.82.25.1,3.52.65,5.2.36-.79-.47-3.25.36-2.36-1.06-1.27.25-3.11-.71-5.3l.48.12c-.09-.35-.36-1.06-.43-1.71.25.37.49.74.72,1.13-.33-.89-.31-1.78-.32-2.69,0-.27.02-.35.03-.5l.05-.45c.02-.32.02-.67-.06-1.07.02.83,0,1.16-.03,1.36-.04.19-.12.22-.21.21-.19-.02-.46-.21-.55.35-.28-.75-.27-1.44-.2-1.92.07-.5.23-.85.39-1.24.15-.4.32-.83.31-1.63-.01-.4-.08-.89-.28-1.49-.05-.15-.12-.31-.19-.47l-.05-.12v-.02s-.01,0-.01,0h0c-4.23,2.11-1.17.58-2.11,1.05l.06-.03s.03-.01.02,0c-.05.03-.35.09-.46.05h-.02s0,0,0,0c-2.19-1.17,2.97,1.59,2.44,1.3h0s.03-.07.03-.07l.06-.13c.04-.09.08-.17.12-.27.07-.2.14-.41.18-.64.09-.45.1-.95.03-1.35.09.42.07,1.28-.26,1.99l-.12.25-.06.12-.03.06h0s0,.01,0,.01h0c-1.07-.57,2.39,1.28-2.39-1.27h0s.02,0,.02,0c.1.04.39-.02.46-.05.02,0,.02,0,0,0l-.05.02h-.02s0,.01,0,.01h0c-1.81.91,2.46-1.23,2.02-1.01h0s0,.02,0,.02l.04.12c.02.08.04.16.06.23.13.6.07.89-.28.26l-.08-.24-.04-.12-.02-.06v-.03s-.02-.02-.02-.02h0c-3.37,1.68-.93.47-1.68.84h0s0,0,0,0h.02c.18-.08-.08.03-.26.03-.04,0-.09,0-.12,0-.02,0-.03,0-.04-.01h0s0,0,0,0c-1.83-.98,2.49,1.33,2.05,1.09h0s0,0,0,0l.02-.03.12-.22c.33-.61.44-1.5.38-2.09-.06-.59-.16-.96-.17-1.15,0-.04,0-.1,0-.12l.03-.05s.04-.06.07-.08c0-.02-.01-.03-.02-.04-.74-2.9-.33.75-.9-.55.33-1.2-.61-1.4-.86-2.42l.48-.02c.04-.25.07-.44.09-.6,0-.07.02-.13.02-.19-.02.06.05-.22.06-.34.02-.15.02-.27.01-.38,0-.21-.04-.37-.08-.51-.07-.27-.16-.45-.26-.62-.05-.08-.1-.16-.16-.23-.04-.04-.04-.01-.06-.02-.07.01-.13.02-.19.03-.12.02-.25.04-.35-.06-.09-.1-.18-.3-.04-.9.19.37.44.61.68.66-.09-.11-.17-.4-.16-.85.17.12.34.22.52.3-.14-.59-.06-1.39.02-1.93.09-.59.26-1.16.48-2.03-.2.18-.41.09-.53-.24-.06-.16-.1-.39-.12-.67,0-.14,0-.29,0-.47.01-.19.02-.4.03-.63.18-.58.28-.4.35-.4.07.03.1-.21.12-1.19.26.45.66.95.11,2.11.14.18.22.59.36.71.06-.15.12-.27.17-.46.05-.21.09-.42.12-.63.05-.41.06-.79.07-1.12,0-.66-.01-1.06.03-1.24-.05.13-.11.37-.19.51l-.09-.54-.03-.21c0-.1.04-.34.05-.5.07-.72.04-1.4-.04-2.02.21-.57.34-.12.44.38,0-.79-.21-1.32-.26-2.28.2.12.4.17.57.36.17.2.33.51.39,1.34-.09-1.25-.31-2.23-.4-3.06.2-.22.5-1.83.64-1.36.1-.99-.18-2.09-.42-3.11-.09-.62-.27-.73-.27-1.42-.02-.57,0-1.14.11-1.69-.07-.12-.13-.36-.16-.83.05-.52.12-1.03.19-1.53.03-.14.06-.2.09-.27.02-.03.04-.06.07-.09l.04-.04.02-.02s.08-.17.07-.15c.09-.21.19-.42.27-.64.11-.25.24-.56.34-.83.2-.56.34-1.11.44-1.65.38-.27.75-.48,1.1-.59.29-.58-.05-.46-.39-.38-.28.03-.67.06.04-1.09.52-.78.78-.77.93-.64.15.14.24.4.52.27.19-.4.49-.98,1.04-1.45.14-.12.29-.23.45-.33.08-.05.17-.09.26-.14l.13-.06.21-.09c.58-.24,1.15-.47,1.75-.65-.31.26-.64.44-.98.61l-.52.23c-.17.08-.4.17-.47.22ZM67.91,9.63c.11.48.45,1.45.17,1.81-.57-.55-.31-.98-.17-1.81ZM79.12,23.08c-.33-.19-.58-.68-.79-1.28.29.34.56.76.79,1.28ZM73.99,115.86v-.03s.06-.06.08-.08c.19-.27.18-.2.19-.22,0,0-.01.01-.03.03-.01,0-.1.14-.14.2-.03.03-.07.06-.1.1ZM72.23,118.08c-.09.22-.03.25.08.22,0-.2.32-.61.7-1.04-.2.05-.45.22-.79.82ZM45.33,91.92l.17-.41c.03.97-.06.69-.17.41Z" class="uuid-f8ed5f88-590b-425a-a584-8617ddf7f28c"></path><path d="M76.11,19.92c0-.17.05-.25.11-.33-.17-.13-.26-.09-.11.33Z" class="uuid-f8ed5f88-590b-425a-a584-8617ddf7f28c"></path><path d="M49.55,40.22v.07s.05.06.07.08l-.07-.15Z" class="uuid-f8ed5f88-590b-425a-a584-8617ddf7f28c"></path><path d="M85.79,87.58c.27-.58.49-.8.65-.94-.09-.06-.3.04-.65.94Z" class="uuid-f8ed5f88-590b-425a-a584-8617ddf7f28c"></path><path d="M65.04,127.29l.88-1.05c-.45.48-.7.58-.99.76.1.06.41-.02.11.29Z" class="uuid-f8ed5f88-590b-425a-a584-8617ddf7f28c"></path><path d="M53.74,133.08c-.15.15-.38.21-.52.37l.16.16c.73-.43,1.19-.88.36-.53Z" class="uuid-f8ed5f88-590b-425a-a584-8617ddf7f28c"></path><path d="M63.07,127.1c-.4-.18-.78.6-1.53,1.45l.14-.14c.17.66.93-.41,1.38-1.31Z" class="uuid-f8ed5f88-590b-425a-a584-8617ddf7f28c"></path><path d="M61.37,128.74c-.23.22-.46.41-.71.59.06.24.32-.19.71-.59Z" class="uuid-f8ed5f88-590b-425a-a584-8617ddf7f28c"></path><path d="M70.61,120.41c-.39.28.2.56-.1.65.04.73,1.59-2.73.1-.65Z" class="uuid-f8ed5f88-590b-425a-a584-8617ddf7f28c"></path><polygon points="61.54 126.86 62.15 126.91 62.18 126.23 61.54 126.86" class="uuid-f8ed5f88-590b-425a-a584-8617ddf7f28c"></polygon><path d="M67,121.42l-1.13,1.08c.08.04-.02.22-.15.43.64-.73,1.42-1.44,1.28-1.52Z" class="uuid-f8ed5f88-590b-425a-a584-8617ddf7f28c"></path><path d="M65.72,122.94c-.33.38-.64.75-.79.99.2-.18.57-.64.79-.99Z" class="uuid-f8ed5f88-590b-425a-a584-8617ddf7f28c"></path><polygon points="62.82 125.15 63.22 124.89 64.02 124.14 62.82 125.15" class="uuid-f8ed5f88-590b-425a-a584-8617ddf7f28c"></polygon><path d="M77.35,108.4c.31-.52.55-1.04.79-1.56-.06-.24-.38.11-.65.7-.1.41-.44.99-.14.86Z" class="uuid-f8ed5f88-590b-425a-a584-8617ddf7f28c"></path><path d="M73.39,111.66c.35-.24.45-.2.73-.29l-.48-.4c-.07.23-.15.46-.25.69Z" class="uuid-f8ed5f88-590b-425a-a584-8617ddf7f28c"></path><path d="M76.02,107.65c-.03-.19.77-2.12-.22-.48.08.23-.71,1.37.22.48Z" class="uuid-f8ed5f88-590b-425a-a584-8617ddf7f28c"></path><path d="M88.54,85.7c-.05.13-.11.26-.17.38l.94.4c-.25-.27-.5-.53-.77-.78Z" class="uuid-f8ed5f88-590b-425a-a584-8617ddf7f28c"></path><path d="M90.94,64.04c-.04.17-.06.22-.07.25,0,.04,0,.07,0,.1.02.11.16.16.24.23.04.04.07.08.05.14,0,.05-.1.15-.43.74-.07.52.3-.28.54-.56.15-.15.25-.28.31-.14,0-.08,0-.16,0-.23-.01-.12-.03-.21-.04-.29-.01-.12-.04-.22-.07-.28-.08-.14-.21-.12-.52.04Z" class="uuid-f8ed5f88-590b-425a-a584-8617ddf7f28c"></path><path d="M91.59,64.81c-.01.13.02.16-.05.44.08-.22.06-.23.07-.31,0-.06,0-.1-.02-.13Z" class="uuid-f8ed5f88-590b-425a-a584-8617ddf7f28c"></path><path d="M3.15,152.36c.43.36.9.68,1.38.97-.29-.25-.56-.51-.81-.78-.19-.05-.38-.12-.57-.19Z" class="uuid-f8ed5f88-590b-425a-a584-8617ddf7f28c"></path><path d="M6.24,152.91c.05.24.11.48.18.72.36-.11.7-.24,1.04-.37-.34-.03-1.01-.13-1.22-.35Z" class="uuid-f8ed5f88-590b-425a-a584-8617ddf7f28c"></path><path d="M68.94,5.79l-.17-.09c-.14.23-.12.54-.07,1.18l.24-1.09Z" class="uuid-f8ed5f88-590b-425a-a584-8617ddf7f28c"></path><polygon points="64.34 24.61 64.6 24.44 63.78 24.31 64.34 24.61" class="uuid-f8ed5f88-590b-425a-a584-8617ddf7f28c"></polygon><path d="M53.14,32.94c.28-.27.52-.67.84-.88-.57.57-1.45.48-.84.88Z" class="uuid-f8ed5f88-590b-425a-a584-8617ddf7f28c"></path></svg>