<svg viewBox="0 0 63.97 63.85" xmlns="http://www.w3.org/2000/svg" id="uuid-52665117-1996-426d-8aa0-c52e2edaada5"><defs><style>.uuid-cb7d5a99-13ee-44a1-9e0e-30516115cfe7{fill:none;}.uuid-cb7d5a99-13ee-44a1-9e0e-30516115cfe7,.uuid-b3c87a4c-22b6-4518-9c99-060fa2212c72{stroke-width:0px;}.uuid-b3c87a4c-22b6-4518-9c99-060fa2212c72{fill:#202020;}</style></defs><path d="M2.26,31.12c0-3.61-.08-7.22.02-10.83C2.56,9.32,9.91,1.95,20.85,1.76c7.39-.12,14.79-.12,22.19,0,10.87.18,18.16,7.01,18.68,17.9.37,7.72.37,15.47.04,23.19-.48,11.09-7.73,18.05-18.84,18.36-7.22.2-14.45.24-21.67,0-12.06-.4-18.88-7.64-18.98-19.77-.03-3.44,0-6.87,0-10.31ZM32.18,6.92v.03c-3.95,0-7.92-.19-11.86.04-7.48.43-12.48,5.03-12.77,12.2-.32,8.06-.31,16.15.01,24.22.28,7.09,4.45,11.93,11.41,12.35,8.72.52,17.53.41,26.25-.21,6.9-.49,10.82-4.48,11.18-11.3.45-8.55.41-17.18-.26-25.71-.6-7.71-5.31-11.4-13.13-11.6-3.61-.09-7.22-.02-10.83-.02Z" class="uuid-cb7d5a99-13ee-44a1-9e0e-30516115cfe7"></path><path d="M32.38,8.74c-.26-.03-.16.29-.2.34.43-.07.19-.42.2-.34Z" class="uuid-b3c87a4c-22b6-4518-9c99-060fa2212c72"></path><polygon points="36.62 8.04 36.55 8.17 37.17 7.85 36.62 8.04" class="uuid-b3c87a4c-22b6-4518-9c99-060fa2212c72"></polygon><path d="M40.59,8.05c-.36-.54-1.44.08-2.14-.11l-.11-.12-.32.43c.86-.07,1.98-.35,2.58-.2Z" class="uuid-b3c87a4c-22b6-4518-9c99-060fa2212c72"></path><path d="M42.68,9.21c-.12-.21.46-.18-.49-.07.05.02.06.04.09.05.09,0,.2,0,.4.01Z" class="uuid-b3c87a4c-22b6-4518-9c99-060fa2212c72"></path><path d="M42.27,9.2c-.42.01.27.17,0,0h0Z" class="uuid-b3c87a4c-22b6-4518-9c99-060fa2212c72"></path><path d="M44.09,9.14l-.51.16c.1.13.53.18.36.26.51-.07.42-.2.15-.42Z" class="uuid-b3c87a4c-22b6-4518-9c99-060fa2212c72"></path><path d="M44.6,8.8l-.27.05c.04.06.11.08.27-.05Z" class="uuid-b3c87a4c-22b6-4518-9c99-060fa2212c72"></path><path d="M43.77,8.98l.57-.13c-.06-.1-.06-.27-.26.04.06-.16-.07,0-.31.09Z" class="uuid-b3c87a4c-22b6-4518-9c99-060fa2212c72"></path><path d="M43.46,8.88c-.28-.13-.65-.23-.13-.38-.48,0-.74.13-.69.22.04.09.35.16.82.16Z" class="uuid-b3c87a4c-22b6-4518-9c99-060fa2212c72"></path><path d="M40.8,7.5l-.41-.16-.36.18c.18-.09.79.15.77-.02Z" class="uuid-b3c87a4c-22b6-4518-9c99-060fa2212c72"></path><path d="M47.01,9.91c.06-.1-.07-.33-.07-.49l-.37.04c.16.12.47.28.44.45Z" class="uuid-b3c87a4c-22b6-4518-9c99-060fa2212c72"></path><path d="M46.93,9.42l.57-.05c-.46-.15-.57-.08-.57.05Z" class="uuid-b3c87a4c-22b6-4518-9c99-060fa2212c72"></path><path d="M44.75,8.22c-.33.09-.65.21-.97.33.38-.13.76-.23,1.15-.32l-.18-.02Z" class="uuid-b3c87a4c-22b6-4518-9c99-060fa2212c72"></path><polygon points="48.79 10.57 48.44 10.69 49.05 10.54 48.79 10.57" class="uuid-b3c87a4c-22b6-4518-9c99-060fa2212c72"></polygon><path d="M49.88,11.11c-.28.08.03.44-.22.45.28.13.58.15.89.16-.28-.07-.44-.28-.66-.62Z" class="uuid-b3c87a4c-22b6-4518-9c99-060fa2212c72"></path><path d="M51.01,11.82c-.13-.05-.28-.09-.47-.09.15.04.28.08.47.09Z" class="uuid-b3c87a4c-22b6-4518-9c99-060fa2212c72"></path><path d="M48.34,9.72c.01.08.02.27.26.44-.02-.13-.04-.24-.07-.37-.06-.02-.12-.05-.19-.08Z" class="uuid-b3c87a4c-22b6-4518-9c99-060fa2212c72"></path><path d="M48.53,9.79h0c.21.09.34.18.4.21-.05-.02-.16-.11-.4-.21Z" class="uuid-b3c87a4c-22b6-4518-9c99-060fa2212c72"></path><path d="M48.29,9.7s.03.01.05.02c0-.04-.02-.05-.05-.02Z" class="uuid-b3c87a4c-22b6-4518-9c99-060fa2212c72"></path><path d="M46.18,8.72c.35-.12,1.09-.16.48-.56-.28.17.06.39-.48.56Z" class="uuid-b3c87a4c-22b6-4518-9c99-060fa2212c72"></path><path d="M48.18,9.24c-.17-.09-.34-.19-.53-.25-.01.08.05.23-.13.27.22-.02.44-.02.66-.02Z" class="uuid-b3c87a4c-22b6-4518-9c99-060fa2212c72"></path><polygon points="48.48 9.24 48.18 9.24 48.37 9.34 48.48 9.24" class="uuid-b3c87a4c-22b6-4518-9c99-060fa2212c72"></polygon><path d="M50.52,11.03c.26.03.49.16.7.34-.18-.26-.43-.46-.66-.65-.09.06-.3.13-.04.31Z" class="uuid-b3c87a4c-22b6-4518-9c99-060fa2212c72"></path><path d="M49.63,10.34h.05s-.03-.05-.05,0Z" class="uuid-b3c87a4c-22b6-4518-9c99-060fa2212c72"></path><polygon points="52.96 13.55 52.99 13.48 52.94 13.5 52.96 13.55" class="uuid-b3c87a4c-22b6-4518-9c99-060fa2212c72"></polygon><path d="M50.56,10.64c-.15-.19-.33-.19-.49-.18.16.07.35.13.5.26.04-.03.06-.05,0-.08Z" class="uuid-b3c87a4c-22b6-4518-9c99-060fa2212c72"></path><path d="M51.64,12.24c-.02-.14-.07-.27-.14-.4.02.14.05.42.14.4Z" class="uuid-b3c87a4c-22b6-4518-9c99-060fa2212c72"></path><path d="M49.7,10.47h-.04c.03.09.04.06.04,0Z" class="uuid-b3c87a4c-22b6-4518-9c99-060fa2212c72"></path><path d="M49.7,10.47c.12.02.24,0,.36,0-.14-.05-.26-.09-.38-.11.01.04.02.08.02.12Z" class="uuid-b3c87a4c-22b6-4518-9c99-060fa2212c72"></path><path d="M55.23,13.5c-.28.06-.85-.45-.88-1.15-.54-.4-1.09.49-1.36,1.14.12-.05.22-.11.64.31.07-.25-.28-1.31.2-1.02.5.64.21.63.24,1.03.21-.47.88.73,1.32.39l-.45-.62c.07-.05.3.15.29-.07Z" class="uuid-b3c87a4c-22b6-4518-9c99-060fa2212c72"></path><path d="M52.47,12.61c-.05-.06-.1-.1-.16-.15.12.22.1.46.09.84.32.21.44.23.54.21-.16-.33-.37-.62-.54-.93l.08.04Z" class="uuid-b3c87a4c-22b6-4518-9c99-060fa2212c72"></path><path d="M51.66,11.72c.37-.13.81.23.86-.27-.49-.5-.54-.16-.92-.34.83.68-.34-.08.08.58-.19-.1-.33-.21-.46-.32.11.16.2.31.28.47v-.03s0,0,0,0h0c0-.06,0-.09.02-.04,0,0,.01,0,.02,0,.04-.03.08-.04.12-.05.17.25-.03.09-.12.05-.01,0-.03.01-.04.03h0c.3.18.53.44.81.65-.11-.19-.27-.42-.64-.73Z" class="uuid-b3c87a4c-22b6-4518-9c99-060fa2212c72"></path><path d="M47.45,7.63s.02.06.02.08c.09-.02.12-.04-.02-.08Z" class="uuid-b3c87a4c-22b6-4518-9c99-060fa2212c72"></path><path d="M47.89,7.96c-.1.02-.21.12-.47.02-.22-.16.04-.15.05-.26-.19.04-.64.06-.16.36l.09-.02c.45.22.9.8.8.82-.03-.32-.08-.57-.31-.92Z" class="uuid-b3c87a4c-22b6-4518-9c99-060fa2212c72"></path><path d="M50.19,9.6c.29.13.61.23.89.38-.07-.18-.17-.34-.26-.5l-.07.15c-.44-.35-.44-.1-.56-.03Z" class="uuid-b3c87a4c-22b6-4518-9c99-060fa2212c72"></path><polygon points="52.86 13.72 52.51 13.78 53.16 13.99 52.86 13.72" class="uuid-b3c87a4c-22b6-4518-9c99-060fa2212c72"></polygon><polygon points="53.37 14.72 53.08 14.79 53.36 15 53.37 14.72" class="uuid-b3c87a4c-22b6-4518-9c99-060fa2212c72"></polygon><path d="M16.68,57.25l-.36.02c.17,0,.28,0,.36-.02Z" class="uuid-b3c87a4c-22b6-4518-9c99-060fa2212c72"></path><path d="M19.11,57.57l.06-.14c-.11.07-.15.13-.06.14Z" class="uuid-b3c87a4c-22b6-4518-9c99-060fa2212c72"></path><path d="M54.18,46.62c-.36.32-.87.58-.55.63h.35c0-.29.09-.48.2-.63Z" class="uuid-b3c87a4c-22b6-4518-9c99-060fa2212c72"></path><path d="M37.35,56.04l.13.09c.1-.12.2-.22.29-.32-.13.07-.27.15-.42.23Z" class="uuid-b3c87a4c-22b6-4518-9c99-060fa2212c72"></path><path d="M37.08,57.39l-.6-.19c.13.07.33.13.6.19Z" class="uuid-b3c87a4c-22b6-4518-9c99-060fa2212c72"></path><path d="M6.36,48.62l-.44-.29c.2.63.27.3.44.29Z" class="uuid-b3c87a4c-22b6-4518-9c99-060fa2212c72"></path><path d="M54.84,27.77c-.12.38-.16.69-.17.95.18-.46.45-.84.17-.95Z" class="uuid-b3c87a4c-22b6-4518-9c99-060fa2212c72"></path><path d="M18.1,53.99c-.17.05-.25.09-.26.17.18-.03.29-.09.26-.17Z" class="uuid-b3c87a4c-22b6-4518-9c99-060fa2212c72"></path><path d="M54.69,29.82c.03-.07.05-.13.07-.2-.06-.28-.11-.56-.1-.9-.13.34-.21.73.02,1.1Z" class="uuid-b3c87a4c-22b6-4518-9c99-060fa2212c72"></path><path d="M15.22,6.1s.08,0,.12,0c0-.05-.05-.03-.12,0Z" class="uuid-b3c87a4c-22b6-4518-9c99-060fa2212c72"></path><path d="M28.47,8.34c-.13.02-.33.02-.52.02.09.02.25.02.52-.02Z" class="uuid-b3c87a4c-22b6-4518-9c99-060fa2212c72"></path><path d="M54.16,19.48c-.04-.28-.04-.04,0,0h0Z" class="uuid-b3c87a4c-22b6-4518-9c99-060fa2212c72"></path><path d="M55.32,18.02c.04.05.09.09.17.09-.08-.01-.13-.05-.17-.09Z" class="uuid-b3c87a4c-22b6-4518-9c99-060fa2212c72"></path><path d="M56.74,32.65v.02c.06-.09.05-.07,0-.02Z" class="uuid-b3c87a4c-22b6-4518-9c99-060fa2212c72"></path><path d="M54.28,19.04c-.03.11-.06.23-.07.37.02-.06.04-.17.07-.37Z" class="uuid-b3c87a4c-22b6-4518-9c99-060fa2212c72"></path><path d="M54.13,19.11c0-.1,0-.18.01-.25-.06-.03-.09,0-.01.25Z" class="uuid-b3c87a4c-22b6-4518-9c99-060fa2212c72"></path><path d="M54.21,19.87c-.02-.16-.01-.31,0-.46-.02.06-.03.08-.05.07,0,.08.02.2.05.39Z" class="uuid-b3c87a4c-22b6-4518-9c99-060fa2212c72"></path><path d="M6.35,27.67s.02-.04.03-.06c-.13-.29-.11-.16-.03.06Z" class="uuid-b3c87a4c-22b6-4518-9c99-060fa2212c72"></path><path d="M53.03,54.44l.02-.03s-.03.01-.05.02l.02.02Z" class="uuid-b3c87a4c-22b6-4518-9c99-060fa2212c72"></path><path d="M52.17,55.3c.24-.6.48-.72.84-.88-.29-.17-.57-.35-.85-.54.04.48.03.93.01,1.42Z" class="uuid-b3c87a4c-22b6-4518-9c99-060fa2212c72"></path><path d="M11.08,54.9c.16.27.35.49.54.73-1.16-.16-1.66-.89-1.25,0,.35-.34,1.07.13,1.81.55.76.39,1.54.72,1.79.25l.44.4c-.15-.07-.19-.02-.33-.09.86.86,1-.42,2.22.08.43.16.73.37.39.43.36-.02.71-.02,1.06-.08.29.05.2.22-.09.17.51.02,1.08.07,1.54.06v.03c.2-.15.67-.37.9-.46.35.17-.19.1-.1.23l.8-.2c.31.28-.36.51-.9.44.69,1.06.67-.22,2.23.45l-.75.09c.46.6,1.05.42,1.88.81-.2-.2-1.66-.97-.79-1.19.24.09.56.13,1.03-.05,0,.36.45.29,1.01.28l-.05.48c.62-.12.58-.37.94-.57.68.06.81.44.97.75,1.09.1-.74-.61.55-.68.9.19,1.55.01,2.63-.27.63.17-.11.29.12.43l.56-.38c.14,0,.09.13.07.19.47-.15.04-.48.78-.61.2-.53,1.53.76,2.45.15.23.13-.1.3-.03.48,1.26-.42,1.08-.31,2.1-.86l.89.29c-.66-.34.16-.79.87-1.17-.23-.17-.43-.31-.57-.38l1.14-.3c.14.07.03.24-.15.45.08-.04.15-.08.21-.12.42.16.22.45-.07.73l-.43-.28c-.27.3-.53.63-.46.91.07-.06.22-.11.38-.14-.07.08-.12.15-.08.2.04.05.16-.06.34-.19l.28.52.06-.21,1.53.27c1.06-.59,1.96-1.42,3.65-1.75-.4.42-.05.64-.05,1.11-.5-.46-1.32.29-2.22.23.47.03.38.25.26.34l1.56-.54c-.01.38.35.26.78.4-.36-.73,1.15-.58,1.78-.85.06.25-.08.52-.87.51.91.51,1.07-.96,2-.58-.2.03-.31,0-.38.14.44-.24,1.6-.3,1.38-.03l-.2.04c.34-.04.77-.1,1.22-.23.45-.11.91-.28,1.33-.48.83-.39,1.43-.92,1.36-1.24.06.07.2.77.18.92.22-.51.39-1.05.54-1.54.13-.52.22-1.04.27-1.53.1.28.5.54.81.85.3.3.53.68.12,1.16.33-.13.73-.36,1.14-1-.24.11-.96-.19-.77-.43.52-.05.68-.12.85-.2.17-.08.35-.17.9-.45-.3.21-.74-.64-.43-1.03.06.14.72.45.68.66.06-.54.04-1.07,0-1.59-.03.35.59.41.96.24-.19.06.53-1.08.57-1.46-.12.16-.26.31-.4.46.68-1.4-.6-1.77-.26-3.08.14.19.98.64,1.21-.09-.19-.2-.62-.68-1.08-1.18-.46-.53-.9-1.08-1.05-1.7l.26-.22-.24-.94c.63.61,1.92,2.25,2.34,3.31.25-.53.31-.12.36-.97.26-.28.31.49.3.75l.16-1,.12-.92c-.51.06-.44-1.41-.86-1.36l.43,1.99c-.51.05-1.37-1.2-1.23-2.47.21-.32.89.28,1.06.26-.17-.17-.28-1.23-.16-1.34l.25.55c.21-.71-.63-1.19-.12-2.03.04-.29.67-.87.38-.93-.59.47-2.37.51-2.79.18.04-.1.58-1.52.87-1.86.46-.48,1.06.75,1.46.34-.14-.02-.3-.29-.35-.4.12-.31.43.14.37-.54-.51-.12.06-1.37-.43-.32-.14-.66.12-.7.1-1.47-.33.24-1.12-.7-1.27-1.35.13.04.3-.11.38-.18.04-1.34.27-2.07.25-3.33.12-.12.26-.73.48-.47-.09-.18-.27-.34-.29-.73.42-.76.09.86.61.28-.3-.04-.44-.99-.64-1.54-.46.18-.05,1.28.15,1.83-.63.02-1.32-.93-1.65-2.22-.2-1.03.39-.46.29-.64.03-1.96-1.17-1.61-.8-3.24.37-.66.8-.07,1.08-.23.2.84-.19,1.31-.14,1.88l.16-.71c.15.26.27.82.17,1.14.34-.56-.09-3.3.13-4.83-.15-.26-.33-.71-.47-.48l.09.47c-.29.46-.51-.86-.62-.25-.14-.31-.31-.64-.43-1-.14-.34-.22-.71-.18-1.15l.43-.23c-.12.04-.21.6-.04.82-.12-.17,0-.51.06-.87.04-.35.03-.7-.3-.83l-.2.65c-.18-.27-.4-.57-.61-.87-.22-.29-.4-.6-.43-.96-.35.44.1.15-.28.77.25-.29.39.12.47.54.08.41.15.8.43.38-.49.62-.11.95-.56,1.68.15-.03.27-.28.25.35.05.03.11.09.14.14,0,.02,0,.03,0,.05l.02-.04s.03.03,0-.01c.05-.16.13-.3.2-.35.37.3.44,1.36.64,1.7-.05.4-.18-.15-.33.07l.3.52c-.33.08-.49,1.08-.75.17l.04.83c-.16.5-.2,1.18-.04,1.59-.05.4.42.98.14.65l.27,1.3-.08.02c.01,1.29.65,2.65.07,4.14.09.43.2.88.12,1.61l-.29.14c.1.56-.28,1.68.02,1.92-.78.6-.18,2.71-.35,3.69l.38.04c-.03.68.06,1.33.19,2.17l.34-.04c.25.74-.3,1.86-.31,3.01-.13-.08-.08-.37,0-.58-.82,1.33.44,2.96-.27,3.99.08.29,0,.49-.11.67,0-.03,0-.05,0-.07,0,.03-.02.07-.02.11-.08.11-.17.22-.26.33.11-.09.2-.18.25-.27-.04.21-.08.53-.07.86l-.38.03s0,.04-.01.07c-.22.24.08.28.4.21,0,.17.03.33.07.47-.61.04-.13.86-.83.91.11.17-.04.52-.15.91-.11.38-.24.76-.03,1.03-.07-.04-.16.01-.06-.13-.25.27-.57.45-.64.82l-.43-.21c-.04.31-.09.64-.16.98-.56.1-.8.05-.66-.49-.56,1.09-.58.68-1.17,1.63l-.09-.28c-.31.14-.66.78-.96.61-.48-.13-1.38.19-2.52.35-.56.11-1.17.14-1.79.17-.64,0-1.27-.02-1.83-.12.48.85-1.05-.33-1.09.35-.14-.2-.45-.3-.11-.5-1.11.26-1.7-.24-2.45.37-.14-.2.23-.31.11-.43-.09.05-.35.2-.47.08-.12-.12.16-.18.33-.28-1.14.09-1.23.72-1.29,1.33-.59-.26-.88-.21-1.29.2-.21-.19-.55-.38.16-.48-.4-.01-2.46-.22-2.49.26-.13-.12-.56-.02-.67.03-.9-.02-.98-.06-1.87,0l.25.08c-.34.58-.74.13-1.45.21l.02-.06c-1.64-.42-.71.2-2.32-.28l.08.36c-.16.77-1.43-.47-2.37-.2l.33.21c-.52.26-1.41-1.08-1.91-1.2-.11-.07.18-.1.34-.15-1.32-.5-.19.47-1.19.55-.18-.26.26-.64-.41-.71-.32-.21-1.98.75-2.88.21.19.21.38.41-.09.53-.36.02-.83-.2-1.29-.34-.43-.16-.83-.25-1.16.03-.08-.06-.1-.12-.09-.17-.25.03-.66.02-1.05.04-.38-.02-.76-.01-.96.11-.02-.32-.21-.52-.49-.65-.28-.12-.65-.19-.99-.29-.72-.15-1.34-.43-1.02-.88-.22-.12-.4-.28-.6-.42-.2-.14-.39-.29-.57-.47l.11-.06c-.31-.35-.56-.54-.77-.68-.22-.13-.44-.17-.66-.23-.06-.24.12-.16.17-.18-.3-.65-.46-.98-.66-1.28-.23-.28-.5-.51-1-.98l.3-.25c-.16-.11-.19-.66-.25-1.31-.01-.33-.05-.69-.11-1.05-.04-.37-.13-.73-.29-1.07.04,0,.11.03.19.14-.15-.38-.16-.83-.15-1.27.04-.48.12-.97.17-1.42.11-.9.12-1.66-.57-1.96l-.37-1.13c-.06,1.48-.59-.21-.8.41-.1-.58.37-1.52.46-.8l-.06.11c.71.25.21-1.85.69-1.82-.09-2.91.29-5.75.34-8.47l-.55.31.04-.95c.13-.25.43-.33.4.35.31-.35-.25-1.14-.37-1.16.24-1.32.63.53.65.12l-.03-.55-.07.12c-.22-.45-.45-.5-.41-1.31.12-.51.34-.26.37-.46.04,0,.06-.07.02-.31l.08-1.2-.45.47c-.2-.54.05-1.13-.45-.59.78-.77.4-4.51.72-4.87-.23-.71-.12-1.42.16-2.21-.14.18-.65.18-.38-.54.86.57.87-1.14,1.81-1.29-.71.19.93-1.73-.06-1.45.43-.43.33.19.79-.02.12-.34.33-.64.61-.9.25-.28.58-.51.92-.73.67-.45,1.45-.77,2.17-1.22-.03-.13-.39-.19-.13-.52.38.07.75.14,1.1.23.29-.17.04-.82.79-.59-.12-.08-.3-.19-.09-.31,1.78-.24,3.46-.5,5.42-.62,1.91-.12,3.84-.09,5.75.54-.52-.26-.17-.28.23-.29-.26-.06.01-.33-.04-.51l1.6.52c.3-.49,1.74-.01,1.91-.49l-.51.08c.68-.55-.94-1.25-.83-1.97-.77.63-1.98-.97-3.25-.08-.27-.15.24-.23.09-.4-.32.3-.7.36-1.41.22l.08-.08c-2,.07-2.86-.24-5.16-.33l.19.35c-.49-.03-.61-.12-.86-.18-.27.3.09.27.45.25.35,0,.71,0,.47.31-.33-.35-1.24-.28-2.11-.18-.44.07-.86.13-1.23.13-.36.03-.65-.01-.82-.18-.79.2.33.34-.45.53-.09-.06-.18-.1-.27-.15l-.11.34c-.51.13-.86-.05-.95-.21.13-.02.34-.17.46-.23-.77-.05-1.82.85-2.07.88.26-.09.53-.15.79-.22-1,.54-2.09,1.19-3.07,1.98-1,.78-1.79,1.8-2.25,2.81l.23-.04c-.62,1.53-.91,1-1.51,2.71v-.08c.03.4-.1.86-.23,1.32-.07-.49-.59.72-.64.09-.09.91-.02,1.14.04,1.3.08.16.2.26.41.85-.11.07-.2.15-.31.22.22.41.35.46.35,1.3-.19-.7-.46.53-.72-.27-.69,1.72.52,2.57-.4,3.34.75.81.47-1.47.62-1.02.26-.36.55.67.46,1.2-.03.55-1.01.9-1.03,2.28,0-.14-.05-.15-.04-.28-.21.51.24,1.02-.08,1.64.46.36-.04.82.55.93l-.12-1.27c.14.72.83,1.4.48,2.57-.12-.09-.27-.44-.36-.69-.18.34.11.67-.07,1.02-.59-.11-.11-1.54-.56-2.31-.26.37.41,1.46-.23,1.07.81.56-.12,1.36.5,2.3l-.36-.06c.05.15.22.46.21.73l-.46-.49c.39.76-.35,1.46-.13,2.19-.02-1.52.43-.34.69-.98.48,1.87-.93,1.08-.74,3.18-.05-.28.2-1.07.37-.63-.07.4-.2.93-.39,1.18.09,1.39.36-.22.59.37-.43.48.19.68.33,1.29h-.36c-.2,1.6.76.42.51,1.85l-.52-.59.15.74-.42-.14c.32.8.25,1.06.16,1.85.25-.19.66.08.69.78-.2.48-.35-.26-.27.73-.23-.22-.52-.45-.21-.9-.12-.04-.23-.21-.35-.26-.23.52-.02,1.3,0,1.66,0-.14.02-.31.07-.39l.55,1.42c-.13.23-.24.06-.36-.12.05.28.23.5.3.96-.3-.09-.61-.06-.79-.71l.43,1.49c-.12.11-.24.83-.37.64-.02.44.19.95.47,1.47.24.53.54,1.06.62,1.64.07.04.16.14.28.35.34,1.01.42,2.11,1.52,2.99,0,.3-.02.62.01.93.75.74-.11-1.18,1.12,0,.92.77-.03.63.16,1.05.32.12.74.29,1.19.48.44.22.86.51,1.22.98-.36-.13-.57-.32-.86-.52ZM22.45,57.57c-.21.07-.65.28-.79.06.26-.4.44-.19.79-.06ZM38.97,56.67c-.15.13-.4.08-.67-.05.2-.04.42-.03.67.05ZM54.65,22.56l.02.02c-.11.47-.07.3-.02-.02ZM54.76,21.59c-.06-.09-.11-.08-.15-.04.1.06.12.28.1.52.09-.07.15-.2.05-.48ZM8.83,24.65l-.1.19c-.1-.43,0-.31.1-.19Z" class="uuid-b3c87a4c-22b6-4518-9c99-060fa2212c72"></path><path d="M37.12,57.24c-.06-.06-.08-.13-.1-.19-.08.06-.08.13.1.19Z" class="uuid-b3c87a4c-22b6-4518-9c99-060fa2212c72"></path><path d="M6.44,48.67v-.04s-.06-.02-.08-.02l.08.05Z" class="uuid-b3c87a4c-22b6-4518-9c99-060fa2212c72"></path><path d="M58.14,36.54c-.06.2-.12.31-.19.38.09.01.16-.08.19-.38Z" class="uuid-b3c87a4c-22b6-4518-9c99-060fa2212c72"></path><path d="M53.67,16.82l.2.51c-.07-.25,0-.36.02-.5-.08.03-.18.15-.22-.01Z" class="uuid-b3c87a4c-22b6-4518-9c99-060fa2212c72"></path><path d="M53.76,11.45c-.09-.04-.13-.15-.22-.19l-.12.12c.26.28.51.43.34.06Z" class="uuid-b3c87a4c-22b6-4518-9c99-060fa2212c72"></path><path d="M54.74,16.06c.28-.11.08-.45-.09-.82,0,.02.02.04.02.07-.44.01-.19.37.07.75Z" class="uuid-b3c87a4c-22b6-4518-9c99-060fa2212c72"></path><path d="M54.62,15.15c-.05-.12-.08-.24-.12-.36-.18.01.02.15.12.36Z" class="uuid-b3c87a4c-22b6-4518-9c99-060fa2212c72"></path><path d="M54.48,20.39c.06-.21-.4-.1-.28-.23-.4-.2.56,1.33.28.23Z" class="uuid-b3c87a4c-22b6-4518-9c99-060fa2212c72"></path><path d="M55.62,15.48l-.32.24.36.16c0-.13-.02-.27-.04-.4Z" class="uuid-b3c87a4c-22b6-4518-9c99-060fa2212c72"></path><path d="M55.89,18.89c.02-.23.03-.47.04-.7-.06.02-.11-.07-.15-.17.04.42,0,.89.11.87Z" class="uuid-b3c87a4c-22b6-4518-9c99-060fa2212c72"></path><path d="M55.78,18.02c-.02-.22-.05-.43-.12-.54.02.12.06.37.12.54Z" class="uuid-b3c87a4c-22b6-4518-9c99-060fa2212c72"></path><polygon points="55.95 16.39 55.91 16.6 55.98 17.09 55.95 16.39" class="uuid-b3c87a4c-22b6-4518-9c99-060fa2212c72"></polygon><path d="M56.23,26.35l.13.75c.13.07.2-.14.14-.42-.09-.18-.16-.46-.28-.34Z" class="uuid-b3c87a4c-22b6-4518-9c99-060fa2212c72"></path><path d="M57.16,24.01c-.07.21-.15.23-.27.35h.47s-.2-.35-.2-.35Z" class="uuid-b3c87a4c-22b6-4518-9c99-060fa2212c72"></path><path d="M57.36,26.22c.13.07.41,1.09.35.13-.13-.07-.27-.83-.35-.13Z" class="uuid-b3c87a4c-22b6-4518-9c99-060fa2212c72"></path><polygon points="56.84 37.69 56.84 37.5 56.07 37.51 56.84 37.69" class="uuid-b3c87a4c-22b6-4518-9c99-060fa2212c72"></polygon><path d="M57.79,48.27c.43-.96-.4-.35.04-1.19-.12-.26-.36.68-.45.41.04.63-.15.92.41.78Z" class="uuid-b3c87a4c-22b6-4518-9c99-060fa2212c72"></path><path d="M57.38,47.49c0-.1-.02-.21-.04-.32,0,.18.02.27.04.32Z" class="uuid-b3c87a4c-22b6-4518-9c99-060fa2212c72"></path><polygon points="30.6 8.78 31.18 8.94 30.8 8.68 30.6 8.78" class="uuid-b3c87a4c-22b6-4518-9c99-060fa2212c72"></polygon><path d="M31.72,8.22l.14.49.32-.4,1.35-1.35-.04-.03s0,.02,0,.03l.16,1.08-1.48.24c-.13.02-.36.05-.46-.05Z" class="uuid-b3c87a4c-22b6-4518-9c99-060fa2212c72"></path><path d="M24.03,58.61l.05-.12c-.09-.13-.22-.14-.5-.17l.45.29Z" class="uuid-b3c87a4c-22b6-4518-9c99-060fa2212c72"></path><polygon points="15.76 57.53 15.91 57.59 15.74 57.08 15.76 57.53" class="uuid-b3c87a4c-22b6-4518-9c99-060fa2212c72"></polygon><path d="M8.63,53.93c.22.26.58.47.8.72-.59-.47-.46-1.15-.8-.72Z" class="uuid-b3c87a4c-22b6-4518-9c99-060fa2212c72"></path><path d="M.44,31.37c.03-.31-.29-.2-.34-.24.07.51.42.23.34.24Z" class="uuid-b3c87a4c-22b6-4518-9c99-060fa2212c72"></path><polygon points="1.15 36.41 1.02 36.32 1.34 37.06 1.15 36.41" class="uuid-b3c87a4c-22b6-4518-9c99-060fa2212c72"></polygon><path d="M1.15,41.12c.54-.45-.09-1.71.1-2.55l.12-.14-.43-.38c.07,1.02.35,2.34.21,3.06Z" class="uuid-b3c87a4c-22b6-4518-9c99-060fa2212c72"></path><path d="M.09,43.8c.2-.18.21.57.04-.63-.02.06-.03.08-.05.12,0,.11.01.26.01.52Z" class="uuid-b3c87a4c-22b6-4518-9c99-060fa2212c72"></path><path d="M.08,43.28c-.04-.53-.16.36,0,0H.08Z" class="uuid-b3c87a4c-22b6-4518-9c99-060fa2212c72"></path><path d="M.45,45.73l-.27-.68c-.1.16-.06.8-.17.58.19.71.29.54.44.1Z" class="uuid-b3c87a4c-22b6-4518-9c99-060fa2212c72"></path><path d="M.94,46.33c-.05-.11-.1-.23-.15-.34-.05.07-.04.17.15.34Z" class="uuid-b3c87a4c-22b6-4518-9c99-060fa2212c72"></path><path d="M.54,45.24l.26.74c.07-.11.24-.15-.1-.34.16.04,0-.09-.16-.4Z" class="uuid-b3c87a4c-22b6-4518-9c99-060fa2212c72"></path><path d="M.57,44.8c.07-.4.08-.91.35-.24-.22-1.3-.58-1.09-.35.24Z" class="uuid-b3c87a4c-22b6-4518-9c99-060fa2212c72"></path><path d="M1.7,41.35l.16-.49-.18-.42c.09.21-.14.95.02.91Z" class="uuid-b3c87a4c-22b6-4518-9c99-060fa2212c72"></path><path d="M1.22,50.15c.12,0,.22-.33.34-.43l-.28-.47c0,.28.09.8-.06.89Z" class="uuid-b3c87a4c-22b6-4518-9c99-060fa2212c72"></path><path d="M1.56,49.72c.14.23.26.46.43.68-.22-.67-.32-.77-.43-.68Z" class="uuid-b3c87a4c-22b6-4518-9c99-060fa2212c72"></path><path d="M1.55,46.35c-.23-.38-.4-.77-.59-1.17.19.48.39.95.64,1.41l-.05-.23Z" class="uuid-b3c87a4c-22b6-4518-9c99-060fa2212c72"></path><polygon points="2.43 53.02 1.97 52.72 2.72 53.28 2.43 53.02" class="uuid-b3c87a4c-22b6-4518-9c99-060fa2212c72"></polygon><path d="M3.52,54.8c-.38-.17-.04.6-.36.37.37.46.77.78,1.21,1-.4-.29-.62-.75-.85-1.37Z" class="uuid-b3c87a4c-22b6-4518-9c99-060fa2212c72"></path><path d="M5.03,56.57c-.19-.14-.42-.27-.67-.41.2.16.42.3.67.41Z" class="uuid-b3c87a4c-22b6-4518-9c99-060fa2212c72"></path><path d="M2.45,51.68c-.03.08-.18.27-.04.71.05-.14.09-.28.15-.42-.03-.09-.07-.19-.11-.29Z" class="uuid-b3c87a4c-22b6-4518-9c99-060fa2212c72"></path><path d="M2.57,51.95h0c.13.33.25.53.29.63-.03-.08-.14-.26-.28-.63Z" class="uuid-b3c87a4c-22b6-4518-9c99-060fa2212c72"></path><path d="M2.42,51.6s.02.05.03.07c.02-.04.02-.06-.03-.07Z" class="uuid-b3c87a4c-22b6-4518-9c99-060fa2212c72"></path><path d="M1.7,48.36c.3.39.75,1.22.76.29-.3-.25-.3.29-.76-.29Z" class="uuid-b3c87a4c-22b6-4518-9c99-060fa2212c72"></path><path d="M2.64,51.09l-.24-.79c-.07.04-.13.23-.3.05l.54.74Z" class="uuid-b3c87a4c-22b6-4518-9c99-060fa2212c72"></path><polygon points="2.89 51.42 2.64 51.09 2.73 51.39 2.89 51.42" class="uuid-b3c87a4c-22b6-4518-9c99-060fa2212c72"></polygon><path d="M4.34,55.23c.31.23.59.52.9.86-.28-.41-.56-.81-.82-1.22-.12,0-.39-.07-.08.36Z" class="uuid-b3c87a4c-22b6-4518-9c99-060fa2212c72"></path><path d="M3.42,53.66s.04.04.05.06c0-.06-.01-.1-.05-.06Z" class="uuid-b3c87a4c-22b6-4518-9c99-060fa2212c72"></path><polygon points="8.52 59.12 8.5 59.03 8.45 59.06 8.52 59.12" class="uuid-b3c87a4c-22b6-4518-9c99-060fa2212c72"></polygon><path d="M4.43,54.77c-.15-.33-.34-.47-.54-.59.18.21.36.44.53.69.05,0,.08-.01,0-.1Z" class="uuid-b3c87a4c-22b6-4518-9c99-060fa2212c72"></path><path d="M6,57.42c-.1-.18-.21-.37-.32-.58.04.22.21.6.32.58Z" class="uuid-b3c87a4c-22b6-4518-9c99-060fa2212c72"></path><path d="M3.45,53.88l-.04-.04c0,.14.02.11.04.04Z" class="uuid-b3c87a4c-22b6-4518-9c99-060fa2212c72"></path><path d="M3.45,53.88c.14.14.29.22.43.3-.15-.16-.29-.32-.42-.46,0,.05,0,.11-.02.15Z" class="uuid-b3c87a4c-22b6-4518-9c99-060fa2212c72"></path><path d="M10.72,58.1c-.1.11-.37.12-.69.01-.31-.11-.62-.38-.83-.73-.72-.26-.97.77-.71,1.65.1-.1.16-.16.94.14-.17-.27-1.23-1.37-.53-1.17.92.5.62.6.98.99-.17-.53,1.42.21,1.48-.39l-.85-.28c.03-.08.37-.04.2-.22Z" class="uuid-b3c87a4c-22b6-4518-9c99-060fa2212c72"></path><path d="M7.26,58.02l-.28-.21c.25.31.38.6.67,1.09.56.24.72.22.81.16-.44-.36-.92-.67-1.31-1.09l.12.05Z" class="uuid-b3c87a4c-22b6-4518-9c99-060fa2212c72"></path><path d="M5.86,56.74c.4,0,1.11.43.99-.15-.7-.67-.65-.32-1.16-.66,1.1,1.17-.44-.23.19.78-.25-.21-.45-.42-.64-.62.16.25.31.5.44.75,0-.02,0-.03-.01-.04h0s0,0,0,0c-.02-.08-.01-.12.02-.04,0,0,.02.02.03.02.04-.02.09-.03.14-.03.26.41-.01.11-.14.03-.02,0-.04,0-.05.02h0c.4.39.87.7,1.3,1.03-.22-.28-.56-.54-1.12-1.08Z" class="uuid-b3c87a4c-22b6-4518-9c99-060fa2212c72"></path><path d="M3.35,49.21c-.01.05-.04.06-.06.07.07.08.1.11.06-.07Z" class="uuid-b3c87a4c-22b6-4518-9c99-060fa2212c72"></path><path d="M3.36,49.86c-.09-.08-.24-.13-.31-.48,0-.33.15-.05.24-.1-.14-.17-.44-.65-.39.05l.07.09c.06.62.03,1.49-.06,1.42.2-.28.33-.5.45-.98Z" class="uuid-b3c87a4c-22b6-4518-9c99-060fa2212c72"></path><path d="M4.31,53.35l.85.99-.13-.7-.12.12c-.35-.64-.44-.4-.6-.41Z" class="uuid-b3c87a4c-22b6-4518-9c99-060fa2212c72"></path><path d="M8.56,59.34l-.35.17c.32.02.61.07.93.06-.2-.06-.39-.15-.58-.23Z" class="uuid-b3c87a4c-22b6-4518-9c99-060fa2212c72"></path><polygon points="10.09 60.25 9.89 60.48 10.38 60.56 10.09 60.25" class="uuid-b3c87a4c-22b6-4518-9c99-060fa2212c72"></polygon><path d="M59.11,14.8c-.06-.1-.11-.2-.17-.29.07.14.12.23.17.29Z" class="uuid-b3c87a4c-22b6-4518-9c99-060fa2212c72"></path><path d="M59.62,17.14l.15.03c-.1-.1-.17-.13-.15-.03Z" class="uuid-b3c87a4c-22b6-4518-9c99-060fa2212c72"></path><path d="M50.37,61.78c.32.04.67.11.93.13.25,0,.39-.04.3-.18l-.29-.23c-.35.21-.67.26-.94.28Z" class="uuid-b3c87a4c-22b6-4518-9c99-060fa2212c72"></path><path d="M61.84,38.28s-.07.1-.1.15c.11.13.21.25.3.36-.06-.16-.13-.33-.2-.52Z" class="uuid-b3c87a4c-22b6-4518-9c99-060fa2212c72"></path><path d="M60.5,37.88l.23-.69c-.08.15-.15.37-.23.69Z" class="uuid-b3c87a4c-22b6-4518-9c99-060fa2212c72"></path><path d="M50.94,5.62l-.48.16c.53.22.37-.03.48-.16Z" class="uuid-b3c87a4c-22b6-4518-9c99-060fa2212c72"></path><path d="M26.96,63.12c.46.13.82.19,1.14.21-.55-.19-.99-.48-1.14-.21Z" class="uuid-b3c87a4c-22b6-4518-9c99-060fa2212c72"></path><path d="M62.7,14.89c-.12-.22-.21-.3-.28-.27.12.22.21.34.28.27Z" class="uuid-b3c87a4c-22b6-4518-9c99-060fa2212c72"></path><path d="M29.42,63.34c-.08-.03-.16-.05-.24-.08-.33.05-.67.09-1.08.07.41.14.87.23,1.32.01Z" class="uuid-b3c87a4c-22b6-4518-9c99-060fa2212c72"></path><path d="M5.86,12.67s-.05.06-.08.08c.04.03.06-.01.08-.08Z" class="uuid-b3c87a4c-22b6-4518-9c99-060fa2212c72"></path><path d="M.84,26.71c-.02-.15-.02-.39-.02-.62-.02.11-.02.3.02.62Z" class="uuid-b3c87a4c-22b6-4518-9c99-060fa2212c72"></path><path d="M16.68,62.76c-.37-.05-.06.03,0,0h0Z" class="uuid-b3c87a4c-22b6-4518-9c99-060fa2212c72"></path><path d="M15.26,61.11c.08-.02.15-.05.18-.12-.05.07-.11.11-.18.12Z" class="uuid-b3c87a4c-22b6-4518-9c99-060fa2212c72"></path><path d="M32.81,61.33h.03c-.1-.06-.08-.05-.03,0Z" class="uuid-b3c87a4c-22b6-4518-9c99-060fa2212c72"></path><path d="M16.17,62.5c.13.07.27.14.44.2-.07-.04-.2-.11-.44-.2Z" class="uuid-b3c87a4c-22b6-4518-9c99-060fa2212c72"></path><path d="M16.21,62.66c-.12-.04-.22-.07-.31-.11-.06.04-.02.08.31.11Z" class="uuid-b3c87a4c-22b6-4518-9c99-060fa2212c72"></path><path d="M17.19,62.82c-.21-.03-.4-.07-.58-.12.07.03.09.06.07.06.11.01.26.03.51.06Z" class="uuid-b3c87a4c-22b6-4518-9c99-060fa2212c72"></path><path d="M28.05,2.75s-.05-.02-.07-.03c-.34.14-.19.11.07.03Z" class="uuid-b3c87a4c-22b6-4518-9c99-060fa2212c72"></path><path d="M55.96,54.24v.04s.02-.02.03-.03h-.03Z" class="uuid-b3c87a4c-22b6-4518-9c99-060fa2212c72"></path><path d="M56.48,53.24c.05.63-.17.81-.49,1.01.32.12.64.23.96.34-.12-.45-.31-.92-.48-1.35Z" class="uuid-b3c87a4c-22b6-4518-9c99-060fa2212c72"></path><path d="M56.53,9.84c.07.26.16.5.21.77-.92-.45-1.17-1.01-1.08-.24.43-.27.91.27,1.28.88.43.58.72,1.24,1.22,1.06l.03.54c-.05-.13-.12-.13-.17-.26-.01,1.06.95.38,1.3,1.66.07.46-.01.81-.2.54l.5.91c.06.29-.13.26-.19-.03.18.48.26,1,.39,1.5h-.03c.19.19.54.65.65.89-.11.42-.12-.19-.24-.07l.32.85c-.23.38-.55-.32-.56-.92-.95.93.34.65-.15,2.51-.06-.28-.1-.59-.17-.85-.54.56-.31,1.25-.63,2.23.18-.24.82-2,1.12-1.01-.06.29-.09.66.14,1.19-.36.02-.25.54-.21,1.2l-.48-.03c.16.71.41.64.63,1.05-.03.8-.39.97-.7,1.16-.05,1.27.58-.89.7.61-.16,1.06.05,1.8.35,3.06-.16.74-.29-.13-.43.14l.39.65c0,.16-.13.11-.19.08.15.55.48.04.61.91.53.24-.77,1.79-.18,2.87-.14.26-.29-.13-.48-.05.38,1.48.28,1.27.78,2.49l-.33,1.03c.38-.75.78.23,1.11,1.09.18-.27.34-.49.41-.65l.22,1.37c-.08.16-.24.02-.44-.21.04.09.07.18.11.25-.19.48-.46.22-.72-.13l.31-.48c-.28-.34-.6-.67-.88-.6.05.09.1.26.12.45-.08-.09-.15-.15-.2-.11-.05.04.05.19.17.41l-.54.29.21.08-.39,1.76c.49,1.3,1.27,2.41,1.25,4.45-.31-.54-.62-.19-1.07-.28.55-.48-.06-1.5.1-2.51-.07.54-.29.41-.36.27l.3,1.8c-.37-.08-.31.34-.55.77.78-.24.33,1.4.31,2.14-.26-.02-.44-.24-.21-1.08-.75.8.57,1.43-.16,2.24.07-.2.13-.31.03-.43.09.56-.53,1.65-.63,1.3l.07-.2c-.25.66-.72,1.62-1.08,2.47-.2.42-.36.81-.45,1.15-.09.33-.14.57-.04.71-.07-.04-.51-.6-.57-.73.05.53.08,1.08.09,1.66,0,.57-.05,1.12-.11,1.72-.25-.54-1.75-.84-1.2-1.89-.3.17-.58.45-.98,1.02.22-.08.98.2.77.45-1.08.11-.67.19-1.81.43.35-.1.57.79.08,1.1,0-.15-.52-.67-.42-.85-.2.47-.39,1-.67,1.45.22-.3-.32-.64-.7-.7.2.07-.98.57-1.29.75l.6-.05c-1.42.49-.9,1.74-2.46,2.19.14-.23.11-1.17-.65-1.03-.11.26-.35.84-.77,1.46-.21.31-.46.63-.75.9-.29.25-.63.47-.99.61l-.32-.2c-.36.16-.73.29-1.1.4.7-.68,2.35-2.31,3.15-3.09-.6-.06-.22-.25-1.03-.03-.33-.16.37-.45.6-.52-.63.12-1.28.16-1.92.2.08.24-.27.43-.64.59-.37.14-.75.27-.69.48.72-.2,1.41-.49,2.08-.77.19.46-1.03,1.66-2.55,1.62-.38-.18.23-.92.18-1.08-.16.19-1.35.42-1.51.28l.63-.29c-.84-.17-1.35.7-2.36.25-.35-.02-1.05-.63-1.1-.33.58.56.73,2.34.36,2.78-.12-.04-1.84-.51-2.24-.79-.58-.44.84-1.09.35-1.47-.02.14-.33.31-.46.37-.37-.11.14-.43-.65-.36-.13.51-1.61-.02-.37.44-.77.15-.83-.1-1.73-.07.29.33-.81,1.13-1.59,1.28.05-.13-.13-.3-.21-.38-1.59-.04-2.45-.28-3.93-.29-.14-.12-.85-.28-.54-.5-.21.09-.41.26-.87.27-.88-.45,1.02-.05.35-.6-.06.3-1.19.4-1.84.57.19.46,1.5.11,2.16-.07,0,.63-1.15,1.28-2.71,1.55-1.24.13-.53-.42-.74-.33-2.32-.17-1.99,1.07-3.94.52-.77-.46,0-.8-.15-1.11,1.01-.07,1.54.32,2.22.33l-.83-.22c.32-.12,1-.21,1.36-.08-.62-.39-3.93-.13-5.63-.82-.33.09-.9.14-.67.34l.57.03c.47.4-1.15.28-.45.54-.8.08-1.77.23-2.8-.26l-.06-.51c-.02.14.61.5.95.42-.53.12-1.41-1.11-2.09-.69l.63.55c-.84,0-1.96.02-2.84-.55.23.6.23.05.69.84-.16-.44.44-.14,1.01.09.58.2,1.11.38.74-.11.51.82,1.13.69,1.96,1.4,0-.15-.27-.36.56-.09.05-.03.15-.07.21-.09.02.01.03.02.05.02l-.04-.03s.05-.02-.02,0c-.19-.11-.33-.23-.37-.33.25-.13.69-.09,1.14-.07.45,0,.89.03,1.12-.03.48.14-.23.14.01.34l.7-.17c.02.37,1.26.67.06.77l1.06.1c.61.23,1.49.37,1.98.24.47.09,1.21-.34.79-.08l1.58-.17v.08c1.57.08,3.22-.5,4.99.13.52-.08,1.07-.18,1.94-.08l.17.29c.67-.1,2.02.29,2.31-.02.73.78,3.27.14,4.45.26l.04-.38c.81,0,1.59-.12,2.6-.29l-.07-.33c.88-.31,2.2.21,3.69.06-.09.13-.46.13-.73.07.89.33,1.82.13,2.69-.19.88-.27,1.68-.68,2.53-.59.36-.2.64-.26.93-.27-.04.01-.06.03-.09.05.04-.01.1-.03.16-.05.19,0,.38,0,.59,0-.19-.02-.36-.04-.5-.02.29-.1.72-.29,1.13-.52l.31.26s.06-.03.1-.05c.47-.06.27-.31-.05-.46.19-.15.35-.3.47-.44.58.39,1-.65,1.71-.37.06-.22.55-.53.97-.92.41-.41.78-.85.69-1.17.06.06.19.01,0,.16.46-.21.88-.51,1.1-.94l.47.2c.14-.4.28-.78.37-1.2.65-.28.97-.39.77.35.71-1.55.72-1.14,1.12-2.53l.2.22c.3-.39.32-1.28.69-1.4.27-.16.58-.53.86-1.06.3-.52.63-1.18.87-1.92.59-1.45.94-3.18,1.41-4.52-.48.2-.32-.1-.15-.48.16-.38.34-.86,0-.94.22-.14.37-.52.51-.06-.07-1.46.44-2.05-.08-3.02.21-.15.29.3.42.17-.04-.11-.17-.43-.04-.57.13-.13.17.2.25.42.01-1.38-.62-1.54-1.22-1.66.3-.69.27-1.04-.11-1.55.2-.24.42-.64.47.22.04-.48.35-2.93-.14-2.99.12-.15.04-.67,0-.8.04-1.08.08-1.17.04-2.23l-.08.29c-.58-.42-.13-.88-.2-1.73l.06.02c.41-1.96-.2-.84.25-2.78l-.36.11c-.77-.17.43-1.72.1-2.83l-.19.41c-.28-.6,1.01-1.74,1.08-2.36.06-.14.11.21.17.39.4-1.63-.48-.19-.63-1.39.25-.23.66.26.67-.55.19-.42-.91-2.28-.56-3.52-.17.28-.34.55-.54-.02-.05-.44,0-1.06.02-1.67,0-.31,0-.61-.07-.88-.08-.27-.21-.49-.41-.65.02-.12.06-.18.11-.2-.18-.31-.35-.85-.63-1.31-.27-.47-.54-.89-.77-1.02.5-.54-.15-1.47-.74-2.27-.66-.77-1.27-1.43-.83-1.75-.47-.55-.88-1.15-1.41-1.64l.13-.04c-.89-1.09-1.48-1.18-2.01-1.28-.19-.26.05-.2.11-.23-.67-.77-1.16-1.06-1.6-1.32-.44-.26-.96-.33-1.81-.49l.02-.41c-.24-.04-.84-.43-1.63-.91-.39-.25-.87-.42-1.35-.6-.48-.18-1-.29-1.5-.28.03-.04.08-.1.25-.11-.57,0-1.15-.18-1.74-.32-.59-.14-1.19-.32-1.75-.47-1.12-.2-2.13-.31-2.49.39l-1.37.33c1.76.1-.27.59.45.81-.69.08-1.78-.41-.93-.48l.13.07c.32-.71-2.18-.25-2.13-.73-3.47.04-6.84-.36-10.09-.39l.38.55-1.13-.03c-.3-.13-.4-.43.41-.41-.43-.31-1.35.26-1.38.38-1.58-.22.61-.64.13-.65l-.66.04.15.06c-.53.22-.58.46-1.55.44-.62-.11-.32-.34-.56-.36,0-.04-.08-.06-.37-.02l-1.43-.05.58.43c-.63.21-1.34-.02-.68.47-.49-.37-1.8-.48-3.17-.37-.67.02-1.33.14-1.85.22-.53.08-.93.11-1.09.1-.85.53-1.73.7-2.81,1.07.3,0,.61.4-.31.65-.04-1.09-1.81.27-2.84.06.43.03-.18.41-.72.79-.54.38-.96.84-.32.78-.71.42-.25-.28-.9-.1-.17.19-.36.36-.56.54-.19.18-.38.37-.58.55-.4.37-.87.7-1.28,1.11-.87.78-1.73,1.69-2.33,2.79.09.1.47-.14.37.41-.4.25-.82.52-1.23.8-.15.48.5.74-.29,1.35.15-.07.38-.17.29.14-1.24,2.06-1.68,4.54-1.81,6.93-.08,1.23-.05,2.37-.12,3.52-.07,1.15-.23,2.3-.53,3.44.26-.62.28-.2.29.27.06-.31.33.01.5-.05l-.5,1.91c.5.35.03,2.05.5,2.25l-.08-.61c.56.81,1.25-1.12,1.96-1-.64-.9.95-2.35.04-3.84.15-.32.23.28.4.11-.31-.38-.37-.83-.23-1.66l.08.1c-.04-1.17.02-2.01.12-2.88.06-.42.15-.83.24-1.3.07-.47.19-.98.35-1.57l-.38.13c.13-.52.25-.61.38-.84-.44-.71-.26,1.47-.76.83.41-.31.54-1.24.8-2.11.19-.89.59-1.69,1.03-1.77.27-.75-.48.07-.17-.68l.29-.11-.18-.3c.27-.47.63-.58.8-.52-.07.1-.1.35-.14.48.47-.51.82-1.68,1-1.85l-.5.58c.11-.24.24-.49.37-.74.14-.25.32-.47.48-.71.17-.23.33-.48.52-.71l.59-.66c.78-.89,1.67-1.65,2.41-2.45l-.23-.04c.57-.62.92-.69,1.24-.83.17-.06.34-.12.56-.22.23-.08.52-.21.92-.43l-.04.06c.26-.31.67-.59,1.16-.72-.36.33.93.08.44.48.77-.46.98-.55,1.09-.68.12-.13.14-.28.66-.73l.33.21c.34-.35.36-.45,1.28-.67-.72.35.64.33-.15.77.98.14,1.65-.03,2.23-.18.56-.16,1.05-.24,1.52.2.91-.78-1.74-.42-1.22-.57-.21-.11-.04-.27.28-.39.32-.11.78-.17,1.1-.13.65.02,1.11.99,2.73.97-.16,0-.17.05-.33.05.61.2,1.19-.27,1.93.05.41-.47.97.03,1.08-.57l-1.49.14c.84-.16,1.63-.85,3.02-.51-.11.12-.52.28-.8.36.41.17.78-.12,1.2.06-.12.59-1.81.13-2.71.58.44.25,1.71-.43,1.26.21.65-.82,1.6.1,2.69-.52l-.07.36c.17-.06.53-.22.85-.21l-.58.46c.89-.39,1.71.34,2.57.13-1.78.01-.4-.43-1.16-.69,2.2-.48,1.27.93,3.73.76-.33.05-1.25-.21-.73-.38.47.07,1.09.21,1.37.4,1.63-.07-.25-.37.45-.59.55.43.8-.18,1.52-.32v.36c1.86.23.5-.75,2.18-.47l-.71.5.88-.13-.19.41c.95-.31,1.25-.23,2.18-.11-.21-.25.14-.67.92-.63.52.24-.31.33.79.34-.27.21-.55.48-1.01.12-.05.11-.25.21-.3.33.55.28,1.4.12,1.79.16-.15-.04-.32-.06-.41-.12.54-.14,1.07-.2,1.62-.31.23.17.01.25-.2.33.32.01.57-.15,1.03-.07-.18.28-.2.53-.86.59.51-.06.99-.02,1.49-.03.07.15.64.5.43.57.35.2.85.22,1.39.25.54.04,1.09.17,1.53.47.07-.03.2-.04.42.03.42.28.78.58,1.17.88.36.33.8.57,1.38.78l.15.83c.77.5-.25-1.09,1.05-.23.88.69-.04.61.11.99.56.17,1.6.6,1.82,1.68-.24-.24-.36-.47-.57-.69ZM60.12,20.79c-.09-.24-.34-.72-.14-.91.43.26.24.49.14.91ZM61.09,40.14c-.11-.19-.04-.47.1-.79.02.23,0,.5-.1.79ZM20.67,62.92s.02,0,.03-.02c.58.18.37.11-.03.02ZM19.47,62.68c-.13.04-.12.09-.08.15.09-.08.36-.07.67-.02-.08-.1-.23-.18-.6-.12ZM24.4.31l.23.09c-.5.1-.36,0-.23-.09Z" class="uuid-b3c87a4c-22b6-4518-9c99-060fa2212c72"></path><path d="M60.65,37.93c.06-.07.13-.09.2-.1-.06-.1-.13-.1-.2.1Z" class="uuid-b3c87a4c-22b6-4518-9c99-060fa2212c72"></path><path d="M51.03,5.59l-.03-.02s-.05.03-.06.05l.09-.03Z" class="uuid-b3c87a4c-22b6-4518-9c99-060fa2212c72"></path><path d="M37.37,59.86c.24.05.37.11.46.18.01-.09-.1-.16-.46-.18Z" class="uuid-b3c87a4c-22b6-4518-9c99-060fa2212c72"></path><path d="M12.92,61.89l.8.17c-.38-.11-.49-.23-.65-.35-.01.09.09.25-.15.17Z" class="uuid-b3c87a4c-22b6-4518-9c99-060fa2212c72"></path><path d="M8.23,56.58c-.11-.04-.17-.15-.28-.19l-.09.14c.35.31.67.42.37.05Z" class="uuid-b3c87a4c-22b6-4518-9c99-060fa2212c72"></path><path d="M12.66,60.51c.06-.31-.42-.41-.93-.58.03.01.06.02.09.04-.33.32.27.44.85.54Z" class="uuid-b3c87a4c-22b6-4518-9c99-060fa2212c72"></path><path d="M11.61,59.88c-.16-.06-.32-.12-.46-.2-.14.12.17.12.46.2Z" class="uuid-b3c87a4c-22b6-4518-9c99-060fa2212c72"></path><path d="M17.91,62.69c-.25-.12-.22.36-.35.22-.34.34,1.8-.2.35-.22Z" class="uuid-b3c87a4c-22b6-4518-9c99-060fa2212c72"></path><polygon points="12.66 59.41 12.68 59.83 13.06 59.67 12.66 59.41" class="uuid-b3c87a4c-22b6-4518-9c99-060fa2212c72"></polygon><path d="M16.47,60.91l-.79-.3c0,.06-.11.07-.25.07.5.13,1.03.34,1.03.22Z" class="uuid-b3c87a4c-22b6-4518-9c99-060fa2212c72"></path><path d="M15.44,60.68c-.26-.07-.51-.11-.67-.11.14.05.45.1.67.11Z" class="uuid-b3c87a4c-22b6-4518-9c99-060fa2212c72"></path><polygon points="13.74 59.72 13.95 59.87 14.49 60.08 13.74 59.72" class="uuid-b3c87a4c-22b6-4518-9c99-060fa2212c72"></polygon><path d="M25.33,61.66l.9-.09c.09-.13-.15-.21-.49-.17-.22.09-.55.13-.42.26Z" class="uuid-b3c87a4c-22b6-4518-9c99-060fa2212c72"></path><path d="M22.64,60.57c.24.08.25.17.39.3l.04-.46-.43.17Z" class="uuid-b3c87a4c-22b6-4518-9c99-060fa2212c72"></path><path d="M25.26,60.52c.09-.13,1.31-.35.17-.34-.09.13-.99.21-.17.34Z" class="uuid-b3c87a4c-22b6-4518-9c99-060fa2212c72"></path><polygon points="38.78 61.11 38.55 61.12 38.6 61.88 38.78 61.11" class="uuid-b3c87a4c-22b6-4518-9c99-060fa2212c72"></polygon><path d="M49.8,57.86c-.97.14-.05.52-.96.58-.16.24.74-.05.57.17.51-.35.81-.39.39-.75Z" class="uuid-b3c87a4c-22b6-4518-9c99-060fa2212c72"></path><path d="M49.41,58.61c-.08.06-.17.13-.25.21.15-.1.22-.16.25-.21Z" class="uuid-b3c87a4c-22b6-4518-9c99-060fa2212c72"></path><polygon points=".43 29.23 .27 29.92 .53 29.47 .43 29.23" class="uuid-b3c87a4c-22b6-4518-9c99-060fa2212c72"></polygon><path d="M.99,30.55l-.49.16.44.41c-.02-.16-.06-.46.05-.57Z" class="uuid-b3c87a4c-22b6-4518-9c99-060fa2212c72"></path><path d="M59.22,22.72l.12.05c.12-.11.13-.27.13-.59l-.25.54Z" class="uuid-b3c87a4c-22b6-4518-9c99-060fa2212c72"></path><polygon points="58.41 14.22 58.45 14.35 58.77 13.96 58.41 14.22" class="uuid-b3c87a4c-22b6-4518-9c99-060fa2212c72"></polygon><path d="M54.48,8.92c.17.2.45.36.62.57-.45-.36-.28-1.01-.62-.57Z" class="uuid-b3c87a4c-22b6-4518-9c99-060fa2212c72"></path><path d="M32.08,47.69c-.15-.02-.1.29-.12.35.26-.08.12-.43.12-.35Z" class="uuid-b3c87a4c-22b6-4518-9c99-060fa2212c72"></path><polygon points="34.45 46.8 34.43 46.93 34.73 46.57 34.45 46.8" class="uuid-b3c87a4c-22b6-4518-9c99-060fa2212c72"></polygon><path d="M36.62,46.33c-.35-.45-.75.28-1.19.19l-.09-.1-.08.46c.46-.19,1-.6,1.36-.55Z" class="uuid-b3c87a4c-22b6-4518-9c99-060fa2212c72"></path><path d="M38.16,47.01c-.15-.17.19-.26-.3.04.03.01.05.02.07.03.05-.02.11-.04.23-.07Z" class="uuid-b3c87a4c-22b6-4518-9c99-060fa2212c72"></path><path d="M37.93,47.08c-.23.1.22.11,0,0h0Z" class="uuid-b3c87a4c-22b6-4518-9c99-060fa2212c72"></path><path d="M38.95,46.53l-.22.31c.11.08.39-.02.33.11.27-.24.15-.32-.11-.42Z" class="uuid-b3c87a4c-22b6-4518-9c99-060fa2212c72"></path><path d="M39.06,46.04l-.12.14s.1.03.12-.14Z" class="uuid-b3c87a4c-22b6-4518-9c99-060fa2212c72"></path><path d="M38.69,46.49l.25-.3c-.08-.06-.15-.21-.12.12-.04-.16-.04.01-.13.18Z" class="uuid-b3c87a4c-22b6-4518-9c99-060fa2212c72"></path><path d="M38.48,46.5c-.21-.03-.45-.01-.23-.31-.54.28-.32.62.23.31Z" class="uuid-b3c87a4c-22b6-4518-9c99-060fa2212c72"></path><path d="M36.57,45.76c-.09-.03-.17-.05-.26-.08l-.14.22c.07-.1.46.03.39-.14Z" class="uuid-b3c87a4c-22b6-4518-9c99-060fa2212c72"></path><path d="M40.9,45.81c-.04-.11-.25-.2-.35-.32l-.14.24c.15,0,.39-.06.49.08Z" class="uuid-b3c87a4c-22b6-4518-9c99-060fa2212c72"></path><path d="M40.55,45.49l.2-.35c-.28.14-.29.25-.2.35Z" class="uuid-b3c87a4c-22b6-4518-9c99-060fa2212c72"></path><polygon points="38.86 45.48 38.51 46.1 38.95 45.43 38.86 45.48" class="uuid-b3c87a4c-22b6-4518-9c99-060fa2212c72"></polygon><polygon points="42.07 45.04 42.06 45.37 42.12 44.83 42.07 45.04" class="uuid-b3c87a4c-22b6-4518-9c99-060fa2212c72"></polygon><path d="M42.78,44.44c.02.27.4.15.36.36.17-.2.22-.49.25-.75-.09.21-.28.34-.61.39Z" class="uuid-b3c87a4c-22b6-4518-9c99-060fa2212c72"></path><path d="M43.47,43.65c-.04.11-.06.25-.08.4.05-.11.08-.24.08-.4Z" class="uuid-b3c87a4c-22b6-4518-9c99-060fa2212c72"></path><path d="M41.29,44.86c.06.04.21.16.41.1l-.3-.18s-.08.05-.12.08Z" class="uuid-b3c87a4c-22b6-4518-9c99-060fa2212c72"></path><path d="M41.39,44.78h0c.13-.08.22-.13.25-.16-.03.02-.11.07-.26.16Z" class="uuid-b3c87a4c-22b6-4518-9c99-060fa2212c72"></path><path d="M41.26,44.88l.03-.02s-.04-.02-.03.02Z" class="uuid-b3c87a4c-22b6-4518-9c99-060fa2212c72"></path><path d="M39.79,45.33c.09-.26.35-.64-.13-.67-.01.26.26.28.13.67Z" class="uuid-b3c87a4c-22b6-4518-9c99-060fa2212c72"></path><path d="M40.9,44.65c-.11.05-.23.09-.35.13.05.07.18.14.14.27.07-.13.15-.26.22-.4Z" class="uuid-b3c87a4c-22b6-4518-9c99-060fa2212c72"></path><polygon points="40.98 44.46 40.9 44.65 41.02 44.59 40.98 44.46" class="uuid-b3c87a4c-22b6-4518-9c99-060fa2212c72"></polygon><path d="M42.78,43.86c.03-.21.16-.34.29-.49-.2.1-.39.22-.55.36.04.1.09.3.26.13Z" class="uuid-b3c87a4c-22b6-4518-9c99-060fa2212c72"></path><path d="M42.1,44.3l.02-.04s-.05,0-.02.04Z" class="uuid-b3c87a4c-22b6-4518-9c99-060fa2212c72"></path><path d="M44.46,41.97s-.04,0-.07-.01l.04.04.03-.03Z" class="uuid-b3c87a4c-22b6-4518-9c99-060fa2212c72"></path><path d="M42.46,43.71c-.16.06-.18.18-.19.32.07-.1.15-.2.25-.3-.02-.04-.04-.07-.07-.02Z" class="uuid-b3c87a4c-22b6-4518-9c99-060fa2212c72"></path><path d="M43.78,43.16c-.1.02-.21.04-.33.07.13.02.36.01.33-.07Z" class="uuid-b3c87a4c-22b6-4518-9c99-060fa2212c72"></path><path d="M42.22,44.31v.03c.07.02.05,0,0-.03Z" class="uuid-b3c87a4c-22b6-4518-9c99-060fa2212c72"></path><path d="M42.22,44.31c.04-.09.04-.19.05-.28-.06.08-.11.16-.15.24.03,0,.07.02.1.04Z" class="uuid-b3c87a4c-22b6-4518-9c99-060fa2212c72"></path><path d="M43.23,40.21c.21.2.21.7-.27.72-.05.38.8.9,1.43,1.02-.09-.1-.17-.17-.08-.56-.19.01-.81.34-.81-.05.2-.43.32-.22.59-.29-.4-.09-.06-.8-.56-1.05l-.08.42c-.07-.05-.09-.24-.22-.21Z" class="uuid-b3c87a4c-22b6-4518-9c99-060fa2212c72"></path><path d="M43.89,42.45l-.08.14c.16-.09.33-.1.66-.11.07-.29.02-.4-.04-.48l-.54.52v-.07Z" class="uuid-b3c87a4c-22b6-4518-9c99-060fa2212c72"></path><path d="M43.33,43.08c-.13-.31,0-.67-.38-.76-.28.32-.03.4-.13.68.47-.53-.03.27.48.06-.07.13-.15.23-.23.32.12-.06.25-.1.38-.14h-.03s0,0,0,0h0c-.05-.01-.08-.02-.03-.03v-.02s-.04-.07-.05-.11c.2-.09.08.04.06.11l.03.04h0c.14-.2.26-.43.38-.64-.14.08-.25.23-.48.49Z" class="uuid-b3c87a4c-22b6-4518-9c99-060fa2212c72"></path><path d="M39.61,43.88s.04.03.06.05c.02-.06.02-.09-.06-.05Z" class="uuid-b3c87a4c-22b6-4518-9c99-060fa2212c72"></path><path d="M39.95,43.91c-.02.06.02.19-.14.24-.17-.01-.08-.13-.14-.22-.03.12-.17.37.17.35l.02-.06c.29-.04.81.12.8.17-.23-.2-.4-.34-.71-.49Z" class="uuid-b3c87a4c-22b6-4518-9c99-060fa2212c72"></path><path d="M41.6,43.52c.13-.15.23-.32.34-.49l-.39-.03.12.12c-.29.15-.11.26-.06.39Z" class="uuid-b3c87a4c-22b6-4518-9c99-060fa2212c72"></path><path d="M44.63,42.02l.2.28c-.04-.19-.09-.39-.14-.58l-.06.3Z" class="uuid-b3c87a4c-22b6-4518-9c99-060fa2212c72"></path><polygon points="45.08 41.37 45.3 41.58 45.29 41.3 45.08 41.37" class="uuid-b3c87a4c-22b6-4518-9c99-060fa2212c72"></polygon><path d="M25.89,20.55l-.08.14c.04-.06.07-.1.08-.14Z" class="uuid-b3c87a4c-22b6-4518-9c99-060fa2212c72"></path><path d="M26.8,20.11l-.04-.14c0,.09,0,.15.04.14Z" class="uuid-b3c87a4c-22b6-4518-9c99-060fa2212c72"></path><path d="M46.14,23.11c.11-.37.31-.86.05-.65l-.23.25c.14.13.18.27.19.4Z" class="uuid-b3c87a4c-22b6-4518-9c99-060fa2212c72"></path><path d="M35.2,17.48l.05.11c.08-.1.15-.18.22-.27-.08.05-.17.1-.26.16Z" class="uuid-b3c87a4c-22b6-4518-9c99-060fa2212c72"></path><path d="M34.78,18.78l-.23-.25c.05.08.12.17.23.25Z" class="uuid-b3c87a4c-22b6-4518-9c99-060fa2212c72"></path><path d="M22.14,24.37l.19.32c.13-.2-.06-.21-.19-.32Z" class="uuid-b3c87a4c-22b6-4518-9c99-060fa2212c72"></path><path d="M48.19,33.99c.16-.2.25-.37.29-.53-.23.25-.54.41-.29.53Z" class="uuid-b3c87a4c-22b6-4518-9c99-060fa2212c72"></path><path d="M24.64,17.29c-.07.11-.08.19-.04.25.07-.1.1-.19.04-.25Z" class="uuid-b3c87a4c-22b6-4518-9c99-060fa2212c72"></path><path d="M48.53,32.81s-.05.07-.08.11c.04.17.08.34.03.54.17-.18.26-.41.05-.65Z" class="uuid-b3c87a4c-22b6-4518-9c99-060fa2212c72"></path><path d="M25.05,41.73s.01.03.02.06c.03-.03.01-.05-.02-.06Z" class="uuid-b3c87a4c-22b6-4518-9c99-060fa2212c72"></path><path d="M29.86,47.11c-.07,0-.19-.01-.3-.03.05.03.14.04.3.03Z" class="uuid-b3c87a4c-22b6-4518-9c99-060fa2212c72"></path><path d="M46.91,38.75c-.06.16.02.04,0,0h0Z" class="uuid-b3c87a4c-22b6-4518-9c99-060fa2212c72"></path><path d="M45.42,38.85s-.05-.09-.11-.13c.06.05.1.09.11.13Z" class="uuid-b3c87a4c-22b6-4518-9c99-060fa2212c72"></path><path d="M46.56,31.17h0c-.06.03-.05.02,0,0Z" class="uuid-b3c87a4c-22b6-4518-9c99-060fa2212c72"></path><path d="M46.67,38.91c.06-.04.13-.09.18-.15-.04.02-.1.06-.18.15Z" class="uuid-b3c87a4c-22b6-4518-9c99-060fa2212c72"></path><path d="M46.82,38.95s-.07.08-.1.12c.04.04.08.04.1-.12Z" class="uuid-b3c87a4c-22b6-4518-9c99-060fa2212c72"></path><path d="M47,38.53c-.04.09-.09.16-.15.23.04-.02.06-.02.06-.01.02-.05.05-.11.09-.22Z" class="uuid-b3c87a4c-22b6-4518-9c99-060fa2212c72"></path><path d="M18.84,33.04s-.01.02-.03.03c.15.12.12.06.03-.03Z" class="uuid-b3c87a4c-22b6-4518-9c99-060fa2212c72"></path><path d="M41.08,22.17s.02,0,.02,0v-.02s-.02.02-.02.02Z" class="uuid-b3c87a4c-22b6-4518-9c99-060fa2212c72"></path><path d="M40.57,22.02c.42-.17.47-.04.53.12l.52-.8c-.36.22-.71.44-1.05.67Z" class="uuid-b3c87a4c-22b6-4518-9c99-060fa2212c72"></path><path d="M23.99,21.99h.43c.02.64-.28.68.2.8-.31-.39-.12-.63.12-.83.23-.2.46-.39.19-.83l.29.05c-.05.03-.03.08-.08.11.6.17-.15-.79.41-.95.21-.03.39.03.34.2l.25-.44c.12-.04.17.13.06.17.18-.13.37-.23.55-.35v.03c.02-.18.12-.5.18-.64.21.06-.04.14.05.23.08-.12.16-.26.25-.38.24.19.04.53-.19.61.69.8.18-.37,1.07-.04l-.27.23c.39.48.56.2,1,.43-.12-.16-.96-.63-.68-.99.13.04.27.02.42-.24.1.35.27.22.52.14l.1.47c.23-.2.15-.43.26-.68.31-.03.44.32.57.62.49.01-.44-.54.12-.71.44.14.68-.13,1.17-.44.31.15-.03.29.08.43l.24-.39c.06,0,.05.12.04.18.21-.16,0-.48.35-.62.04-.26.23-.09.46.1.22.2.47.39.7.1.1.14-.07.29-.05.48.61-.36.51-.27,1.07-.71l.37.38c-.24-.4.21-.76.66-1.04-.08-.19-.15-.36-.21-.44.22-.05.44-.11.66-.13.05.1-.05.24-.19.41.05-.03.09-.06.13-.08.17.23-.01.47-.21.69-.04-.11-.09-.23-.14-.34-.21.26-.4.56-.42.84.05-.05.12-.08.21-.1-.05.07-.09.14-.08.19,0,.05.09-.05.2-.14v.55s.08-.2.08-.2l.59.51c.63-.41,1.32-.95,2.24-.83-.35.26-.3.56-.5.98-.01-.54-.67-.03-1.02-.28.19.13.06.32-.01.37l.85-.15c-.16.34.04.31.14.55.18-.75.71-.2,1.1-.27-.1.23-.29.42-.59.21.09.68.9-.56,1.02.09-.08-.04-.1-.1-.2-.01.3-.08.66.36.43.48l-.08-.04c.49.36,1.47,1.08,1.97.65-.05.06-.56.53-.67.61.73-.32,1.48-.58,2.29-.81-.45.33-1.11,1.5-1.69,1.38.05.16.12.32.46.41,0-.13.4-.73.53-.67-.19.71-.06.43-.15,1.11,0-.19.74-.63.89-.43-.12.05-.64.56-.76.55.34-.04.69-.07,1.03-.08-.21-.03-.58.42-.69.67.1-.15.27.4.43.48l.02-.31c.28.58,1.36-.13,1.68.51-.2.01-1.03.37-.95.71.46-.11,2.16-.39,2.75.11l-.17.22c.15.12.32.23.46.36-.72-.08-2.33-.26-2.97-.36-.06.3-.23.19-.06.5-.16.21-.39-.02-.45-.1l.2.78c.46-.24.72.36,1.08.19-.25-.23-.56-.42-.84-.62.42-.25,1.57-.12,1.68.54-.14.22-.88.2-1.03.27.19,0,.5.42.4.51l-.34-.15c-.07.36.83.31.45.83,0,.15-.54.54-.24.5.51-.33,2.22-.83,2.68-.76-.02.07-.33.94-.61,1.16-.41.31-1.11-.18-1.46.09.14-.02.32.08.38.13-.1.17-.43,0-.32.31.51-.02.05.65.45.09.18.3-.04.35,0,.72.32-.15,1.13.26,1.29.62-.13-.02-.3.07-.37.1,0,.7-.31,1.05-.34,1.68-.12.05-.3.33-.51.18.08.1.23.2.21.39-.5.3,0-.43-.57-.22.29.06.32.53.46.84.46,0,.2-.62.06-.91.63.07,1.2.65,1.36,1.43.04.6-.45.15-.39.27-.4.97.86,1.21.09,1.92-.51.19-.76-.27-1.06-.29.03-.46.48-.56.54-.86l-.28.3c-.09-.18-.11-.49.05-.61-.39.17-.58,1.62-1.25,2.17.06.18.08.46.27.43l.06-.25c.4-.07.19.63.47.4.04.4.2.96-.24,1.28l-.44-.16c.12.06.41-.13.36-.32.06.28-.93.3-.54.82l.45-.12c0,.42.18,1.1-.24,1.37.5.1.02-.11.66-.07-.7-.13.67-1-.16-.98.7.04.55-.34,1.21-.48-.14-.06-.33,0-.08-.31-.03-.04-.06-.1-.08-.14,0,0,.01-.01.02-.02h-.03s-.02-.02,0,.02c-.1.05-.21.08-.29.07-.22-.34.06-.87,0-1.12.17-.17.12.16.32.12-.04-.13-.07-.26-.12-.39.32.11.74-.35.72.24l.2-.46c.28-.2.51-.56.45-.84.14-.21-.19-.68,0-.41v-.8s.09.01.09.01c.14-.36.05-.78.06-1.19,0-.41.09-.81.4-1.22-.07-.27-.15-.54-.03-.96l.3-.08c-.08-.33.27-1.02-.04-1.15.81-.41.02-1.66.07-2.26l-.38.05c-.05-.4-.26-.76-.53-1.2l-.32.12c-.34-.33-.09-1.09-.34-1.72.14,0,.16.17.13.31.23-.51-.06-.87-.4-1.17-.33-.31-.64-.59-.59-1.02-.2-.1-.23-.23-.22-.38,0,.01.02.02.04.03,0-.02-.02-.04-.03-.07,0-.1.02-.2.02-.31-.03.11-.05.21-.05.27-.08-.12-.22-.28-.4-.41l.26-.27s-.02-.02-.03-.04c0-.25-.23-.05-.4.19-.1-.06-.22-.09-.33-.1.38-.46-.47-.31-.1-.86-.16.04-.36-.14-.59-.28-.24-.13-.51-.22-.79-.05.06-.06.05-.13.12-.05-.09-.21-.19-.43-.45-.45l.27-.38c-.26.01-.52.04-.78.08-.01-.4,0-.6.47-.65-.9-.1-.57-.26-1.37-.25l.21-.21c-.18-.13-.7-.02-.65-.29-.02-.79-1.88-1.42-2.81-2.4-.13.89-.38-.6-.7.02,0-.22-.12-.39.14-.48-.68-.04-.82-.68-1.43-.24-.01-.22.22-.25.19-.39-.07.03-.25.12-.29-.02-.03-.14.14-.14.27-.2-.68-.15-.9.45-1.08,1.02-.24-.37-.42-.36-.73,0-.07-.21-.23-.44.19-.45-.21-.06-1.34-.52-1.41-.02-.06-.13-.31-.06-.37,0-.5-.06-.54-.1-1.04-.09l.14.09c-.2.56-.4.13-.79.21v-.06c-.91-.37-.36.19-1.29-.2l.09.35c.01.78-.83-.35-1.31.02l.22.18c-.22.29-.97-.86-1.31-.89-.08-.05.08-.13.15-.2-.88-.26.01.48-.52.72-.17-.22-.04-.66-.44-.6-.27-.12-.83,1.13-1.49.88.18.13.36.27.17.51-.32.23-1.33-.23-1.37.51-.07-.02-.11-.06-.14-.1-.2.3-.75.74-.72,1.11-.45-.45-.77-.03-1.03.35-.27.38-.45.78-.82.34l-.68.68-.06-.1c-.5.37-.44.74-.39,1.07-.15.05-.16-.1-.2-.15-.79.48-.79.64-.79,1.55l-.35-.16c.02.14-.29.31-.6.6-.31.29-.69.65-.68,1.16-.03-.03-.09-.08-.1-.17-.02.55-.55.94-.86,1.39-.32.43-.51.86.07,1.24.03.24.09.48.14.71.32-.75.53.28.83.03,0,.31-.6.66-.57.27l.08-.04c-.64-.33-.52.9-.96.78-.31,1.6-.77,3.17-.69,4.78l.52-.22.04.53c-.11.15-.4.24-.43-.15-.28.24.34.62.46.61-.12.79-.67-.2-.65.03l.08.32.05-.08c.26.22.48.2.56.66-.04.31-.29.22-.29.34-.04,0-.05.05.03.18l.12.69.35-.39c.27.24.16.61.53.18-.29.32-.15.94.06,1.51.25.56.56,1.06.51,1.24.46.24.68.57.9,1.03.01-.16.39-.47.56-.08-.94.42.08.88-.28,1.6.1-.28.31-.04.52.17.23.19.47.33.57-.07.18.32-.27.26-.27.62.85.41,1.15,1.61,2.12,2.21.09-.09.08-.36.38-.37l.06.88c.22.08.59-.49.66.1.01-.12.04-.3.18-.26.7.85,1.74,1.29,2.77,1.63.52.17,1.02.37,1.53.57.51.22.99.52,1.49.89-.25-.3-.05-.29.18-.26-.13-.09.06-.32.06-.5.26.21.54.44.82.63.22-.48.98.03,1.1-.43l-.29.07c.39-.54-.43-1.28-.29-1.99-.22.31-.44.05-.67-.2-.24-.25-.48-.46-.87-.06-.1-.17.16-.21.12-.38-.21.29-.41.28-.7.06l.06-.06c-.93-.17-1.22-.62-2.07-1.21l-.08.36c-.18-.15-.17-.27-.23-.39-.47.36.55.31.09.74.01-.4-.34-.58-.68-.77-.33-.19-.63-.44-.49-.83-.28-.19-.14.4-.43.21l.05-.23-.23.19c-.17-.16-.09-.47.01-.62.03.05.15.05.21.07-.07-.38-.69-.42-.71-.55l.17.31c-.9-.38-1.47-1.41-2.4-1.8l-.08.16c-.71-.35-.2-.56-.78-1.09h.05c-.23-.03-.42-.16-.51-.36.26.06.14-.52.45-.41-.67-.48-.41-.18-1.22-.33l.2-.24c-.3-.04-.42,0-.66-.33.35.19.28-.4.72-.21.2-.94-1.02-.89-.32-1.53-.86-.11-.17.8-.4.66-.17.26-.65-.1-.66-.38-.09-.27.8-.72.65-1.33.01.06.07.05.08.11.14-.27-.39-.4-.11-.74-.48-.08-.02-.38-.62-.34l.22.57c-.2-.3-.93-.54-.67-1.16.12.03.31.19.41.29.15-.18-.16-.3,0-.49.59,0,.23.71.71.99.23-.2-.51-.6.15-.51-.85-.16.02-.61-.6-1l.36.02c-.06-.06-.23-.2-.22-.33l.47.21c-.4-.34.31-.64.14-.96-.04.68-.44.14-.71.42-.44-.9.96-.46.85-1.39.04.13-.25.45-.4.24.08-.18.25-.4.46-.47.03-.62-.38.04-.55-.26.47-.14-.12-.34-.21-.65l.35.07c.37-.66-.7-.36-.26-.95l.41.4-.03-.36.38.18c-.19-.43-.1-.54.13-.83-.27,0-.6-.25-.49-.57.28-.13.28.24.4-.21.17.18.4.38.02.45.1.06.18.17.28.23.32-.13.26-.52.31-.67-.03.05-.08.11-.14.13-.08-.27-.16-.54-.2-.8.17-.04.23.09.29.2.02-.13-.09-.29-.02-.48.24.18.52.3.52.6l-.02-.69c.13.02.45-.11.5.01.32-.18-.06-.98.38-1.24-.03-.05-.05-.12-.02-.22.33-.29.78-.38.84-.99l.58.16c.18-.36-.75-.17-.44-.79.21-.47.43.19.65.18-.02-.33-.06-1.02.54-.97-.04.17-.18.18-.25.3ZM28.14,19.41c-.07.1-.17.39-.31.21-.03-.43.12-.27.31-.21ZM35.81,18.36c-.1.09-.2,0-.3-.16.1,0,.21.04.3.16ZM47.38,36.95v-.02c.22-.21.13-.13,0,.02ZM47.03,37.41c.03.07.07.09.13.08-.07-.07-.03-.19.05-.32-.1,0-.19.05-.18.23ZM16.73,35.04l.07-.13c.16.21.05.17-.07.13Z" class="uuid-b3c87a4c-22b6-4518-9c99-060fa2212c72"></path><path d="M34.83,18.63c-.02-.06-.01-.13,0-.2-.05.05-.06.12,0,.2Z" class="uuid-b3c87a4c-22b6-4518-9c99-060fa2212c72"></path><path d="M22.11,24.32h-.01s.03.04.04.06l-.03-.06Z" class="uuid-b3c87a4c-22b6-4518-9c99-060fa2212c72"></path><path d="M44.97,29.41c.04-.1.1-.16.16-.21-.09.01-.16.07-.16.21Z" class="uuid-b3c87a4c-22b6-4518-9c99-060fa2212c72"></path><path d="M46.18,40.36l.12-.36c-.08.16-.18.17-.28.22.08.04.22.05.16.15Z" class="uuid-b3c87a4c-22b6-4518-9c99-060fa2212c72"></path><path d="M42.57,41.33c0,.06-.06.08-.06.14l.13.11c.13-.16.13-.35-.06-.25Z" class="uuid-b3c87a4c-22b6-4518-9c99-060fa2212c72"></path><path d="M45,39.98c-.27-.15-.28.1-.39.31,0-.01.01-.02.03-.03.3.31.35.02.37-.28Z" class="uuid-b3c87a4c-22b6-4518-9c99-060fa2212c72"></path><path d="M44.58,40.34c-.03.07-.07.13-.13.18.12.12.08-.05.13-.18Z" class="uuid-b3c87a4c-22b6-4518-9c99-060fa2212c72"></path><path d="M46.94,38.15c-.12.07.32.23.18.24.29.28-.07-.92-.18-.24Z" class="uuid-b3c87a4c-22b6-4518-9c99-060fa2212c72"></path><polygon points="44.07 39.57 44.42 39.71 44.24 39.44 44.07 39.57" class="uuid-b3c87a4c-22b6-4518-9c99-060fa2212c72"></polygon><path d="M45.23,38.17l-.26.28c.06.03.07.08.07.15.11-.2.29-.38.19-.43Z" class="uuid-b3c87a4c-22b6-4518-9c99-060fa2212c72"></path><path d="M45.04,38.6c-.07.1-.12.2-.1.28.03-.06.1-.18.1-.28Z" class="uuid-b3c87a4c-22b6-4518-9c99-060fa2212c72"></path><polygon points="44.24 39.09 44.36 39.05 44.52 38.85 44.24 39.09" class="uuid-b3c87a4c-22b6-4518-9c99-060fa2212c72"></polygon><path d="M46.65,34.49l-.04-.42c-.12-.06-.22.03-.19.18.07.11.1.27.23.23Z" class="uuid-b3c87a4c-22b6-4518-9c99-060fa2212c72"></path><path d="M45.35,35.37c.1-.07.18-.06.32-.08l-.44-.14.13.22Z" class="uuid-b3c87a4c-22b6-4518-9c99-060fa2212c72"></path><path d="M45.53,34.29c-.12-.07-.28-.6-.32-.14.13.06.15.45.32.14Z" class="uuid-b3c87a4c-22b6-4518-9c99-060fa2212c72"></path><polygon points="46.13 28.62 46.16 28.71 46.9 28.55 46.13 28.62" class="uuid-b3c87a4c-22b6-4518-9c99-060fa2212c72"></polygon><path d="M42.65,24.86c.05.44.45-.17.44.27.21,0,0-.36.19-.35-.29-.12-.26-.29-.63.08Z" class="uuid-b3c87a4c-22b6-4518-9c99-060fa2212c72"></path><path d="M43.28,24.78s.1.04.17.05c-.08-.04-.13-.05-.17-.05Z" class="uuid-b3c87a4c-22b6-4518-9c99-060fa2212c72"></path><polygon points="31.03 47.65 31.36 47.83 31.16 47.56 31.03 47.65" class="uuid-b3c87a4c-22b6-4518-9c99-060fa2212c72"></polygon><path d="M31.7,47.12l.06.49.21-.43c-.07.02-.22.05-.27-.06Z" class="uuid-b3c87a4c-22b6-4518-9c99-060fa2212c72"></path><path d="M29.09,20.15v-.12c-.08-.11-.14-.11-.26-.1l.26.22Z" class="uuid-b3c87a4c-22b6-4518-9c99-060fa2212c72"></path><polygon points="25.85 21.12 25.91 21.1 25.59 20.78 25.85 21.12" class="uuid-b3c87a4c-22b6-4518-9c99-060fa2212c72"></polygon><path d="M23.99,23.27c.08-.07.11-.23.21-.29-.13.21-.62-.07-.21.29Z" class="uuid-b3c87a4c-22b6-4518-9c99-060fa2212c72"></path><path d="M32.21,39.1c.07.03.04-.28.05-.34-.11.06-.05.42-.05.34Z" class="uuid-b3c87a4c-22b6-4518-9c99-060fa2212c72"></path><polygon points="30.96 39.71 31 39.59 30.76 39.88 30.96 39.71" class="uuid-b3c87a4c-22b6-4518-9c99-060fa2212c72"></polygon><path d="M29.8,39.45c-.04.55.45.02.6.26v.13s.19-.4.19-.4c-.25,0-.66.21-.79,0Z" class="uuid-b3c87a4c-22b6-4518-9c99-060fa2212c72"></path><path d="M29.63,38.16c-.04.2-.18.13.1.1,0-.03,0-.04,0-.06-.02,0-.05-.02-.09-.05Z" class="uuid-b3c87a4c-22b6-4518-9c99-060fa2212c72"></path><path d="M29.72,38.21c.11.02,0-.19,0,0h0Z" class="uuid-b3c87a4c-22b6-4518-9c99-060fa2212c72"></path><path d="M29.21,38.12l.21-.11c.02-.13-.08-.2,0-.27-.17.03-.2.15-.21.37Z" class="uuid-b3c87a4c-22b6-4518-9c99-060fa2212c72"></path><path d="M28.92,38.41l.11-.04c0-.05,0-.08-.11.04Z" class="uuid-b3c87a4c-22b6-4518-9c99-060fa2212c72"></path><path d="M29.24,38.3l-.22.08c-.02.09-.09.25.09-.02-.08.14.02.01.12-.06Z" class="uuid-b3c87a4c-22b6-4518-9c99-060fa2212c72"></path><path d="M29.29,38.41c.03.14.1.26-.11.36.31.04.4-.32.11-.36Z" class="uuid-b3c87a4c-22b6-4518-9c99-060fa2212c72"></path><path d="M29.57,39.96l.08.19.16-.15c-.08.08-.2-.21-.24-.05Z" class="uuid-b3c87a4c-22b6-4518-9c99-060fa2212c72"></path><path d="M28.56,37.45c-.07.09-.12.28-.19.41l.16-.06c0-.1-.06-.21.02-.36Z" class="uuid-b3c87a4c-22b6-4518-9c99-060fa2212c72"></path><path d="M28.38,37.87l-.25.08c.12.1.19.03.25-.08Z" class="uuid-b3c87a4c-22b6-4518-9c99-060fa2212c72"></path><polygon points="28.63 38.93 29.07 38.69 28.57 38.91 28.63 38.93" class="uuid-b3c87a4c-22b6-4518-9c99-060fa2212c72"></polygon><polygon points="28.08 37.11 28.31 36.95 27.94 37.17 28.08 37.11" class="uuid-b3c87a4c-22b6-4518-9c99-060fa2212c72"></polygon><path d="M27.74,36.9c.19-.12.17-.34.31-.4-.1-.04-.29.05-.46.12.13-.01.18.06.15.28Z" class="uuid-b3c87a4c-22b6-4518-9c99-060fa2212c72"></path><path d="M27.31,36.71c.07,0,.17-.05.27-.09-.07,0-.15.03-.27.09Z" class="uuid-b3c87a4c-22b6-4518-9c99-060fa2212c72"></path><path d="M27.92,37.74c.03-.06.11-.23.08-.34l-.13.3.05.04Z" class="uuid-b3c87a4c-22b6-4518-9c99-060fa2212c72"></path><path d="M27.87,37.7h0c-.05-.06-.09-.09-.1-.11.01.01.04.05.1.11Z" class="uuid-b3c87a4c-22b6-4518-9c99-060fa2212c72"></path><path d="M27.93,37.75h-.01s-.02.03.01,0Z" class="uuid-b3c87a4c-22b6-4518-9c99-060fa2212c72"></path><path d="M28.35,38.46c-.17.1-.47.15-.42.5.18-.15.15-.35.42-.5Z" class="uuid-b3c87a4c-22b6-4518-9c99-060fa2212c72"></path><path d="M27.78,38.13c.04.06.08.11.12.16.04-.07.08-.19.17-.24-.1.03-.2.06-.29.08Z" class="uuid-b3c87a4c-22b6-4518-9c99-060fa2212c72"></path><polygon points="27.64 38.16 27.78 38.13 27.74 38.07 27.64 38.16" class="uuid-b3c87a4c-22b6-4518-9c99-060fa2212c72"></polygon><path d="M27.33,37.12c-.15.05-.22,0-.31-.04.03.11.09.21.17.28.08-.07.23-.17.14-.24Z" class="uuid-b3c87a4c-22b6-4518-9c99-060fa2212c72"></path><path d="M27.57,37.44h-.03s0,.04.03,0Z" class="uuid-b3c87a4c-22b6-4518-9c99-060fa2212c72"></path><polygon points="26.37 36.4 26.33 36.45 26.38 36.42 26.37 36.4" class="uuid-b3c87a4c-22b6-4518-9c99-060fa2212c72"></polygon><path d="M27.17,37.42c.02.1.1.07.2.03-.06-.01-.12-.04-.17-.08-.03.03-.06.05-.03.06Z" class="uuid-b3c87a4c-22b6-4518-9c99-060fa2212c72"></path><path d="M27.03,36.64c-.02.08-.03.15-.03.22.04-.1.1-.27.03-.22Z" class="uuid-b3c87a4c-22b6-4518-9c99-060fa2212c72"></path><path d="M27.57,37.36h.02c.02-.07,0-.04-.02,0Z" class="uuid-b3c87a4c-22b6-4518-9c99-060fa2212c72"></path><path d="M27.57,37.36c-.06.01-.14.06-.2.09.05.01.11,0,.17,0,0-.02.02-.06.03-.08Z" class="uuid-b3c87a4c-22b6-4518-9c99-060fa2212c72"></path><path d="M24.58,37.44c.25-.17.59-.14.5.22.31,0,.94-.75,1.25-1.21-.1.08-.19.16-.44.12-.1.16-.01.57-.33.62-.3-.1-.06-.24-.02-.44-.22.32-.63.06-1.04.43l.31.09c-.06.06-.23.07-.24.17Z" class="uuid-b3c87a4c-22b6-4518-9c99-060fa2212c72"></path><path d="M26.55,36.72l.08.03c-.02-.1.03-.22.13-.45-.19.01-.29.06-.37.12l.22.29h-.05Z" class="uuid-b3c87a4c-22b6-4518-9c99-060fa2212c72"></path><path d="M26.85,36.99c-.27.19-.49.15-.66.48.18.16.31-.08.5-.08-.33-.18.2-.06.13-.37.09,0,.15.03.2.06-.02-.07-.03-.15-.03-.22v.02s0,0,0,0h0s-.03.06-.03.04h0s-.06.05-.1.08c-.02-.12.04-.07.1-.08l.04-.03h0c-.12-.04-.24-.09-.36-.13.02.08.09.15.23.24Z" class="uuid-b3c87a4c-22b6-4518-9c99-060fa2212c72"></path><path d="M27.39,39.44s.02-.05.03-.07c-.04.02-.07.04-.03.07Z" class="uuid-b3c87a4c-22b6-4518-9c99-060fa2212c72"></path><path d="M27.34,39.19c.05-.02.14-.12.21-.04.02.13-.08.13-.13.22.1-.04.3-.09.22-.32l-.05.02c-.08-.18-.03-.62.02-.64-.13.27-.21.46-.27.76Z" class="uuid-b3c87a4c-22b6-4518-9c99-060fa2212c72"></path><path d="M26.95,38.14c-.12-.02-.23-.06-.35-.09l-.05.33.1-.14c.1.18.2-.02.3-.1Z" class="uuid-b3c87a4c-22b6-4518-9c99-060fa2212c72"></path><polygon points="26.47 36.27 26.75 36.08 26.28 36.26 26.47 36.27" class="uuid-b3c87a4c-22b6-4518-9c99-060fa2212c72"></polygon><polygon points="26.21 36 26.46 35.83 26.26 35.86 26.21 36" class="uuid-b3c87a4c-22b6-4518-9c99-060fa2212c72"></polygon><path d="M37.95,21.72h.15c-.06-.02-.11-.01-.15,0Z" class="uuid-b3c87a4c-22b6-4518-9c99-060fa2212c72"></path><path d="M37.15,21.3l-.08.12c.07-.06.11-.1.08-.12Z" class="uuid-b3c87a4c-22b6-4518-9c99-060fa2212c72"></path><path d="M25.74,27.51c.3.04.72.17.43,0l-.29-.15c0,.1-.06.14-.14.15Z" class="uuid-b3c87a4c-22b6-4518-9c99-060fa2212c72"></path><path d="M30.34,22.17l-.06-.09c-.01.12-.03.22-.04.33.03-.08.06-.15.1-.24Z" class="uuid-b3c87a4c-22b6-4518-9c99-060fa2212c72"></path><path d="M30.21,20.83l.26.17c-.06-.06-.15-.12-.26-.17Z" class="uuid-b3c87a4c-22b6-4518-9c99-060fa2212c72"></path><path d="M41.87,24.84l.36-.05c-.13-.21-.22-.02-.36.05Z" class="uuid-b3c87a4c-22b6-4518-9c99-060fa2212c72"></path><path d="M24.62,32.59c.11-.12.15-.21.15-.28-.16.14-.42.29-.15.28Z" class="uuid-b3c87a4c-22b6-4518-9c99-060fa2212c72"></path><path d="M36.07,24.62c.07-.03.12-.07.15-.14-.07.02-.13.06-.15.14Z" class="uuid-b3c87a4c-22b6-4518-9c99-060fa2212c72"></path><path d="M24.75,32.01s-.05.04-.07.06c.06.07.1.14.09.24.13-.11.21-.21-.02-.3Z" class="uuid-b3c87a4c-22b6-4518-9c99-060fa2212c72"></path><path d="M38.65,40.86s-.04,0-.06-.01c.02.04.04.03.06.01Z" class="uuid-b3c87a4c-22b6-4518-9c99-060fa2212c72"></path><path d="M33.37,39.41s.09-.04.15-.05c-.03-.02-.08,0-.15.05Z" class="uuid-b3c87a4c-22b6-4518-9c99-060fa2212c72"></path><path d="M25.56,34.67c.05.06.04,0,0,0h0Z" class="uuid-b3c87a4c-22b6-4518-9c99-060fa2212c72"></path><path d="M24.6,35.64s-.09.01-.15.04c.07-.03.12-.04.15-.04Z" class="uuid-b3c87a4c-22b6-4518-9c99-060fa2212c72"></path><path d="M22.71,31.18h0c-.06.02-.05.01,0,0Z" class="uuid-b3c87a4c-22b6-4518-9c99-060fa2212c72"></path><path d="M25.48,34.85s.04-.09.04-.13c-.02.03-.03.07-.04.13Z" class="uuid-b3c87a4c-22b6-4518-9c99-060fa2212c72"></path><path d="M25.61,34.76s0,.05,0,.07c.05-.02.08-.04,0-.07Z" class="uuid-b3c87a4c-22b6-4518-9c99-060fa2212c72"></path><path d="M25.49,34.59s.03.08.03.13c.01-.02.03-.04.04-.04-.01-.02-.03-.04-.06-.09Z" class="uuid-b3c87a4c-22b6-4518-9c99-060fa2212c72"></path><path d="M42.58,32.77s-.02.01-.03.02c.12.12.1.07.03-.02Z" class="uuid-b3c87a4c-22b6-4518-9c99-060fa2212c72"></path><polygon points="24.74 23.46 24.74 23.48 24.76 23.47 24.74 23.46" class="uuid-b3c87a4c-22b6-4518-9c99-060fa2212c72"></polygon><path d="M24.89,23c.13.43.03.45-.12.48l.73.61c-.21-.35-.41-.72-.6-1.08Z" class="uuid-b3c87a4c-22b6-4518-9c99-060fa2212c72"></path><path d="M39.79,22.89l-.04-.43c.59-.13.7.2.74-.32-.67.72-1.05-.7-1.68.12l-.04-.29s.08,0,.12.04c-.05-.64-.64.46-.97.1-.1-.15-.14-.34.02-.39l-.44.04c-.09-.06.01-.21.1-.15l-.55-.16.02-.03c-.14.11-.4.27-.52.33-.07-.19.1-.07.12-.2-.12.03-.25.07-.37.12-.02-.29.31-.45.49-.32.1-1.07-.33.14-.73-.63l.33-.02c0-.61-.3-.49-.55-.95.05.21.41,1.09,0,1.22-.07-.1-.18-.19-.41-.03.1-.35-.11-.31-.33-.34l.13-.46c-.28.08-.31.32-.49.5-.25-.11-.24-.48-.25-.8-.43-.14.2.63-.33.65-.33-.22-.61-.09-1.05.18-.23-.18.06-.29-.01-.43l-.24.37c-.05-.01-.03-.13-.02-.19-.19.14-.04.48-.32.6-.07.51-.58-.79-.92-.16-.1-.13.03-.3,0-.48-.47.42-.41.3-.74.88l-.37-.26c.3.32.05.79-.13,1.17.11.16.2.3.26.36-.11.11-.22.2-.32.32-.06-.07-.06-.24-.04-.45-.02.05-.03.09-.04.13-.17-.14-.17-.43-.12-.71.07.08.14.17.2.26.04-.3.08-.63.01-.91-.02.06-.06.11-.12.15.01-.08.02-.15,0-.2-.02-.05-.05.06-.1.2l-.21-.5.02.21-.65-.18c-.28.61-.34,1.51-.8,1.91-.02-.42-.22-.6-.39-1.03.35.39.4-.37.76-.4-.18.01-.22-.21-.2-.3l-.43.63c-.13-.35-.23-.23-.44-.29.41.64-.21.65-.32.96-.13-.22-.19-.47.11-.55-.56-.35,0,.96-.48.7.06-.04.11-.03.07-.16-.03.28-.47.34-.51.11l.06-.04c-.49.15-1.24.86-.88,1.38-.06-.06-.44-.63-.5-.75.22.74.5,1.47.82,2.15-.32-.45-1.44-1.19-1.35-1.69-.14.02-.32.06-.36.37.11-.01.7.42.66.53-.63-.22-.36-.09-1-.16.17-.01.71.67.58.77-.08-.1-.65-.54-.67-.65.11.31.21.59.35.89-.05-.18-.54-.47-.8-.52.16.06-.26.33-.27.48l.28-.05c-.43.36.67,1.09.4,1.46-.12-.13-.84-.68-1.07-.5.29.33,1.56,1.46,1.73,1.91l-.26-.04c.05.13.08.24.14.37-.55-.38-1.55-1.47-1.84-2.06-.27.09-.29-.09-.4.2-.26,0-.24-.31-.21-.41l-.46.62c.47.18.23.72.65.85-.09-.31-.12-.6-.17-.92.47.21,1.08.98.87,1.37-.23.04-.81-.4-.97-.45.14.13.15.56.02.56l-.18-.29c-.28.22.48.63-.06.82-.06.1-.71.18-.43.27.61-.06,2.34.36,2.73.56-.04.01-.66.34-.94.42-.47.1-1.02-.44-1.42-.37.13.03.29.16.34.21-.13.1-.41-.12-.39.15.5.12-.12.51.41.18.11.26-.15.24-.15.54.33-.06,1.11.34,1.25.55-.13-.02-.3.03-.38.05-.08.46-.26.72-.25,1.16-.12.05-.26.29-.48.22.09.06.28.1.31.23-.39.33-.12-.31-.61-.03.3-.02.47.32.68.48.44-.14.01-.46-.21-.64.63-.07,1.34.17,1.69.5.21.28-.37.23-.27.26.07.64,1.18.2.91.79-.31.32-.75.28-1.01.42-.25-.22.1-.49.04-.66l-.12.28c-.15-.04-.3-.21-.22-.34-.32.29.26,1.09.19,1.69.16.03.36.11.47-.03l-.12-.12c.23-.27.54.07.59-.17.31.08.69.11.68.43l-.37.28c.11-.08.13-.29-.02-.29.23,0-.3.7.28.49l.17-.34c.31.04.81-.02.84.23.31-.35-.08-.01.27-.44-.47.49-.27-.49-.74.07.44-.47.05-.37.43-.82-.13.08-.22.2-.24,0-.04.01-.1.02-.14.03v-.02s0,.02,0,.02c-.02,0-.03,0,0,0-.04.07-.09.14-.16.19-.35.08-.48-.21-.7-.23.01-.14.18-.03.3-.15-.11,0-.21-.02-.31-.04.3-.15.41-.49.69-.33l-.07-.22c.13-.19.13-.38-.04-.44.04-.12-.43-.15-.15-.14l-.3-.29.08-.02c-.03-.34-.71-.65-.13-1.13-.09-.11-.2-.23-.12-.44l.29-.04c-.11-.15.31-.44,0-.52.77-.11.24-.68.41-.93l-.37-.08c.06-.17,0-.36-.09-.63l-.33-.07c-.23-.29.4-.45.46-.76.11.07.05.13-.04.16.41-.05.36-.27.3-.52-.06-.24-.16-.53.19-.54-.06-.13,0-.17.11-.18,0,0,0,.02,0,.03,0,0,.02-.02.02-.03.07,0,.15,0,.21-.01-.09-.01-.16-.02-.21,0,.03-.06.05-.17.03-.3l.32.16s0-.01,0-.02c.16,0-.1-.16-.35-.27-.02-.08-.05-.15-.1-.23.53.27,0-.34.57-.06-.21-.25.14-.54-.29-1.01.06.05.12.05.08.1.14-.04.27-.08.21-.29l.36.28c-.09-.21-.17-.41-.25-.62.32.09.47.17.6.53-.09-.65.07-.35-.02-.98l.17.24c.08-.08,0-.51.2-.35.51.28,1.14-.66,1.96-.45-.46-.76.42.25.2-.38.11.18.23.26.2.46.24-.3.53.14.59-.45.09.19.02.31.08.42.01-.05.05-.2.11-.09.06.11,0,.18-.02.28.28-.11.17-.74.07-1.33.24.23.31.18.37-.22.1.18.23.37.03.47.13.01.75.17.72-.3.05.12.17.03.2-.03.28.02.3.06.58,0l-.08-.07c.11-.59.24-.12.46-.19v.06c.48.45.24-.2.7.32v-.36c.15-.76.41.52.73.26l-.07-.22c.23-.25.24,1.13.34,1.25.02.07-.07.09-.13.13.26.53.15-.45.47-.49-.02.26-.23.61-.06.7,0,.22.77-.61.86-.06.02-.21.03-.41.22-.49.23.03.2.9.64.43,0,.06-.02.11-.04.16.21-.06.57.03.84-.21-.26.56,0,.58.3.58.29,0,.57,0,.2.45l.4.27-.09.08c.17.26.42.16.71.05,0,.11-.12.14-.17.18.15.49.17.48.88.47l-.28.25c.26-.03-.14.85.44,1.03-.04.02-.11.04-.17.03.29.13.21.5.15.79-.05.29-.01.48.67.38.14.08.27.16.41.25,0-.48.58-.08.76-.33.12.18-.28.58-.4.37l.06-.05c-.71.09-.1.62-.59.7.2.87-.2,1.75-.29,2.52l.56-.04c-.02.1-.05.19-.07.29-.14.06-.44.04-.39-.15-.32.06.21.36.33.39-.27.36-.61-.25-.64-.13l.02.16.07-.03c.2.16.45.22.36.45-.14.13-.35,0-.38.06-.04,0-.06,0-.04.08l-.12.32.45-.02c.17.21-.1.33.41.29-.39.03-.58.31-.68.62-.12.3-.21.6-.34.62.2.35.06.54-.11.76.11-.01.55.2.37.39-.79-.6-.62.15-1.31-.14.49.16-.3.58.39.81-.2.1-.3-.23-.58-.28-.01.61-.86.55-1.19.96.07.11.27.21.29.44-.22-.11-.42-.23-.63-.35-.04.11.35.7-.08.42.08.08.21.2.17.27-.65.03-1.07.4-1.6.66-.26.13-.53.25-.84.24-.3.01-.61-.07-.94-.34.19.23.1.27-.02.3.08.05.05.32.09.5-.19-.14-.37-.27-.55-.42-.04.5-.51.07-.54.54l.15-.1c-.19.57.39,1.22.43,1.94.19-.63.88.84,1.2-.13.13.13-.04.24.04.4.06-.32.18-.41.48-.35v.08c.71-.25,1.09-.07,2-.22l-.2-.3c.19-.04.27.05.39.09-.03-.58-.49.2-.55-.43.52.56,1.15-.54,1.7.05.26-.15-.29-.31-.04-.45l.19.15-.09-.28c.19-.05.42.11.53.26-.05,0-.08.13-.12.16.36.07.53-.51.65-.49l-.31.06c.54-.62,1.45-1.14,1.61-2.02l-.17-.06c.12-.63.42-.25.69-.85l.02.04c-.06-.19-.05-.38.05-.52.09.24.48-.06.56.23.03-.72-.05-.41-.43-1.05l.29.04c-.17-.23-.29-.3-.23-.6.12.32.47,0,.64.38.86-.39-.23-1.12.72-1.12-.64-.51-.59.41-.69.19-.28.04-.47-.41-.33-.57.08-.17,1.03-.05,1.15-.59-.02.05.04.07.02.12.23-.16-.16-.43.18-.62-.44-.21.07-.31-.51-.44l.07.49c-.11-.3-.77-.63-.38-1.01.11.04.25.19.33.29.19-.11-.07-.26.11-.37.6.09.06.59.46.95.27-.11-.35-.62.27-.39-.78-.31.17-.53-.44-.94l.35.04c-.05-.06-.22-.19-.2-.29l.45.21c-.38-.31.38-.58.14-.88.03.61-.42.14-.68.39-.49-.7.92-.43.71-1.28.06.11-.19.45-.36.28.07-.16.19-.38.35-.51-.15-.55-.35.13-.6-.08.4-.24-.21-.25-.38-.45l.36-.06c.13-.66-.77-.02-.61-.61l.54.12-.2-.26.42-.04c-.38-.25-.31-.36-.29-.7-.22.14-.64.15-.74-.1.14-.24.36-.01.18-.36.24,0,.54,0,.29.28.12-.02.24.01.36,0,.17-.28-.12-.52-.18-.66,0,.06.01.13-.02.18-.22-.13-.44-.25-.68-.35.09-.14.22-.12.35-.09-.09-.09-.27-.1-.37-.24.29-.08.56-.22.79-.05l-.54-.38c.1-.09.19-.43.31-.41-.02-.38-.89-.4-.92-.87-.06.01-.13,0-.22-.04-.18-.34-.09-.89-.73-.96l.21-.55c-.34-.19-.24.71-.8.41-.4-.19.21-.43.2-.65-.35.04-.97.21-.99-.37.16,0,.19.14.3.19ZM35.85,20.98c.1-.05.34-.21.33,0-.23.36-.23.15-.33,0ZM29.64,21.62c.03-.13.13-.1.26.01-.06.05-.15.05-.26-.01ZM24.95,34h-.02c.09-.17.05-.11.02,0ZM24.9,34.31c.06,0,.1-.01.15-.04-.09.02-.12-.04-.12-.11-.08.05-.13.11-.02.16ZM40.01,33.37l.1-.03c.07.15-.01.09-.1.03Z" class="uuid-b3c87a4c-22b6-4518-9c99-060fa2212c72"></path><path d="M30.22,20.98c.03.06.05.12.07.19.02-.06,0-.13-.07-.19Z" class="uuid-b3c87a4c-22b6-4518-9c99-060fa2212c72"></path><path d="M41.8,24.85h0s.04,0,.06-.01h-.07Z" class="uuid-b3c87a4c-22b6-4518-9c99-060fa2212c72"></path><path d="M21.43,29.63c.06-.07.13-.1.21-.12-.09-.02-.17,0-.21.12Z" class="uuid-b3c87a4c-22b6-4518-9c99-060fa2212c72"></path><path d="M26.09,35.28l-.17-.09c.06.06,0,.12-.02.19.07-.05.16-.14.19-.1Z" class="uuid-b3c87a4c-22b6-4518-9c99-060fa2212c72"></path><path d="M25.32,37.94c.05,0,.05.04.1.04l.12-.12c-.1-.09-.26-.06-.22.09Z" class="uuid-b3c87a4c-22b6-4518-9c99-060fa2212c72"></path><path d="M25.16,36.07c-.24.18-.1.23.03.31,0,0-.01-.01-.01-.02.37-.21.17-.24-.01-.29Z" class="uuid-b3c87a4c-22b6-4518-9c99-060fa2212c72"></path><path d="M25.22,36.4s.07.05.08.09c.15-.09,0-.06-.08-.09Z" class="uuid-b3c87a4c-22b6-4518-9c99-060fa2212c72"></path><path d="M25.22,34.55c-.04.08.37-.13.27-.05.38-.1-.59-.15-.27.05Z" class="uuid-b3c87a4c-22b6-4518-9c99-060fa2212c72"></path><polygon points="24.39 36.73 24.67 36.47 24.38 36.57 24.39 36.73" class="uuid-b3c87a4c-22b6-4518-9c99-060fa2212c72"></polygon><path d="M24.04,35.59v.26c.06-.03.11-.02.15,0-.05-.13-.05-.31-.15-.25Z" class="uuid-b3c87a4c-22b6-4518-9c99-060fa2212c72"></path><path d="M24.19,35.84c.02.07.08.12.15.13-.02-.03-.08-.1-.15-.13Z" class="uuid-b3c87a4c-22b6-4518-9c99-060fa2212c72"></path><polygon points="24.12 36.51 24.15 36.41 24.09 36.26 24.12 36.51" class="uuid-b3c87a4c-22b6-4518-9c99-060fa2212c72"></polygon><path d="M23.28,33.25l-.15-.23c-.13,0-.2.08-.13.16.1.04.16.13.28.06Z" class="uuid-b3c87a4c-22b6-4518-9c99-060fa2212c72"></path><path d="M22.49,34.28c.06-.09.13-.12.24-.2l-.45.12.21.08Z" class="uuid-b3c87a4c-22b6-4518-9c99-060fa2212c72"></path><path d="M22.18,33.51c-.13,0-.43-.34-.34.02.13,0,.28.26.34-.02Z" class="uuid-b3c87a4c-22b6-4518-9c99-060fa2212c72"></path><polygon points="22.76 29.44 22.75 29.5 23.5 29.65 22.76 29.44" class="uuid-b3c87a4c-22b6-4518-9c99-060fa2212c72"></polygon><path d="M22.58,25.21c-.35.22.35.33-.01.49.11.17.3-.13.38.03-.05-.29.1-.33-.37-.52Z" class="uuid-b3c87a4c-22b6-4518-9c99-060fa2212c72"></path><path d="M22.95,25.73s.02.1.04.15c0-.08-.02-.12-.04-.15Z" class="uuid-b3c87a4c-22b6-4518-9c99-060fa2212c72"></path><polygon points="32.72 39.06 32.55 38.91 32.67 39.16 32.72 39.06" class="uuid-b3c87a4c-22b6-4518-9c99-060fa2212c72"></polygon><path d="M32.43,39.65l-.06-.48-.09.45s.11-.07.15.04Z" class="uuid-b3c87a4c-22b6-4518-9c99-060fa2212c72"></path><path d="M35.48,19.85l-.05.11c0,.13.06.15.17.2l-.12-.31Z" class="uuid-b3c87a4c-22b6-4518-9c99-060fa2212c72"></path><polygon points="38.45 21.46 38.4 21.42 38.27 21.85 38.45 21.46" class="uuid-b3c87a4c-22b6-4518-9c99-060fa2212c72"></polygon><path d="M41.07,22.78c-.07-.11-.24-.13-.32-.22.26.12-.05.63.32.22Z" class="uuid-b3c87a4c-22b6-4518-9c99-060fa2212c72"></path><path d="M53.27,14.48s.19-.22.23-.26c-.08.03-.27.32-.23.26Z" class="uuid-b3c87a4c-22b6-4518-9c99-060fa2212c72"></path><polygon points="52.49 14.77 52.58 14.68 52.33 14.88 52.49 14.77" class="uuid-b3c87a4c-22b6-4518-9c99-060fa2212c72"></polygon><path d="M52.18,14.5c-.32.44.17.03.1.22l-.07.1.3-.31c-.11,0-.39.14-.34-.01Z" class="uuid-b3c87a4c-22b6-4518-9c99-060fa2212c72"></path><path d="M52.77,13.49c-.13.17-.15.1,0,.08.01-.02.02-.03.03-.05,0,0-.02-.01-.02-.04Z" class="uuid-b3c87a4c-22b6-4518-9c99-060fa2212c72"></path><path d="M52.79,13.52s.09-.15,0,0h0Z" class="uuid-b3c87a4c-22b6-4518-9c99-060fa2212c72"></path><path d="M52.57,13.48l.17-.1c.07-.1.05-.15.13-.21-.11.04-.18.14-.29.31Z" class="uuid-b3c87a4c-22b6-4518-9c99-060fa2212c72"></path><path d="M52.27,13.74l.07-.04s.04-.06-.07.04Z" class="uuid-b3c87a4c-22b6-4518-9c99-060fa2212c72"></path><path d="M52.5,13.62l-.16.08c-.05.07-.16.2.06-.03-.11.12,0,0,.1-.06Z" class="uuid-b3c87a4c-22b6-4518-9c99-060fa2212c72"></path><path d="M52.47,13.7c-.05.11-.07.19-.23.29.13.02.36-.28.23-.29Z" class="uuid-b3c87a4c-22b6-4518-9c99-060fa2212c72"></path><path d="M51.8,14.91l-.07.15.15-.11c-.07.06.03-.17-.08-.04Z" class="uuid-b3c87a4c-22b6-4518-9c99-060fa2212c72"></path><path d="M52.49,13.04c-.08.08-.19.24-.28.35l.12-.07c.04-.07.05-.15.16-.28Z" class="uuid-b3c87a4c-22b6-4518-9c99-060fa2212c72"></path><path d="M52.2,13.39l-.18.1c.03.06.1,0,.18-.1Z" class="uuid-b3c87a4c-22b6-4518-9c99-060fa2212c72"></path><polygon points="51.87 14.18 52.22 13.94 51.85 14.17 51.87 14.18" class="uuid-b3c87a4c-22b6-4518-9c99-060fa2212c72"></polygon><polygon points="52.32 12.87 52.52 12.7 52.2 12.95 52.32 12.87" class="uuid-b3c87a4c-22b6-4518-9c99-060fa2212c72"></polygon><path d="M52.16,12.79c.17-.14.22-.3.33-.38-.06,0-.22.11-.36.21.09-.04.1,0,.02.17Z" class="uuid-b3c87a4c-22b6-4518-9c99-060fa2212c72"></path><path d="M51.93,12.76s.13-.08.21-.14c-.05.02-.11.06-.21.14Z" class="uuid-b3c87a4c-22b6-4518-9c99-060fa2212c72"></path><path d="M51.98,13.38c.04-.05.16-.19.18-.28l-.2.25.02.02Z" class="uuid-b3c87a4c-22b6-4518-9c99-060fa2212c72"></path><path d="M51.96,13.37h0s-.02-.05-.03-.06c0,0,0,.02.02.06Z" class="uuid-b3c87a4c-22b6-4518-9c99-060fa2212c72"></path><path d="M51.99,13.38h0s-.03.03,0,0Z" class="uuid-b3c87a4c-22b6-4518-9c99-060fa2212c72"></path><path d="M51.93,13.85c-.15.11-.33.2-.46.45.17-.15.24-.29.46-.45Z" class="uuid-b3c87a4c-22b6-4518-9c99-060fa2212c72"></path><path d="M51.74,13.7v.1c.06-.06.13-.16.21-.22l-.21.12Z" class="uuid-b3c87a4c-22b6-4518-9c99-060fa2212c72"></path><polygon points="51.65 13.75 51.74 13.7 51.74 13.66 51.65 13.75" class="uuid-b3c87a4c-22b6-4518-9c99-060fa2212c72"></polygon><path d="M51.82,13.07c-.12.08-.15.07-.19.06-.01.07,0,.13.03.15.07-.07.21-.19.17-.21Z" class="uuid-b3c87a4c-22b6-4518-9c99-060fa2212c72"></path><path d="M51.87,13.23h-.02s-.02.04.02,0Z" class="uuid-b3c87a4c-22b6-4518-9c99-060fa2212c72"></path><polygon points="51.35 12.87 51.31 12.92 51.35 12.88 51.35 12.87" class="uuid-b3c87a4c-22b6-4518-9c99-060fa2212c72"></polygon><path d="M51.62,13.33c-.02.07.05.02.13-.04-.04,0-.07,0-.09,0-.03.03-.05.05-.04.05Z" class="uuid-b3c87a4c-22b6-4518-9c99-060fa2212c72"></path><path d="M51.75,12.8c-.03.06-.06.11-.08.17.06-.08.14-.22.08-.17Z" class="uuid-b3c87a4c-22b6-4518-9c99-060fa2212c72"></path><path d="M51.91,13.17s.01,0,.01,0c.04-.06.02-.03-.01,0Z" class="uuid-b3c87a4c-22b6-4518-9c99-060fa2212c72"></path><path d="M51.91,13.17s-.1.07-.16.12c.03,0,.07-.02.11-.05.01-.02.03-.05.05-.07Z" class="uuid-b3c87a4c-22b6-4518-9c99-060fa2212c72"></path><path d="M49.89,14.33c.19-.23.44-.37.28-.09.2-.12.82-.87,1.14-1.32-.09.09-.16.19-.35.25-.07.16-.12.4-.35.56-.17.05,0-.14.07-.29-.21.31-.46.31-.78.76l.18-.09c-.05.06-.16.15-.2.22Z" class="uuid-b3c87a4c-22b6-4518-9c99-060fa2212c72"></path><path d="M51.39,13.03h.05c0-.07.07-.17.19-.38-.13.07-.22.15-.28.22l.08.13-.04.03Z" class="uuid-b3c87a4c-22b6-4518-9c99-060fa2212c72"></path><path d="M51.54,13.11c-.23.22-.38.28-.58.57.08.04.23-.16.36-.23-.16-.03.15-.11.2-.31.06-.02.09-.02.11-.01,0-.05.02-.1.05-.16v.02s-.01,0-.01,0h0s-.04.06-.03.04h0s-.06.06-.09.09c.02-.08.05-.07.09-.09l.03-.04h0s-.22.03-.22.03c0,.05.02.07.1.09Z" class="uuid-b3c87a4c-22b6-4518-9c99-060fa2212c72"></path><path d="M50.96,14.77s.03-.04.05-.06c-.03.02-.05.04-.05.06Z" class="uuid-b3c87a4c-22b6-4518-9c99-060fa2212c72"></path><path d="M51.04,14.59s.13-.12.13-.07c-.04.09-.1.11-.17.19.07-.05.21-.13.27-.28l-.04.03c.03-.12.25-.47.29-.49-.18.23-.31.39-.48.63Z" class="uuid-b3c87a4c-22b6-4518-9c99-060fa2212c72"></path><path d="M51.23,13.91l-.19.04-.15.25.11-.13c0,.09.13-.07.23-.16Z" class="uuid-b3c87a4c-22b6-4518-9c99-060fa2212c72"></path><path d="M51.44,12.74l.24-.24c-.12.11-.26.19-.39.29l.15-.05Z" class="uuid-b3c87a4c-22b6-4518-9c99-060fa2212c72"></path><polygon points="51.24 12.61 51.43 12.39 51.27 12.48 51.24 12.61" class="uuid-b3c87a4c-22b6-4518-9c99-060fa2212c72"></polygon><path d="M47.13,15.99l.07-.04-.07.04Z" class="uuid-b3c87a4c-22b6-4518-9c99-060fa2212c72"></path><path d="M47.05,15.84l-.12.08c.07-.04.12-.07.12-.08Z" class="uuid-b3c87a4c-22b6-4518-9c99-060fa2212c72"></path><path d="M46.06,11.93c-.19-.21-.47-.54-.31-.25l.17.28c.02-.08.07-.07.13-.03Z" class="uuid-b3c87a4c-22b6-4518-9c99-060fa2212c72"></path><path d="M45.12,15.39l.08.06c-.07-.09-.13-.17-.19-.25.03.06.07.12.11.19Z" class="uuid-b3c87a4c-22b6-4518-9c99-060fa2212c72"></path><path d="M46.01,16.4l-.2-.1c.06.04.13.08.2.1Z" class="uuid-b3c87a4c-22b6-4518-9c99-060fa2212c72"></path><path d="M47.62,16.06l.17-.32s-.09.16-.17.32Z" class="uuid-b3c87a4c-22b6-4518-9c99-060fa2212c72"></path><path d="M49.18,11.39c-.04-.15-.08-.22-.12-.25.05.21.05.51.12.25Z" class="uuid-b3c87a4c-22b6-4518-9c99-060fa2212c72"></path><path d="M44.29,17.95c.07,0,.13-.04.19-.08-.06,0-.12.03-.19.08Z" class="uuid-b3c87a4c-22b6-4518-9c99-060fa2212c72"></path><path d="M48.88,11.1s.02.05.02.08c.05-.04.11-.08.16-.04-.03-.16-.09-.26-.19-.05Z" class="uuid-b3c87a4c-22b6-4518-9c99-060fa2212c72"></path><path d="M49.58,15.46s.02.01.03.02c-.03-.04-.03-.04-.03-.02Z" class="uuid-b3c87a4c-22b6-4518-9c99-060fa2212c72"></path><path d="M52.61,17.35s-.02.04-.03.05c.02.01.03,0,.03-.05Z" class="uuid-b3c87a4c-22b6-4518-9c99-060fa2212c72"></path><path d="M50.55,11.85c.05.01.02-.03,0,0h0Z" class="uuid-b3c87a4c-22b6-4518-9c99-060fa2212c72"></path><path d="M50.09,13.13s-.05.06-.09.13c.04-.07.07-.11.09-.13Z" class="uuid-b3c87a4c-22b6-4518-9c99-060fa2212c72"></path><path d="M48.31,13.06h0c0,.07,0,.06,0,0Z" class="uuid-b3c87a4c-22b6-4518-9c99-060fa2212c72"></path><path d="M50.54,12.04s0-.09,0-.13c0,.03,0,.07,0,.13Z" class="uuid-b3c87a4c-22b6-4518-9c99-060fa2212c72"></path><path d="M50.6,11.89s.02.04.02.06c.03-.04.04-.08-.02-.06Z" class="uuid-b3c87a4c-22b6-4518-9c99-060fa2212c72"></path><path d="M50.48,11.83s.04.04.05.08c0-.03,0-.05.02-.05-.02,0-.04-.02-.07-.03Z" class="uuid-b3c87a4c-22b6-4518-9c99-060fa2212c72"></path><path d="M48.36,17.35s0,.02,0,.03c0-.15-.01-.13,0-.03Z" class="uuid-b3c87a4c-22b6-4518-9c99-060fa2212c72"></path><polygon points="47.27 15.3 47.26 15.28 47.25 15.28 47.27 15.3" class="uuid-b3c87a4c-22b6-4518-9c99-060fa2212c72"></polygon><path d="M47.39,15.51c-.26-.31-.21-.29-.14-.24l-.64-.68c.25.31.52.62.79.92Z" class="uuid-b3c87a4c-22b6-4518-9c99-060fa2212c72"></path><path d="M47.33,16.1l.19-.24c.35-.34.23-.22.51-.54-.7.77-.08.06-.83.76l.15-.16s.04-.03.04-.02c.35-.34-.57.47-.5.31.05-.07.16-.17.26-.23l-.23.11s.16-.12.15-.1c-.04-.01-.1-.05-.15-.07l.03-.02c-.14.07-.38.17-.48.21.1-.12.1-.05.2-.13l-.25.07c.2-.18.45-.27.45-.2.79-.65-.25.09.13-.4h.15c.44-.38.23-.31.47-.61-.14.13-.63.69-.89.75.05-.07.05-.12-.14-.04.3-.21.19-.2.14-.24l.39-.28c-.15.02-.35.17-.55.26-.01-.09.28-.33.52-.53-.02-.16-.42.43-.59.35.08-.2-.13-.15-.44-.08.08-.17.24-.17.33-.28l-.34.18s.09-.09.14-.12c-.16.04-.38.3-.54.3-.3.23.07-.2.1-.36l-.16,1.95c.06.01.08-.03,0-.18.11.08.18.23.31.37-.13-.41-.08-.31-.34-.79l.29.16c-.3-.21-.51-.6-.7-.9-.14-.11-.26-.21-.32-.25l-.09-.27c.06.05.17.18.29.33-.02-.03-.04-.07-.06-.1.15.1.33.31.49.53-.08-.06-.16-.12-.24-.18.18.23.37.49.57.69-.03-.05-.05-.09-.06-.13.05.06.09.12.13.15.04.03-.02-.05-.09-.16l.39.37-.14-.16.36.12c-.28-.48-.76-1.12-.79-1.4.24.31.45.46.77.79-.39-.31.04.25-.1.26.07,0,.22.17.27.23l-.19-.45c.27.27.23.17.37.25-.56-.51-.26-.45-.37-.66.18.17.35.37.25.39.47.33-.54-.71-.13-.44-.01.02-.05,0,.04.1-.12-.19.08-.15.22.02v.02c.15-.04.28-.28-.15-.75.06.06.52.57.61.66-.45-.56-.9-1.12-1.28-1.74.35.42,1.23,1.39,1.38,1.67.07.05.14.1.04-.07-.06-.05-.53-.59-.54-.64.43.44.24.22.6.6-.08-.08-.58-.79-.53-.8.07.11.48.7.54.78-.15-.25-.29-.5-.41-.76.06.15.39.61.53.81-.09-.14.05-.02.02-.11l-.12-.16c.12.07-.51-1.13-.37-1.18.06.18.45,1.03.53,1.1-.19-.42-.76-2.06-.69-2.47l.11.22.03-.33c.08.65.43,2.13.62,2.66.1.17.12.28.14.24.1.22.12.35.12.37.04.04.07.08.1.12-.18-.51-.12-.54-.25-.98.02.2.05.4.09.58-.2-.49-.44-1.48-.3-1.45.08.2.24.95.29,1.12-.05-.18-.03-.38,0-.26l.04.3c.07.19-.1-.74.05-.25.03.03.15.7.11.37-.06-.31-.17-.96-.28-1.58-.11-.63-.19-1.14-.2-1.38.03.03.28.49.34.76.08.45.05,1.22.14,1.63-.02-.15-.02-.35-.01-.42.03.11.03.4.06.41,0,0,0,0,.01-.01-.03-.58.09.03-.01-.49.04-.18.06.11.11.07-.03-.38.05-1.3.14-1.41,0,.13,0,.29,0,.38.15.07.19.35.3.4,0,.14.01.33-.05.57.03-.09.07-.28.11-.28-.04.51-.08.04-.14.65.06-.33.15-.42.24-.6.1-.5-.09-.15-.16.03.11-.73.32-1.32.57-1.53.17-.09-.05.43,0,.35.18.22.54-.96.61-.39-.07.44-.3.76-.39,1.05-.13.09-.03-.33-.1-.36v.23c-.06.11-.15.17-.14.04-.07.39.28.29.25.7.08-.11.19-.2.25-.36l-.07.02c.1-.33.3-.34.31-.52.17-.15.44-.4.45-.15l-.23.41c.07-.12.08-.29-.02-.19.16-.14-.2.64.18.18l.11-.33c.2-.14.59-.44.61-.23.23-.4-.05.02.19-.47-.32.59-.27-.27-.55.4.26-.59.01-.33.17-.87-.07.14-.11.29-.17.14-.03.03-.06.08-.09.1v-.02s0,.02,0,.02c-.02.02-.02.02,0,0-.01.08-.03.16-.07.24-.22.27-.34.16-.47.29-.02-.1.1-.14.14-.31l-.19.2c.14-.31.09-.62.3-.71l-.12-.1c0-.23-.09-.36-.2-.27-.04-.11-.28.27-.14.05-.09.03-.18.06-.27.1l.02-.08c-.21-.14-.51.37-.66-.29-.09.07-.17.15-.28.04v-.29c-.1.08-.29-.31-.35,0-.08-.59-.34-.39-.53-.28-.06.04-.11.06-.16.04l.04.38c-.12,0-.22.14-.33.34l.07.33c-.05.31-.33-.14-.5-.02-.02-.13.03-.12.08-.06-.45-.64-.25.75-.61.33,0,.14-.04.12-.11.07,0,0,0-.01,0-.02,0,0-.01,0-.02,0-.04-.04-.09-.09-.14-.12.06.06.1.11.13.13-.03.03-.06.1-.08.21l-.19-.31s0,0,0,.02c-.12-.08.04.18.19.41,0,.07.02.15.04.24-.33-.48-.01.26-.39-.24.13.28-.11.39.25.92-.05-.07-.08-.09-.07-.11-.09-.02-.18-.04-.1.14l-.3-.34c.09.19.19.38.3.56-.23-.17-.37-.26-.54-.58.22.54,0,.28.28.76l-.2-.22s.2.37.01.22c-.47-.33-.4.29-.94.08.65.59-.35-.2.12.29-.16-.14-.26-.2-.36-.35.06.23-.35-.11-.01.35-.15-.14-.19-.23-.29-.31.02.04.1.15,0,.07-.09-.08-.11-.14-.16-.21-.05.1.38.57.78,1.01-.24-.16-.23-.12,0,.2-.15-.13-.31-.26-.31-.36-.05,0-.37-.05-.05.31-.09-.08-.06,0-.04.06-.05.02-.09.02-.12.04l-.7.51.58.94s.02.02.05.03l.04-.07c.46-.35.14-.03.24-.02l-.05.04c-.23.38.2-.07-.08.35l.28-.23c.63-.46-.27.39.02.29l.14-.15c.25-.11-.76.74-.81.84-.05.05-.1.05-.15.06-.29.38.39-.26.54-.24-.2.16-.54.35-.54.44-.15.14.79-.31.45.06.15-.13.3-.26.45-.3.1.03-.49.59.07.32-.04.04-.07.08-.11.11.18-.02.38.08.66-.1-.45.43-.25.46-.06.43.19-.02.37-.07-.02.36.07.06.14.11.21.16l-.08.09c.07.19.28.02.48-.17-.02.09-.1.16-.14.21.03.36.1.37.52-.02l-.17.35c.13-.16,0,.76.39.49-.02.04-.05.1-.09.14.2-.14.24.19.34.38.09.2.22.26.42-.38.08-.09.16-.18.23-.29-.17-.13.15-.57.12-.8.07-.07.1.42,0,.48v-.07c-.17.69.2.28.13.74.05,0,.09,0,.14,0,.37.02.76.26,1.16.16l-.12-.54.13-.02c.06.11.13.41.02.43.11.29.12-.33.1-.45.24.14.05.67.11.66l.08-.07-.03-.06c.02-.25-.03-.49.09-.52.1.07.13.31.16.32.01.04.03.05.05,0l.19-.04-.2-.38c0-.24.15-.06-.07-.49.36.67.67-.09.83.08-.06-.34.02-.39.16-.44-.08-.05-.36-.45-.25-.46.56.84.39.26.87.8-.33-.35.14-.25-.35-.74.11.02.23.3.41.46-.09-.42.46-.02.55-.25-.08-.11-.22-.25-.3-.44l.48.47c0-.08-.42-.64-.09-.31-.07-.08-.18-.21-.19-.26.7.29.38-.92,1.38-.13-.19-.18-.17-.22-.14-.26-.06-.04-.18-.27-.28-.42l.41.33c-.24-.43.13-.12-.11-.53v.1c-.24-.51-.75-1-1.13-1.6.28.58-.71-.66-.33.18-.11-.1-.11-.21-.21-.34.14.28.14.35,0,.29l-.04-.07c-.15.19-.4,0-.73-.02l.22.28c-.07,0-.15-.09-.22-.15.26.48.14-.06.44.45-.48-.55-.32.21-.84-.42-.07.05.26.32.19.36l-.15-.17.15.24c-.07,0-.26-.22-.37-.37.02.01,0-.06,0-.09-.21-.17-.11.19-.18.13l.15.06c-.06.3-.45.23-.35.71l.11.13c.05.34-.21-.07-.27.14l-.02-.04c.07.15.07.26.04.25-.09-.18-.25-.29-.35-.49.11.33.12.24.37.82l-.15-.23c.1.24.16.35.14.46-.07-.24-.22-.36-.32-.67-.33-.51.11.67-.27-.16.23.77.24.36.27.53.13.22.18.57.1.53-.05.01-.4-.92-.45-.88,0,0,0-.06,0-.06-.07-.19.02.3-.09-.01.09.49-.04,0,.07.62l.05-.18c0,.18.08.94-.07.63-.01-.13-.01-.31-.01-.41-.05-.18-.02.15-.08-.04-.08-.64.07-.18.01-.68-.06-.26.02.49-.08-.2.12.88-.06-.09-.03.61l-.04-.39c0,.06,0,.25-.01.25l-.02-.52c0,.45-.07-.36-.08-.12.05-.03.03.48.07.76-.1.57-.08-1.03-.13-.82,0-.06.03.24,0,.43-.02-.08-.03-.23-.02-.45-.05.09-.02.42-.06.68,0-.27,0-.18-.03-.02-.02.13-.05.31-.08.39l.05-.42c-.04-.27-.15.88-.19.55l.13-.58-.06.15.09-.47c-.1.35-.1.26-.1.11-.06.29-.18.75-.23.74.04-.25.12-.38.05-.35.09-.25.18-.56.1-.18.04-.13.07-.25.11-.39.06-.28-.02-.08-.03-.08,0,.02,0,.04-.02.1-.07.18-.15.35-.24.52.04-.15.09-.27.14-.38-.02.04-.1.21-.13.23.12-.31.25-.62.31-.78-.05.11-.1.22-.16.32.05-.14.14-.38.19-.49.08-.18-.3.55-.22.29-.03.05-.06.1-.09.14,0-.09.2-.43-.06-.1l.31-.47c-.09.08-.39.59-.55.71-.14.1.28-.38.36-.51-.17.21-.57.59-.3.23.08-.06.03,0,.06-.02ZM46.71,15.63c.08-.02.3-.12.13.02-.35.22-.2.09-.13-.02ZM45.73,15.78c.07.1,0,.08-.11,0,0-.04.02-.05.11,0ZM49.96,11.81v.02c-.03-.17-.02-.11,0-.02ZM50.04,12.05s.05-.09.07-.14c-.05.08-.08.06-.1.02-.03.1-.04.17.04.12ZM49.23,19.66l-.05-.08c.03-.13.04-.03.05.08Z" class="uuid-b3c87a4c-22b6-4518-9c99-060fa2212c72"></path><path d="M45.91,16.29s-.09-.09-.14-.14c.03.05.08.1.14.14Z" class="uuid-b3c87a4c-22b6-4518-9c99-060fa2212c72"></path><polygon points="47.59 16.12 47.59 16.12 47.62 16.06 47.59 16.12" class="uuid-b3c87a4c-22b6-4518-9c99-060fa2212c72"></polygon><path d="M48.05,14.73c-.02-.06-.03-.13-.04-.2,0,.1.02.18.04.2Z" class="uuid-b3c87a4c-22b6-4518-9c99-060fa2212c72"></path><path d="M51.07,12.06h-.14c.05.02.03.1.01.17.05-.07.1-.19.13-.17Z" class="uuid-b3c87a4c-22b6-4518-9c99-060fa2212c72"></path><path d="M50.25,14.32s.02.01.06-.02l.11-.13s-.15.06-.17.14Z" class="uuid-b3c87a4c-22b6-4518-9c99-060fa2212c72"></path><path d="M50.46,13.12c-.17.25-.07.2,0,.2,0,0,0,0,0,0,.27-.33.13-.26,0-.19Z" class="uuid-b3c87a4c-22b6-4518-9c99-060fa2212c72"></path><path d="M50.48,13.32s.04,0,.05.03c.11-.13,0-.04-.05-.03Z" class="uuid-b3c87a4c-22b6-4518-9c99-060fa2212c72"></path><path d="M50.29,11.98c0,.09.19-.34.16-.22.2-.33-.41.29-.16.22Z" class="uuid-b3c87a4c-22b6-4518-9c99-060fa2212c72"></path><polygon points="49.91 13.97 50.11 13.65 49.91 13.88 49.91 13.97" class="uuid-b3c87a4c-22b6-4518-9c99-060fa2212c72"></polygon><path d="M49.75,13.48v.14c.04-.06.07-.08.09-.1-.03-.04-.04-.15-.09-.05Z" class="uuid-b3c87a4c-22b6-4518-9c99-060fa2212c72"></path><path d="M49.85,13.52s.04.03.09-.01c-.01,0-.04-.02-.09.01Z" class="uuid-b3c87a4c-22b6-4518-9c99-060fa2212c72"></path><polygon points="49.76 13.99 49.79 13.91 49.77 13.85 49.76 13.99" class="uuid-b3c87a4c-22b6-4518-9c99-060fa2212c72"></polygon><path d="M49.04,12.89l-.1.06c-.04.12-.03.21,0,.18.04-.08.08-.11.1-.24Z" class="uuid-b3c87a4c-22b6-4518-9c99-060fa2212c72"></path><path d="M48.94,14.07c.01-.09.04-.18.07-.31l-.15.48.08-.17Z" class="uuid-b3c87a4c-22b6-4518-9c99-060fa2212c72"></path><path d="M48.76,14.08c-.04.13-.16.36-.1.36.04-.14.12-.22.1-.36Z" class="uuid-b3c87a4c-22b6-4518-9c99-060fa2212c72"></path><polygon points="47.8 13.33 47.82 13.32 47.72 12.53 47.8 13.33" class="uuid-b3c87a4c-22b6-4518-9c99-060fa2212c72"></polygon><path d="M47.79,15.53c.11.15-.21-.44-.08-.25-.07-.18-.11-.16-.17-.31.06.19,0,.1.25.56Z" class="uuid-b3c87a4c-22b6-4518-9c99-060fa2212c72"></path><path d="M47.53,14.97s-.02-.07-.04-.12c.01.05.03.09.04.12Z" class="uuid-b3c87a4c-22b6-4518-9c99-060fa2212c72"></path><polygon points="53.01 17.58 53.14 17.69 52.98 17.49 53.01 17.58" class="uuid-b3c87a4c-22b6-4518-9c99-060fa2212c72"></polygon><path d="M52.8,17.05l.27.4-.2-.39s0,.08-.07-.01Z" class="uuid-b3c87a4c-22b6-4518-9c99-060fa2212c72"></path><path d="M47.4,14.9l-.1.06c-.1.08-.09.1-.09.14l.19-.2Z" class="uuid-b3c87a4c-22b6-4518-9c99-060fa2212c72"></path><polygon points="47.52 15.72 47.53 15.71 47.19 15.99 47.52 15.72" class="uuid-b3c87a4c-22b6-4518-9c99-060fa2212c72"></polygon><path d="M47.97,15.38s-.05.06-.04.05c.05-.06-.31.41.04-.05Z" class="uuid-b3c87a4c-22b6-4518-9c99-060fa2212c72"></path></svg>